<svg width="128" height="128" viewBox="0 0 128 128" fill="none" xmlns="http://www.w3.org/2000/svg">
<mask id="mask0_54_73" style="mask-type:luminance" maskUnits="userSpaceOnUse" x="8" y="8" width="113" height="113">
<path d="M94 8H34.004C19.6424 8 8 19.6424 8 34.004V94C8 108.362 19.6424 120.004 34.004 120.004H94C108.362 120.004 120.004 108.362 120.004 94V34.004C120.004 19.6424 108.362 8 94 8Z" fill="white"/>
</mask>
<g mask="url(#mask0_54_73)">
<path d="M94 8H34.004C19.6424 8 8 19.6424 8 34.004V94C8 108.362 19.6424 120.004 34.004 120.004H94C108.362 120.004 120.004 108.362 120.004 94V34.004C120.004 19.6424 108.362 8 94 8Z" fill="url(#paint0_linear_54_73)"/>
<path d="M94 8H34.004C19.6424 8 8 19.6424 8 34.004V94C8 108.362 19.6424 120.004 34.004 120.004H94C108.362 120.004 120.004 108.362 120.004 94V34.004C120.004 19.6424 108.362 8 94 8Z" fill="url(#paint1_linear_54_73)"/>
<ellipse cx="91.4056" cy="34.7556" rx="10.672" ry="14.1259" fill="url(#paint2_linear_54_73)"/>
<path d="M89.2463 33.385V33.385C94.8987 34.3903 98.6658 39.7875 97.6605 45.4398L96.8684 49.8932L86.6339 48.0728L89.2463 33.385Z" fill="url(#paint3_linear_54_73)"/>
<path d="M38.3466 33.3829V33.3829C32.7512 34.668 29.257 40.2457 30.5421 45.8411L31.5546 50.2496L41.6859 47.9227L38.3466 33.3829Z" fill="#99C1F1"/>
<path d="M93.3099 34.8C93.3099 40.2909 90.5131 44.8077 86.8447 44.8077C83.1762 44.8077 86.3133 39.7031 86.3133 35.1542C86.3133 30.6054 89.3245 28.4234 90.6529 28.4234C91.0957 28.4234 91.5269 28.7312 91.8585 29.0034C93.3098 30.1946 93.3099 31.7593 93.3099 34.8Z" fill="url(#paint4_linear_54_73)"/>
<ellipse cx="10.672" cy="14.1259" rx="10.672" ry="14.1259" transform="matrix(-1 0 0 1 47.4756 21.1316)" fill="url(#paint5_linear_54_73)"/>
<path d="M34.8994 35.3019C34.8994 40.7928 37.6961 45.3096 41.3646 45.3096C45.033 45.3096 41.8959 40.205 41.8959 35.6561C41.8959 31.1072 38.8847 28.9253 37.5563 28.9253C37.1135 28.9253 36.6824 29.233 36.3507 29.5053C34.8994 30.6965 34.8994 32.2612 34.8994 35.3019Z" fill="url(#paint6_linear_54_73)"/>
<path d="M63.9947 24.0228C64.0245 24.0134 64.0541 24.0041 64.0836 23.9949V24.0512C65.7469 24.5849 67.7246 25.4263 69.7707 26.2966C73.6078 27.9289 77.6853 29.6635 80.3794 29.6635C81.3053 29.6635 82.2963 32.5578 83.3182 35.5427C84.3124 38.4466 85.336 41.4361 86.3575 41.9296C91.5828 44.4536 96.0995 50.6974 96.1438 53.6643C96.1537 54.3293 96.7969 55.2663 97.6251 56.4726C99.1252 58.6579 101.232 61.7271 101.281 65.6647C101.421 77.058 96.1836 93.031 91.9813 93.031C91.3378 93.031 89.2562 94.1162 86.3428 95.635C80.6053 98.6262 71.6417 103.299 64.0836 104.677V104.709C64.0544 104.704 64.0251 104.698 63.9958 104.693C63.966 104.698 63.9363 104.704 63.9065 104.709V104.677C56.3485 103.299 47.385 98.626 41.6474 95.6348C38.734 94.116 36.6523 93.0307 36.0089 93.0307C31.8066 93.0307 26.5695 77.0577 26.7097 65.6645C26.7581 61.7268 28.865 58.6577 30.3651 56.4724C31.1932 55.2661 31.8365 54.3291 31.8464 53.664C31.8907 50.6972 36.4074 44.4534 41.6327 41.9293C42.6542 41.4359 43.6778 38.4463 44.672 35.5424C45.6939 32.5576 46.6848 29.6632 47.6108 29.6632C50.3049 29.6632 54.3824 27.9287 58.2195 26.2964C60.2655 25.426 62.2433 24.5847 63.9065 24.0509V23.9951C63.9358 24.0043 63.9652 24.0135 63.9947 24.0228Z" fill="#F6F5F4"/>
<path d="M63.9175 97.3482C63.9662 97.3051 64.0203 97.2607 64.0837 97.2607C64.1472 97.2607 64.2012 97.3051 64.25 97.3482C65.1517 98.086 68.0209 100.285 72.1825 99.0657C75.5305 98.085 77.5162 94.4572 77.9607 93.5648C78.0113 93.4631 78.1437 93.4276 78.2396 93.4885C79.0771 94.0211 82.6867 96.0046 87.045 93.8108C90.7182 91.9619 91.6326 87.9805 91.8125 86.9391C91.8338 86.816 91.9706 86.7423 92.0877 86.7855C92.8066 87.0508 95.0404 87.5961 97.1016 85.1715C99.8385 81.9521 98.6489 78.1972 98.4601 77.6649C99.4992 79.3199 100.484 81.6979 100.484 85.2605C100.477 86.103 100.354 87.0083 100.222 87.9809L100.217 88.0216C99.902 90.3373 98.169 92.742 96.4786 93.8108C97.1906 95.6812 96.6716 96.7885 95.9447 97.6407C95.0547 98.6839 93.6307 99.3329 91.6728 97.9969C90.8718 100.491 89.1809 102.369 86.511 103.697C83.8411 105.026 79.7472 104.837 76.9883 102.094C76.9621 102.125 76.9358 102.156 76.9095 102.188C76.8855 102.216 76.8614 102.245 76.8372 102.274C75.9011 103.394 74.8294 104.677 71.1145 104.677H57.053C53.3381 104.677 52.2663 103.394 51.3303 102.274C51.2796 102.213 51.2294 102.153 51.1792 102.094C48.4203 104.837 44.3264 105.026 41.6565 103.697C38.9866 102.369 37.2956 100.491 36.4947 97.9969C34.5367 99.3329 33.1128 98.6839 32.2228 97.6407C31.4959 96.7885 30.9769 95.6812 31.6888 93.8108C29.9984 92.742 28.2655 90.3373 27.951 88.0216L27.9454 87.9808C27.8133 87.0083 27.6903 86.103 27.684 85.2605C27.684 81.6979 28.6683 79.3199 29.7073 77.6649C29.5186 78.1972 28.329 81.9521 31.0659 85.1715C33.1271 87.5961 35.3609 87.0508 36.0798 86.7855C36.1969 86.7423 36.3337 86.816 36.355 86.9391C36.5349 87.9805 37.4493 91.9619 41.1225 93.8108C45.4807 96.0046 49.0903 94.0211 49.9279 93.4885C50.0237 93.4276 50.1561 93.4631 50.2068 93.5648C50.6513 94.4572 52.6369 98.085 55.985 99.0657C60.1466 100.285 63.0158 98.086 63.9175 97.3482Z" fill="#99C1F1"/>
<path d="M63.9175 97.3482C63.9662 97.3051 64.0203 97.2607 64.0837 97.2607C64.1472 97.2607 64.2012 97.3051 64.25 97.3482C65.1517 98.086 68.0209 100.285 72.1825 99.0657C75.5305 98.085 77.5162 94.4572 77.9607 93.5648C78.0113 93.4631 78.1437 93.4276 78.2396 93.4885C79.0771 94.0211 82.6867 96.0046 87.045 93.8108C90.7182 91.9619 91.6326 87.9805 91.8125 86.9391C91.8338 86.816 91.9706 86.7423 92.0877 86.7855C92.8066 87.0508 95.0404 87.5961 97.1016 85.1715C99.8385 81.9521 98.6489 78.1972 98.4601 77.6649C99.4992 79.3199 100.484 81.6979 100.484 85.2605C100.477 86.103 100.354 87.0083 100.222 87.9809L100.217 88.0216C99.902 90.3373 98.169 92.742 96.4786 93.8108C97.1906 95.6812 96.6716 96.7885 95.9447 97.6407C95.0547 98.6839 93.6307 99.3329 91.6728 97.9969C90.8718 100.491 89.1809 102.369 86.511 103.697C83.8411 105.026 79.7472 104.837 76.9883 102.094C76.9621 102.125 76.9358 102.156 76.9095 102.188C76.8855 102.216 76.8614 102.245 76.8372 102.274C75.9011 103.394 74.8294 104.677 71.1145 104.677H57.053C53.3381 104.677 52.2663 103.394 51.3303 102.274C51.2796 102.213 51.2294 102.153 51.1792 102.094C48.4203 104.837 44.3264 105.026 41.6565 103.697C38.9866 102.369 37.2956 100.491 36.4947 97.9969C34.5367 99.3329 33.1128 98.6839 32.2228 97.6407C31.4959 96.7885 30.9769 95.6812 31.6888 93.8108C29.9984 92.742 28.2655 90.3373 27.951 88.0216L27.9454 87.9808C27.8133 87.0083 27.6903 86.103 27.684 85.2605C27.684 81.6979 28.6683 79.3199 29.7073 77.6649C29.5186 78.1972 28.329 81.9521 31.0659 85.1715C33.1271 87.5961 35.3609 87.0508 36.0798 86.7855C36.1969 86.7423 36.3337 86.816 36.355 86.9391C36.5349 87.9805 37.4493 91.9619 41.1225 93.8108C45.4807 96.0046 49.0903 94.0211 49.9279 93.4885C50.0237 93.4276 50.1561 93.4631 50.2068 93.5648C50.6513 94.4572 52.6369 98.085 55.985 99.0657C60.1466 100.285 63.0158 98.086 63.9175 97.3482Z" fill="url(#paint7_radial_54_73)"/>
<path d="M56.1436 43.4745C54.9855 44.2578 53.5689 44.7185 52.039 44.7185C48.126 44.7185 44.8653 41.7049 44.8653 37.9874C44.8653 37.7064 44.8632 37.4057 44.8609 37.0898C44.8598 36.921 44.8585 36.7479 44.8576 36.5712C41.9673 36.6225 39.64 38.9816 39.64 41.8843L40.0828 44.7185C41.8541 53.8165 47.0152 59.0664 56.1129 59.0664H72.0544C81.1521 59.0664 86.1361 53.8165 87.9074 44.7185L88.5273 41.8843C88.5273 38.9818 86.2003 36.6228 83.3102 36.5712C83.3092 36.7787 83.3078 36.9814 83.3064 37.1783C83.3041 37.4942 83.302 37.795 83.302 38.076C83.302 41.7934 80.0414 44.807 76.1284 44.807C74.595 44.807 73.1755 44.3443 72.016 43.5578C71.6204 47.5903 68.2199 50.741 64.0836 50.741C59.9189 50.741 56.5002 47.5468 56.1436 43.4745Z" fill="url(#paint8_linear_54_73)"/>
<path fill-rule="evenodd" clip-rule="evenodd" d="M52.8359 24.1722C52.8359 24.1722 56.0242 19.2616 63.995 19.2127C71.9658 19.2616 75.1541 24.1722 75.1541 24.1722H79.7594C79.7594 24.1722 86.0474 17.7071 87.4645 16.9986C95.6123 15.4044 102.006 21.789 104.114 27.272C108.543 38.7853 101.015 47.6417 101.015 47.6417C101.015 47.6417 101.928 48.9701 102.255 51.7157C102.56 54.284 102.255 56.0553 102.255 56.0553C102.255 56.0553 106.24 59.5093 106.24 65.5316C106.24 71.5539 103.495 74.5652 103.495 74.5652C103.495 74.5652 109.34 84.5729 103.406 95.3777C98.9313 103.526 95.0944 105.613 89.8557 108.219C84.617 110.826 75.6854 110.256 75.6854 110.256H52.3046C52.3046 110.256 43.373 110.826 38.1343 108.219C32.8956 105.613 29.0587 103.526 24.584 95.3777C18.6503 84.5729 24.4955 74.5652 24.4955 74.5652C24.4955 74.5652 21.75 71.5539 21.75 65.5316C21.75 59.5093 25.7354 56.0553 25.7354 56.0553C25.7354 56.0553 25.43 54.284 25.7354 51.7157C26.0618 48.9701 26.9753 47.6417 26.9753 47.6417C26.9753 47.6417 19.4473 38.7853 23.8755 27.272C25.9844 21.789 32.3777 15.4044 40.5256 16.9986C41.9426 17.7071 48.2306 24.1722 48.2306 24.1722H52.8359ZM70.903 104.234C74.5998 104.234 75.6663 102.959 76.5978 101.845C76.6482 101.785 76.6982 101.725 76.7482 101.666C79.4937 104.393 83.5676 104.581 86.2246 103.26C88.8815 101.939 90.5642 100.072 91.3613 97.5917C93.3097 98.9202 94.7267 98.2749 95.6123 97.2375C96.3357 96.3902 96.8522 95.2891 96.1437 93.4292C97.8259 92.3665 99.5504 89.9753 99.8634 87.6726C100.934 79.7952 97.5139 76.3428 96.1043 74.9199C95.8815 74.6951 95.709 74.5209 95.6123 74.388C95.6097 74.3827 95.607 74.3774 95.6042 74.3719L95.593 74.3502C95.5015 74.1731 95.3649 73.9087 95.6123 73.4138C95.7472 73.2211 96.0414 72.9991 96.4192 72.7139C97.7778 71.6885 100.218 69.8471 100.218 65.6202C99.9979 60.7847 95.8919 58.2778 94.5496 57.4723C94.0182 57.1534 94.0182 56.5866 94.5496 56.0553C95.0809 55.5239 96.1437 54.284 96.1437 53.7526C96.1437 51.2728 93.2485 47.7223 93.2485 47.7223C93.2485 47.7223 102.343 39.558 98.5349 29.6632C96.7212 24.9509 91.8926 21.8814 89.2615 23.196C88.0428 23.8049 84.8075 27.7148 84.8075 27.7148C84.8075 27.7148 91.007 33.3829 88.7929 42.0622C84.3647 54.5497 77.3682 54.5497 77.3682 54.5497C77.3682 54.5497 75.7052 54.5658 75.4198 53.3983C75.3052 52.9297 75.741 52.1794 76.3961 51.7064C76.5525 51.5934 76.6596 51.4188 76.6596 51.2258V49.5943C76.6596 49.22 76.8909 48.8852 77.2256 48.7175C78.9418 47.8579 83.9185 44.6282 83.0363 36.3941C82.6145 33.2943 79.6708 29.9289 76.0397 29.9289C75.1487 29.9289 74.7791 30.2269 74.4314 30.5073C74.1224 30.7564 73.8307 30.9917 73.2057 30.9917C72.6079 30.9917 72.1453 30.3307 71.5312 29.4533C70.3258 27.7308 68.5366 25.2629 63.995 25.235C59.4534 25.2629 57.6642 27.7308 56.4588 29.4533C55.8447 30.3307 55.3821 30.9917 54.7844 30.9917C54.1593 30.9917 53.8676 30.7564 53.5586 30.5073C53.2109 30.2269 52.8413 29.9289 51.9503 29.9289C48.3192 29.9289 45.3755 33.2943 44.9538 36.3941C44.0715 44.6282 49.0482 47.8579 50.7645 48.7175C51.0991 48.8852 51.3304 49.22 51.3304 49.5943V51.2258C51.3304 51.4188 51.4375 51.5934 51.5939 51.7064C52.249 52.1794 52.6848 52.9297 52.5703 53.3983C52.2848 54.5658 50.6218 54.5497 50.6218 54.5497C50.6218 54.5497 43.6253 54.5497 39.1971 42.0622C36.983 33.3829 43.1825 27.7148 43.1825 27.7148C43.1825 27.7148 39.9472 23.8049 38.7285 23.196C36.0974 21.8814 31.2688 24.9509 29.4551 29.6632C25.6467 39.558 34.7246 47.7303 34.7246 47.7303C34.7246 47.7303 31.8463 51.2728 31.8463 53.7526C31.8463 54.284 32.9091 55.5239 33.4404 56.0553C33.9718 56.5866 33.9718 57.1534 33.4404 57.4723C32.0981 58.2778 27.9921 60.7847 27.7724 65.6202C27.7724 69.8471 30.2122 71.6885 31.5708 72.7139C31.9486 72.9991 32.2428 73.2211 32.3777 73.4138C32.6251 73.9087 32.4885 74.1731 32.397 74.3502L32.3858 74.3719C32.383 74.3774 32.3803 74.3827 32.3777 74.388C32.281 74.5209 32.1085 74.6951 31.8857 74.9199C30.4761 76.3428 27.0559 79.7952 28.1266 87.6726C28.4396 89.9753 30.1641 92.3665 31.8463 93.4292C31.1378 95.2891 31.6543 96.3902 32.3777 97.2375C33.2633 98.2749 34.6803 98.9202 36.6287 97.5917C37.4258 100.072 39.1085 101.939 41.7655 103.26C44.4224 104.581 48.4963 104.393 51.2418 101.666C51.2918 101.725 51.3418 101.785 51.3922 101.845C52.3237 102.959 53.3902 104.234 57.087 104.234H70.903Z" fill="url(#paint9_linear_54_73)"/>
<rect x="58.4155" y="50.9186" width="11.1591" height="4.78245" rx="2.39123" fill="url(#paint10_linear_54_73)"/>
<ellipse cx="44.068" cy="65.7973" rx="6.73086" ry="6.73086" fill="url(#paint11_linear_54_73)"/>
<ellipse cx="84.0988" cy="65.7973" rx="6.73086" ry="6.73086" fill="url(#paint12_linear_54_73)"/>
<circle cx="83.6558" cy="63.4058" r="2.2138" fill="#F6F5F4"/>
<circle cx="44.3336" cy="63.4058" r="2.2138" fill="#F6F5F4"/>
<path d="M56.1126 74.3881C56.1126 72.774 57.4211 71.4655 59.0352 71.4655H69.1315C70.7456 71.4655 72.0541 72.774 72.0541 74.3881C72.0541 76.0022 70.7456 77.3107 69.1315 77.3107H66.3861V84.4027C66.413 84.4208 66.4424 84.4398 66.4746 84.4599C67.1295 84.8682 67.8667 84.8082 68.0688 84.7256C68.0734 84.7237 68.078 84.7218 68.0828 84.7199C68.089 84.7174 68.0954 84.7148 68.1019 84.7122L68.1022 84.7121C68.348 84.613 68.845 84.4127 69.3972 83.6628C69.6452 83.3262 69.9596 82.8409 70.1057 82.6001C70.6599 81.5669 71.8446 81.0583 72.8789 81.6111C73.9142 82.1645 74.2016 83.7789 73.6483 84.8142C72.7489 86.4969 70.9914 88.2681 69.3087 88.9774C67.2081 89.8355 65.864 89.1136 64.7919 88.4453C64.7281 88.4055 64.5334 88.256 64.3616 88.1241L64.3614 88.124L64.3613 88.1238C64.2377 88.0289 64.1259 87.9431 64.0834 87.9139L64.0834 87.9383C64.0409 87.9675 63.9291 88.0534 63.8055 88.1483L63.8053 88.1484L63.8052 88.1485C63.6334 88.2805 63.4387 88.43 63.3749 88.4697C62.3028 89.138 60.9587 89.8599 58.8581 89.0018C57.1754 88.2926 55.4178 86.5213 54.5185 84.8386C53.9651 83.8033 54.2525 82.1889 55.2879 81.6356C56.3222 81.0828 57.5069 81.5914 58.061 82.6245C58.2072 82.8653 58.5216 83.3506 58.7696 83.6873C59.3218 84.4371 59.8189 84.6375 60.0647 84.7366C60.0764 84.7413 60.0875 84.7458 60.098 84.7501C60.3001 84.8326 61.0372 84.8926 61.6922 84.4844C61.7244 84.4643 61.7538 84.4453 61.7807 84.4271V77.3107H59.0352C57.4211 77.3107 56.1126 76.0022 56.1126 74.3881Z" fill="url(#paint13_linear_54_73)"/>
</g>
<defs>
<linearGradient id="paint0_linear_54_73" x1="64.002" y1="8" x2="64.002" y2="120.004" gradientUnits="userSpaceOnUse">
<stop stop-color="#99C1F1"/>
<stop offset="1" stop-color="#80B9FF"/>
</linearGradient>
<linearGradient id="paint1_linear_54_73" x1="64.002" y1="8" x2="64.002" y2="120.004" gradientUnits="userSpaceOnUse">
<stop stop-color="#99C1F1"/>
<stop offset="1" stop-color="#80B9FF"/>
</linearGradient>
<linearGradient id="paint2_linear_54_73" x1="102.372" y1="23.3224" x2="86.1597" y2="45.6686" gradientUnits="userSpaceOnUse">
<stop offset="0.478087" stop-color="#F6F5F4"/>
<stop offset="0.696406" stop-color="#99C1F1"/>
</linearGradient>
<linearGradient id="paint3_linear_54_73" x1="104.124" y1="26.3896" x2="88.0523" y2="45.6284" gradientUnits="userSpaceOnUse">
<stop offset="0.478087" stop-color="#F6F5F4"/>
<stop offset="0.696406" stop-color="#99C1F1"/>
</linearGradient>
<linearGradient id="paint4_linear_54_73" x1="93.1704" y1="29.4567" x2="86.598" y2="41.7252" gradientUnits="userSpaceOnUse">
<stop stop-color="#80B9FF"/>
<stop offset="1" stop-color="#3584E4"/>
</linearGradient>
<linearGradient id="paint5_linear_54_73" x1="21.638" y1="2.6927" x2="5.42609" y2="25.0389" gradientUnits="userSpaceOnUse">
<stop offset="0.478087" stop-color="#F6F5F4"/>
<stop offset="0.696406" stop-color="#99C1F1"/>
</linearGradient>
<linearGradient id="paint6_linear_54_73" x1="35.0388" y1="29.9586" x2="41.6113" y2="42.2271" gradientUnits="userSpaceOnUse">
<stop stop-color="#80B9FF"/>
<stop offset="1" stop-color="#3584E4"/>
</linearGradient>
<radialGradient id="paint7_radial_54_73" cx="0" cy="0" r="1" gradientUnits="userSpaceOnUse" gradientTransform="translate(63.8135 86.4175) rotate(90) scale(16.2119 37.9823)">
<stop stop-color="#F6F5F4"/>
<stop offset="1" stop-color="#99C1F1"/>
</radialGradient>
<linearGradient id="paint8_linear_54_73" x1="63.8135" y1="36.9054" x2="63.8135" y2="53.9936" gradientUnits="userSpaceOnUse">
<stop stop-color="#F6F5F4"/>
<stop offset="1" stop-color="#99C1F1"/>
</linearGradient>
<linearGradient id="paint9_linear_54_73" x1="63.8134" y1="16.75" x2="63.995" y2="110.309" gradientUnits="userSpaceOnUse">
<stop stop-color="#3D3846"/>
<stop offset="1" stop-color="#241F31"/>
</linearGradient>
<linearGradient id="paint10_linear_54_73" x1="63.9951" y1="50.9186" x2="63.9951" y2="55.701" gradientUnits="userSpaceOnUse">
<stop stop-color="#35303F"/>
<stop offset="1" stop-color="#332E3E"/>
</linearGradient>
<linearGradient id="paint11_linear_54_73" x1="44.068" y1="59.0665" x2="44.068" y2="72.5282" gradientUnits="userSpaceOnUse">
<stop stop-color="#362F4A"/>
<stop offset="1" stop-color="#241F31"/>
</linearGradient>
<linearGradient id="paint12_linear_54_73" x1="84.0988" y1="59.0665" x2="84.0988" y2="72.5282" gradientUnits="userSpaceOnUse">
<stop stop-color="#362F4A"/>
<stop offset="1" stop-color="#241F31"/>
</linearGradient>
<linearGradient id="paint13_linear_54_73" x1="64.0834" y1="71.4655" x2="64.0834" y2="89.3939" gradientUnits="userSpaceOnUse">
<stop stop-color="#362F4A"/>
<stop offset="1" stop-color="#241F31"/>
</linearGradient>
</defs>
</svg>
