<svg width="64" height="64" viewBox="0 0 64 64" fill="none" xmlns="http://www.w3.org/2000/svg">
<mask id="mask0_42_63" style="mask-type:luminance" maskUnits="userSpaceOnUse" x="4" y="4" width="57" height="57">
<path d="M47 4H17.002C9.82119 4 4 9.82119 4 17.002V47C4 54.1808 9.82119 60.002 17.002 60.002H47C54.1808 60.002 60.002 54.1808 60.002 47V17.002C60.002 9.82119 54.1808 4 47 4Z" fill="white"/>
</mask>
<g mask="url(#mask0_42_63)">
<path d="M4 17.0313C4 9.83429 9.83429 4 17.0313 4H46.9688C54.1657 4 60 9.83429 60 17.0313V46.9688C60 54.1657 54.1657 60 46.9688 60H17.0313C9.83429 60 4 54.1657 4 46.9688V17.0313Z" fill="url(#paint0_linear_42_63)"/>
<path d="M4 17.0312C4 9.83429 9.83429 4 17.0312 4H46.9688C54.1657 4 60 9.83429 60 17.0312V44.9688C60 52.1657 54.1657 58 46.9688 58H17.0312C9.83429 58 4 52.1657 4 44.9688V17.0312Z" fill="url(#paint1_linear_42_63)"/>
<path fill-rule="evenodd" clip-rule="evenodd" d="M9.90685 34.4011L12.0243 34.9176C13.6333 35.31 15.2729 35.5642 16.9251 35.6774L18.331 35.7737C20.8887 35.9488 23.4571 35.6612 25.9126 34.9245L25.9782 34.9049L30.3994 39.0854C34.4072 42.8748 39.9569 44.5711 45.3984 43.6698L45.7264 43.6154L45.5064 43.8648C40.9817 48.9928 34.1914 51.5168 27.4158 50.5894L27.0901 50.5448C25.1424 50.2782 23.2437 49.7301 21.4536 48.9178L20.3791 48.4302C14.7703 45.8851 10.8365 40.6676 9.93266 34.5751L9.90685 34.4011Z" fill="white"/>
<path d="M34.2362 42.0969L33.6065 42.6014C28.7573 46.4868 22.245 47.656 16.3668 45.6416L15.6893 45.3335C17.066 46.5837 18.6443 47.6303 20.3838 48.4197L21.4583 48.9072C23.2475 49.7191 25.1451 50.2669 27.0917 50.5333L27.4173 50.5779C34.1891 51.5048 40.9756 48.9822 45.4977 43.8571L45.6844 43.6265L45.4003 43.6813C41.6061 44.3097 37.7593 43.6761 34.4186 41.9512L34.2362 42.0969Z" fill="#BDE8FB"/>
<mask id="mask1_42_63" style="mask-type:alpha" maskUnits="userSpaceOnUse" x="9" y="10" width="46" height="33">
<path d="M50.9123 10.4456C51.1958 9.87855 52.0755 9.88395 52.566 10.2855C55.9801 13.0806 55.0199 18.7141 50.1324 20.5138L49.6224 20.6512L49.9029 21.251C53.0196 27.9164 52.0383 35.809 47.4982 41.5993C41.8969 43.1463 36.0042 41.8973 31.7079 38.0252L26.16 33.1174C23.3618 34.1897 19.2055 34.3911 16.2378 33.9709L9.81556 32.9501C8.15083 25.269 13.2465 17.7951 21.0071 16.5524L22.4122 16.3275C23.8001 16.1052 25.2135 16.1336 26.6088 16.3033L26.6935 16.3136C30.4276 16.9004 33.6817 18.6074 36.3652 21.247L37.9494 23.0885L40.0298 25.5957C40.6467 26.3381 41.3101 26.8226 42.3237 26.8226C44.4041 26.8226 46.2179 24.3687 46.2179 21.9129V21.4586C42.9105 21.9129 40.2432 19.8344 39.5516 16.8136C39.4493 16.3669 39.3897 15.8868 39.3363 14.9799C39.3363 14.1264 39.815 13.7949 40.4285 14.078L41.5768 14.7132C42.7276 15.2444 43.2839 15.4899 45.7378 15.8868C46.538 15.9402 47.1781 15.6734 47.6049 15.2467C48.085 14.7666 48.3517 14.5183 48.5117 14.3398C48.9919 13.8042 49.664 12.8888 50.2188 11.7792L50.9123 10.4456Z" fill="#8DE4FF"/>
</mask>
<g mask="url(#mask1_42_63)">
<path fill-rule="evenodd" clip-rule="evenodd" d="M52.566 10.2855C52.0755 9.88395 51.1958 9.87855 50.9123 10.4456L50.2188 11.7792C49.664 12.8888 48.9919 13.8042 48.5117 14.3398C48.414 14.4488 48.2766 14.5837 48.0751 14.7816C47.9465 14.9078 47.7919 15.0597 47.6049 15.2467C47.1781 15.6734 46.538 15.9402 45.7378 15.8868C43.2839 15.4899 42.7276 15.2444 41.5768 14.7132L40.4285 14.078C39.815 13.7949 39.3363 14.1264 39.3363 14.9799C39.3897 15.8868 39.4493 16.3669 39.5516 16.8136C40.2432 19.8344 42.9105 21.9129 46.2179 21.4586V21.9129C46.2179 24.3687 44.4041 26.8226 42.3237 26.8226C41.3101 26.8226 40.6467 26.3381 40.0298 25.5957L37.9493 23.0885L36.3652 21.247C33.6817 18.6074 30.4276 16.9004 26.6935 16.3136L26.6088 16.3033C25.2135 16.1336 23.8001 16.1052 22.4122 16.3275L21.0071 16.5524C13.2465 17.7951 8.15083 25.269 9.81556 32.9501L16.2378 33.9709C19.2055 34.3911 23.3618 34.1897 26.16 33.1174L31.7079 38.0252C36.0042 41.8973 41.8969 43.1463 47.4982 41.5993C52.0383 35.809 53.0196 27.9164 49.9029 21.251L49.6224 20.6512L50.1324 20.5138C55.0199 18.7141 55.9801 13.0806 52.566 10.2855ZM26.9068 29.97C28.1442 29.97 29.1473 28.9669 29.1473 27.7295C29.1473 26.4921 28.1442 25.489 26.9068 25.489C25.6694 25.489 24.6663 26.4921 24.6663 27.7295C24.6663 28.9669 25.6694 29.97 26.9068 29.97Z" fill="#8DE4FF"/>
<path d="M47.4982 41.5993C42.4348 42.9978 37.1333 42.1115 32.9882 39.0681C32.9882 39.0681 38.8562 41.785 45.4177 36.9049C52.6727 30.5568 50.3299 22.2349 50.3299 22.2349C52.9154 28.6815 51.8168 36.0915 47.4982 41.5993Z" fill="#4CB4F3"/>
<path d="M9.83631 33.0641C8.17158 25.3829 13.2465 17.7951 21.0071 16.5524L22.4122 16.3275C23.8001 16.1052 25.2135 16.1336 26.6088 16.3033L26.6935 16.3136C30.4276 16.9004 33.6817 18.6074 36.3652 21.247L37.9494 23.0885L40.0298 25.5957C40.6467 26.3381 41.3101 26.8226 42.3237 26.8226C44.4041 26.8226 46.2179 24.3687 46.2179 21.9129V21.4586L46.725 20.5286C46.725 20.5286 46.7567 20.9427 46.8433 21.9129C46.8433 24.4754 45.2577 27.3561 42.3237 27.3561C41.1132 27.3561 40.4566 26.8226 39.5516 25.9691C38.6428 25.0622 38.1627 24.4561 37.2025 23.5152C36.5498 22.8757 36.189 22.555 35.4955 21.9148C30.3929 17.7249 24.5596 16.6752 19.0117 18.8208C9.3562 22.555 10.7107 33.1879 10.7107 33.1879L9.83631 33.0641Z" fill="#EBFDFE"/>
<path d="M39.3363 14.98C39.3363 14.1264 39.815 13.7949 40.4284 14.078L41.5768 14.7132C42.7276 15.2444 43.2839 15.4899 45.7378 15.8868C46.5379 15.9402 47.1781 15.6735 47.6048 15.2467C48.085 14.7666 48.3517 14.5183 48.5117 14.3398C48.9918 13.8042 49.664 12.8888 50.2188 11.7792L50.9123 10.4456C51.0036 10.2629 51.1569 10.1396 51.339 10.0699C51.339 10.0699 52.1392 11.2991 50.9123 13.3263C49.4186 15.4067 49.3119 14.9266 48.0316 16.6337C47.7035 17.0711 47.6048 17.9673 47.6048 17.9673C47.6048 17.9673 46.4846 17.2205 45.5244 17.0604C44.2441 16.8471 43.1348 16.7201 42.0036 16.3669C40.6783 15.9532 39.3363 14.98 39.3363 14.98Z" fill="#E8FFFE"/>
<path d="M52.566 10.2855C55.9801 13.0806 55.0199 18.7141 50.1324 20.5138L49.6225 20.6512C49.6225 20.6512 49.3011 20.6287 48.9919 20.5138C48.6605 20.3906 48.4051 19.9944 48.4051 19.9944C48.4051 19.9944 51.4078 19.1942 52.566 15.8868C53.5262 11.7792 51.3331 10.0722 51.3331 10.0722C51.717 9.92223 52.2318 10.0119 52.566 10.2855Z" fill="url(#paint2_linear_42_63)" fill-opacity="0.8"/>
<path d="M46.2179 21.4586C42.9105 21.9129 40.2432 19.8344 39.5516 16.8136C39.4493 16.3669 39.3897 15.8868 39.3363 14.9799C39.3363 14.2408 39.6953 13.8931 40.1899 13.9971C40.1899 13.9971 39.9153 16.687 41.8436 18.7141C43.924 20.9013 46.698 20.5138 46.698 20.5138C46.698 20.5138 46.7427 20.6858 46.5913 21.008C46.4271 21.3576 46.2179 21.4586 46.2179 21.4586Z" fill="url(#paint3_linear_42_63)" fill-opacity="0.8"/>
</g>
</g>
<defs>
<linearGradient id="paint0_linear_42_63" x1="4" y1="24.5" x2="60" y2="24.5" gradientUnits="userSpaceOnUse">
<stop stop-color="#0067B0"/>
<stop offset="0.075" stop-color="#176196"/>
<stop offset="0.205" stop-color="#05395E"/>
<stop offset="0.795" stop-color="#05395E"/>
<stop offset="0.92" stop-color="#0C4F7D"/>
<stop offset="1" stop-color="#0067B0"/>
</linearGradient>
<linearGradient id="paint1_linear_42_63" x1="4.02218" y1="4.02218" x2="44.5989" y2="59.9778" gradientUnits="userSpaceOnUse">
<stop stop-color="#0067B0"/>
<stop offset="1" stop-color="#003052"/>
</linearGradient>
<linearGradient id="paint2_linear_42_63" x1="39.6564" y1="14.3398" x2="53.7929" y2="17.1138" gradientUnits="userSpaceOnUse">
<stop stop-color="#83DAFF"/>
<stop offset="0.35" stop-color="#53B5EF"/>
<stop offset="1" stop-color="#4CB4F3"/>
</linearGradient>
<linearGradient id="paint3_linear_42_63" x1="39.6564" y1="14.3398" x2="53.7929" y2="17.1138" gradientUnits="userSpaceOnUse">
<stop stop-color="#83DAFF"/>
<stop offset="0.35" stop-color="#53B5EF"/>
<stop offset="1" stop-color="#4CB4F3"/>
</linearGradient>
</defs>
</svg>
