<svg width="128" height="128" viewBox="0 0 128 128" fill="none" xmlns="http://www.w3.org/2000/svg">
<mask id="mask0_54_73" style="mask-type:luminance" maskUnits="userSpaceOnUse" x="8" y="8" width="113" height="113">
<path d="M94 8H34.004C19.6424 8 8 19.6424 8 34.004V94C8 108.362 19.6424 120.004 34.004 120.004H94C108.362 120.004 120.004 108.362 120.004 94V34.004C120.004 19.6424 108.362 8 94 8Z" fill="white"/>
</mask>
<g mask="url(#mask0_54_73)">
<path d="M94 8H34.004C19.6424 8 8 19.6424 8 34.004V94C8 108.362 19.6424 120.004 34.004 120.004H94C108.362 120.004 120.004 108.362 120.004 94V34.004C120.004 19.6424 108.362 8 94 8Z" fill="#99C1F1"/>
<ellipse cx="36.4956" cy="34.7554" rx="10.6718" ry="14.1257" fill="#F6F5F4"/>
<ellipse cx="91.4044" cy="34.7554" rx="10.6718" ry="14.1257" fill="#F6F5F4"/>
<path d="M89.2454 33.3847C94.8976 34.39 98.6647 39.787 97.6594 45.4393L96.8673 49.8926L86.633 48.0723L89.2454 33.3847Z" fill="#99C1F1"/>
<path d="M38.3462 33.3826C32.7509 34.6677 29.2568 40.2453 30.5419 45.8406L31.5544 50.249L41.6855 47.9222L38.3462 33.3826Z" fill="#99C1F1"/>
<path d="M93.3085 34.7997C93.3085 40.2905 90.5118 44.8072 86.8434 44.8072C83.175 44.8072 86.3121 39.7027 86.3121 35.1539C86.3121 30.6051 89.3232 28.4232 90.6516 28.4232C91.0944 28.4231 91.5255 28.7309 91.8572 29.0032C93.3085 30.1944 93.3085 31.759 93.3085 34.7997Z" fill="#3584E4"/>
<path d="M34.6803 34.7996C34.6803 40.2905 37.477 44.8072 41.1454 44.8072C44.8137 44.8072 41.6767 39.7027 41.6767 35.1539C41.6767 30.6051 38.6656 28.4231 37.3371 28.4231C36.8944 28.4231 36.4632 28.7309 36.1316 29.0031C34.6803 30.1944 34.6803 31.759 34.6803 34.7996Z" fill="#3584E4"/>
<path d="M63.994 24.0227C64.0237 24.0133 64.0534 24.004 64.0829 23.9948V24.051C65.7462 24.5848 67.7239 25.4261 69.7699 26.2965C73.6069 27.9288 77.6843 29.6632 80.3784 29.6632C81.3043 29.6632 82.2953 32.5575 83.3172 35.5424C84.3114 38.4462 85.3349 41.4357 86.3564 41.9292C91.5816 44.4532 96.0983 50.6968 96.1426 53.6637C96.1525 54.3287 96.7957 55.2657 97.6238 56.472C99.1239 58.6572 101.231 61.7263 101.279 65.6639C101.419 77.057 96.1824 93.0297 91.9801 93.0297C91.3367 93.0297 89.2551 94.1149 86.3417 95.6338C80.6043 98.6249 71.6409 103.298 64.0829 104.676V104.707C64.0537 104.702 64.0244 104.697 63.9951 104.692C63.9653 104.697 63.9355 104.702 63.9058 104.708V104.676C56.3479 103.298 47.3845 98.6247 41.6471 95.6335C38.7337 94.1147 36.6521 93.0295 36.0086 93.0295C31.8064 93.0295 26.5694 77.0567 26.7095 65.6637C26.758 61.7261 28.8648 58.657 30.3649 56.4718C31.193 55.2654 31.8362 54.3284 31.8462 53.6634C31.8905 50.6966 36.4071 44.4529 41.6323 41.9289C42.6538 41.4355 43.6774 38.446 44.6715 35.5421C45.6935 32.5573 46.6844 29.663 47.6103 29.663C50.3044 29.663 54.3818 27.9285 58.2188 26.2962C60.2649 25.4259 62.2426 24.5846 63.9058 24.0508V23.995C63.9351 24.0041 63.9645 24.0134 63.994 24.0227Z" fill="#F6F5F4"/>
<path d="M63.9167 97.347C63.9654 97.3038 64.0194 97.2595 64.0829 97.2595C64.1464 97.2595 64.2004 97.3038 64.2491 97.347C65.1508 98.0847 68.02 100.283 72.1815 99.0645C75.5295 98.0837 77.5152 94.456 77.9596 93.5636C78.0103 93.4619 78.1427 93.4264 78.2385 93.4873C79.0761 94.0199 82.6856 96.0034 87.0438 93.8097C90.7169 91.9607 91.6313 87.9794 91.8112 86.938C91.8325 86.8149 91.9693 86.7413 92.0864 86.7845C92.8053 87.0497 95.039 87.5951 97.1003 85.1704C99.8371 81.9511 98.6475 78.1963 98.4587 77.6639C99.4978 79.319 100.482 81.6969 100.482 85.2595C100.476 86.102 100.353 87.0072 100.221 87.9798L100.215 88.0205C99.9006 90.3362 98.1676 92.7409 96.4773 93.8097C97.1892 95.68 96.6702 96.7873 95.9433 97.6394C95.0534 98.6827 93.6294 99.3316 91.6715 97.9957C90.8706 100.489 89.1796 102.367 86.5098 103.696C83.8399 105.024 79.7461 104.836 76.9873 102.093C76.961 102.124 76.9348 102.155 76.9085 102.186C76.8844 102.215 76.8603 102.244 76.8361 102.273C75.9001 103.393 74.8284 104.676 71.1135 104.676H57.0523C53.3374 104.676 52.2657 103.393 51.3297 102.273C51.279 102.212 51.2288 102.152 51.1785 102.093C48.4197 104.836 44.3259 105.024 41.656 103.696C38.9862 102.367 37.2952 100.489 36.4943 97.9957C34.5364 99.3316 33.1124 98.6827 32.2225 97.6394C31.4956 96.7873 30.9766 95.68 31.6885 93.8097C29.9982 92.7409 28.2652 90.3362 27.9507 88.0205L27.9452 87.9798C27.8131 87.0072 27.6901 86.102 27.6837 85.2595C27.6837 81.6969 28.668 79.319 29.707 77.6639C29.5183 78.1963 28.3287 81.9511 31.0656 85.1704C33.1268 87.5951 35.3605 87.0497 36.0794 86.7845C36.1965 86.7413 36.3333 86.8149 36.3546 86.938C36.5345 87.9794 37.4489 91.9607 41.1221 93.8097C45.4802 96.0034 49.0897 94.0199 49.9273 93.4873C50.0231 93.4264 50.1555 93.4619 50.2062 93.5636C50.6506 94.456 52.6363 98.0837 55.9843 99.0645C60.1458 100.283 63.015 98.0847 63.9167 97.347Z" fill="#99C1F1"/>
<path d="M56.143 43.4741C54.9849 44.2574 53.5683 44.718 52.0384 44.718C48.1255 44.718 44.8648 41.7045 44.8648 37.9871C44.8648 37.7061 44.8627 37.4053 44.8605 37.0894C44.8593 36.9207 44.8581 36.7476 44.8571 36.5709C41.9669 36.6222 39.6396 38.9813 39.6396 41.8839L40.0825 44.718C41.8537 53.8159 47.0147 59.0657 56.1123 59.0657H72.0535C81.1511 59.0657 86.135 53.8159 87.9062 44.718L88.5262 41.8839C88.5262 38.9814 86.1992 36.6224 83.3091 36.5709C83.3081 36.7784 83.3067 36.9811 83.3053 37.178C83.3031 37.4939 83.301 37.7946 83.301 38.0756C83.301 41.793 80.0403 44.8066 76.1274 44.8066C74.5941 44.8066 73.1746 44.3439 72.0151 43.5574C71.6195 47.5898 68.2191 50.7405 64.0829 50.7405C59.9182 50.7405 56.4996 47.5463 56.143 43.4741Z" fill="#99C1F1"/>
<path fill-rule="evenodd" clip-rule="evenodd" d="M52.8354 24.1721C52.8354 24.1721 56.0237 19.2615 63.9943 19.2126C71.9649 19.2615 75.1532 24.1721 75.1532 24.1721H79.7584C79.7584 24.1721 86.0464 17.7071 87.4634 16.9986C95.6111 15.4044 102.004 21.7889 104.113 27.2719C108.541 38.7849 101.013 47.6412 101.013 47.6412C101.013 47.6412 101.927 48.9696 102.253 51.7151C102.559 54.2834 102.253 56.0547 102.253 56.0547C102.253 56.0547 106.239 59.5086 106.239 65.5308C106.239 71.5531 103.493 74.5642 103.493 74.5642C103.493 74.5642 109.338 84.5718 103.405 95.3764C98.93 103.524 95.0932 105.612 89.8546 108.218C84.616 110.824 75.6846 110.255 75.6846 110.255H52.3041C52.3041 110.255 43.3727 110.824 38.1341 108.218C32.8955 105.612 29.0586 103.524 24.584 95.3764C18.6503 84.5718 24.4954 74.5642 24.4954 74.5642C24.4954 74.5642 21.75 71.5531 21.75 65.5308C21.75 59.5086 25.7353 56.0547 25.7353 56.0547C25.7353 56.0547 25.43 54.2834 25.7353 51.7151C26.0617 48.9696 26.9752 47.6412 26.9752 47.6412C26.9752 47.6412 19.4474 38.7849 23.8755 27.2719C25.9843 21.7889 32.3775 15.4044 40.5253 16.9986C41.9423 17.7071 48.2302 24.1721 48.2302 24.1721H52.8354ZM70.9022 104.233C74.599 104.233 75.6655 102.957 76.597 101.843C76.6473 101.783 76.6973 101.723 76.7473 101.664C79.4928 104.392 83.5666 104.579 86.2235 103.258C88.8804 101.938 90.5631 100.07 91.3601 97.5904C93.3085 98.9189 94.7255 98.2736 95.6111 97.2362C96.3345 96.3889 96.851 95.2878 96.1425 93.428C97.8246 92.3653 99.5492 89.9741 99.8621 87.6714C100.933 79.7942 97.5126 76.3418 96.1031 74.919C95.8803 74.6942 95.7078 74.52 95.6111 74.3871C95.6085 74.3818 95.6058 74.3764 95.603 74.371L95.5918 74.3492C95.5003 74.1722 95.3637 73.9077 95.6111 73.4129C95.746 73.2202 96.0402 72.9981 96.418 72.713C97.7766 71.6876 100.216 69.8463 100.216 65.6194C99.9966 60.784 95.8907 58.2772 94.5484 57.4716C94.017 57.1527 94.017 56.586 94.5484 56.0546C95.0798 55.5233 96.1425 54.2834 96.1425 53.752C96.1425 51.2723 93.2474 47.7218 93.2474 47.7218C93.2474 47.7218 102.342 39.5576 98.5337 29.663C96.72 24.9508 91.8915 21.8813 89.2604 23.1959C88.0417 23.8048 84.8065 27.7146 84.8065 27.7146C84.8065 27.7146 91.0059 33.3826 88.7918 42.0617C84.3637 54.5491 77.3673 54.5491 77.3673 54.5491C77.3673 54.5491 75.7043 54.5652 75.4189 53.3977C75.3043 52.9291 75.7402 52.1789 76.3952 51.7059C76.5517 51.5929 76.6588 51.4182 76.6588 51.2253V49.5937C76.6588 49.2195 76.89 48.8846 77.2247 48.717C78.9409 47.8574 83.9175 44.6277 83.0353 36.3937C82.6135 33.2941 79.6699 29.9287 76.0388 29.9287C75.1478 29.9287 74.7783 30.2267 74.4305 30.5071C74.1216 30.7562 73.8298 30.9914 73.2048 30.9914C72.607 30.9914 72.1445 30.3305 71.5304 29.453C70.325 27.7306 68.5358 25.2627 63.9943 25.2349C59.4528 25.2627 57.6636 27.7306 56.4582 29.453C55.8442 30.3305 55.3816 30.9914 54.7838 30.9914C54.1588 30.9914 53.8671 30.7562 53.5581 30.5071C53.2104 30.2267 52.8408 29.9287 51.9498 29.9287C48.3188 29.9287 45.3751 33.2941 44.9534 36.3937C44.0712 44.6277 49.0477 47.8574 50.764 48.717C51.0986 48.8846 51.3299 49.2195 51.3299 49.5937V51.2253C51.3299 51.4182 51.437 51.5929 51.5934 51.7059C52.2485 52.1789 52.6843 52.9291 52.5698 53.3977C52.2843 54.5652 50.6214 54.5491 50.6214 54.5491C50.6214 54.5491 43.6249 54.5491 39.1968 42.0617C36.9828 33.3826 43.1821 27.7146 43.1821 27.7146C43.1821 27.7146 39.9469 23.8048 38.7282 23.1959C36.0971 21.8813 31.2686 24.9508 29.4549 29.663C25.6466 39.5576 34.7244 47.7298 34.7244 47.7298C34.7244 47.7298 31.8461 51.2723 31.8461 53.752C31.8461 54.2834 32.9089 55.5233 33.4403 56.0546C33.9716 56.586 33.9716 57.1527 33.4403 57.4716C32.098 58.2772 27.992 60.784 27.7723 65.6194C27.7723 69.8463 30.212 71.6876 31.5706 72.713C31.9484 72.9981 32.2426 73.2202 32.3775 73.4129C32.6249 73.9077 32.4883 74.1722 32.3969 74.3492L32.3857 74.371C32.3829 74.3764 32.3801 74.3818 32.3775 74.3871C32.2808 74.52 32.1083 74.6942 31.8856 74.919C30.476 76.3418 27.0558 79.7942 28.1265 87.6714C28.4395 89.9741 30.164 92.3653 31.8461 93.428C31.1376 95.2878 31.6541 96.3889 32.3775 97.2362C33.2631 98.2736 34.6801 98.9189 36.6285 97.5904C37.4256 100.07 39.1083 101.938 41.7651 103.258C44.422 104.579 48.4959 104.392 51.2413 101.664C51.2913 101.723 51.3413 101.783 51.3917 101.843C52.3232 102.957 53.3897 104.233 57.0864 104.233H70.9022Z" fill="#241F31"/>
<rect x="58.4149" y="50.918" width="11.1589" height="4.78238" rx="2.39119" fill="#241F31"/>
<circle cx="44.0678" cy="65.7965" r="6.73075" fill="#241F31"/>
<circle cx="84.0979" cy="65.7965" r="6.73075" fill="#241F31"/>
<circle cx="83.6551" cy="63.4053" r="2.21406" fill="#F6F5F4"/>
<circle cx="44.3334" cy="63.4053" r="2.21406" fill="#F6F5F4"/>
<path d="M56.1121 74.3871C56.1121 72.773 57.4206 71.4645 59.0347 71.4645H69.1308C70.7449 71.4645 72.0534 72.773 72.0534 74.3871C72.0534 76.0012 70.7449 77.3097 69.1308 77.3097H66.3854V84.4015C66.4123 84.4197 66.4417 84.4387 66.4739 84.4588C67.1288 84.867 67.866 84.807 68.0681 84.7245C68.0726 84.7226 68.0773 84.7207 68.0821 84.7187C68.0883 84.7162 68.0947 84.7137 68.1012 84.711L68.1014 84.711C68.3473 84.6119 68.8442 84.4115 69.3965 83.6617C69.6445 83.3251 69.9588 82.8398 70.105 82.599C70.6592 81.5658 71.8438 81.0572 72.8781 81.61C73.9134 82.1634 74.2008 83.7777 73.6475 84.813C72.7481 86.4957 70.9906 88.267 69.3079 88.9762C67.2074 89.8343 65.8633 89.1124 64.7912 88.4441C64.7274 88.4043 64.5328 88.2548 64.361 88.1229L64.3608 88.1228L64.3606 88.1226C64.237 88.0277 64.1252 87.9419 64.0827 87.9127L64.0827 87.9372C64.0403 87.9663 63.9285 88.0522 63.8049 88.1471L63.8047 88.1472L63.8045 88.1474C63.6327 88.2793 63.4381 88.4288 63.3742 88.4685C62.3022 89.1368 60.9581 89.8587 58.8576 89.0006C57.1749 88.2914 55.4173 86.5202 54.518 84.8375C53.9647 83.8022 54.2521 82.1878 55.2873 81.6345C56.3217 81.0817 57.5063 81.5903 58.0605 82.6234C58.2066 82.8642 58.521 83.3495 58.769 83.6862C59.3213 84.436 59.8183 84.6363 60.0641 84.7354C60.0758 84.7401 60.0869 84.7446 60.0974 84.7489C60.2995 84.8315 61.0366 84.8915 61.6916 84.4832C61.7238 84.4631 61.7532 84.4441 61.7801 84.426V77.3097H59.0347C57.4206 77.3097 56.1121 76.0012 56.1121 74.3871Z" fill="#241F31"/>
</g>
</svg>
