<svg width="128" height="128" viewBox="0 0 128 128" fill="none" xmlns="http://www.w3.org/2000/svg">
<mask id="mask0_43_26" style="mask-type:luminance" maskUnits="userSpaceOnUse" x="8" y="8" width="113" height="113">
<path d="M94 8H34.004C19.6424 8 8 19.6424 8 34.004V94C8 108.362 19.6424 120.004 34.004 120.004H94C108.362 120.004 120.004 108.362 120.004 94V34.004C120.004 19.6424 108.362 8 94 8Z" fill="white"/>
</mask>
<g mask="url(#mask0_43_26)">
<path d="M8 34.0625C8 19.6686 19.6686 8 34.0625 8H93.9375C108.331 8 120 19.6686 120 34.0625V93.9375C120 108.331 108.331 120 93.9375 120H34.0625C19.6686 120 8 108.331 8 93.9375V34.0625Z" fill="url(#paint0_linear_43_26)"/>
<path d="M8 34.0625C8 19.6686 19.6686 8 34.0625 8H93.9375C108.331 8 120 19.6686 120 34.0625V87.9375C120 102.331 108.331 114 93.9375 114H34.0625C19.6686 114 8 102.331 8 87.9375V34.0625Z" fill="url(#paint1_linear_43_26)"/>
<path fill-rule="evenodd" clip-rule="evenodd" d="M19.8137 68.8022L24.0487 69.8352C27.2666 70.62 30.5457 71.1284 33.8502 71.3547L36.6621 71.5473C41.7775 71.8977 46.9141 71.3224 51.8253 69.849L51.9563 69.8097L60.7989 78.1707C68.8143 85.7497 79.9139 89.1422 90.7967 87.3396L91.4528 87.2309L91.0128 87.7295C81.9634 97.9855 68.3828 103.034 54.8315 101.179L54.1803 101.09C50.2848 100.556 46.4875 99.4603 42.9071 97.8356L40.7581 96.8604C29.5407 91.7701 21.673 81.3351 19.8653 69.1502L19.8137 68.8022Z" fill="white"/>
<path d="M68.4724 84.1937L67.213 85.2028C57.5147 92.9735 44.49 95.312 32.7337 91.2831L31.3787 90.667C34.1319 93.1673 37.2886 95.2605 40.7677 96.8392L42.9167 97.8144C46.495 99.4382 50.2902 100.534 54.1834 101.067L54.8347 101.156C68.3782 103.01 81.9511 97.9643 90.9954 87.7142L91.3689 87.2529L90.8005 87.3625C83.2122 88.6194 75.5186 87.3522 68.8372 83.9023L68.4724 84.1937Z" fill="#BDE8FB"/>
<mask id="mask1_43_26" style="mask-type:alpha" maskUnits="userSpaceOnUse" x="19" y="20" width="91" height="65">
<path d="M101.825 20.8912C102.392 19.7571 104.151 19.7679 105.132 20.5711C111.96 26.1612 110.04 37.4282 100.265 41.0276L99.2449 41.3023L99.8059 42.502C106.039 55.8327 104.077 71.618 94.9964 83.1986C83.7938 86.2927 72.0084 83.7947 63.4159 76.0504L52.32 66.2348C46.7236 68.3795 38.411 68.7823 32.4755 67.9419L19.6311 65.9002C16.3017 50.5379 26.493 35.5902 42.0142 33.1049L44.8244 32.6549C47.6001 32.2105 50.4271 32.2672 53.2176 32.6066L53.3869 32.6272C60.8553 33.8008 67.3634 37.2149 72.7303 42.494L75.8987 46.1769L80.0596 51.1914C81.2934 52.6761 82.6202 53.6453 84.6474 53.6453C88.8083 53.6453 92.4358 48.7375 92.4358 43.8257V42.9172C85.8209 43.8257 80.4864 39.6688 79.1031 33.6273C78.8986 32.7339 78.7794 31.7736 78.6727 29.9599C78.6727 28.2528 79.6301 27.5898 80.8569 28.156L83.1537 29.4264C85.4553 30.4887 86.5678 30.9797 91.4756 31.7736C93.0759 31.8803 94.3562 31.3469 95.2097 30.4933C96.17 29.5331 96.7034 29.0367 97.0235 28.6796C97.9837 27.6084 99.328 25.7776 100.438 23.5584L101.825 20.8912Z" fill="#8DE4FF"/>
</mask>
<g mask="url(#mask1_43_26)">
<path fill-rule="evenodd" clip-rule="evenodd" d="M105.132 20.5711C104.151 19.7679 102.392 19.7571 101.825 20.8912L100.438 23.5584C99.328 25.7776 97.9837 27.6084 97.0235 28.6796C96.8281 28.8976 96.5532 29.1675 96.1502 29.5632C95.8931 29.8156 95.5838 30.1193 95.2097 30.4933C94.3562 31.3469 93.0759 31.8803 91.4756 31.7736C86.5678 30.9797 85.4553 30.4887 83.1537 29.4264L80.8569 28.156C79.63 27.5898 78.6726 28.2528 78.6726 29.9599C78.7793 31.7736 78.8986 32.7339 79.1031 33.6273C80.4864 39.6688 85.8209 43.8257 92.4358 42.9172V43.8257C92.4358 48.7375 88.8083 53.6453 84.6473 53.6453C82.6202 53.6453 81.2934 52.6761 80.0596 51.1914L75.8987 46.1769L72.7303 42.494C67.3634 37.2149 60.8553 33.8008 53.3869 32.6272L53.2176 32.6066C50.4271 32.2672 47.6001 32.2105 44.8244 32.6549L42.0142 33.1049C26.493 35.5902 16.3017 50.5379 19.6311 65.9002L32.4755 67.9419C38.411 68.7823 46.7236 68.3795 52.32 66.2348L63.4159 76.0504C72.0084 83.7947 83.7938 86.2927 94.9964 83.1987C104.077 71.618 106.039 55.8327 99.8058 42.502L99.2449 41.3023L100.265 41.0276C110.04 37.4282 111.96 26.1612 105.132 20.5711ZM53.8137 59.94C56.2885 59.94 58.2947 57.9338 58.2947 55.459C58.2947 52.9842 56.2885 50.978 53.8137 50.978C51.3389 50.978 49.3326 52.9842 49.3326 55.459C49.3326 57.9338 51.3389 59.94 53.8137 59.94Z" fill="#8DE4FF"/>
<path d="M94.9964 83.1987C84.8697 85.9955 74.2667 84.2229 65.9764 78.1361C65.9764 78.1361 77.7124 83.57 90.8354 73.8098C105.345 61.1136 100.66 44.4698 100.66 44.4698C105.831 57.363 103.634 72.183 94.9964 83.1987Z" fill="#4CB4F3"/>
<path d="M19.6726 66.1281C16.3432 50.7659 26.493 35.5901 42.0142 33.1049L44.8244 32.6549C47.6001 32.2105 50.4271 32.2672 53.2176 32.6066L53.3869 32.6272C60.8553 33.8008 67.3634 37.2149 72.7303 42.494L75.8987 46.1769L80.0596 51.1914C81.2934 52.6761 82.6202 53.6453 84.6474 53.6453C88.8083 53.6453 92.4358 48.7375 92.4358 43.8257V42.9172L93.45 41.0573C93.45 41.0573 93.5133 41.8854 93.6866 43.8257C93.6866 48.9509 90.5154 54.7122 84.6474 54.7122C82.2263 54.7122 80.9132 53.6453 79.1031 51.9382C77.2857 50.1245 76.3255 48.9121 74.405 47.0304C73.0996 45.7514 72.3779 45.11 70.9909 43.8297C60.7858 35.4498 49.1193 33.3504 38.0234 37.6416C18.7124 45.11 21.4215 66.3759 21.4215 66.3759L19.6726 66.1281Z" fill="#EBFDFE"/>
<path d="M78.6726 29.9599C78.6726 28.2528 79.63 27.5898 80.8569 28.156L83.1536 29.4265C85.4552 30.4887 86.5677 30.9797 91.4755 31.7736C93.0759 31.8803 94.3562 31.3469 95.2097 30.4934C96.1699 29.5331 96.7034 29.0367 97.0234 28.6796C97.9837 27.6085 99.328 25.7776 100.438 23.5585L101.825 20.8912C102.007 20.5258 102.314 20.2792 102.678 20.1397C102.678 20.1397 104.278 22.5982 101.825 26.6525C98.8372 30.8134 98.6238 29.8532 96.0632 33.2673C95.407 34.1423 95.2097 35.9346 95.2097 35.9346C95.2097 35.9346 92.9692 34.4409 91.0487 34.1208C88.4882 33.6941 86.2696 33.4402 84.0072 32.7339C81.3567 31.9064 78.6726 29.9599 78.6726 29.9599Z" fill="#E8FFFE"/>
<path d="M105.132 20.5711C111.96 26.1612 110.04 37.4282 100.265 41.0276L99.2449 41.3023C99.2449 41.3023 98.6022 41.2574 97.9837 41.0276C97.3209 40.7813 96.8101 39.9888 96.8101 39.9888C96.8101 39.9888 102.816 38.3885 105.132 31.7736C107.052 23.5584 102.666 20.1443 102.666 20.1443C103.434 19.8445 104.464 20.0239 105.132 20.5711Z" fill="url(#paint2_linear_43_26)" fill-opacity="0.8"/>
<path d="M92.4358 42.9172C85.821 43.8257 80.4864 39.6688 79.1031 33.6273C78.8986 32.7339 78.7794 31.7736 78.6727 29.9599C78.6727 28.4817 79.3906 27.7863 80.3797 27.9941C80.3797 27.9941 79.8307 33.374 83.6871 37.4283C87.8481 41.8026 93.396 41.0276 93.396 41.0276C93.396 41.0276 93.4853 41.3715 93.1826 42.016C92.8542 42.7152 92.4358 42.9172 92.4358 42.9172Z" fill="url(#paint3_linear_43_26)" fill-opacity="0.8"/>
</g>
</g>
<defs>
<linearGradient id="paint0_linear_43_26" x1="8" y1="49" x2="120" y2="49" gradientUnits="userSpaceOnUse">
<stop stop-color="#053659"/>
<stop offset="0.095" stop-color="#013C66"/>
<stop offset="0.22" stop-color="#021A2B"/>
<stop offset="0.78" stop-color="#021A2B"/>
<stop offset="0.91" stop-color="#013C66"/>
<stop offset="1" stop-color="#053659"/>
</linearGradient>
<linearGradient id="paint1_linear_43_26" x1="8.04436" y1="8.04436" x2="89.1978" y2="119.956" gradientUnits="userSpaceOnUse">
<stop stop-color="#0067B0"/>
<stop offset="1" stop-color="#003052"/>
</linearGradient>
<linearGradient id="paint2_linear_43_26" x1="79.3128" y1="28.6796" x2="107.586" y2="34.2275" gradientUnits="userSpaceOnUse">
<stop stop-color="#83DAFF"/>
<stop offset="0.35" stop-color="#53B5EF"/>
<stop offset="1" stop-color="#4CB4F3"/>
</linearGradient>
<linearGradient id="paint3_linear_43_26" x1="79.3128" y1="28.6796" x2="107.586" y2="34.2275" gradientUnits="userSpaceOnUse">
<stop stop-color="#83DAFF"/>
<stop offset="0.35" stop-color="#53B5EF"/>
<stop offset="1" stop-color="#4CB4F3"/>
</linearGradient>
</defs>
</svg>
