<svg width="128" height="128" viewBox="0 0 128 128" fill="none" xmlns="http://www.w3.org/2000/svg">
<mask id="mask0_48_2" style="mask-type:luminance" maskUnits="userSpaceOnUse" x="8" y="8" width="113" height="113">
<path d="M94 8H34.004C19.6424 8 8 19.6424 8 34.004V94C8 108.362 19.6424 120.004 34.004 120.004H94C108.362 120.004 120.004 108.362 120.004 94V34.004C120.004 19.6424 108.362 8 94 8Z" fill="white"/>
</mask>
<g mask="url(#mask0_48_2)">
<path d="M94 8H34.004C19.6424 8 8 19.6424 8 34.004V94C8 108.362 19.6424 120.004 34.004 120.004H94C108.362 120.004 120.004 108.362 120.004 94V34.004C120.004 19.6424 108.362 8 94 8Z" fill="#FFA348"/>
<g filter="url(#filter0_d_48_2)">
<path d="M43 65.75C40.4536 65.75 38.2388 67.1514 37.0151 69.25H25.5V102.5C25.5 104.312 25.9683 106.126 26.9082 107.75C28.7812 111 32.2471 113 36 113H95.5C95.7393 113 95.9785 112.986 96.2178 112.962C98.4497 112.733 100.439 111.445 101.563 109.5C102.206 108.382 102.531 107.111 102.497 105.822C102.497 105.795 102.5 105.768 102.5 105.74V73.0098C102.5 68.9868 99.3794 65.75 95.5 65.75H43Z" fill="#DEDDDA"/>
<path d="M95.5 97.25H81.5V104.25H95.5V97.25Z" fill="#C0BFBC"/>
<path d="M88.5 27.25H48.25C44.3843 27.25 41.25 30.3843 41.25 34.25V97.25C41.25 101.116 44.3843 104.25 48.25 104.25H88.5C92.3657 104.25 95.5 101.116 95.5 97.25V34.25C95.5 30.3843 92.3657 27.25 88.5 27.25Z" fill="#C0BFBC"/>
<path d="M88.5 22H48.25C44.3843 22 41.25 25.1343 41.25 29V92C41.25 95.8657 44.3843 99 48.25 99H88.5C92.3657 99 95.5 95.8657 95.5 92V29C95.5 25.1343 92.3657 22 88.5 22Z" fill="#F6F5F4"/>
<mask id="mask1_48_2" style="mask-type:luminance" maskUnits="userSpaceOnUse" x="8" y="8" width="112" height="112">
<path d="M120 8H8V120H120V8Z" fill="black" fill-opacity="0.15"/>
</mask>
<g mask="url(#mask1_48_2)">
<mask id="mask2_48_2" style="mask-type:luminance" maskUnits="userSpaceOnUse" x="1" y="-6" width="168" height="133">
<path d="M169 -6H1V127H169V-6Z" fill="white"/>
</mask>
<g mask="url(#mask2_48_2)">
<path d="M73.625 22H92V97.25H73.625V22Z" fill="url(#paint0_linear_48_2)"/>
</g>
</g>
<path d="M36 15.147C32.2471 15.1436 28.7812 17.1465 26.9082 20.397C25.9854 21.9932 25.5 23.8013 25.5 25.647V25.7564V102.5C25.5239 100.706 26.0093 98.9487 26.9082 97.397C28.7812 94.1465 32.2471 92.1436 36 92.147V15.147Z" fill="#F6F5F4"/>
<path d="M35.9658 92C32.2266 92.0137 28.7744 94.0132 26.9082 97.25C25.0317 100.497 25.0317 104.503 26.9082 107.75C28.7812 111 32.2471 113 36 113V107.75C33.1016 107.75 30.75 105.398 30.75 102.5C30.75 99.6016 33.1016 97.25 36 97.25V92C35.9897 92 35.9761 92 35.9658 92Z" fill="#C0BFBC"/>
<path d="M36 113H95.5V107.75H36V113Z" fill="#C0BFBC"/>
<path d="M95.5 99V104.25C96.1255 104.25 96.7031 104.585 97.0176 105.125C97.3286 105.665 97.3286 106.335 97.0176 106.875C96.7031 107.415 96.1255 107.75 95.5 107.75V113C98.002 113 100.312 111.667 101.563 109.5C102.811 107.333 102.811 104.667 101.563 102.5C100.312 100.333 98.002 99 95.5 99Z" fill="#C0BFBC"/>
<path d="M41.25 95.5L41.3115 95.5068C41.7422 98.9624 44.6714 101.625 48.25 101.625H95.5V102.5H48.25C44.3706 102.5 41.25 99.3794 41.25 95.5Z" fill="#9A9996"/>
<path d="M81.5 88.5L81.4385 88.5068C81.0078 91.9624 78.0786 94.625 74.5 94.625H36V95.5H74.5C78.3794 95.5 81.5 92.3794 81.5 88.5Z" fill="#9A9996"/>
<path d="M36 109.938C33.3442 109.938 30.8867 108.519 29.5605 106.219C28.231 103.918 28.231 101.082 29.5605 98.7812C30.8867 96.481 33.3442 95.0625 36 95.0625" stroke="#9A9996" stroke-width="0.999997" stroke-linecap="round" stroke-linejoin="round"/>
<path d="M36 109.938H95.5" stroke="#9A9996"/>
<path d="M95.5 109.938C96.8467 109.938 98.0908 109.186 98.7642 107.969C99.4375 106.752 99.4375 105.248 98.7642 104.031C98.0908 102.814 96.8467 102.062 95.5 102.062" stroke="#9A9996" stroke-linecap="round" stroke-linejoin="round"/>
<path d="M93.7671 64C98.5933 64.0103 102.5 67.9238 102.5 72.75L102.322 88.5C101.492 84.4258 97.9097 81.5 93.75 81.5V79.75L93.7671 64Z" fill="#FF7800"/>
<path d="M93.7671 29C98.5933 29.0103 102.5 32.9238 102.5 37.75L102.322 48.25C101.492 44.1758 97.9097 41.25 93.75 41.25V39.5L93.7671 29Z" fill="#FF7800"/>
<path d="M93.7671 88.5C98.5933 88.5103 102.5 92.4238 102.5 97.25H102.322C101.492 93.1758 97.9097 90.25 93.75 90.25V88.5H93.7671Z" fill="#C0BFBC"/>
<path d="M93.7671 85C98.5933 85.0103 102.5 88.9238 102.5 93.75H102.322C101.492 89.6758 97.9097 86.75 93.75 86.75V85H93.7671Z" fill="#C0BFBC"/>
<path d="M93.7671 55.25C98.5933 55.2603 102.5 59.1738 102.5 64H102.322C101.492 59.9258 97.9097 57 93.75 57V55.25H93.7671Z" fill="#C0BFBC"/>
<path d="M93.7671 51.75C98.5933 51.7603 102.5 55.6738 102.5 60.5H102.322C101.492 56.4258 97.9097 53.5 93.75 53.5V51.75H93.7671Z" fill="#C0BFBC"/>
<path d="M93.7671 48.25C98.5933 48.2603 102.5 52.1738 102.5 57H102.322C101.492 52.9258 97.9097 50 93.75 50V48.25H93.7671Z" fill="#C0BFBC"/>
<path d="M93.7671 44.75C98.5933 44.7603 102.5 48.6738 102.5 53.5H102.322C101.492 49.4258 97.9097 46.5 93.75 46.5V44.75H93.7671Z" fill="#C0BFBC"/>
<path d="M43 65.75C40.4536 65.75 38.2388 67.1514 37.0151 69.25H25.5V102.5C25.5 104.312 25.9683 106.126 26.9082 107.75C28.7812 111 32.2471 113 36 113H95.5C95.7393 113 95.9785 112.986 96.2178 112.962C98.4497 112.733 100.439 111.445 101.563 109.5C102.206 108.382 102.531 107.111 102.497 105.822C102.497 105.795 102.5 105.768 102.5 105.74V73.0098C102.5 68.9868 99.3794 65.75 95.5 65.75H43Z" fill="#F6F5F4"/>
<path d="M95.5 22V99C98.002 99 100.312 100.333 101.563 102.5C102.145 103.512 102.466 104.657 102.497 105.826C102.497 105.795 102.5 105.768 102.5 105.74V29.2598C102.5 25.2368 99.3794 22 95.5 22Z" fill="white"/>
<path d="M95.5 97.25H81.5V104.25H95.5V97.25Z" fill="#C0BFBC"/>
<path d="M88.5 27.25H48.25C44.3843 27.25 41.25 30.3843 41.25 34.25V97.25C41.25 101.116 44.3843 104.25 48.25 104.25H88.5C92.3657 104.25 95.5 101.116 95.5 97.25V34.25C95.5 30.3843 92.3657 27.25 88.5 27.25Z" fill="#C0BFBC"/>
<path d="M95.5 22H81.5V29H95.5V22Z" fill="white"/>
<path d="M95.5 92H81.5V99H95.5V92Z" fill="white"/>
<path d="M88.5 22H48.25C44.3843 22 41.25 25.1343 41.25 29V92C41.25 95.8657 44.3843 99 48.25 99H88.5C92.3657 99 95.5 95.8657 95.5 92V29C95.5 25.1343 92.3657 22 88.5 22Z" fill="white"/>
<path d="M95.5 22H81.5V29H95.5V22Z" fill="white"/>
<path d="M95.5 25.5C98.002 25.5 100.313 26.833 101.56 29C102.175 30.063 102.5 31.2729 102.5 32.5V53.5C102.5 52.2729 102.175 51.063 101.56 50C100.313 47.833 98.002 46.5 95.5 46.5V25.5Z" fill="#C0BFBC"/>
<path d="M95.5 50V71H85.0376V50H95.5Z" fill="#DEDDDA"/>
<path d="M36 15.147C32.2471 15.1436 28.7812 17.1465 26.9082 20.397C25.9854 21.9932 25.5 23.8013 25.5 25.647V25.7564V102.5C25.5239 100.706 26.0093 98.9487 26.9082 97.397C28.7812 94.1465 32.2471 92.1436 36 92.147V15.147Z" fill="white"/>
<path d="M35.9658 92C32.2266 92.0137 28.7744 94.0132 26.9082 97.25C25.0317 100.497 25.0317 104.503 26.9082 107.75C28.7812 111 32.2471 113 36 113V107.75C33.1016 107.75 30.75 105.398 30.75 102.5C30.75 99.6016 33.1016 97.25 36 97.25V92C35.9897 92 35.9761 92 35.9658 92Z" fill="#C0BFBC"/>
<path d="M36 113H95.5V107.75H36V113Z" fill="#C0BFBC"/>
<path d="M95.5 99V104.25C96.1255 104.25 96.7031 104.585 97.0176 105.125C97.3286 105.665 97.3286 106.335 97.0176 106.875C96.7031 107.415 96.1255 107.75 95.5 107.75V113C98.002 113 100.312 111.667 101.563 109.5C102.811 107.333 102.811 104.667 101.563 102.5C100.312 100.333 98.002 99 95.5 99Z" fill="#C0BFBC"/>
<path d="M41.25 95.5L41.3115 95.5068C41.7422 98.9624 44.6714 101.625 48.25 101.625H95.5V102.5H48.25C44.3706 102.5 41.25 99.3794 41.25 95.5Z" fill="#9A9996"/>
<path d="M36 109.938H95.5" stroke="#9A9996"/>
<path d="M95.5 109.938C96.8467 109.938 98.0908 109.186 98.7642 107.969C99.4375 106.752 99.4375 105.248 98.7642 104.031C98.0908 102.814 96.8467 102.062 95.5 102.062" stroke="#9A9996" stroke-linecap="round" stroke-linejoin="round"/>
<path d="M35.125 90.25H49.125V97.25H35.125V90.25Z" fill="#C0BFBC"/>
<path d="M45.625 20.25H78C81.8657 20.25 85 23.3843 85 27.25V90.25C85 94.1157 81.8657 97.25 78 97.25H45.625C41.7593 97.25 38.625 94.1157 38.625 90.25V27.25C38.625 23.3843 41.7593 20.25 45.625 20.25Z" fill="#C0BFBC"/>
<path d="M35.0874 85H49.0874V92H35.0874V85Z" fill="#F6F5F4"/>
<path d="M90.25 25.5H85V46.5H90.25V25.5Z" fill="#DEDDDA"/>
<path d="M93.75 25.5H88.5V39.5H93.75V25.5Z" fill="#DEDDDA"/>
<path d="M95.4521 74.5H79.75V95.5H95.4521V74.5Z" fill="#DEDDDA"/>
<path d="M92 92H88.5V96.5015H92V92Z" fill="white"/>
<path d="M45.625 15H78C81.8657 15 85 18.1343 85 22V85C85 88.8657 81.8657 92 78 92H45.625C41.7593 92 38.625 88.8657 38.625 85V22C38.625 18.1343 41.7593 15 45.625 15Z" fill="#F6F5F4"/>
<path d="M43 32.5H74.5V74.5H43V32.5Z" fill="#FF7800"/>
<path d="M43 22H71V25.5H43V22Z" fill="#C0BFBC"/>
<mask id="mask3_48_2" style="mask-type:luminance" maskUnits="userSpaceOnUse" x="8" y="8" width="112" height="112">
<path d="M120 8H8V120H120V8Z" fill="black" fill-opacity="0.15"/>
</mask>
<g mask="url(#mask3_48_2)">
<path d="M73.625 22H92V97.25H73.625V22Z" fill="url(#paint1_linear_48_2)"/>
</g>
<path d="M36 90.25H50V97.25H36V90.25Z" fill="#C0BFBC"/>
<path d="M45.625 20.25H78C81.8657 20.25 85 23.3843 85 27.25V90.25C85 94.1157 81.8657 97.25 78 97.25H45.625C41.7593 97.25 38.625 94.1157 38.625 90.25V27.25C38.625 23.3843 41.7593 20.25 45.625 20.25Z" fill="#C0BFBC"/>
<path d="M35.0874 15H49.0874V22H35.0874V15Z" fill="white"/>
<path d="M35.9658 85H49.9658V92H35.9658V85Z" fill="white"/>
<path d="M43 15H78C81.8657 15 85 18.1343 85 22V85C85 88.8657 81.8657 92 78 92H43C39.1343 92 36 88.8657 36 85V22C36 18.1343 39.1343 15 43 15Z" fill="white"/>
<path d="M35.0874 15H49.0874V22H35.0874V15Z" fill="white"/>
<path d="M85 88.5L84.9385 88.5068C84.5078 91.9624 81.5786 94.625 78 94.625H36V95.5H78C81.8794 95.5 85 92.3794 85 88.5Z" fill="#9A9996"/>
<path d="M36 109.938C33.3442 109.938 30.8867 108.519 29.5605 106.219C28.231 103.918 28.231 101.082 29.5605 98.7812C30.8867 96.481 33.3442 95.0625 36 95.0625" stroke="#9A9996" stroke-width="0.999997" stroke-linecap="round" stroke-linejoin="round"/>
<path d="M67.5 32.9204V35.2993H73.96V35.3813L67.5 39.1138V41.4482H78V39.0728H71.54V38.9907L78 35.2788V32.9204H67.5ZM67.5 42.9897V50H69.4688V45.3687H71.7656V49.2822H73.7344V45.3687H76.0312V50H78V42.9897H67.5ZM78 51.3569L67.5 54.0195V56.4429L74.083 58.1826V58.2646L67.5 60.0078V62.4243L78 65.0903V62.937L70.9248 61.1768V61.0947L78 59.2695V57.1777L70.9453 55.3525V55.2739L78 53.5103V51.3569ZM70.9043 66.061C68.4229 66.061 67.3599 68.1118 67.3599 70.2036C67.3599 72.48 68.4639 74.0796 70.4531 74.0796C72.1553 74.0796 73.0166 72.9106 73.7139 70.9419L73.8369 70.6548C74.2471 69.5269 74.5137 68.686 75.1699 68.686C75.7612 68.686 76.1543 69.3423 76.1543 70.2651C76.1543 71.2905 75.6621 71.7827 74.8828 71.8237V74.0796C76.8721 74.0796 78.1401 72.521 78.1401 70.2651C78.1401 68.0093 76.9507 66.3687 75.187 66.3687C73.6318 66.3687 72.627 67.6606 72.0938 69.4038L72.0322 69.6089C71.5195 71.229 71.0684 71.7827 70.4326 71.7827C69.8789 71.7827 69.3286 71.311 69.3286 70.2036C69.3286 69.0962 69.8789 68.3989 70.9043 68.3579V66.061Z" fill="#9A9996"/>
<path d="M41.25 67.5V88.5H64V67.5H41.25Z" fill="#C0BFBC"/>
<path d="M36 18.5C32.2471 18.5 28.7812 20.4995 26.9082 23.75C25.9854 25.3462 25.5 27.1577 25.5 29V29.1094V49.853C25.5239 48.062 26.0093 46.3052 26.9082 44.75C28.7812 41.4995 32.2471 39.5 36 39.5V18.5Z" fill="#DEDDDA"/>
<path d="M72.75 20.25V30.75H78V20.25H72.75Z" fill="#DEDDDA"/>
<path d="M69.25 22V29H71V22H69.25Z" fill="#DEDDDA"/>
<path d="M69.25 22V29H74.5V22H69.25Z" fill="#DEDDDA"/>
<path d="M37.75 18.5V39.5H53.5V18.5H37.75Z" fill="#C0BFBC"/>
<path d="M48.25 43H64V64H48.25V43Z" fill="#DEDDDA"/>
<path d="M44.75 43H48.25V51.75H44.75V43Z" fill="#DEDDDA"/>
<path d="M36 43H43V64H36V43Z" fill="#DEDDDA"/>
<path d="M95.5 50C98.002 50 100.313 51.333 101.56 53.5C102.175 54.563 102.5 55.7729 102.5 57V78C102.5 76.7729 102.175 75.563 101.56 74.5C100.313 72.333 98.002 71 95.5 71V50Z" fill="#DEDDDA"/>
<path d="M95.5 74.5C98.002 74.5 100.313 75.833 101.56 78C102.175 79.063 102.5 80.2695 102.5 81.5V102.5C102.5 101.27 102.175 100.063 101.56 99C100.313 96.833 98.002 95.5 95.5 95.5V74.5Z" fill="#DEDDDA"/>
<path d="M36 67.5C32.2471 67.5 28.7812 69.4995 26.9082 72.75C25.9854 74.3462 25.5 76.1577 25.5 78V78.1094V98.853C25.5239 97.062 26.0093 95.3052 26.9082 93.75C28.7812 90.4995 32.2471 88.5 36 88.5V67.5Z" fill="#DEDDDA"/>
<path d="M72.75 76.25V86.75H78V76.25H72.75Z" fill="#DEDDDA"/>
<path d="M69.25 78V85H71V78H69.25Z" fill="#DEDDDA"/>
<path d="M69.25 78V85H74.5V78H69.25Z" fill="#DEDDDA"/>
<path d="M58.75 18.5H64V39.5H58.75V18.5Z" fill="#DEDDDA"/>
<path d="M55.25 18.5H60.5V32.5H55.25V18.5Z" fill="#DEDDDA"/>
<path d="M36 43C32.2471 43 28.7812 44.9995 26.9082 48.25C25.9854 49.8462 25.5 51.6577 25.5 53.5V53.6094V74.353C25.5239 72.562 26.0093 70.8052 26.9082 69.25C28.7812 65.9995 32.2471 64 36 64V43Z" fill="#DEDDDA"/>
<path d="M95.5 22V99C98.002 99 100.312 100.333 101.563 102.5C102.145 103.512 102.466 104.657 102.497 105.826C102.497 105.795 102.5 105.768 102.5 105.74V29.2598C102.5 25.2368 99.3794 22 95.5 22Z" fill="url(#paint2_linear_48_2)"/>
<path d="M36 67.5V88.5H39.5V67.5H36Z" fill="#DEDDDA"/>
<path d="M31.625 85H34.25V90.25H31.625V85Z" fill="white"/>
<path d="M36 72.75C32.2471 72.75 28.7812 74.7495 26.9082 78C25.9854 79.5962 25.5 81.4077 25.5 83.25V83.3594V95.353C25.5239 93.562 26.0093 91.8052 26.9082 90.25C28.7812 86.9995 32.2471 85 36 85V72.75Z" fill="#DEDDDA"/>
<path d="M36 15.0171C32.2471 15.0171 28.7812 17.02 26.9082 20.2671C25.9854 21.8633 25.5 23.6748 25.5 25.5171V25.6265V102.374C25.5239 100.579 26.0093 98.8223 26.9082 97.2671C28.7812 94.02 32.2471 92.0171 36 92.0171V15.0171Z" fill="url(#paint3_linear_48_2)"/>
<path d="M36 54.375C30.1997 54.375 25.5 59.0747 25.5 64.875V71.875C25.5 66.0747 30.1997 61.375 36 61.375H92C97.8003 61.375 102.5 66.0747 102.5 71.875V64.875C102.5 59.0747 97.8003 54.375 92 54.375H36Z" fill="black" fill-opacity="0.15"/>
<path d="M36 53.5C30.1997 53.5 25.5 58.1997 25.5 64V71C25.5 65.1997 30.1997 60.5 36 60.5H92C97.8003 60.5 102.5 65.1997 102.5 71V64C102.5 58.1997 97.8003 53.5 92 53.5H36Z" fill="url(#paint4_linear_48_2)"/>
</g>
</g>
<defs>
<filter id="filter0_d_48_2" x="18.5" y="10" width="91" height="112" filterUnits="userSpaceOnUse" color-interpolation-filters="sRGB">
<feFlood flood-opacity="0" result="BackgroundImageFix"/>
<feColorMatrix in="SourceAlpha" type="matrix" values="0 0 0 0 0 0 0 0 0 0 0 0 0 0 0 0 0 0 127 0" result="hardAlpha"/>
<feOffset dy="2"/>
<feGaussianBlur stdDeviation="3.5"/>
<feComposite in2="hardAlpha" operator="out"/>
<feColorMatrix type="matrix" values="0 0 0 0 0 0 0 0 0 0 0 0 0 0 0 0 0 0 0.3 0"/>
<feBlend mode="normal" in2="BackgroundImageFix" result="effect1_dropShadow_48_2"/>
<feBlend mode="normal" in="SourceGraphic" in2="effect1_dropShadow_48_2" result="shape"/>
</filter>
<linearGradient id="paint0_linear_48_2" x1="73.625" y1="59.625" x2="92" y2="59.625" gradientUnits="userSpaceOnUse">
<stop/>
<stop offset="1" stop-opacity="0"/>
</linearGradient>
<linearGradient id="paint1_linear_48_2" x1="73.625" y1="59.625" x2="92" y2="59.625" gradientUnits="userSpaceOnUse">
<stop/>
<stop offset="1" stop-opacity="0"/>
</linearGradient>
<linearGradient id="paint2_linear_48_2" x1="95.5001" y1="63.912" x2="102.5" y2="63.912" gradientUnits="userSpaceOnUse">
<stop stop-opacity="0"/>
<stop offset="1" stop-opacity="0.14902"/>
</linearGradient>
<linearGradient id="paint3_linear_48_2" x1="25.4999" y1="58.6953" x2="36" y2="58.6953" gradientUnits="userSpaceOnUse">
<stop stop-opacity="0.14902"/>
<stop offset="1" stop-opacity="0"/>
</linearGradient>
<linearGradient id="paint4_linear_48_2" x1="25.5" y1="60.5" x2="102.5" y2="60.5" gradientUnits="userSpaceOnUse">
<stop stop-color="#E66100"/>
<stop offset="0.113636" stop-color="#FFA348"/>
<stop offset="0.227274" stop-color="#FF7800"/>
<stop offset="0.772727" stop-color="#FF7800"/>
<stop offset="0.886364" stop-color="#FFA348"/>
<stop offset="1" stop-color="#C64600"/>
</linearGradient>
</defs>
</svg>
