<svg width="128" height="128" viewBox="0 0 128 128" fill="none" xmlns="http://www.w3.org/2000/svg">
<path d="M93.9969 10.75H34.0031C19.642 10.75 8 22.392 8 36.7531V93.9969C8 108.358 19.642 120 34.0031 120H93.9969C108.358 120 120 108.358 120 93.9969V36.7531C120 22.392 108.358 10.75 93.9969 10.75Z" fill="url(#paint0_linear_75_444)"/>
<path d="M93.3274 9.25H34.6726C20.6321 9.25 9.25 20.1773 9.25 33.6569V89.9681C9.25 103.448 20.6321 114.375 34.6726 114.375H93.3274C107.368 114.375 118.75 103.448 118.75 89.9681V33.6569C118.75 20.1773 107.368 9.25 93.3274 9.25Z" fill="url(#paint1_linear_75_444)"/>
<path fill-rule="evenodd" clip-rule="evenodd" d="M34.6726 8H93.3274C108.01 8 120 19.4394 120 33.6569V89.9681C120 104.186 108.01 115.625 93.3274 115.625H34.6726C19.9903 115.625 8 104.186 8 89.9681V33.6569C8 19.4394 19.9903 8 34.6726 8ZM34.6726 9.25H93.3274C107.368 9.25 118.75 20.1773 118.75 33.6569V89.9681C118.75 103.448 107.368 114.375 93.3274 114.375H34.6726C20.6321 114.375 9.25 103.448 9.25 89.9681V33.6569C9.25 20.1773 20.6321 9.25 34.6726 9.25Z" fill="url(#paint2_linear_75_444)"/>
<g filter="url(#filter0_i_75_444)">
<path d="M90.4192 14.25H37.4558C24.7777 14.25 14.5 24.1249 14.5 36.3062V87.1938C14.5 99.3751 24.7777 109.25 37.4558 109.25H90.4192C103.097 109.25 113.375 99.3751 113.375 87.1938V36.3062C113.375 24.1249 103.097 14.25 90.4192 14.25Z" fill="url(#paint3_linear_75_444)"/>
</g>
<path fill-rule="evenodd" clip-rule="evenodd" d="M90.4192 13H37.4558C24.1349 13 13.25 23.3879 13.25 36.3062V87.1938C13.25 100.112 24.1349 110.5 37.4558 110.5H90.4192C103.74 110.5 114.625 100.112 114.625 87.1938V36.3062C114.625 23.3879 103.74 13 90.4192 13ZM37.4558 14.25H90.4192C103.097 14.25 113.375 24.1249 113.375 36.3062V87.1938C113.375 99.3751 103.097 109.25 90.4192 109.25H37.4558C24.7777 109.25 14.5 99.3751 14.5 87.1938V36.3062C14.5 24.1249 24.7777 14.25 37.4558 14.25Z" fill="url(#paint4_linear_75_444)"/>
<mask id="mask0_75_444" style="mask-type:alpha" maskUnits="userSpaceOnUse" x="14" y="14" width="100" height="96">
<path d="M90.4192 14.25H37.4558C24.7777 14.25 14.5 24.1249 14.5 36.3062V87.1938C14.5 99.3751 24.7777 109.25 37.4558 109.25H90.4192C103.097 109.25 113.375 99.3751 113.375 87.1938V36.3062C113.375 24.1249 103.097 14.25 90.4192 14.25Z" fill="#D9D9D9"/>
</mask>
<g mask="url(#mask0_75_444)">
<g filter="url(#filter1_d_75_444)">
<path d="M60.976 32.5C58.5902 32.5 56.6561 34.3566 56.6561 36.6468V58.9194H48.5202C47.8815 58.9239 47.1004 59.2983 46.6131 59.7661C45.629 60.7107 45.629 62.5188 46.6131 63.4634L61.9301 78.1665C62.9142 79.1112 65.0858 79.1112 66.0699 78.1665L81.3869 63.4634C82.371 62.5188 82.371 60.7107 81.3869 59.7661C80.8996 59.2983 80.1185 58.9239 79.4798 58.9194H71.3439V36.6468C71.3439 34.3566 69.4098 32.5 67.024 32.5H60.976Z" fill="url(#paint5_linear_75_444)"/>
<path fill-rule="evenodd" clip-rule="evenodd" d="M58.7811 58.9194C58.7811 60.093 57.8297 61.0444 56.6561 61.0444H48.5578C48.5537 61.0453 48.548 61.0465 48.541 61.0483C48.5059 61.0571 48.4532 61.0745 48.3886 61.1038C48.2484 61.1675 48.1374 61.2484 48.0846 61.2991C48.0803 61.3033 48 61.4001 48 61.6147C48 61.8294 48.0803 61.9262 48.0847 61.9304L63.3915 76.6237C63.4004 76.6294 63.439 76.6533 63.5205 76.6802C63.6428 76.7206 63.8101 76.75 64 76.75C64.1899 76.75 64.3572 76.7206 64.4795 76.6802C64.561 76.6533 64.5996 76.6294 64.6086 76.6237L79.9154 61.9304C79.9197 61.9262 80 61.8294 80 61.6147C80 61.4001 79.9197 61.3033 79.9154 61.2991C79.8626 61.2484 79.7516 61.1675 79.6113 61.1038C79.5468 61.0745 79.494 61.0571 79.459 61.0483C79.452 61.0465 79.4463 61.0453 79.4421 61.0444H71.3439C70.1703 61.0444 69.2189 60.093 69.2189 58.9194V36.6468C69.2189 35.6113 68.319 34.625 67.024 34.625H60.976C59.681 34.625 58.7811 35.6113 58.7811 36.6468V58.9194ZM79.4331 61.0427C79.4327 61.0427 79.4327 61.0427 79.433 61.0427ZM79.4798 58.9194C80.1185 58.9239 80.8996 59.2983 81.3869 59.7661C82.371 60.7107 82.371 62.5188 81.3869 63.4634L66.0699 78.1665C65.0858 79.1112 62.9142 79.1112 61.9301 78.1665L46.6131 63.4634C45.629 62.5188 45.629 60.7107 46.6131 59.7661C47.1004 59.2983 47.8815 58.9239 48.5202 58.9194H56.6561V36.6468C56.6561 34.3566 58.5902 32.5 60.976 32.5H67.024C69.4098 32.5 71.3439 34.3566 71.3439 36.6468V58.9194H79.4798Z" fill="url(#paint6_linear_75_444)"/>
</g>
<g filter="url(#filter2_d_75_444)">
<path fill-rule="evenodd" clip-rule="evenodd" d="M53.8987 21.6833C53.8987 20.1916 54.7983 18.8348 56.2849 18.401C58.0951 17.8728 60.8021 17.2904 63.9375 17.2904C67.0729 17.2904 69.7799 17.8728 71.5901 18.401C73.0767 18.8348 73.9763 20.1916 73.9763 21.6833V26.1471C77.1327 26.9643 80.2019 28.1744 83.1 29.7776L86.389 26.6266C87.4888 25.5729 89.1247 25.2257 90.4946 25.9296C92.1627 26.7866 94.5043 28.2148 96.7191 30.3454C98.9339 32.4761 100.417 34.7271 101.306 36.3303C102.036 37.6469 101.671 39.2167 100.571 40.2704L97.2826 43.4214C98.9325 46.1839 100.18 49.108 101.025 52.1148H105.674C107.228 52.1148 108.641 52.9784 109.093 54.4057C109.643 56.1436 110.25 58.7424 110.25 61.7525C110.25 64.7627 109.643 67.3615 109.093 69.0994C108.641 70.5266 107.228 71.3903 105.674 71.3903H101.025C100.173 74.4205 98.913 77.3671 97.2431 80.1494L100.525 83.307C101.623 84.3629 101.984 85.9334 101.251 87.2486C100.359 88.85 98.871 91.098 96.6516 93.2243C94.4323 95.3506 92.0877 96.7741 90.4177 97.6279C89.0463 98.329 87.4112 97.9787 86.3136 96.9228L83.0315 93.7653C80.154 95.3493 77.1083 96.5469 73.9763 97.3577V101.822C73.9763 103.313 73.0767 104.67 71.5901 105.104C69.7799 105.632 67.0729 106.215 63.9375 106.215C60.8021 106.215 58.0951 105.632 56.2849 105.104C54.7983 104.67 53.8987 103.313 53.8987 101.822V97.3579C50.7423 96.5407 47.6731 95.3306 44.775 93.7274L41.486 96.8784C40.3862 97.9322 38.7503 98.2793 37.3804 97.5754C35.7123 96.7184 33.3707 95.2903 31.1559 93.1596C28.9411 91.0289 27.4584 88.778 26.5691 87.1747C25.8388 85.8581 26.2037 84.2883 27.3036 83.2346L30.5924 80.0836C28.9425 77.3211 27.6951 74.3971 26.8505 71.3903H22.2007C20.647 71.3903 19.2336 70.5266 18.7818 69.0994C18.2317 67.3615 17.625 64.7627 17.625 61.7525C17.625 58.7424 18.2317 56.1436 18.7818 54.4057C19.2336 52.9784 20.647 52.1148 22.2007 52.1148H26.8503C27.7015 49.0845 28.962 46.1379 30.6319 43.3556L27.3497 40.198C26.2522 39.1422 25.8906 37.5717 26.6237 36.2564C27.5164 34.655 29.004 32.407 31.2234 30.2807C33.4427 28.1544 35.7873 26.7309 37.4573 25.8772C38.8287 25.176 40.4638 25.5264 41.5614 26.5823L44.8435 29.7397C47.721 28.1557 50.7667 26.9581 53.8987 26.1473V21.6833ZM79.7799 76.8921C88.4892 68.4921 88.4566 54.9044 79.7071 46.5431C70.9576 38.1817 56.8044 38.213 48.0951 46.6129C39.3858 55.0129 39.4183 68.6006 48.1679 76.9619C56.9174 85.3233 71.0706 85.292 79.7799 76.8921Z" fill="url(#paint7_linear_75_444)"/>
<path fill-rule="evenodd" clip-rule="evenodd" d="M72.2263 27.5017V21.6833C72.2263 20.8886 71.7653 20.2751 71.0999 20.081C69.4004 19.5851 66.8631 19.0404 63.9375 19.0404C61.0119 19.0404 58.4746 19.5851 56.7751 20.081C56.1097 20.2751 55.6487 20.8886 55.6487 21.6833V27.5019L54.3373 27.8414C51.3435 28.6165 48.4342 29.7607 45.6874 31.2728L44.5587 31.8941L40.3481 27.8434C39.7142 27.2336 38.8732 27.1187 38.2539 27.4353C36.6868 28.2365 34.4963 29.5685 32.434 31.5443C30.373 33.5189 28.9853 35.6143 28.1523 37.1085C27.8711 37.613 27.9361 38.3338 28.563 38.9369L32.8498 43.0609L32.1324 44.2562C30.5433 46.9039 29.3445 49.7067 28.5351 52.5881L28.1764 53.8648H22.2007C21.2489 53.8648 20.6266 54.3768 20.4502 54.9338C19.9372 56.5544 19.375 58.9702 19.375 61.7525C19.375 64.5348 19.9372 66.9506 20.4502 68.5712C20.6266 69.1283 21.2489 69.6403 22.2007 69.6403H28.1766L28.5353 70.917C29.3384 73.7761 30.5247 76.5574 32.0948 79.1863L32.8096 80.383L28.5142 84.4982C27.8859 85.1002 27.8194 85.821 28.0995 86.3259C28.9292 87.8218 30.3125 89.9198 32.3692 91.8984C34.4272 93.8783 36.6148 95.2146 38.1801 96.0189C38.7986 96.3366 39.6399 96.2235 40.2753 95.6148L44.4946 91.5724L45.6221 92.1961C48.3886 93.7265 51.3202 94.8826 54.3373 95.6638L55.6487 96.0033V101.822C55.6487 102.616 56.1097 103.23 56.7751 103.424L56.2849 105.104C54.7983 104.67 53.8987 103.313 53.8987 101.822V97.3579C50.7423 96.5407 47.6731 95.3306 44.775 93.7274L41.486 96.8784C40.3862 97.9322 38.7503 98.2793 37.3804 97.5754C35.7123 96.7184 33.3707 95.2903 31.1559 93.1596C28.9411 91.0289 27.4584 88.778 26.5691 87.1747C25.8388 85.8581 26.2037 84.2883 27.3036 83.2346L30.5924 80.0836C28.9425 77.3211 27.6951 74.3971 26.8505 71.3903H22.2007C20.647 71.3903 19.2336 70.5266 18.7818 69.0994C18.2317 67.3615 17.625 64.7627 17.625 61.7525C17.625 58.7424 18.2317 56.1436 18.7818 54.4057C19.2336 52.9784 20.647 52.1148 22.2007 52.1148H26.8503C27.7015 49.0845 28.962 46.1379 30.6319 43.3556L27.3497 40.198C26.2522 39.1422 25.8906 37.5717 26.6237 36.2564C27.5164 34.655 29.004 32.407 31.2234 30.2807C33.4427 28.1544 35.7873 26.7309 37.4573 25.8772C38.8287 25.176 40.4638 25.5264 41.5614 26.5823L44.8435 29.7397C47.721 28.1557 50.7667 26.9581 53.8987 26.1473V21.6833C53.8987 20.1916 54.7983 18.8348 56.2849 18.401C58.0951 17.8728 60.8021 17.2904 63.9375 17.2904C67.0729 17.2904 69.7799 17.8728 71.5901 18.401C73.0767 18.8348 73.9763 20.1916 73.9763 21.6833V26.1471C77.1327 26.9643 80.2019 28.1744 83.1 29.7776L86.389 26.6266C87.4888 25.5729 89.1247 25.2257 90.4946 25.9296C92.1627 26.7866 94.5043 28.2148 96.7191 30.3454C98.9339 32.4761 100.417 34.7271 101.306 36.3303C102.036 37.6469 101.671 39.2167 100.571 40.2704L97.2826 43.4214C98.9325 46.1839 100.18 49.108 101.025 52.1148H105.674C107.228 52.1148 108.641 52.9784 109.093 54.4057C109.643 56.1436 110.25 58.7424 110.25 61.7525C110.25 64.7627 109.643 67.3615 109.093 69.0994C108.641 70.5266 107.228 71.3903 105.674 71.3903H101.025C100.173 74.4205 98.913 77.3671 97.2431 80.1494L100.525 83.307C101.623 84.3629 101.984 85.9334 101.251 87.2486C100.359 88.85 98.871 91.098 96.6516 93.2243C94.4323 95.3506 92.0877 96.7741 90.4177 97.6279C89.0463 98.329 87.4112 97.9787 86.3136 96.9228L83.0315 93.7653C80.154 95.3493 77.1083 96.5469 73.9763 97.3577V101.822C73.9763 103.313 73.0767 104.67 71.5901 105.104L71.0999 103.424C71.7653 103.23 72.2263 102.616 72.2263 101.822V96.0031L73.5377 95.6636C76.5315 94.8885 79.4408 93.7444 82.1876 92.2323L83.3163 91.6109L87.5268 95.6616C88.1608 96.2715 89.0018 96.3863 89.6211 96.0697C91.1882 95.2685 93.3787 93.9365 95.441 91.9607C97.5019 89.9861 98.8897 87.8908 99.7227 86.3965C100.004 85.892 99.9389 85.1712 99.312 84.5682L95.0252 80.4441L95.7426 79.2489C97.3317 76.6011 98.5305 73.7983 99.3399 70.917L99.6986 69.6403H105.674C106.626 69.6403 107.248 69.1283 107.425 68.5712C107.938 66.9506 108.5 64.5348 108.5 61.7525C108.5 58.9702 107.938 56.5544 107.425 54.9338C107.248 54.3768 106.626 53.8648 105.674 53.8648H99.6984L99.3397 52.588C98.5366 49.7289 97.3503 46.9476 95.7802 44.3187L95.0654 43.122L99.3608 39.0068C99.9891 38.4048 100.056 37.684 99.7755 37.1791C98.9458 35.6832 97.5625 33.5852 95.5058 31.6066C93.4478 29.6267 91.2602 28.2904 89.6949 27.4862C89.0764 27.1684 88.2351 27.2815 87.5997 27.8902L83.3803 31.9326L82.2529 31.309C79.4864 29.7786 76.5548 28.6224 73.5377 27.8412L72.2263 27.5017ZM71.5901 105.104C69.7799 105.632 67.0729 106.215 63.9375 106.215C60.8021 106.215 58.0951 105.632 56.2849 105.104L56.7751 103.424C58.4746 103.92 61.0119 104.465 63.9375 104.465C66.8631 104.465 69.4004 103.92 71.0999 103.424L71.5901 105.104Z" fill="url(#paint8_linear_75_444)"/>
<path fill-rule="evenodd" clip-rule="evenodd" d="M63.9375 83.0815C76.2626 83.0815 86.2541 73.5031 86.2541 61.6875C86.2541 49.8719 76.2626 40.2935 63.9375 40.2935C51.6124 40.2935 41.6209 49.8719 41.6209 61.6875C41.6209 73.5031 51.6124 83.0815 63.9375 83.0815ZM63.9375 84.875C77.2959 84.875 88.125 74.4936 88.125 61.6875C88.125 48.8814 77.2959 38.5 63.9375 38.5C50.5791 38.5 39.75 48.8814 39.75 61.6875C39.75 74.4936 50.5791 84.875 63.9375 84.875Z" fill="url(#paint9_linear_75_444)"/>
</g>
</g>
<defs>
<filter id="filter0_i_75_444" x="14.5" y="14.25" width="98.875" height="105" filterUnits="userSpaceOnUse" color-interpolation-filters="sRGB">
<feFlood flood-opacity="0" result="BackgroundImageFix"/>
<feBlend mode="normal" in="SourceGraphic" in2="BackgroundImageFix" result="shape"/>
<feColorMatrix in="SourceAlpha" type="matrix" values="0 0 0 0 0 0 0 0 0 0 0 0 0 0 0 0 0 0 127 0" result="hardAlpha"/>
<feOffset dy="10"/>
<feGaussianBlur stdDeviation="7.5"/>
<feComposite in2="hardAlpha" operator="arithmetic" k2="-1" k3="1"/>
<feColorMatrix type="matrix" values="0 0 0 0 0 0 0 0 0 0 0 0 0 0 0 0 0 0 0.5 0"/>
<feBlend mode="normal" in2="shape" result="effect1_innerShadow_75_444"/>
</filter>
<filter id="filter1_d_75_444" x="35.875" y="24.5" width="56.25" height="66.375" filterUnits="userSpaceOnUse" color-interpolation-filters="sRGB">
<feFlood flood-opacity="0" result="BackgroundImageFix"/>
<feColorMatrix in="SourceAlpha" type="matrix" values="0 0 0 0 0 0 0 0 0 0 0 0 0 0 0 0 0 0 127 0" result="hardAlpha"/>
<feOffset dy="2"/>
<feGaussianBlur stdDeviation="5"/>
<feComposite in2="hardAlpha" operator="out"/>
<feColorMatrix type="matrix" values="0 0 0 0 0 0 0 0 0 0 0 0 0 0 0 0 0 0 0.2 0"/>
<feBlend mode="normal" in2="BackgroundImageFix" result="effect1_dropShadow_75_444"/>
<feBlend mode="normal" in="SourceGraphic" in2="effect1_dropShadow_75_444" result="shape"/>
</filter>
<filter id="filter2_d_75_444" x="2.625" y="4.29041" width="122.625" height="118.924" filterUnits="userSpaceOnUse" color-interpolation-filters="sRGB">
<feFlood flood-opacity="0" result="BackgroundImageFix"/>
<feColorMatrix in="SourceAlpha" type="matrix" values="0 0 0 0 0 0 0 0 0 0 0 0 0 0 0 0 0 0 127 0" result="hardAlpha"/>
<feOffset dy="2"/>
<feGaussianBlur stdDeviation="7.5"/>
<feComposite in2="hardAlpha" operator="out"/>
<feColorMatrix type="matrix" values="0 0 0 0 0 0 0 0 0 0 0 0 0 0 0 0 0 0 0.6 0"/>
<feBlend mode="normal" in2="BackgroundImageFix" result="effect1_dropShadow_75_444"/>
<feBlend mode="normal" in="SourceGraphic" in2="effect1_dropShadow_75_444" result="shape"/>
</filter>
<linearGradient id="paint0_linear_75_444" x1="120" y1="64" x2="8" y2="64" gradientUnits="userSpaceOnUse">
<stop stop-color="#78767C"/>
<stop offset="0.09" stop-color="#C0BFBC"/>
<stop offset="0.175" stop-color="#5E5C64"/>
<stop offset="0.82" stop-color="#5E5C64"/>
<stop offset="0.91" stop-color="#C0BFBC"/>
<stop offset="1" stop-color="#807E83"/>
</linearGradient>
<linearGradient id="paint1_linear_75_444" x1="64" y1="9.25" x2="64" y2="114.375" gradientUnits="userSpaceOnUse">
<stop stop-color="#DEDDDA"/>
<stop offset="1" stop-color="#5E5C64"/>
</linearGradient>
<linearGradient id="paint2_linear_75_444" x1="64" y1="9.25" x2="64" y2="114.375" gradientUnits="userSpaceOnUse">
<stop stop-color="white"/>
<stop offset="1" stop-color="#868589"/>
</linearGradient>
<linearGradient id="paint3_linear_75_444" x1="63.9375" y1="14.25" x2="63.9375" y2="109.25" gradientUnits="userSpaceOnUse">
<stop stop-color="#82858B"/>
<stop offset="1" stop-color="#242A2F"/>
</linearGradient>
<linearGradient id="paint4_linear_75_444" x1="63.9375" y1="13" x2="63.9375" y2="110.5" gradientUnits="userSpaceOnUse">
<stop stop-color="#77767B"/>
<stop offset="1" stop-color="#C0BFBC"/>
</linearGradient>
<linearGradient id="paint5_linear_75_444" x1="64" y1="38.0866" x2="64" y2="78.8751" gradientUnits="userSpaceOnUse">
<stop stop-color="#3F3E42"/>
<stop offset="1" stop-color="#C5C4C2"/>
</linearGradient>
<linearGradient id="paint6_linear_75_444" x1="64" y1="44.111" x2="64" y2="78.8751" gradientUnits="userSpaceOnUse">
<stop stop-color="#77767B"/>
<stop offset="0.8" stop-color="white"/>
</linearGradient>
<linearGradient id="paint7_linear_75_444" x1="64" y1="25.9375" x2="65.3125" y2="96.125" gradientUnits="userSpaceOnUse">
<stop stop-color="#DEDDDA"/>
<stop offset="1" stop-color="#58565C"/>
</linearGradient>
<linearGradient id="paint8_linear_75_444" x1="63.9375" y1="17.2904" x2="63.9375" y2="106.215" gradientUnits="userSpaceOnUse">
<stop stop-color="white"/>
<stop offset="1" stop-color="#9F9EA3"/>
</linearGradient>
<linearGradient id="paint9_linear_75_444" x1="63.9375" y1="38.5" x2="63.9375" y2="84.875" gradientUnits="userSpaceOnUse">
<stop stop-color="#5E5D61"/>
<stop offset="1" stop-color="#C0BFBC"/>
</linearGradient>
</defs>
</svg>
