<svg width="128" height="128" viewBox="0 0 128 128" fill="none" xmlns="http://www.w3.org/2000/svg">
<path d="M8 34C8 19.6406 19.6406 8 34 8H94C108.359 8 120 19.6406 120 34V94C120 108.359 108.359 120 94 120H34C19.6406 120 8 108.359 8 94V34Z" fill="url(#paint0_linear_43_2)"/>
<path d="M8 34C8 19.6406 19.6406 8 34 8H94C108.359 8 120 19.6406 120 34V89C120 103.359 108.359 115 94 115H34C19.6406 115 8 103.359 8 89V34Z" fill="#EAEAEA"/>
<path d="M113 63.7479C113 90.6707 91.062 90.9985 64 90.9985C36.938 90.9985 15 90.6707 15 63.7479C15 36.8252 36.938 15 64 15C91.062 15 113 36.8252 113 63.7479Z" fill="#D9D9D9"/>
<path d="M113 63.7479C113 90.6707 91.062 90.9985 64 90.9985C36.938 90.9985 15 90.6707 15 63.7479C15 36.8252 36.938 15 64 15C91.062 15 113 36.8252 113 63.7479Z" fill="#241F31"/>
<path d="M102.524 70.9677C103.548 71.1482 104.528 70.463 104.66 69.4316C105.354 64.0646 104.983 58.6055 103.567 53.3711C101.988 47.5288 99.144 42.1103 95.2352 37.4947C91.3301 32.8828 86.4561 29.1955 80.9654 26.6907C75.4748 24.1821 69.5034 22.926 63.4696 23.0034C57.4394 23.0807 51.501 24.4952 46.0765 27.1401C40.6519 29.7849 35.8769 33.6011 32.0893 38.3125C28.3016 43.0238 25.5967 48.5161 24.169 54.3988C22.8881 59.6663 22.6569 65.1328 23.49 70.4814C23.6478 71.5092 24.6424 72.1685 25.6628 71.9622L38.0497 69.4353C39.0664 69.229 39.716 68.2344 39.5875 67.1993C39.2205 64.2303 39.393 61.2135 40.1014 58.2997C40.9565 54.7708 42.5824 51.474 44.8543 48.6487C47.1261 45.8197 49.9926 43.5321 53.2444 41.9445C56.4998 40.3569 60.0636 39.5096 63.6824 39.4617C67.3013 39.4139 70.8871 40.169 74.1792 41.6719C77.4751 43.1748 80.3966 45.3887 82.7418 48.1587C85.0871 50.9251 86.7937 54.1778 87.7407 57.6809C88.5224 60.5799 88.772 63.5894 88.482 66.5694C88.3793 67.6045 89.0546 68.5844 90.0749 68.7649L102.524 70.9677Z" fill="#3584E4"/>
<path d="M102.537 70.9709C103.556 71.1532 104.531 70.4609 104.663 69.4187C105.437 63.3217 104.875 57.1204 103.012 51.2579C101.146 45.3954 98.0305 40.0391 93.8963 35.5649C93.1878 34.7982 92.0009 34.8205 91.2814 35.5798L82.5309 44.7886C81.8115 45.5443 81.837 46.7465 82.5236 47.5356C84.7551 50.1003 86.446 53.1116 87.4869 56.3871C88.5277 59.6627 88.8929 63.1132 88.5642 66.5265C88.462 67.5724 89.134 68.5626 90.1493 68.745L102.537 70.9709Z" fill="#ED333B"/>
<path d="M35.3467 35.3445C35.7523 34.9426 36.4014 34.9426 36.8033 35.3445L39.7166 38.2578C40.1185 38.6597 40.1185 39.3125 39.7166 39.7144C39.3146 40.1164 38.6619 40.1164 38.26 39.7144L35.3467 36.8012C34.9447 36.3992 34.9447 35.7465 35.3467 35.3445Z" fill="white"/>
<path d="M87.7817 39.7144C87.3797 39.3125 87.3797 38.6597 87.7817 38.2578L90.6949 35.3445C91.0969 34.9426 91.7496 34.9426 92.1515 35.3445C92.5535 35.7502 92.5535 36.3992 92.1515 36.8012L89.2383 39.7144C88.8363 40.1164 88.1836 40.1164 87.7817 39.7144Z" fill="white"/>
<path d="M48.3826 26.638C48.9063 26.4204 49.5073 26.6712 49.7249 27.1985L51.3032 31.0042C51.5208 31.5278 51.2701 32.1289 50.7464 32.3465C50.2191 32.5641 49.618 32.317 49.4004 31.7896L47.8221 27.984C47.6045 27.4603 47.8553 26.8555 48.3826 26.638Z" fill="white"/>
<path d="M95.1496 50.7405C94.932 50.2169 95.1828 49.6121 95.7065 49.3945L99.5121 47.8199C100.039 47.6023 100.641 47.8494 100.858 48.3767C101.076 48.9004 100.829 49.5052 100.301 49.7227L96.4956 51.2974C95.972 51.5149 95.3672 51.2679 95.1496 50.7405Z" fill="white"/>
<path d="M79.123 26.638C79.6467 26.8555 79.8974 27.4603 79.6799 27.984L78.1015 31.7896C77.884 32.317 77.2829 32.5641 76.7555 32.3465C76.2319 32.1289 75.9811 31.5278 76.1987 31.0042L77.777 27.1985C77.9946 26.6712 78.5957 26.4204 79.123 26.638Z" fill="white"/>
<path d="M26.6438 48.3767C26.8614 47.8494 27.4661 47.6023 27.9898 47.8199L31.7955 49.3945C32.3228 49.6121 32.5699 50.2169 32.3523 50.7405C32.1347 51.2679 31.5336 51.5149 31.01 51.2974L27.2043 49.7227C26.677 49.5052 26.4262 48.9004 26.6438 48.3767Z" fill="white"/>
<path d="M63.7491 23.5809C64.3207 23.5809 64.7817 24.0418 64.7817 24.6134V28.7325C64.7817 29.3004 64.3207 29.7614 63.7491 29.7614C63.1812 29.7614 62.7203 29.3004 62.7203 28.7325V24.6134C62.7203 24.0418 63.1812 23.5809 63.7491 23.5809Z" fill="white"/>
<path fill-rule="evenodd" clip-rule="evenodd" d="M67.2885 66.7348C66.3875 68.0996 64.8244 69 63.0513 69C60.2615 69 58 66.7669 58 64.0123C58 62.3902 58.7852 60.9467 60.001 60.0356C60.1566 59.857 60.3339 59.6855 60.522 59.5211L92.5054 32.3601C93.1024 31.8527 93.9998 31.8849 94.557 32.4351C95.1107 32.9818 95.1505 33.8536 94.6475 34.4467L67.5925 66.4061C67.4948 66.5204 67.3935 66.6312 67.2885 66.7348Z" fill="url(#paint1_linear_43_2)"/>
<path d="M97 64C97 63.448 97.5263 63 98.1695 63H102.835C103.478 63 104 63.448 104 64C104 64.552 103.478 65 102.835 65H98.1695C97.5263 65 97 64.552 97 64Z" fill="white"/>
<path d="M24 64C24 63.448 24.4475 63 24.9988 63H28.9976C29.5525 63 30 63.448 30 64C30 64.552 29.5525 65 28.9976 65H24.9988C24.4475 65 24 64.552 24 64Z" fill="white"/>
<path d="M64.0018 62C62.8953 62 62 62.898 62 64C62 65.102 62.8953 66 64.0018 66C65.1047 66 66 65.102 66 64C66 62.898 65.1047 62 64.0018 62Z" fill="#68676B"/>
<path d="M109 63.3861C109 87.8999 88.335 86.9957 64 86.9957C39.665 86.9957 19 87.8999 19 63.3861C19 38.8723 39.665 19 64 19C88.335 19 109 38.8723 109 63.3861Z" fill="url(#paint2_radial_43_2)"/>
<path d="M19 100H31V102.665C31 105.612 28.3142 108 25 108C21.6858 108 19 105.612 19 102.665V100Z" fill="#949390"/>
<path d="M33 100H45V102.665C45 105.612 42.3142 108 39 108C35.6858 108 33 105.612 33 102.665V100Z" fill="#949390"/>
<path d="M31 100.003C31 103.315 28.3142 106 25 106C21.6858 106 19 103.315 19 100.003C19 96.6899 21.6858 94 25 94C28.3142 94 31 96.6899 31 100.003Z" fill="#D5D3CF"/>
<path d="M45 100.003C45 103.315 42.3142 106 39 106C35.6858 106 33 103.315 33 100.003C33 96.6899 35.6858 94 39 94C42.3142 94 45 96.6899 45 100.003Z" fill="#D5D3CF"/>
<defs>
<linearGradient id="paint0_linear_43_2" x1="8" y1="100.702" x2="120" y2="100.702" gradientUnits="userSpaceOnUse">
<stop stop-color="#B0B0B0"/>
<stop offset="0.078125" stop-color="#C0BFBC"/>
<stop offset="0.192708" stop-color="#B0B0B0"/>
<stop offset="0.802083" stop-color="#B0B0B0"/>
<stop offset="0.927083" stop-color="#C0BFBC"/>
<stop offset="1" stop-color="#B0B0B0"/>
</linearGradient>
<linearGradient id="paint1_linear_43_2" x1="80.2321" y1="76.4849" x2="73.8208" y2="46.5169" gradientUnits="userSpaceOnUse">
<stop stop-color="#B0B0B0"/>
<stop offset="1" stop-color="#E4E4E4"/>
</linearGradient>
<radialGradient id="paint2_radial_43_2" cx="0" cy="0" r="1" gradientUnits="userSpaceOnUse" gradientTransform="translate(108.061 76.7022) rotate(-167.759) scale(244.226 99.5201)">
<stop stop-color="white" stop-opacity="0.101961"/>
<stop offset="1" stop-color="white" stop-opacity="0.01"/>
</radialGradient>
</defs>
</svg>
