<svg width="128" height="128" viewBox="0 0 128 128" fill="none" xmlns="http://www.w3.org/2000/svg">
<path d="M8 34C8 19.6406 19.6406 8 34 8H94C108.359 8 120 19.6406 120 34V94C120 108.359 108.359 120 94 120H34C19.6406 120 8 108.359 8 94V34Z" fill="url(#paint0_linear_43_2)"/>
<path d="M8 34C8 19.6406 19.6406 8 34 8H94C108.359 8 120 19.6406 120 34V89C120 103.359 108.359 115 94 115H34C19.6406 115 8 103.359 8 89V34Z" fill="#EAEAEA"/>
<path d="M116 62.9541C116 91.6476 92.7188 90.9312 64 90.9312C35.2812 90.9312 12 91.6476 12 62.9541C12 34.2606 35.2812 11 64 11C92.7188 11 116 34.2606 116 62.9541Z" fill="#D9D9D9"/>
<path d="M116 62.9541C116 91.6476 92.7188 90.9312 64 90.9312C35.2812 90.9312 12 91.6476 12 62.9541C12 34.2606 35.2812 11 64 11C92.7188 11 116 34.2606 116 62.9541Z" fill="#241F31"/>
<path d="M104.639 69.8669C105.729 70.0583 106.772 69.3317 106.912 68.2379C107.65 62.5465 107.256 56.7575 105.748 51.2067C104.068 45.0114 101.041 39.2653 96.8809 34.3708C92.7246 29.4801 87.5371 25.57 81.6934 22.9137C75.8496 20.2536 69.4942 18.9215 63.0723 19.0036C56.6543 19.0856 50.334 20.5856 44.5606 23.3903C38.7871 26.195 33.7051 30.2419 29.6738 35.2379C25.6426 40.234 22.7637 46.0583 21.2442 52.2965C19.8809 57.8825 19.6348 63.6794 20.5215 69.3512C20.6895 70.4411 21.7481 71.1403 22.834 70.9215L36.0176 68.2419C37.0996 68.0231 37.791 66.9684 37.6543 65.8708C37.2637 62.7223 37.4473 59.5231 38.2012 56.4333C39.1113 52.6911 40.8418 49.195 43.2598 46.1989C45.6778 43.1989 48.7285 40.7731 52.1895 39.0895C55.6543 37.4059 59.4473 36.5075 63.2988 36.4567C67.1504 36.4059 70.9668 37.2067 74.4707 38.8004C77.9785 40.3942 81.0879 42.7419 83.584 45.6794C86.0801 48.6129 87.8965 52.0622 88.9043 55.777C89.7364 58.8512 90.002 62.0426 89.6934 65.2028C89.584 66.3004 90.3028 67.3395 91.3887 67.5309L104.639 69.8669Z" fill="#3584E4"/>
<path d="M104.639 69.8668C105.729 70.0583 106.772 69.3317 106.912 68.2379C107.74 61.8395 107.139 55.3317 105.147 49.1793C103.15 43.027 99.8184 37.4059 95.3965 32.7106C94.6387 31.9059 93.3692 31.9293 92.5996 32.7262L83.2403 42.3903C82.4707 43.1833 82.4981 44.445 83.2324 45.2731C85.6192 47.9645 87.4278 51.1247 88.541 54.5622C89.6543 57.9997 90.0449 61.6208 89.6934 65.2028C89.584 66.3004 90.3028 67.3395 91.3887 67.5309L104.639 69.8668Z" fill="#ED333B"/>
<path d="M33.5527 32.5504C33.9824 32.1246 34.6699 32.1246 35.0957 32.5504L38.1816 35.6364C38.6074 36.0621 38.6074 36.7535 38.1816 37.1793C37.7558 37.6051 37.0644 37.6051 36.6386 37.1793L33.5527 34.0934C33.1269 33.6676 33.1269 32.9762 33.5527 32.5504Z" fill="white"/>
<path d="M89.0957 37.1793C88.6699 36.7535 88.6699 36.0621 89.0957 35.6364L92.1816 32.5504C92.6074 32.1246 93.2988 32.1246 93.7246 32.5504C94.1504 32.9801 94.1504 33.6676 93.7246 34.0934L90.6386 37.1793C90.2129 37.6051 89.5215 37.6051 89.0957 37.1793Z" fill="white"/>
<path d="M47.3613 23.3278C47.916 23.0973 48.5527 23.3629 48.7832 23.9215L50.4551 27.9528C50.6855 28.5075 50.4199 29.1442 49.8652 29.3746C49.3066 29.6051 48.6699 29.3434 48.4394 28.7848L46.7676 24.7535C46.5371 24.1989 46.8027 23.5582 47.3613 23.3278Z" fill="white"/>
<path d="M96.9004 48.859C96.6699 48.3043 96.9355 47.6637 97.4902 47.4332L101.521 45.7652C102.08 45.5348 102.717 45.7965 102.947 46.3551C103.178 46.9098 102.916 47.5504 102.357 47.7809L98.3261 49.4488C97.7715 49.6793 97.1308 49.4176 96.9004 48.859Z" fill="white"/>
<path d="M79.9238 23.3278C80.4785 23.5582 80.7441 24.1989 80.5136 24.7535L78.8418 28.7848C78.6113 29.3434 77.9746 29.6051 77.416 29.3746C76.8613 29.1442 76.5957 28.5075 76.8261 27.9528L78.498 23.9215C78.7285 23.3629 79.3652 23.0973 79.9238 23.3278Z" fill="white"/>
<path d="M24.334 46.3551C24.5644 45.7965 25.2051 45.5348 25.7597 45.7652L29.791 47.4332C30.3496 47.6637 30.6113 48.3043 30.3808 48.859C30.1504 49.4176 29.5137 49.6793 28.959 49.4488L24.9277 47.7809C24.3691 47.5504 24.1035 46.9098 24.334 46.3551Z" fill="white"/>
<path d="M63.6386 20.0895C64.2441 20.0895 64.7324 20.5778 64.7324 21.1832V25.5465C64.7324 26.1481 64.2441 26.6364 63.6386 26.6364C63.0371 26.6364 62.5488 26.1481 62.5488 25.5465V21.1832C62.5488 20.5778 63.0371 20.0895 63.6386 20.0895Z" fill="white"/>
<path fill-rule="evenodd" clip-rule="evenodd" d="M67.7906 65.6124C66.8409 67.051 65.1933 68 63.3244 68C60.3838 68 58 65.6462 58 62.7426C58 61.0329 58.8276 59.5114 60.1092 58.5511C60.2732 58.3628 60.46 58.182 60.6584 58.0088L94.3705 29.3796C94.9999 28.8448 95.9457 28.8787 96.5331 29.4586C97.1166 30.0348 97.1586 30.9537 96.6285 31.5789L68.111 65.2659C68.008 65.3864 67.9012 65.5031 67.7906 65.6124Z" fill="url(#paint1_linear_43_2)"/>
<path d="M99.6348 62.6364C99.6348 62.0348 100.127 61.5465 100.729 61.5465H105.092C105.693 61.5465 106.182 62.0348 106.182 62.6364C106.182 63.2379 105.693 63.7262 105.092 63.7262H100.729C100.127 63.7262 99.6348 63.2379 99.6348 62.6364Z" fill="white"/>
<path d="M21.0918 62.6364C21.0918 62.0348 21.5801 61.5465 22.1816 61.5465H26.5449C27.1504 61.5465 27.6387 62.0348 27.6387 62.6364C27.6387 63.2379 27.1504 63.7262 26.5449 63.7262H22.1816C21.5801 63.7262 21.0918 63.2379 21.0918 62.6364Z" fill="white"/>
<path d="M63.6387 60.4528C62.4316 60.4528 61.4551 61.4332 61.4551 62.6364C61.4551 63.8395 62.4316 64.8199 63.6387 64.8199C64.8418 64.8199 65.8184 63.8395 65.8184 62.6364C65.8184 61.4332 64.8418 60.4528 63.6387 60.4528Z" fill="#68676B"/>
<path d="M112 62C112 87.9574 89.9574 87 64 87C38.0426 87 16 87.9574 16 62C16 36.0426 38.0426 15 64 15C89.9574 15 112 36.0426 112 62Z" fill="url(#paint2_radial_43_2)"/>
<path d="M19 100H31V102.665C31 105.612 28.3142 108 25 108C21.6858 108 19 105.612 19 102.665V100Z" fill="#949390"/>
<path d="M33 100H45V102.665C45 105.612 42.3142 108 39 108C35.6858 108 33 105.612 33 102.665V100Z" fill="#949390"/>
<path d="M31 100.003C31 103.315 28.3142 106 25 106C21.6858 106 19 103.315 19 100.003C19 96.6899 21.6858 94 25 94C28.3142 94 31 96.6899 31 100.003Z" fill="#D5D3CF"/>
<path d="M45 100.003C45 103.315 42.3142 106 39 106C35.6858 106 33 103.315 33 100.003C33 96.6899 35.6858 94 39 94C42.3142 94 45 96.6899 45 100.003Z" fill="#D5D3CF"/>
<defs>
<linearGradient id="paint0_linear_43_2" x1="8" y1="100.702" x2="120" y2="100.702" gradientUnits="userSpaceOnUse">
<stop stop-color="#B0B0B0"/>
<stop offset="0.078125" stop-color="#C0BFBC"/>
<stop offset="0.192708" stop-color="#B0B0B0"/>
<stop offset="0.802083" stop-color="#B0B0B0"/>
<stop offset="0.927083" stop-color="#C0BFBC"/>
<stop offset="1" stop-color="#B0B0B0"/>
</linearGradient>
<linearGradient id="paint1_linear_43_2" x1="81.4338" y1="75.8895" x2="74.6759" y2="44.3016" gradientUnits="userSpaceOnUse">
<stop stop-color="#B0B0B0"/>
<stop offset="1" stop-color="#E4E4E4"/>
</linearGradient>
<radialGradient id="paint2_radial_43_2" cx="0" cy="0" r="1" gradientUnits="userSpaceOnUse" gradientTransform="translate(110.999 76.1003) rotate(-167.845) scale(260.422 105.415)">
<stop stop-color="white" stop-opacity="0.101961"/>
<stop offset="1" stop-color="white" stop-opacity="0.01"/>
</radialGradient>
</defs>
</svg>
