<svg width="64" height="64" viewBox="0 0 64 64" fill="none" xmlns="http://www.w3.org/2000/svg">
<mask id="mask0_25_17" style="mask-type:luminance" maskUnits="userSpaceOnUse" x="4" y="4" width="57" height="57">
<path d="M47 4H17.002C9.82119 4 4 9.82119 4 17.002V47C4 54.1808 9.82119 60.002 17.002 60.002H47C54.1808 60.002 60.002 54.1808 60.002 47V17.002C60.002 9.82119 54.1808 4 47 4Z" fill="white"/>
</mask>
<g mask="url(#mask0_25_17)">
<path d="M4 17.0312C4 9.83429 9.83429 4 17.0312 4H46.9688C54.1657 4 60 9.83429 60 17.0312V46.9688C60 54.1657 54.1657 60 46.9688 60H17.0312C9.83429 60 4 54.1657 4 46.9688V17.0312Z" fill="url(#paint0_linear_25_17)"/>
<path d="M4 17.0312C4 9.83429 9.83429 4 17.0312 4H46.9688C54.1657 4 60 9.83429 60 17.0312V46.9688C60 54.1657 54.1657 60 46.9688 60H17.0312C9.83429 60 4 54.1657 4 46.9688V17.0312Z" fill="url(#paint1_linear_25_17)"/>
<path d="M4 17.0312C4 9.83429 9.83429 4 17.0312 4H46.9688C54.1657 4 60 9.83429 60 17.0312V42.9688C60 50.1657 54.1657 56 46.9688 56H17.0312C9.83429 56 4 50.1657 4 42.9688V17.0312Z" fill="url(#paint2_linear_25_17)"/>
<path d="M6 18.046C6 11.3932 11.4176 6 18.1004 6H45.8996C52.5824 6 58 11.3932 58 18.046V41.954C58 48.6068 52.5824 54 45.8996 54H18.1004C11.4176 54 6 48.6068 6 41.954V18.046Z" fill="#241F31"/>
<path d="M23.0059 20.4434L16 16.6367V19L20.8555 21.3145V21.3867L16 24V26.3633L23.0059 22.2578V20.4434Z" fill="#62C9EA"/>
<path d="M25 28V30H33V28H25Z" fill="#62C9EA"/>
</g>
<defs>
<linearGradient id="paint0_linear_25_17" x1="60" y1="34" x2="4" y2="34.5" gradientUnits="userSpaceOnUse">
<stop stop-color="#FF3B00"/>
<stop offset="0.07" stop-color="#FF9966"/>
<stop offset="0.225" stop-color="#FF2D00"/>
<stop offset="0.475" stop-color="#FF2000"/>
<stop offset="0.78" stop-color="#FF3B00"/>
<stop offset="0.93" stop-color="#FF9966"/>
<stop offset="1" stop-color="#FF5500"/>
</linearGradient>
<linearGradient id="paint1_linear_25_17" x1="3.99999" y1="29.0213" x2="60" y2="29.0213" gradientUnits="userSpaceOnUse">
<stop stop-color="#3D3846"/>
<stop offset="0.0678571" stop-color="#77767B"/>
<stop offset="0.135714" stop-color="#5E5C64"/>
<stop offset="0.864285" stop-color="#504E56"/>
<stop offset="0.932143" stop-color="#77767B"/>
<stop offset="1" stop-color="#3D3846"/>
</linearGradient>
<linearGradient id="paint2_linear_25_17" x1="4" y1="31" x2="58.0589" y2="41.8567" gradientUnits="userSpaceOnUse">
<stop stop-color="#77767B"/>
<stop offset="0.384443" stop-color="#9A9996"/>
<stop offset="0.720567" stop-color="#77767B"/>
<stop offset="1" stop-color="#68666F"/>
</linearGradient>
</defs>
</svg>
