<svg width="64" height="64" viewBox="0 0 64 64" fill="none" xmlns="http://www.w3.org/2000/svg">
<mask id="mask0_9_341" style="mask-type:luminance" maskUnits="userSpaceOnUse" x="4" y="3" width="57" height="57">
<path d="M47 3.9686H17.002C9.82119 3.9686 4 9.78979 4 16.9706V46.9686C4 54.1494 9.82119 59.9706 17.002 59.9706H47C54.1808 59.9706 60.002 54.1494 60.002 46.9686V16.9706C60.002 9.78979 54.1808 3.9686 47 3.9686Z" fill="white"/>
</mask>
<g mask="url(#mask0_9_341)">
<mask id="mask1_9_341" style="mask-type:alpha" maskUnits="userSpaceOnUse" x="4" y="3" width="56" height="58">
<path d="M4.09375 17.1263C4.09375 9.85958 9.90006 3.96875 17.0625 3.96875H46.9375C54.0999 3.96875 59.9062 9.85958 59.9062 17.1263V47.4362C59.9062 54.7029 54.0999 60.5938 46.9375 60.5938H17.0625C9.90006 60.5938 4.09375 54.7029 4.09375 47.4362V17.1263Z" fill="black"/>
</mask>
<g mask="url(#mask1_9_341)">
<path d="M9.44776 3.96875C6.48146 3.96875 4.09375 6.35107 4.09375 9.30916V55.2533C4.09375 58.2135 6.48146 60.5938 9.44776 60.5938H54.5501C57.5185 60.5938 59.9062 58.2135 59.9062 55.2533V16.7565C59.9062 13.2164 57.0301 10.348 53.481 10.348H28.78C27.4636 10.348 26.2603 9.60747 25.6691 8.43508L24.862 6.83713C23.9732 5.07855 22.1682 3.96875 20.1935 3.96875H9.44776Z" fill="url(#paint0_linear_9_341)"/>
</g>
<path d="M33.0644 15.4859C31.5856 15.4859 30.2499 16.0678 29.2802 17.0128C28.0559 18.2034 26.3815 19.7118 24.6314 19.7118H9.37038C6.39391 19.7118 3.998 22.0682 3.998 24.9942V47C4 55 10.5 60 17 60H46.8047C54 60 60 54.5 60 47L60.002 20.7683C60.002 17.8423 57.6061 15.4859 54.6275 15.4859H33.0644Z" fill="url(#paint1_linear_9_341)"/>
<path d="M33.0644 15.4859C31.5856 15.4859 30.2499 16.0678 29.2802 17.0128C28.0559 18.2034 26.3815 19.7118 24.6314 19.7118H9.37038C6.39391 19.7118 3.998 22.0682 3.998 24.9942V45C4 53 10.5 58 17 58C17 58 39.6094 58 46.8047 58C54 58 60 52.5 60 45C60 37.5 60.002 20.7683 60.002 20.7683C60.002 17.8423 57.6061 15.4859 54.6275 15.4859H33.0644Z" fill="url(#paint2_linear_9_341)"/>
</g>
<path d="M41.9424 30.7194C41.9424 29.2175 37.4782 28 31.9712 28C26.4643 28 22 29.2175 22 30.7194V33.4388C22 34.9407 26.4643 36.1583 31.9712 36.1583C37.4782 36.1583 41.9424 34.9407 41.9424 33.4388V30.7194Z" fill="#438DE6"/>
<path d="M41.9424 38.276C41.9424 39.8241 37.4782 41.0791 31.9712 41.0791C26.4643 41.0791 22 39.8241 22 38.276V35.4728C22 35.2885 22.2118 35.1855 22.3521 35.2996C22.4158 35.3514 22.4876 35.4093 22.5674 35.4728C23.9362 36.5615 27.6297 37.3416 31.9712 37.3416C36.3128 37.3416 40.0062 36.5615 41.3751 35.4728C41.4548 35.4093 41.5267 35.3514 41.5903 35.2996C41.7306 35.1855 41.9424 35.2885 41.9424 35.4728V38.276Z" fill="#438DE6"/>
<path d="M41.9424 43.1968C41.9424 44.745 37.4782 46 31.9712 46C26.4643 46 22 44.745 22 43.1968V40.3936C22 40.2094 22.2118 40.1063 22.3521 40.2205C22.4158 40.2723 22.4876 40.3302 22.5674 40.3936C23.9362 41.4824 27.6297 42.2624 31.9712 42.2624C36.3128 42.2624 40.0062 41.4824 41.3751 40.3936C41.4548 40.3302 41.5267 40.2723 41.5903 40.2205C41.7306 40.1063 41.9424 40.2094 41.9424 40.3936V43.1968Z" fill="#438DE6"/>
<defs>
<linearGradient id="paint0_linear_9_341" x1="31.604" y1="14.3386" x2="31.604" y2="26.3028" gradientUnits="userSpaceOnUse">
<stop stop-color="#428CE6"/>
<stop offset="0.831768" stop-color="#225590"/>
<stop offset="1" stop-color="#428CE6"/>
</linearGradient>
<linearGradient id="paint1_linear_9_341" x1="3.998" y1="56.7263" x2="60.002" y2="56.7263" gradientUnits="userSpaceOnUse">
<stop stop-color="#62A0EA"/>
<stop offset="0.0715849" stop-color="#AFD4FF" stop-opacity="0.4"/>
<stop offset="0.15" stop-color="#4B92E7"/>
<stop offset="0.85" stop-color="#4B92E7"/>
<stop offset="0.930477" stop-color="#C0D5EA" stop-opacity="0.4"/>
<stop offset="1" stop-color="#62A0EA"/>
</linearGradient>
<linearGradient id="paint2_linear_9_341" x1="33.0644" y1="15.4859" x2="33.0644" y2="59.6623" gradientUnits="userSpaceOnUse">
<stop stop-color="#A4CAEE"/>
<stop offset="1" stop-color="#73ABEA"/>
</linearGradient>
</defs>
</svg>
