<svg width="64" height="64" viewBox="0 0 64 64" fill="none" xmlns="http://www.w3.org/2000/svg">
<mask id="mask0_8_182" style="mask-type:luminance" maskUnits="userSpaceOnUse" x="4" y="3" width="57" height="57">
<path d="M47 3.9686H17.002C9.82119 3.9686 4 9.78979 4 16.9706V46.9686C4 54.1494 9.82119 59.9706 17.002 59.9706H47C54.1808 59.9706 60.002 54.1494 60.002 46.9686V16.9706C60.002 9.78979 54.1808 3.9686 47 3.9686Z" fill="white"/>
</mask>
<g mask="url(#mask0_8_182)">
<mask id="mask1_8_182" style="mask-type:alpha" maskUnits="userSpaceOnUse" x="4" y="3" width="56" height="58">
<path d="M4.09375 17.1263C4.09375 9.85958 9.90006 3.96875 17.0625 3.96875H46.9375C54.0999 3.96875 59.9062 9.85958 59.9062 17.1263V47.4362C59.9062 54.7029 54.0999 60.5938 46.9375 60.5938H17.0625C9.90006 60.5938 4.09375 54.7029 4.09375 47.4362V17.1263Z" fill="black"/>
</mask>
<g mask="url(#mask1_8_182)">
<path d="M9.44776 3.96875C6.48146 3.96875 4.09375 6.35107 4.09375 9.30916V55.2533C4.09375 58.2135 6.48146 60.5938 9.44776 60.5938H54.5501C57.5185 60.5938 59.9062 58.2135 59.9062 55.2533V16.7565C59.9062 13.2164 57.0301 10.348 53.481 10.348H28.78C27.4636 10.348 26.2603 9.60747 25.6691 8.43508L24.862 6.83713C23.9732 5.07855 22.1682 3.96875 20.1935 3.96875H9.44776Z" fill="url(#paint0_linear_8_182)"/>
</g>
<path d="M33.0644 15.4859C31.5856 15.4859 30.2499 16.0678 29.2802 17.0128C28.0559 18.2034 26.3815 19.7118 24.6314 19.7118H9.37038C6.39391 19.7118 3.998 22.0683 3.998 24.9942V47C4 55 10.5 60 17 60H46.8047C54 60 60 54.5 60 47L60.002 20.7683C60.002 17.8423 57.6061 15.4859 54.6275 15.4859H33.0644Z" fill="url(#paint1_linear_8_182)"/>
<path d="M33.0644 15.4859C31.5856 15.4859 30.2499 16.0678 29.2802 17.0128C28.0559 18.2034 26.3815 19.7118 24.6314 19.7118H9.37038C6.39391 19.7118 3.998 22.0682 3.998 24.9942V45C4 53 10.5 58 17 58C17 58 39.6094 58 46.8047 58C54 58 60 52.5 60 45C60 37.5 60.002 20.7683 60.002 20.7683C60.002 17.8423 57.6061 15.4859 54.6275 15.4859H33.0644Z" fill="url(#paint2_linear_8_182)"/>
</g>
<path d="M31.6706 43.6328C25.2255 43.6328 20 40.1336 20 35.8164C20 31.4992 25.2255 28 31.6706 28C38.1157 28 43.3413 31.5002 43.3413 35.8164C43.3413 40.1326 38.1157 43.6328 31.6706 43.6328ZM33.4572 31.0558C28.5575 31.0558 24.5866 33.4482 24.5866 36.3999C24.5866 39.3516 28.5575 41.7431 33.4562 41.7431C38.355 41.7431 41.9719 40.1073 41.9719 36.3999C41.9719 32.6926 38.356 31.0558 33.4572 31.0558ZM37.7734 40.1063C38.155 40.2212 38.5283 40.3619 38.8909 40.5274C39.1002 40.6308 39.2913 40.7675 39.4569 40.932C39.5611 41.0426 39.6483 41.1682 39.7156 41.3045L42.5 45.9981L38 46L35.8964 42.0485C35.7022 41.7042 35.4685 41.3837 35.2 41.0935C35.1326 41.0183 35.0504 40.9579 34.9585 40.9161C34.8666 40.8743 34.767 40.8519 34.6661 40.8503H33.5973V45.9971L29.6166 45.9981V32.854H37.612C37.612 32.854 41.2532 32.9192 41.2532 36.3844C41.2564 37.3313 40.898 38.2437 40.2513 38.9354C39.6047 39.6271 38.7184 40.0459 37.7734 40.1063ZM36.0423 35.7046L33.6313 35.7036V37.9385H36.0423C36.1912 37.9404 36.339 37.9121 36.4768 37.8554C36.6145 37.7986 36.7393 37.7145 36.8436 37.6081C36.948 37.5018 37.0297 37.3754 37.0839 37.2366C37.138 37.0979 37.1635 36.9495 37.1587 36.8006C37.167 36.6528 37.1437 36.5048 37.0902 36.3667C37.0368 36.2286 36.9544 36.1035 36.8488 35.9997C36.7431 35.8959 36.6165 35.816 36.4774 35.7651C36.3383 35.7142 36.1899 35.6935 36.0423 35.7046Z" fill="#438DE6"/>
<defs>
<linearGradient id="paint0_linear_8_182" x1="31.604" y1="14.3386" x2="31.604" y2="26.3028" gradientUnits="userSpaceOnUse">
<stop stop-color="#428CE6"/>
<stop offset="0.831768" stop-color="#225590"/>
<stop offset="1" stop-color="#428CE6"/>
</linearGradient>
<linearGradient id="paint1_linear_8_182" x1="3.998" y1="56.7263" x2="60.002" y2="56.7263" gradientUnits="userSpaceOnUse">
<stop stop-color="#62A0EA"/>
<stop offset="0.0715849" stop-color="#AFD4FF" stop-opacity="0.4"/>
<stop offset="0.15" stop-color="#4B92E7"/>
<stop offset="0.85" stop-color="#4B92E7"/>
<stop offset="0.930477" stop-color="#C0D5EA" stop-opacity="0.4"/>
<stop offset="1" stop-color="#62A0EA"/>
</linearGradient>
<linearGradient id="paint2_linear_8_182" x1="33.0644" y1="15.4859" x2="33.0644" y2="59.6623" gradientUnits="userSpaceOnUse">
<stop stop-color="#A4CAEE"/>
<stop offset="1" stop-color="#73ABEA"/>
</linearGradient>
</defs>
</svg>
