<svg width="64" height="64" viewBox="0 0 64 64" fill="none" xmlns="http://www.w3.org/2000/svg">
<mask id="mask0_22_2541" style="mask-type:luminance" maskUnits="userSpaceOnUse" x="4" y="3" width="57" height="57">
<path d="M47 3.9686H17.002C9.82119 3.9686 4 9.78979 4 16.9706V46.9686C4 54.1494 9.82119 59.9706 17.002 59.9706H47C54.1808 59.9706 60.002 54.1494 60.002 46.9686V16.9706C60.002 9.78979 54.1808 3.9686 47 3.9686Z" fill="white"/>
</mask>
<g mask="url(#mask0_22_2541)">
<mask id="mask1_22_2541" style="mask-type:alpha" maskUnits="userSpaceOnUse" x="4" y="3" width="56" height="58">
<path d="M4.09375 17.1263C4.09375 9.85958 9.90006 3.96875 17.0625 3.96875H46.9375C54.0999 3.96875 59.9062 9.85958 59.9062 17.1263V47.4362C59.9062 54.7029 54.0999 60.5938 46.9375 60.5938H17.0625C9.90006 60.5938 4.09375 54.7029 4.09375 47.4362V17.1263Z" fill="black"/>
</mask>
<g mask="url(#mask1_22_2541)">
<path d="M9.44776 3.96875C6.48146 3.96875 4.09375 6.35107 4.09375 9.30916V55.2533C4.09375 58.2135 6.48146 60.5938 9.44776 60.5938H54.5501C57.5185 60.5938 59.9062 58.2135 59.9062 55.2533V16.7565C59.9062 13.2164 57.0301 10.348 53.481 10.348H28.78C27.4636 10.348 26.2603 9.60747 25.6691 8.43508L24.862 6.83713C23.9732 5.07855 22.1682 3.96875 20.1935 3.96875H9.44776Z" fill="url(#paint0_linear_22_2541)"/>
</g>
<path d="M33.0644 15.4859C31.5856 15.4859 30.2499 16.0678 29.2802 17.0128C28.0559 18.2034 26.3815 19.7118 24.6314 19.7118H9.37038C6.39391 19.7118 3.998 22.0683 3.998 24.9942V47C4 55 10.5 60 17 60H46.8047C54 60 60 54.5 60 47L60.002 20.7683C60.002 17.8423 57.6061 15.4859 54.6275 15.4859H33.0644Z" fill="url(#paint1_linear_22_2541)"/>
<path d="M33.0644 15.4859C31.5856 15.4859 30.2499 16.0678 29.2802 17.0128C28.0559 18.2034 26.3815 19.7118 24.6314 19.7118H9.37038C6.39391 19.7118 3.998 22.0682 3.998 24.9942V45C4 53 10.5 58 17 58C17 58 39.6094 58 46.8047 58C54 58 60 52.5 60 45C60 37.5 60.002 20.7683 60.002 20.7683C60.002 17.8423 57.6061 15.4859 54.6275 15.4859H33.0644Z" fill="url(#paint2_linear_22_2541)"/>
</g>
<path d="M39.1669 42.2351C39.4508 41.8631 39.7065 41.4705 39.932 41.0605C39.995 40.9265 40.0548 40.7909 40.1113 40.6541H33.859C33.4435 40.6544 33.032 40.5729 32.6481 40.4142C32.2641 40.2555 31.9152 40.0226 31.6212 39.729C31.3273 39.4353 31.0941 39.0866 30.935 38.7028C30.7759 38.319 30.694 37.9075 30.694 37.492C30.694 37.0765 30.7759 36.6651 30.935 36.2813C31.0941 35.8975 31.3273 35.5488 31.6212 35.2551C31.9152 34.9614 32.2641 34.7286 32.6481 34.5699C33.032 34.4111 33.4435 34.3296 33.859 34.33C34.4135 34.3307 34.9579 34.4771 35.4379 34.7546C35.9179 35.0321 36.3165 35.4309 36.5937 35.911H38.3241C37.9981 34.9868 37.3937 34.1863 36.5941 33.6195C35.7946 33.0528 34.8391 32.7476 33.859 32.746C33.2357 32.7456 32.6183 32.8681 32.0424 33.1065C31.4664 33.3449 30.943 33.6944 30.5022 34.1352C30.0614 34.576 29.7119 35.0994 29.4735 35.6753C29.2351 36.2513 29.1126 36.8687 29.113 37.492C29.113 38.1152 29.2358 38.7322 29.4743 39.3078C29.7129 39.8834 30.0625 40.4064 30.5033 40.8469C30.944 41.2874 31.4672 41.6367 32.043 41.8749C32.6188 42.1131 33.2359 42.2355 33.859 42.2351H39.1669Z" fill="#438DE6"/>
<path d="M36.5339 44.6081C36.6233 44.5617 36.712 44.5139 36.7999 44.4646C37.234 44.1801 37.6438 43.8602 38.0252 43.5082C38.1802 43.3531 38.3298 43.1926 38.4735 43.0271H33.8531C33.0217 43.0291 32.2005 42.8438 31.4505 42.485C30.7005 42.1261 30.041 41.6029 29.521 40.9543C29.001 40.3056 28.6337 39.5481 28.4466 38.738C28.2594 37.928 28.2571 37.0862 28.4399 36.2751C28.6227 35.4641 28.9859 34.7046 29.5024 34.0531C30.019 33.4017 30.6756 32.875 31.4237 32.5121C32.1717 32.1492 32.9919 31.9595 33.8233 31.9571C34.6546 31.9546 35.4759 32.1395 36.2261 32.498V30.7914C35.4646 30.5181 34.6621 30.3766 33.8531 30.373C32.9184 30.373 31.9928 30.5571 31.1293 30.9148C30.2658 31.2725 29.4811 31.7968 28.8202 32.4577C28.1593 33.1186 27.635 33.9032 27.2773 34.7668C26.9196 35.6303 26.7355 36.5559 26.7355 37.4905C26.7355 38.4252 26.9196 39.3508 27.2773 40.2143C27.635 41.0778 28.1593 41.8625 28.8202 42.5234C29.4811 43.1843 30.2658 43.7086 31.1293 44.0663C31.9928 44.424 32.9184 44.6081 33.8531 44.6081H36.5339Z" fill="#438DE6"/>
<path d="M28.8799 45.5585C29.028 45.614 29.1775 45.6658 29.3282 45.7139C29.8334 45.8409 30.3482 45.9259 30.8674 45.9679C31.3845 46.0107 31.9043 46.0107 32.4215 45.9679C32.9397 45.9257 33.4535 45.8408 33.9577 45.7139C34.2667 45.6249 34.5709 45.5202 34.8692 45.4001H33.859C31.7617 45.4001 29.7503 44.5669 28.2672 43.0839C26.7842 41.6008 25.951 39.5894 25.951 37.492C25.951 35.3947 26.7842 33.3833 28.2672 31.9002C29.7503 30.4172 31.7617 29.584 33.859 29.584V28C32.6127 28 31.3785 28.2455 30.2271 28.7226C29.0756 29.1997 28.0294 29.8989 27.1482 30.7803C26.267 31.6618 25.5681 32.7082 25.0914 33.8598C24.6148 35.0114 24.3696 36.2457 24.37 37.492C24.3719 39.1095 24.7873 40.6996 25.5766 42.1114C26.3659 43.5232 27.503 44.7098 28.8799 45.5585Z" fill="#438DE6"/>
<defs>
<linearGradient id="paint0_linear_22_2541" x1="31.604" y1="14.3386" x2="31.604" y2="26.3028" gradientUnits="userSpaceOnUse">
<stop stop-color="#428CE6"/>
<stop offset="0.831768" stop-color="#225590"/>
<stop offset="1" stop-color="#428CE6"/>
</linearGradient>
<linearGradient id="paint1_linear_22_2541" x1="3.998" y1="56.7263" x2="60.002" y2="56.7263" gradientUnits="userSpaceOnUse">
<stop stop-color="#62A0EA"/>
<stop offset="0.0715849" stop-color="#AFD4FF" stop-opacity="0.4"/>
<stop offset="0.15" stop-color="#4B92E7"/>
<stop offset="0.85" stop-color="#4B92E7"/>
<stop offset="0.930477" stop-color="#C0D5EA" stop-opacity="0.4"/>
<stop offset="1" stop-color="#62A0EA"/>
</linearGradient>
<linearGradient id="paint2_linear_22_2541" x1="33.0644" y1="15.4859" x2="33.0644" y2="59.6623" gradientUnits="userSpaceOnUse">
<stop stop-color="#A4CAEE"/>
<stop offset="1" stop-color="#73ABEA"/>
</linearGradient>
</defs>
</svg>
