<svg width="64" height="64" viewBox="0 0 64 64" fill="none" xmlns="http://www.w3.org/2000/svg">
<mask id="mask0_8_242" style="mask-type:luminance" maskUnits="userSpaceOnUse" x="4" y="3" width="57" height="57">
<path d="M47 3.9686H17.002C9.82119 3.9686 4 9.78979 4 16.9706V46.9686C4 54.1494 9.82119 59.9706 17.002 59.9706H47C54.1808 59.9706 60.002 54.1494 60.002 46.9686V16.9706C60.002 9.78979 54.1808 3.9686 47 3.9686Z" fill="white"/>
</mask>
<g mask="url(#mask0_8_242)">
<mask id="mask1_8_242" style="mask-type:alpha" maskUnits="userSpaceOnUse" x="4" y="3" width="56" height="58">
<path d="M4.09375 17.1263C4.09375 9.85958 9.90006 3.96875 17.0625 3.96875H46.9375C54.0999 3.96875 59.9062 9.85958 59.9062 17.1263V47.4362C59.9062 54.7029 54.0999 60.5938 46.9375 60.5938H17.0625C9.90006 60.5938 4.09375 54.7029 4.09375 47.4362V17.1263Z" fill="black"/>
</mask>
<g mask="url(#mask1_8_242)">
<path d="M9.44776 3.96875C6.48146 3.96875 4.09375 6.35107 4.09375 9.30916V55.2533C4.09375 58.2135 6.48146 60.5938 9.44776 60.5938H54.5501C57.5185 60.5938 59.9062 58.2135 59.9062 55.2533V16.7565C59.9062 13.2164 57.0301 10.348 53.481 10.348H28.78C27.4636 10.348 26.2603 9.60747 25.6691 8.43508L24.862 6.83713C23.9732 5.07855 22.1682 3.96875 20.1935 3.96875H9.44776Z" fill="url(#paint0_linear_8_242)"/>
</g>
<path d="M33.0644 15.4859C31.5856 15.4859 30.2499 16.0678 29.2802 17.0128C28.0559 18.2034 26.3815 19.7118 24.6314 19.7118H9.37039C6.39392 19.7118 3.99802 22.0683 3.99802 24.9942V47C4.00002 55 10.5 60 17 60H46.8047C54 60 60 54.5 60 47L60.002 20.7683C60.002 17.8423 57.6061 15.4859 54.6275 15.4859H33.0644Z" fill="url(#paint1_linear_8_242)"/>
<path d="M33.0644 15.4859C31.5856 15.4859 30.2499 16.0678 29.2802 17.0128C28.0559 18.2034 26.3815 19.7118 24.6314 19.7118H9.37039C6.39392 19.7118 3.99802 22.0682 3.99802 24.9942V45C4.00002 53 10.5 58 17 58C17 58 39.6094 58 46.8047 58C54 58 60 52.5 60 45C60 37.5 60.002 20.7683 60.002 20.7683C60.002 17.8423 57.6061 15.4859 54.6275 15.4859H33.0644Z" fill="url(#paint2_linear_8_242)"/>
</g>
<path d="M27.7872 39.6142C27.7923 39.9034 27.8845 40.4654 28.0229 40.9043C28.3136 41.8333 28.8069 42.6928 29.4932 43.4502C30.1975 44.2287 31.0648 44.8541 32.0665 45.2981C33.1194 45.7643 34.2603 46.0019 35.4453 46C36.6283 45.9983 37.7692 45.7561 38.8221 45.2863C39.8238 44.838 40.6903 44.21 41.3935 43.431C42.0794 42.6705 42.5718 41.8095 42.8634 40.8805C43.01 40.4111 43.1026 39.9346 43.1397 39.4567C43.1761 38.9857 43.1608 38.514 43.094 38.0426C42.9635 37.1242 42.6457 36.2624 42.1564 35.4768C41.7089 34.7549 41.132 34.1229 40.4461 33.591L40.4477 33.5898L33.5256 28.2748C33.5193 28.2702 33.5142 28.2651 33.5076 28.2608C33.0534 27.9121 32.2898 27.9133 31.7903 28.2628C31.2853 28.6161 31.2275 29.2004 31.6769 29.569L31.6748 29.571L34.562 31.9188L25.7622 31.9282H25.7505C25.0231 31.929 24.3239 32.4061 24.1855 33.0092C24.0433 33.6236 24.5373 34.1332 25.2936 34.136L25.2923 34.1387L29.7526 34.1301L21.7936 40.2392C21.7834 40.2467 21.7724 40.2545 21.7631 40.2619C21.0123 40.8368 20.7696 41.7928 21.2425 42.3978C21.7224 43.013 22.7429 43.0141 23.5015 42.4013L27.8453 38.8462C27.8453 38.8462 27.7821 39.3261 27.7872 39.6142ZM38.9491 41.2213C38.0541 42.1331 36.8011 42.6502 35.4453 42.6529C34.0875 42.6552 32.8345 42.1429 31.9395 41.2326C31.5021 40.789 31.1808 40.2786 30.9827 39.7349C30.7884 39.2007 30.713 38.6336 30.763 38.0614C30.8103 37.5021 30.9768 36.9686 31.2426 36.4859C31.5037 36.0115 31.8632 35.5827 32.3072 35.22C33.1772 34.511 34.2849 34.1272 35.4433 34.1257C36.6029 34.124 37.7098 34.5044 38.5806 35.211C39.0238 35.5722 39.383 35.9993 39.6441 36.473C39.911 36.9553 40.0763 37.4869 40.1256 38.0477C40.1748 38.6191 40.0994 39.1854 39.9051 39.7201C39.7066 40.2653 39.3865 40.7757 38.9491 41.2213ZM32.5515 38.1173C32.5929 37.3782 32.9549 36.7271 33.5009 36.2655C34.0363 35.8121 34.757 35.535 35.5434 35.535C36.329 35.535 37.0497 35.8121 37.5855 36.2655C38.1311 36.7271 38.493 37.3782 38.5349 38.1165C38.5763 38.8759 38.271 39.5813 37.7356 40.1043C37.1896 40.6362 36.413 40.97 35.5434 40.97C34.6738 40.97 33.8956 40.6362 33.35 40.1043C32.8142 39.5813 32.5097 38.8759 32.5515 38.1173Z" fill="#438DE6"/>
<defs>
<linearGradient id="paint0_linear_8_242" x1="31.604" y1="14.3386" x2="31.604" y2="26.3028" gradientUnits="userSpaceOnUse">
<stop stop-color="#428CE6"/>
<stop offset="0.831768" stop-color="#225590"/>
<stop offset="1" stop-color="#428CE6"/>
</linearGradient>
<linearGradient id="paint1_linear_8_242" x1="3.99802" y1="56.7263" x2="60.002" y2="56.7263" gradientUnits="userSpaceOnUse">
<stop stop-color="#62A0EA"/>
<stop offset="0.0715849" stop-color="#AFD4FF" stop-opacity="0.4"/>
<stop offset="0.15" stop-color="#4B92E7"/>
<stop offset="0.85" stop-color="#4B92E7"/>
<stop offset="0.930477" stop-color="#C0D5EA" stop-opacity="0.4"/>
<stop offset="1" stop-color="#62A0EA"/>
</linearGradient>
<linearGradient id="paint2_linear_8_242" x1="33.0644" y1="15.4859" x2="33.0644" y2="59.6623" gradientUnits="userSpaceOnUse">
<stop stop-color="#A4CAEE"/>
<stop offset="1" stop-color="#73ABEA"/>
</linearGradient>
</defs>
</svg>
