<svg width="64" height="64" viewBox="0 0 64 64" fill="none" xmlns="http://www.w3.org/2000/svg">
<mask id="mask0_22_2645" style="mask-type:luminance" maskUnits="userSpaceOnUse" x="4" y="3" width="57" height="57">
<path d="M47 3.9686H17.002C9.82119 3.9686 4 9.78979 4 16.9706V46.9686C4 54.1494 9.82119 59.9706 17.002 59.9706H47C54.1808 59.9706 60.002 54.1494 60.002 46.9686V16.9706C60.002 9.78979 54.1808 3.9686 47 3.9686Z" fill="white"/>
</mask>
<g mask="url(#mask0_22_2645)">
<mask id="mask1_22_2645" style="mask-type:alpha" maskUnits="userSpaceOnUse" x="4" y="3" width="56" height="58">
<path d="M4.09375 17.1263C4.09375 9.85958 9.90006 3.96875 17.0625 3.96875H46.9375C54.0999 3.96875 59.9062 9.85958 59.9062 17.1263V47.4362C59.9062 54.7029 54.0999 60.5938 46.9375 60.5938H17.0625C9.90006 60.5938 4.09375 54.7029 4.09375 47.4362V17.1263Z" fill="black"/>
</mask>
<g mask="url(#mask1_22_2645)">
<path d="M9.44776 3.96875C6.48146 3.96875 4.09375 6.35107 4.09375 9.30916V55.2533C4.09375 58.2135 6.48146 60.5938 9.44776 60.5938H54.5501C57.5185 60.5938 59.9062 58.2135 59.9062 55.2533V16.7565C59.9062 13.2164 57.0301 10.348 53.481 10.348H28.78C27.4636 10.348 26.2603 9.60747 25.6691 8.43508L24.862 6.83713C23.9732 5.07855 22.1682 3.96875 20.1935 3.96875H9.44776Z" fill="url(#paint0_linear_22_2645)"/>
</g>
<path d="M33.0644 15.4859C31.5856 15.4859 30.2499 16.0678 29.2802 17.0128C28.0559 18.2034 26.3815 19.7118 24.6314 19.7118H9.37038C6.39391 19.7118 3.998 22.0682 3.998 24.9942V47C4 55 10.5 60 17 60H46.8047C54 60 60 54.5 60 47L60.002 20.7683C60.002 17.8423 57.6061 15.4859 54.6275 15.4859H33.0644Z" fill="url(#paint1_linear_22_2645)"/>
<path d="M33.0644 15.4859C31.5856 15.4859 30.2499 16.0678 29.2802 17.0128C28.0559 18.2034 26.3815 19.7118 24.6314 19.7118H9.37038C6.39391 19.7118 3.998 22.0682 3.998 24.9942V45C4 53 10.5 58 17 58C17 58 39.6094 58 46.8047 58C54 58 60 52.5 60 45C60 37.5 60.002 20.7683 60.002 20.7683C60.002 17.8423 57.6061 15.4859 54.6275 15.4859H33.0644Z" fill="url(#paint2_linear_22_2645)"/>
</g>
<path d="M33.5 32.8333V40.8542L36.57 41.6517L40.1425 36.0333H37.1217L33.5 32.8333Z" fill="#438DE6"/>
<path d="M37.6667 27C36.3406 27 35.0688 27.5268 34.1311 28.4645C33.1934 29.4021 32.6667 30.6739 32.6667 32C32.6667 33.3261 33.1934 34.5979 34.1311 35.5355C35.0688 36.4732 36.3406 37 37.6667 37C38.9927 37 40.2645 36.4732 41.2022 35.5355C42.1399 34.5979 42.6667 33.3261 42.6667 32C42.6667 30.6739 42.1399 29.4021 41.2022 28.4645C40.2645 27.5268 38.9927 27 37.6667 27ZM37.6667 28.6667C38.5507 28.6667 39.3986 29.0179 40.0237 29.643C40.6488 30.2681 41 31.1159 41 32C41 32.8841 40.6488 33.7319 40.0237 34.357C39.3986 34.9821 38.5507 35.3333 37.6667 35.3333C36.7826 35.3333 35.9348 34.9821 35.3096 34.357C34.6845 33.7319 34.3333 32.8841 34.3333 32C34.3333 31.1159 34.6845 30.2681 35.3096 29.643C35.9348 29.0179 36.7826 28.6667 37.6667 28.6667ZM37.6667 30.3333C37.2246 30.3333 36.8007 30.5089 36.4882 30.8215C36.1756 31.134 36 31.558 36 32C36 32.442 36.1756 32.866 36.4882 33.1785C36.8007 33.4911 37.2246 33.6667 37.6667 33.6667C38.1087 33.6667 38.5326 33.4911 38.8452 33.1785C39.1577 32.866 39.3333 32.442 39.3333 32C39.3333 31.558 39.1577 31.134 38.8452 30.8215C38.5326 30.5089 38.1087 30.3333 37.6667 30.3333ZM24.3333 35.3333C23.4493 35.3333 22.6014 35.6845 21.9763 36.3096C21.3512 36.9348 21 37.7826 21 38.6667C21 39.5507 21.3512 40.3986 21.9763 41.0237C22.6014 41.6488 23.4493 42 24.3333 42C25.2174 42 26.0652 41.6488 26.6904 41.0237C27.3155 40.3986 27.6667 39.5507 27.6667 38.6667C27.6667 37.7826 27.3155 36.9348 26.6904 36.3096C26.0652 35.6845 25.2174 35.3333 24.3333 35.3333ZM24.3333 36.1667C24.9964 36.1667 25.6323 36.4301 26.1011 36.8989C26.5699 37.3677 26.8333 38.0036 26.8333 38.6667C26.8333 39.3297 26.5699 39.9656 26.1011 40.4344C25.6323 40.9033 24.9964 41.1667 24.3333 41.1667C23.6703 41.1667 23.0344 40.9033 22.5656 40.4344C22.0967 39.9656 21.8333 39.3297 21.8333 38.6667C21.8333 38.0036 22.0967 37.3677 22.5656 36.8989C23.0344 36.4301 23.6703 36.1667 24.3333 36.1667Z" fill="#438DE6"/>
<path d="M35.0983 42.2212L25.0813 37.1758C24.2666 36.7654 23.2674 37.0901 22.8495 37.9009C22.4315 38.7117 22.7532 39.7017 23.5679 40.112L33.5848 45.1574C34.3995 45.5678 35.3987 45.2432 35.8167 44.4323C36.2346 43.6215 35.9129 42.6316 35.0983 42.2212Z" fill="#438DE6"/>
<path d="M34.3333 40.3333C33.4493 40.3333 32.6014 40.6845 31.9763 41.3097C31.3512 41.9348 31 42.7826 31 43.6667C31 44.5507 31.3512 45.3986 31.9763 46.0237C32.6014 46.6488 33.4493 47 34.3333 47C35.2174 47 36.0652 46.6488 36.6904 46.0237C37.3155 45.3986 37.6667 44.5507 37.6667 43.6667C37.6667 42.7826 37.3155 41.9348 36.6904 41.3097C36.0652 40.6845 35.2174 40.3333 34.3333 40.3333ZM34.3333 41.1667C34.9964 41.1667 35.6323 41.4301 36.1011 41.8989C36.5699 42.3678 36.8333 43.0036 36.8333 43.6667C36.8333 44.3297 36.5699 44.9656 36.1011 45.4344C35.6323 45.9033 34.9964 46.1667 34.3333 46.1667C33.6703 46.1667 33.0344 45.9033 32.5656 45.4344C32.0967 44.9656 31.8333 44.3297 31.8333 43.6667C31.8333 43.0036 32.0967 42.3678 32.5656 41.8989C33.0344 41.4301 33.6703 41.1667 34.3333 41.1667Z" fill="#438DE6"/>
<defs>
<linearGradient id="paint0_linear_22_2645" x1="31.604" y1="14.3386" x2="31.604" y2="26.3028" gradientUnits="userSpaceOnUse">
<stop stop-color="#428CE6"/>
<stop offset="0.831768" stop-color="#225590"/>
<stop offset="1" stop-color="#428CE6"/>
</linearGradient>
<linearGradient id="paint1_linear_22_2645" x1="3.998" y1="56.7263" x2="60.002" y2="56.7263" gradientUnits="userSpaceOnUse">
<stop stop-color="#62A0EA"/>
<stop offset="0.0715849" stop-color="#AFD4FF" stop-opacity="0.4"/>
<stop offset="0.15" stop-color="#4B92E7"/>
<stop offset="0.85" stop-color="#4B92E7"/>
<stop offset="0.930477" stop-color="#C0D5EA" stop-opacity="0.4"/>
<stop offset="1" stop-color="#62A0EA"/>
</linearGradient>
<linearGradient id="paint2_linear_22_2645" x1="33.0644" y1="15.4859" x2="33.0644" y2="59.6623" gradientUnits="userSpaceOnUse">
<stop stop-color="#A4CAEE"/>
<stop offset="1" stop-color="#73ABEA"/>
</linearGradient>
</defs>
</svg>
