<svg width="64" height="64" viewBox="0 0 64 64" fill="none" xmlns="http://www.w3.org/2000/svg">
<mask id="mask0_8_212" style="mask-type:luminance" maskUnits="userSpaceOnUse" x="4" y="3" width="57" height="57">
<path d="M47 3.9686H17.002C9.82119 3.9686 4 9.78979 4 16.9706V46.9686C4 54.1494 9.82119 59.9706 17.002 59.9706H47C54.1808 59.9706 60.002 54.1494 60.002 46.9686V16.9706C60.002 9.78979 54.1808 3.9686 47 3.9686Z" fill="white"/>
</mask>
<g mask="url(#mask0_8_212)">
<mask id="mask1_8_212" style="mask-type:alpha" maskUnits="userSpaceOnUse" x="4" y="3" width="56" height="58">
<path d="M4.09375 17.1263C4.09375 9.85958 9.90006 3.96875 17.0625 3.96875H46.9375C54.0999 3.96875 59.9062 9.85958 59.9062 17.1263V47.4362C59.9062 54.7029 54.0999 60.5938 46.9375 60.5938H17.0625C9.90006 60.5938 4.09375 54.7029 4.09375 47.4362V17.1263Z" fill="black"/>
</mask>
<g mask="url(#mask1_8_212)">
<path d="M9.44776 3.96875C6.48146 3.96875 4.09375 6.35107 4.09375 9.30916V55.2533C4.09375 58.2135 6.48146 60.5938 9.44776 60.5938H54.5501C57.5185 60.5938 59.9062 58.2135 59.9062 55.2533V16.7565C59.9062 13.2164 57.0301 10.348 53.481 10.348H28.78C27.4636 10.348 26.2603 9.60747 25.6691 8.43508L24.862 6.83713C23.9732 5.07855 22.1682 3.96875 20.1935 3.96875H9.44776Z" fill="url(#paint0_linear_8_212)"/>
</g>
<path d="M33.0644 15.4859C31.5856 15.4859 30.2499 16.0678 29.2802 17.0128C28.0559 18.2034 26.3815 19.7118 24.6314 19.7118H9.37038C6.39391 19.7118 3.998 22.0683 3.998 24.9942V47C4 55 10.5 60 17 60H46.8047C54 60 60 54.5 60 47L60.002 20.7683C60.002 17.8423 57.6061 15.4859 54.6275 15.4859H33.0644Z" fill="url(#paint1_linear_8_212)"/>
<path d="M33.0644 15.4859C31.5856 15.4859 30.2499 16.0678 29.2802 17.0128C28.0559 18.2034 26.3815 19.7118 24.6314 19.7118H9.37038C6.39391 19.7118 3.998 22.0682 3.998 24.9942V45C4 53 10.5 58 17 58C17 58 39.6094 58 46.8047 58C54 58 60 52.5 60 45C60 37.5 60.002 20.7683 60.002 20.7683C60.002 17.8423 57.6061 15.4859 54.6275 15.4859H33.0644Z" fill="url(#paint2_linear_8_212)"/>
</g>
<path d="M31.7927 28C26.8334 28 22.7928 32.0395 22.7928 36.9989C22.7928 37.0986 22.8038 37.1954 22.807 37.2944C22.6066 37.4489 22.426 37.6354 22.2896 37.8646L22.2885 37.8657L22.2873 37.8679C21.7079 38.8645 22.032 40.1538 23.0146 40.7386L23.0168 40.7408L23.019 40.742C23.258 40.8809 23.5149 40.9607 23.7738 40.999C25.2536 43.9487 28.2765 46 31.7927 46C33.2865 46 34.6752 45.5976 35.9169 44.9497C36.1549 45.0772 36.4206 45.1629 36.7057 45.1914L36.7101 45.1925H36.7145C37.8667 45.2847 38.8824 44.4349 38.9975 43.2842V43.2798V43.2754C39.0208 42.99 38.9854 42.7115 38.9008 42.4526C40.0694 40.934 40.7926 39.0571 40.7926 36.999C40.7926 36.2512 40.6734 35.5366 40.5004 34.8413C40.6678 34.6457 40.8082 34.421 40.8959 34.1634C41.2677 33.0712 40.6803 31.8724 39.5874 31.5003C39.3192 31.4089 39.0442 31.3781 38.7767 31.3959C37.1252 29.3427 34.6242 28 31.7927 28ZM31.7927 30.0083C33.9374 30.0083 35.8266 30.9852 37.1068 32.4956C37.0476 32.6024 36.964 32.6893 36.9233 32.8087C36.8008 33.1686 36.8141 33.5312 36.8838 33.881L34.1394 36.1606C33.5369 35.9326 32.8526 35.9485 32.2794 36.3232C31.9198 36.5474 31.6907 36.8806 31.5302 37.2428L25.8063 37.7712C25.6421 37.5261 25.4363 37.3068 25.1713 37.1428L25.1658 37.1395L25.1603 37.1362C25.0471 37.0703 24.9225 37.056 24.8032 37.0131C24.8032 37.0082 24.801 37.0037 24.801 36.9988C24.801 33.1252 27.9191 30.0083 31.7927 30.0083ZM38.1615 35.4322C38.1877 35.4423 38.205 35.4638 38.2318 35.4729C38.361 35.5169 38.4912 35.5055 38.6218 35.5234C38.7236 35.9998 38.7833 36.4912 38.7833 36.9989C38.7833 38.5386 38.2764 39.9477 37.4397 41.1001C37.3212 41.0665 37.216 41.0051 37.0892 40.9924L37.0837 40.9913H37.0793C36.9395 40.9801 36.8122 41.0231 36.6772 41.0385L35.2611 38.9973C35.4631 38.5845 35.5516 38.1272 35.461 37.6745L38.1615 35.4322ZM31.6719 39.2478C32.1146 39.9106 32.8736 40.2239 33.6176 40.153L35.0128 42.1646C34.9001 42.3923 34.818 42.6392 34.7964 42.9084V42.9095C34.7862 43.0346 34.8265 43.1486 34.8381 43.2699C33.915 43.7176 32.8915 43.9906 31.7927 43.9906C29.113 43.9906 26.8222 42.4815 25.6481 40.2794C25.7272 40.1884 25.8261 40.1205 25.8898 40.0135C25.9348 39.9379 25.939 39.8528 25.9733 39.774L31.6719 39.2478Z" fill="#438DE6"/>
<defs>
<linearGradient id="paint0_linear_8_212" x1="31.604" y1="14.3386" x2="31.604" y2="26.3028" gradientUnits="userSpaceOnUse">
<stop stop-color="#428CE6"/>
<stop offset="0.831768" stop-color="#225590"/>
<stop offset="1" stop-color="#428CE6"/>
</linearGradient>
<linearGradient id="paint1_linear_8_212" x1="3.998" y1="56.7263" x2="60.002" y2="56.7263" gradientUnits="userSpaceOnUse">
<stop stop-color="#62A0EA"/>
<stop offset="0.0715849" stop-color="#AFD4FF" stop-opacity="0.4"/>
<stop offset="0.15" stop-color="#4B92E7"/>
<stop offset="0.85" stop-color="#4B92E7"/>
<stop offset="0.930477" stop-color="#C0D5EA" stop-opacity="0.4"/>
<stop offset="1" stop-color="#62A0EA"/>
</linearGradient>
<linearGradient id="paint2_linear_8_212" x1="33.0644" y1="15.4859" x2="33.0644" y2="59.6623" gradientUnits="userSpaceOnUse">
<stop stop-color="#A4CAEE"/>
<stop offset="1" stop-color="#73ABEA"/>
</linearGradient>
</defs>
</svg>
