<svg width="64" height="64" viewBox="0 0 64 64" fill="none" xmlns="http://www.w3.org/2000/svg">
<mask id="mask0_6_392" style="mask-type:luminance" maskUnits="userSpaceOnUse" x="4" y="3" width="57" height="57">
<path d="M47 3.9686H17.002C9.82119 3.9686 4 9.78979 4 16.9706V46.9686C4 54.1494 9.82119 59.9706 17.002 59.9706H47C54.1808 59.9706 60.002 54.1494 60.002 46.9686V16.9706C60.002 9.78979 54.1808 3.9686 47 3.9686Z" fill="white"/>
</mask>
<g mask="url(#mask0_6_392)">
<mask id="mask1_6_392" style="mask-type:alpha" maskUnits="userSpaceOnUse" x="4" y="3" width="56" height="58">
<path d="M4.09375 17.1263C4.09375 9.85958 9.90006 3.96875 17.0625 3.96875H46.9375C54.0999 3.96875 59.9062 9.85958 59.9062 17.1263V47.4362C59.9062 54.7029 54.0999 60.5938 46.9375 60.5938H17.0625C9.90006 60.5938 4.09375 54.7029 4.09375 47.4362V17.1263Z" fill="black"/>
</mask>
<g mask="url(#mask1_6_392)">
<path d="M9.44776 3.96875C6.48146 3.96875 4.09375 6.35107 4.09375 9.30916V55.2533C4.09375 58.2135 6.48146 60.5938 9.44776 60.5938H54.5501C57.5185 60.5938 59.9062 58.2135 59.9062 55.2533V16.7565C59.9062 13.2164 57.0301 10.348 53.481 10.348H28.78C27.4636 10.348 26.2603 9.60747 25.6691 8.43508L24.862 6.83713C23.9732 5.07855 22.1682 3.96875 20.1935 3.96875H9.44776Z" fill="url(#paint0_linear_6_392)"/>
</g>
<path d="M33.0644 15.4859C31.5856 15.4859 30.2499 16.0678 29.2802 17.0128C28.0559 18.2034 26.3815 19.7118 24.6314 19.7118H9.37038C6.39391 19.7118 3.998 22.0683 3.998 24.9942V47C4 55 10.5 60 17 60H46.8047C54 60 60 54.5 60 47L60.002 20.7683C60.002 17.8423 57.6061 15.4859 54.6275 15.4859H33.0644Z" fill="url(#paint1_linear_6_392)"/>
<path d="M33.0644 15.4859C31.5856 15.4859 30.2499 16.0678 29.2802 17.0128C28.0559 18.2034 26.3815 19.7118 24.6314 19.7118H9.37038C6.39391 19.7118 3.998 22.0682 3.998 24.9942V45C4 53 10.5 58 17 58C17 58 39.6094 58 46.8047 58C54 58 60 52.5 60 45C60 37.5 60.002 20.7683 60.002 20.7683C60.002 17.8423 57.6061 15.4859 54.6275 15.4859H33.0644Z" fill="url(#paint2_linear_6_392)"/>
</g>
<path d="M37.9571 34.4107V35.6871H39.2335V34.4107H39.8718V35.6871H41.1482V36.3253H39.8718V37.6018H41.1482V38.24H39.8718V39.5165H39.2335V38.24H37.9571V39.5165H37.3189V38.24H36.0424V37.6018H37.3189V36.3253H36.0424V35.6871H37.3189V34.4107H37.9571ZM39.2335 36.3253H37.9571V37.6018H39.2335V36.3253Z" fill="#438DE6"/>
<path d="M31 28C34.3294 28 37.2363 29.8082 38.7933 32.4958L38.7781 32.47L34.8608 34.7255C34.089 33.4187 32.6742 32.5369 31.0512 32.5187L31 32.5184C28.525 32.5184 26.5184 34.5249 26.5184 36.9999C26.5184 37.8093 26.7342 38.568 27.1095 39.2234C27.882 40.572 29.3342 41.4816 31 41.4816C32.6762 41.4816 34.1367 40.5604 34.9052 39.1974L34.8866 39.2301L38.7979 41.496C37.258 44.1609 34.391 45.9635 31.1003 45.9994L31 46C27.6601 46 24.745 44.1807 23.192 41.4788C22.4338 40.1598 22 38.6306 22 37C22 32.0295 26.0294 28 31 28Z" fill="#438DE6"/>
<defs>
<linearGradient id="paint0_linear_6_392" x1="31.604" y1="14.3386" x2="31.604" y2="26.3028" gradientUnits="userSpaceOnUse">
<stop stop-color="#428CE6"/>
<stop offset="0.831768" stop-color="#225590"/>
<stop offset="1" stop-color="#428CE6"/>
</linearGradient>
<linearGradient id="paint1_linear_6_392" x1="3.998" y1="56.7263" x2="60.002" y2="56.7263" gradientUnits="userSpaceOnUse">
<stop stop-color="#62A0EA"/>
<stop offset="0.0715849" stop-color="#AFD4FF" stop-opacity="0.4"/>
<stop offset="0.15" stop-color="#4B92E7"/>
<stop offset="0.85" stop-color="#4B92E7"/>
<stop offset="0.930477" stop-color="#C0D5EA" stop-opacity="0.4"/>
<stop offset="1" stop-color="#62A0EA"/>
</linearGradient>
<linearGradient id="paint2_linear_6_392" x1="33.0644" y1="15.4859" x2="33.0644" y2="59.6623" gradientUnits="userSpaceOnUse">
<stop stop-color="#A4CAEE"/>
<stop offset="1" stop-color="#73ABEA"/>
</linearGradient>
</defs>
</svg>
