<svg width="64" height="64" viewBox="0 0 64 64" fill="none" xmlns="http://www.w3.org/2000/svg">
<mask id="mask0_8_202" style="mask-type:luminance" maskUnits="userSpaceOnUse" x="4" y="3" width="57" height="57">
<path d="M47 3.9686H17.002C9.82119 3.9686 4 9.78979 4 16.9706V46.9686C4 54.1494 9.82119 59.9706 17.002 59.9706H47C54.1808 59.9706 60.002 54.1494 60.002 46.9686V16.9706C60.002 9.78979 54.1808 3.9686 47 3.9686Z" fill="white"/>
</mask>
<g mask="url(#mask0_8_202)">
<mask id="mask1_8_202" style="mask-type:alpha" maskUnits="userSpaceOnUse" x="4" y="3" width="56" height="58">
<path d="M4.09375 17.1263C4.09375 9.85958 9.90006 3.96875 17.0625 3.96875H46.9375C54.0999 3.96875 59.9062 9.85958 59.9062 17.1263V47.4362C59.9062 54.7029 54.0999 60.5938 46.9375 60.5938H17.0625C9.90006 60.5938 4.09375 54.7029 4.09375 47.4362V17.1263Z" fill="black"/>
</mask>
<g mask="url(#mask1_8_202)">
<path d="M9.44776 3.96875C6.48146 3.96875 4.09375 6.35107 4.09375 9.30916V55.2533C4.09375 58.2135 6.48146 60.5938 9.44776 60.5938H54.5501C57.5185 60.5938 59.9062 58.2135 59.9062 55.2533V16.7565C59.9062 13.2164 57.0301 10.348 53.481 10.348H28.78C27.4636 10.348 26.2603 9.60747 25.6691 8.43508L24.862 6.83713C23.9732 5.07855 22.1682 3.96875 20.1935 3.96875H9.44776Z" fill="url(#paint0_linear_8_202)"/>
</g>
<path d="M33.0644 15.4859C31.5856 15.4859 30.2499 16.0678 29.2802 17.0128C28.0559 18.2034 26.3815 19.7118 24.6314 19.7118H9.37038C6.39391 19.7118 3.998 22.0683 3.998 24.9942V47C4 55 10.5 60 17 60H46.8047C54 60 60 54.5 60 47L60.002 20.7683C60.002 17.8423 57.6061 15.4859 54.6275 15.4859H33.0644Z" fill="url(#paint1_linear_8_202)"/>
<path d="M33.0644 15.4859C31.5856 15.4859 30.2499 16.0678 29.2802 17.0128C28.0559 18.2034 26.3815 19.7118 24.6314 19.7118H9.37038C6.39391 19.7118 3.998 22.0682 3.998 24.9942V45C4 53 10.5 58 17 58C17 58 39.6094 58 46.8047 58C54 58 60 52.5 60 45C60 37.5 60.002 20.7683 60.002 20.7683C60.002 17.8423 57.6061 15.4859 54.6275 15.4859H33.0644Z" fill="url(#paint2_linear_8_202)"/>
</g>
<path d="M25.559 33.1104C25.4447 33.1026 25.331 33.1331 25.236 33.1972C25.141 33.2613 25.0701 33.3554 25.0347 33.4643L24.2927 35.7468C24.2613 35.8435 24.2593 35.9474 24.2869 36.0453C24.3145 36.1433 24.3706 36.2308 24.448 36.2968C24.5253 36.3629 24.6206 36.4045 24.7216 36.4164C24.8227 36.4284 24.925 36.41 25.0156 36.3638L26.5276 35.5934C26.6491 35.5315 26.7411 35.4238 26.7832 35.2941C26.8253 35.1644 26.8142 35.0232 26.7523 34.9017L25.9819 33.3897C25.9415 33.3106 25.8813 33.2433 25.8072 33.1943C25.7331 33.1454 25.6476 33.1165 25.559 33.1104ZM25.5248 34.3583C25.5632 34.3617 25.601 34.3695 25.6377 34.3814C25.7674 34.4235 25.8751 34.5154 25.9371 34.6369C25.9991 34.7584 26.0102 34.8995 25.9681 35.0292C25.9473 35.0935 25.9139 35.153 25.8701 35.2044C25.8262 35.2557 25.7726 35.2979 25.7124 35.3286C25.6522 35.3592 25.5866 35.3777 25.5192 35.383C25.4519 35.3883 25.3842 35.3803 25.3199 35.3594C25.1903 35.3172 25.0826 35.2253 25.0207 35.1038C24.9588 34.9823 24.9477 34.8412 24.9898 34.7115C25.0258 34.6007 25.0984 34.5055 25.1955 34.4413C25.2927 34.3771 25.4088 34.3479 25.5248 34.3583ZM28.4662 41.3291C28.4417 41.3295 28.4174 41.3316 28.3932 41.3355L26.7171 41.601C26.6167 41.617 26.5233 41.6623 26.4487 41.7313C26.374 41.8003 26.3215 41.8899 26.2978 41.9888C26.274 42.0876 26.2801 42.1913 26.3152 42.2867C26.3503 42.3821 26.413 42.4649 26.4951 42.5247L28.4367 43.9357C28.519 43.9954 28.6172 44.0295 28.7188 44.0334C28.8205 44.0374 28.921 44.0112 29.0077 43.958C29.0944 43.9049 29.1634 43.8272 29.206 43.7349C29.2486 43.6425 29.2629 43.5396 29.247 43.4391L28.9815 41.763C28.9621 41.6408 28.8994 41.5297 28.8048 41.45C28.7101 41.3703 28.5899 41.3274 28.4662 41.3291ZM27.9469 42.0232C28.0632 42.0179 28.1778 42.0523 28.272 42.1206C28.3267 42.1603 28.373 42.2104 28.4083 42.268C28.4436 42.3256 28.4672 42.3896 28.4778 42.4563C28.4884 42.523 28.4857 42.5912 28.4699 42.6569C28.4541 42.7226 28.4256 42.7845 28.3858 42.8391C28.3057 42.9494 28.185 43.0234 28.0503 43.0448C27.9156 43.0661 27.778 43.0331 27.6677 42.953C27.613 42.9133 27.5667 42.8632 27.5314 42.8056C27.4961 42.748 27.4725 42.684 27.4619 42.6173C27.4513 42.5506 27.454 42.4824 27.4698 42.4167C27.4855 42.3511 27.5141 42.2891 27.5538 42.2345C27.5993 42.172 27.6582 42.1205 27.7262 42.084C27.7943 42.0474 27.8697 42.0266 27.9469 42.0232ZM35.5341 41.3291C35.4105 41.3275 35.2903 41.3704 35.1958 41.4501C35.1012 41.5298 35.0385 41.6409 35.0192 41.763L34.7537 43.4391C34.7378 43.5395 34.7521 43.6424 34.7947 43.7347C34.8373 43.827 34.9062 43.9046 34.9929 43.9577C35.0795 44.0108 35.18 44.0371 35.2816 44.0332C35.3831 44.0293 35.4813 43.9953 35.5636 43.9357L37.5052 42.5247C37.5873 42.4649 37.65 42.3821 37.6851 42.2867C37.7203 42.1914 37.7264 42.0877 37.7026 41.9889C37.6789 41.8901 37.6265 41.8005 37.5519 41.7314C37.4773 41.6624 37.3839 41.617 37.2835 41.601L35.6074 41.3355C35.5832 41.3316 35.5587 41.3295 35.5341 41.3291ZM36.0537 42.0232C36.1309 42.0266 36.2063 42.0474 36.2744 42.084C36.3424 42.1205 36.4014 42.172 36.4468 42.2345C36.4865 42.2891 36.5151 42.3511 36.5309 42.4167C36.5467 42.4824 36.5493 42.5506 36.5388 42.6173C36.5282 42.684 36.5046 42.748 36.4693 42.8056C36.434 42.8632 36.3876 42.9133 36.333 42.953C36.2226 43.0331 36.085 43.0661 35.9503 43.0448C35.8156 43.0234 35.695 42.9494 35.6148 42.8391C35.5751 42.7845 35.5465 42.7226 35.5307 42.6569C35.5149 42.5912 35.5122 42.5231 35.5227 42.4564C35.5333 42.3896 35.5568 42.3257 35.5921 42.268C35.6274 42.2104 35.6737 42.1603 35.7283 42.1206C35.8226 42.0522 35.9374 42.0179 36.0537 42.0232ZM38.4417 33.1104C38.3531 33.1165 38.2675 33.1454 38.1934 33.1943C38.1193 33.2433 38.0592 33.3106 38.0188 33.3897L37.2484 34.9017C37.1864 35.0232 37.1753 35.1643 37.2175 35.2941C37.2596 35.4238 37.3515 35.5315 37.473 35.5934L38.9851 36.3638C39.0757 36.4099 39.1779 36.4282 39.2789 36.4162C39.3799 36.4042 39.475 36.3626 39.5524 36.2966C39.6297 36.2305 39.6857 36.143 39.7133 36.0452C39.741 35.9473 39.739 35.8435 39.7076 35.7468L38.966 33.4643C38.9345 33.3676 38.8751 33.2825 38.7952 33.2195C38.7154 33.1566 38.6187 33.1187 38.5173 33.1108C38.4921 33.1088 38.4668 33.1087 38.4417 33.1104ZM38.4755 34.3583C38.5915 34.3478 38.7077 34.377 38.805 34.4412C38.9022 34.5054 38.9748 34.6007 39.0108 34.7115C39.0529 34.8412 39.0418 34.9823 38.9799 35.1038C38.918 35.2253 38.8104 35.3172 38.6807 35.3594C38.6165 35.3803 38.5487 35.3883 38.4814 35.383C38.4141 35.3777 38.3484 35.3592 38.2882 35.3286C38.228 35.2979 38.1745 35.2557 38.1306 35.2044C38.0867 35.153 38.0534 35.0935 38.0325 35.0292C37.9904 34.8996 38.0015 34.7585 38.0634 34.637C38.1253 34.5155 38.233 34.4235 38.3626 34.3814C38.3993 34.3695 38.4371 34.3617 38.4755 34.3583ZM30.8002 29.2751C30.6985 29.2752 30.5991 29.3053 30.5145 29.3619C30.43 29.4184 30.3641 29.4987 30.3252 29.5926C30.2863 29.6866 30.2761 29.79 30.2959 29.8897C30.3157 29.9894 30.3647 30.0811 30.4366 30.153L31.6365 31.353C31.733 31.4494 31.8638 31.5035 32.0001 31.5035C32.1365 31.5035 32.2673 31.4494 32.3638 31.353L33.5637 30.153C33.6356 30.0811 33.6846 29.9894 33.7044 29.8897C33.7242 29.79 33.714 29.6866 33.6751 29.5926C33.6362 29.4987 33.5703 29.4184 33.4858 29.3619C33.4012 29.3053 33.3018 29.2752 33.2001 29.2751H30.8002ZM32.0001 29.618C32.0677 29.618 32.1346 29.6313 32.1969 29.6571C32.2593 29.683 32.316 29.7208 32.3638 29.7686C32.4115 29.8164 32.4494 29.873 32.4753 29.9354C32.5011 29.9978 32.5144 30.0647 32.5144 30.1322C32.5144 30.1998 32.5011 30.2667 32.4753 30.329C32.4494 30.3914 32.4115 30.4481 32.3638 30.4959C32.316 30.5436 32.2593 30.5815 32.1969 30.6074C32.1346 30.6332 32.0677 30.6465 32.0001 30.6465C31.8637 30.6465 31.7329 30.5923 31.6365 30.4959C31.5401 30.3994 31.4859 30.2686 31.4859 30.1322C31.4859 29.9959 31.5401 29.865 31.6365 29.7686C31.7329 29.6722 31.8637 29.618 32.0001 29.618ZM32 28.8573C27.5121 28.8573 23.8573 32.5121 23.8573 37C23.8573 41.4879 27.5121 45.1427 32 45.1427C36.4879 45.1427 40.1427 41.4879 40.1427 37C40.1427 32.5121 36.4879 28.8573 32 28.8573ZM32 29.6153C32.0675 29.6153 32.1344 29.6286 32.1968 29.6545C32.2592 29.6803 32.3159 29.7182 32.3636 29.766C32.4114 29.8137 32.4493 29.8704 32.4751 29.9328C32.501 29.9952 32.5143 30.0621 32.5143 30.1296C32.5114 30.2315 32.4783 30.3302 32.4192 30.4132C35.0213 30.5751 37.2073 32.2343 38.1298 34.5428C38.1904 34.4673 38.271 34.4104 38.3625 34.3787C38.4267 34.3578 38.4944 34.3498 38.5618 34.3551C38.6291 34.3604 38.6948 34.3789 38.755 34.4095C38.8152 34.4402 38.8687 34.4824 38.9126 34.5338C38.9565 34.5851 38.9898 34.6446 39.0107 34.7089C39.0316 34.7731 39.0396 34.8408 39.0343 34.9082C39.029 34.9755 39.0105 35.0412 38.9799 35.1014C38.9492 35.1615 38.907 35.2151 38.8557 35.259C38.8043 35.3029 38.7448 35.3362 38.6805 35.3571C38.5879 35.3851 38.4893 35.3865 38.396 35.3611C38.529 35.8848 38.5999 36.4339 38.5999 37C38.5999 39.0377 37.6838 40.8552 36.2397 42.0644C36.3222 42.1011 36.3936 42.1588 36.4467 42.2318C36.4864 42.2864 36.5149 42.3484 36.5307 42.4141C36.5465 42.4798 36.5492 42.5479 36.5386 42.6146C36.528 42.6814 36.5044 42.7454 36.4691 42.8029C36.4338 42.8605 36.3875 42.9106 36.3328 42.9503C36.2225 43.0304 36.0848 43.0634 35.9502 43.0421C35.8155 43.0207 35.6948 42.9468 35.6146 42.8365C35.5618 42.7636 35.529 42.6782 35.5196 42.5887C34.5019 43.2295 33.2954 43.5999 32 43.5999C30.7038 43.5999 29.4968 43.2291 28.4787 42.5877C28.47 42.6773 28.4379 42.7631 28.3857 42.8365C28.3055 42.9468 28.1848 43.0207 28.0501 43.0421C27.9155 43.0634 27.7778 43.0304 27.6675 42.9503C27.6128 42.9106 27.5665 42.8605 27.5312 42.8029C27.4959 42.7454 27.4723 42.6814 27.4617 42.6146C27.4511 42.5479 27.4538 42.4798 27.4696 42.4141C27.4854 42.3484 27.5139 42.2864 27.5536 42.2318C27.6067 42.1588 27.6781 42.1011 27.7606 42.0644C26.3164 40.8552 25.4001 39.0378 25.4001 37C25.4001 36.4357 25.4708 35.8887 25.603 35.3664C25.5096 35.3899 25.4114 35.3866 25.3198 35.357C25.2555 35.3362 25.196 35.3028 25.1446 35.259C25.0933 35.2151 25.0511 35.1615 25.0204 35.1013C24.9898 35.0411 24.9713 34.9755 24.966 34.9081C24.9607 34.8408 24.9687 34.7731 24.9896 34.7088C25.0318 34.5792 25.1237 34.4715 25.2452 34.4096C25.3667 34.3477 25.5078 34.3366 25.6375 34.3787C25.7298 34.4087 25.8118 34.4642 25.8739 34.5388C26.7974 32.2326 28.9809 30.575 31.5811 30.4132C31.5219 30.3302 31.4887 30.2315 31.4857 30.1296C31.4857 30.062 31.499 29.9952 31.5248 29.9328C31.5507 29.8704 31.5886 29.8137 31.6363 29.7659C31.6841 29.7182 31.7408 29.6803 31.8032 29.6544C31.8656 29.6286 31.9324 29.6153 32 29.6153ZM39.4659 34.7625C39.4315 34.7922 39.4055 34.8305 39.3906 34.8736C39.3758 34.9166 39.3727 34.9627 39.3815 35.0074L39.5822 36.0162C39.591 36.0608 39.6116 36.1023 39.6417 36.1364C39.6718 36.1705 39.7105 36.196 39.7537 36.2102C39.7969 36.2245 39.8431 36.2271 39.8877 36.2177C39.9322 36.2082 39.9734 36.1872 40.0071 36.1566L40.7474 35.485C40.7804 35.4552 40.805 35.4173 40.819 35.3751C40.8329 35.3329 40.8357 35.2878 40.8271 35.2442C40.8184 35.2006 40.7986 35.16 40.7695 35.1263C40.7405 35.0927 40.7032 35.0671 40.6613 35.0522L39.7204 34.715C39.6775 34.6997 39.6314 34.6961 39.5867 34.7044C39.542 34.7128 39.5003 34.7328 39.4659 34.7625ZM39.9745 35.3527L40.0844 35.3919L39.9979 35.4702L39.9745 35.3527ZM39.8343 35.966L40.5747 35.2944L39.6337 34.9572L39.8343 35.966ZM38.886 33.349C38.858 33.3848 38.8399 33.4275 38.8338 33.4726C38.8276 33.5176 38.8335 33.5636 38.8509 33.6056L39.2445 34.5559C39.2619 34.5979 39.2902 34.6346 39.3264 34.6621C39.3626 34.6897 39.4055 34.7072 39.4506 34.7127C39.4958 34.7183 39.5416 34.7118 39.5835 34.6939C39.6253 34.6759 39.6616 34.6472 39.6887 34.6107L40.2838 33.8076C40.3103 33.7719 40.3271 33.7299 40.3325 33.6858C40.338 33.6417 40.3319 33.5969 40.3149 33.5558C40.2979 33.5148 40.2705 33.4788 40.2355 33.4515C40.2004 33.4241 40.1589 33.4064 40.1149 33.3999L39.1262 33.2527C39.0813 33.2461 39.0353 33.2515 38.9931 33.2684C38.9509 33.2853 38.9139 33.3131 38.886 33.349ZM39.4999 33.8286L39.6153 33.8456L39.5458 33.9393L39.4999 33.8286ZM39.4821 34.4575L40.0772 33.6543L39.0885 33.5072L39.4821 34.4575ZM38.0414 32.0758C38.0209 32.1164 38.0115 32.1617 38.0143 32.2071C38.0171 32.2526 38.0318 32.2964 38.0571 32.3343L38.6285 33.1895C38.6538 33.2273 38.6886 33.2578 38.7295 33.2778C38.7704 33.2977 38.8159 33.3065 38.8612 33.3031C38.9066 33.2998 38.9503 33.2845 38.9878 33.2587C39.0254 33.233 39.0554 33.1977 39.0748 33.1566L39.5018 32.2528C39.5208 32.2126 39.5291 32.1682 39.5259 32.1239C39.5226 32.0796 39.5079 32.0368 39.4832 31.9999C39.4585 31.9629 39.4247 31.933 39.3849 31.913C39.3452 31.893 39.301 31.8837 39.2566 31.8859L38.2582 31.9345C38.2128 31.9368 38.1688 31.951 38.1307 31.9758C38.0926 32.0007 38.0618 32.0351 38.0414 32.0758ZM38.7371 32.4263L38.8536 32.4205L38.8037 32.526L38.7371 32.4263ZM38.8423 33.0466L39.2692 32.1428L38.2709 32.1914L38.8423 33.0466ZM36.9647 30.9918C36.9525 31.0356 36.9522 31.0819 36.9637 31.1259C36.9753 31.1699 36.9983 31.21 37.0305 31.2422L37.7578 31.9695C37.7899 32.0017 37.8301 32.0248 37.8741 32.0364C37.9181 32.048 37.9644 32.0477 38.0082 32.0356C38.0521 32.0235 38.0919 31.9999 38.1237 31.9674C38.1555 31.9348 38.1781 31.8944 38.1891 31.8502L38.4316 30.8805C38.4424 30.8374 38.4418 30.7922 38.43 30.7494C38.4182 30.7065 38.3954 30.6675 38.364 30.636C38.3325 30.6046 38.2935 30.5819 38.2507 30.57C38.2078 30.5582 38.1626 30.5576 38.1195 30.5685L37.1498 30.8109C37.1057 30.822 37.0653 30.8446 37.0328 30.8763C37.0003 30.9081 36.9768 30.9479 36.9647 30.9918ZM37.7154 31.1999L37.8285 31.1715L37.8001 31.2846L37.7154 31.1999ZM37.9396 31.7877L38.182 30.818L37.2123 31.0604L37.9396 31.7877ZM35.6971 30.1387C35.6937 30.184 35.7024 30.2295 35.7224 30.2704C35.7423 30.3113 35.7727 30.3462 35.8105 30.3715L36.6657 30.9429C36.7036 30.9682 36.7474 30.983 36.7928 30.9858C36.8383 30.9886 36.8836 30.9793 36.9243 30.9589C36.9649 30.9384 36.9994 30.9075 37.0242 30.8694C37.0491 30.8312 37.0633 30.7872 37.0655 30.7417L37.1141 29.7433C37.1163 29.6989 37.107 29.6547 37.087 29.615C37.067 29.5753 37.0371 29.5415 37.0002 29.5168C36.9632 29.4921 36.9205 29.4774 36.8761 29.4741C36.8318 29.4709 36.7874 29.4792 36.7472 29.4982L35.8434 29.9251C35.8023 29.9446 35.7672 29.9746 35.7415 30.0121C35.7158 30.0497 35.7004 30.0933 35.6971 30.1387ZM36.474 30.1963L36.5795 30.1464L36.5737 30.2629L36.474 30.1963ZM36.8086 30.7291L36.8572 29.7307L35.9534 30.1577L36.8086 30.7291ZM34.2875 29.5492C34.293 29.5944 34.3104 29.6373 34.338 29.6735C34.3655 29.7097 34.4021 29.738 34.4441 29.7555L35.3944 30.1491C35.4364 30.1665 35.4823 30.1725 35.5274 30.1663C35.5725 30.1602 35.6152 30.1422 35.6511 30.1143C35.687 30.0863 35.7148 30.0493 35.7317 30.007C35.7486 29.9647 35.7539 29.9188 35.7473 29.8738L35.6001 28.8851C35.5936 28.8411 35.5759 28.7996 35.5485 28.7645C35.5212 28.7295 35.4852 28.7021 35.4442 28.6851C35.4031 28.6681 35.3583 28.662 35.3142 28.6675C35.2701 28.6729 35.2281 28.6897 35.1924 28.7162L34.3893 29.3113C34.3528 29.3384 34.3242 29.3747 34.3063 29.4165C34.2884 29.4583 34.2819 29.5041 34.2875 29.5492ZM35.0607 29.4542L35.1544 29.3846L35.1714 29.5001L35.0607 29.4542ZM35.4928 29.9115L35.3457 28.9228L34.5425 29.5179L35.4928 29.9115ZM32.79 29.2461C32.8042 29.2893 32.8296 29.328 32.8637 29.3582C32.8978 29.3883 32.9392 29.4089 32.9838 29.4178L33.9926 29.6185C34.0373 29.6274 34.0834 29.6243 34.1265 29.6095C34.1695 29.5947 34.2079 29.5687 34.2376 29.5343C34.2673 29.4998 34.2874 29.4581 34.2957 29.4134C34.304 29.3686 34.3003 29.3225 34.285 29.2796L33.9478 28.3386C33.9329 28.2968 33.9073 28.2595 33.8737 28.2305C33.84 28.2014 33.7994 28.1816 33.7558 28.1729C33.7122 28.1643 33.6671 28.167 33.6249 28.181C33.5827 28.1949 33.5449 28.2196 33.515 28.2525L32.8434 28.9929C32.8129 29.0266 32.7919 29.0678 32.7825 29.1123C32.7731 29.1568 32.7757 29.203 32.79 29.2461ZM33.5298 29.0021L33.6081 28.9156L33.6474 29.0255L33.5298 29.0021ZM34.0428 29.3663L33.7056 28.4253L33.034 29.1656L34.0428 29.3663ZM31.2621 29.241C31.2845 29.2806 31.317 29.3136 31.3563 29.3365C31.3956 29.3594 31.4402 29.3715 31.4857 29.3716H32.5143C32.5598 29.3716 32.6045 29.3595 32.6438 29.3366C32.6831 29.3137 32.7157 29.2808 32.7381 29.2412C32.7605 29.2016 32.7721 29.1568 32.7715 29.1113C32.7709 29.0658 32.7583 29.0212 32.7349 28.9822L32.2206 28.1251C32.1978 28.0869 32.1655 28.0554 32.1268 28.0334C32.0881 28.0115 32.0445 28 32 28C31.9556 28 31.9119 28.0115 31.8732 28.0334C31.8345 28.0554 31.8022 28.0869 31.7794 28.1251L31.2651 28.9822C31.2418 29.0212 31.2292 29.0658 31.2287 29.1112C31.2283 29.1567 31.2396 29.2015 31.2621 29.241ZM31.9401 28.8573L32 28.7572L32.0599 28.8573H31.9401ZM32.5143 29.1144L32 28.2573L31.4857 29.1144H32.5143ZM29.7625 29.534C29.7922 29.5685 29.8305 29.5945 29.8736 29.6093C29.9166 29.6242 29.9627 29.6273 30.0074 29.6185L31.0162 29.4178C31.0608 29.409 31.1023 29.3884 31.1364 29.3583C31.1705 29.3281 31.196 29.2895 31.2102 29.2463C31.2245 29.2031 31.2271 29.1569 31.2177 29.1123C31.2082 29.0678 31.1872 29.0266 31.1566 28.9929L30.485 28.2525C30.4552 28.2196 30.4173 28.1949 30.3751 28.181C30.3329 28.167 30.2878 28.1643 30.2442 28.1729C30.2006 28.1816 30.16 28.2014 30.1263 28.2305C30.0927 28.2595 30.0671 28.2968 30.0522 28.3386L29.715 29.2796C29.6997 29.3224 29.6961 29.3686 29.7044 29.4133C29.7128 29.4579 29.7328 29.4996 29.7625 29.534ZM30.3527 29.0255L30.3919 28.9156L30.4702 29.0021L30.3527 29.0255ZM30.966 29.1656L30.2944 28.4253L29.9572 29.3663L30.966 29.1656ZM28.349 30.114C28.3849 30.142 28.4275 30.16 28.4726 30.1662C28.5176 30.1724 28.5636 30.1664 28.6056 30.1491L29.5559 29.7555C29.5979 29.7381 29.6346 29.7098 29.6622 29.6736C29.6897 29.6374 29.7072 29.5945 29.7128 29.5493C29.7183 29.5042 29.7118 29.4583 29.6939 29.4165C29.676 29.3747 29.6473 29.3384 29.6107 29.3113L28.8076 28.7162C28.7719 28.6897 28.7299 28.6729 28.6858 28.6674C28.6417 28.662 28.5969 28.6681 28.5559 28.6851C28.5148 28.7021 28.4788 28.7295 28.4515 28.7645C28.4242 28.7996 28.4064 28.8411 28.3999 28.8851L28.2528 29.8738C28.2461 29.9187 28.2515 29.9647 28.2685 30.0069C28.2854 30.0491 28.3132 30.0861 28.349 30.114ZM28.8286 29.5001L28.8456 29.3846L28.9393 29.4542L28.8286 29.5001ZM29.4575 29.5179L28.6543 28.9228L28.5072 29.9115L29.4575 29.5179ZM27.0758 30.9586C27.1164 30.9791 27.1617 30.9884 27.2071 30.9857C27.2526 30.9829 27.2964 30.9682 27.3343 30.9429L28.1895 30.3715C28.2273 30.3462 28.2578 30.3113 28.2778 30.2704C28.2977 30.2295 28.3065 30.1841 28.3031 30.1387C28.2998 30.0933 28.2845 30.0496 28.2587 30.0121C28.233 29.9746 28.1977 29.9446 28.1566 29.9251L27.2528 29.4982C27.2126 29.4791 27.1682 29.4709 27.1239 29.4741C27.0795 29.4774 27.0368 29.4921 26.9998 29.5168C26.9629 29.5415 26.933 29.5753 26.913 29.615C26.893 29.6547 26.8837 29.6989 26.8859 29.7433L26.9345 30.7417C26.9367 30.7871 26.951 30.8311 26.9758 30.8692C27.0007 30.9073 27.0351 30.9382 27.0758 30.9586ZM27.4263 30.2629L27.4205 30.1463L27.526 30.1963L27.4263 30.2629ZM28.0466 30.1577L27.1428 29.7307L27.1914 30.7291L28.0466 30.1577ZM25.9918 32.0353C26.0356 32.0475 26.0819 32.0478 26.1259 32.0363C26.1699 32.0247 26.2101 32.0017 26.2423 31.9695L26.9695 31.2422C27.0017 31.2101 27.0248 31.1699 27.0364 31.1259C27.048 31.0819 27.0477 31.0356 27.0356 30.9918C27.0235 30.9479 26.9999 30.9081 26.9674 30.8763C26.9348 30.8445 26.8944 30.8219 26.8502 30.8109L25.8805 30.5684C25.8374 30.5576 25.7922 30.5582 25.7494 30.57C25.7065 30.5818 25.6675 30.6046 25.636 30.636C25.6046 30.6675 25.5819 30.7065 25.57 30.7493C25.5582 30.7922 25.5576 30.8374 25.5685 30.8805L25.8109 31.8502C25.822 31.8943 25.8446 31.9347 25.8763 31.9672C25.9081 31.9997 25.9479 32.0232 25.9918 32.0353ZM26.1999 31.2846L26.1715 31.1714L26.2846 31.1999L26.1999 31.2846ZM26.7877 31.0604L25.818 30.818L26.0604 31.7877L26.7877 31.0604ZM25.1387 33.3029C25.184 33.3063 25.2295 33.2976 25.2704 33.2776C25.3113 33.2577 25.3462 33.2273 25.3715 33.1895L25.9429 32.3343C25.9682 32.2964 25.983 32.2526 25.9858 32.2071C25.9886 32.1617 25.9793 32.1164 25.9589 32.0757C25.9384 32.0351 25.9075 32.0006 25.8694 31.9758C25.8312 31.951 25.7872 31.9367 25.7417 31.9345L24.7434 31.8859C24.699 31.8837 24.6547 31.893 24.615 31.913C24.5753 31.933 24.5415 31.9629 24.5168 31.9999C24.4921 32.0368 24.4774 32.0795 24.4741 32.1239C24.4709 32.1682 24.4792 32.2126 24.4982 32.2528L24.9251 33.1566C24.9446 33.1977 24.9746 33.2329 25.0122 33.2586C25.0497 33.2843 25.0933 33.2996 25.1387 33.3029ZM25.1963 32.526L25.1464 32.4205L25.2629 32.4263L25.1963 32.526ZM25.7291 32.1914L24.7307 32.1428L25.1577 33.0466L25.7291 32.1914ZM24.5492 34.7125C24.5944 34.707 24.6373 34.6896 24.6735 34.662C24.7097 34.6345 24.738 34.5979 24.7555 34.5558L25.1491 33.6056C25.1665 33.5636 25.1725 33.5176 25.1663 33.4726C25.1602 33.4275 25.1423 33.3848 25.1143 33.3489C25.0863 33.313 25.0493 33.2852 25.007 33.2683C24.9647 33.2514 24.9188 33.2461 24.8738 33.2527L23.8851 33.3999C23.8411 33.4064 23.7996 33.4241 23.7645 33.4515C23.7295 33.4788 23.7021 33.5148 23.6851 33.5558C23.6681 33.5969 23.662 33.6417 23.6675 33.6858C23.6729 33.7299 23.6897 33.7719 23.7162 33.8075L24.3113 34.6107C24.3384 34.6472 24.3747 34.6758 24.4165 34.6937C24.4583 34.7116 24.5041 34.7181 24.5492 34.7125ZM24.4542 33.9393L24.3846 33.8456L24.5001 33.8286L24.4542 33.9393ZM24.9115 33.5072L23.9228 33.6543L24.5179 34.4574L24.9115 33.5072ZM24.2461 36.21C24.2893 36.1958 24.328 36.1704 24.3582 36.1363C24.3883 36.1022 24.4089 36.0608 24.4178 36.0162L24.6185 35.0074C24.6274 34.9627 24.6243 34.9165 24.6095 34.8735C24.5947 34.8305 24.5687 34.7921 24.5343 34.7624C24.4998 34.7327 24.4581 34.7126 24.4134 34.7043C24.3686 34.696 24.3225 34.6997 24.2796 34.715L23.3386 35.0522C23.2968 35.0671 23.2595 35.0927 23.2305 35.1263C23.2014 35.16 23.1816 35.2006 23.1729 35.2442C23.1643 35.2878 23.167 35.3329 23.181 35.3751C23.1949 35.4173 23.2196 35.4551 23.2526 35.485L23.9929 36.1566C24.0266 36.1871 24.0678 36.2081 24.1123 36.2175C24.1568 36.2269 24.203 36.2243 24.2461 36.21ZM24.0021 35.4702L23.9156 35.3919L24.0255 35.3527L24.0021 35.4702ZM24.3663 34.9572L23.4253 35.2944L24.1656 35.966L24.3663 34.9572ZM24.241 37.7379C24.2806 37.7155 24.3136 37.683 24.3365 37.6437C24.3594 37.6044 24.3715 37.5598 24.3716 37.5143V36.4857C24.3716 36.4402 24.3595 36.3955 24.3366 36.3562C24.3137 36.3169 24.2808 36.2843 24.2412 36.2619C24.2016 36.2395 24.1568 36.2279 24.1113 36.2285C24.0658 36.2291 24.0212 36.2417 23.9822 36.2651L23.1251 36.7793C23.0869 36.8022 23.0554 36.8345 23.0334 36.8732C23.0115 36.9118 23 36.9555 23 37C23 37.0444 23.0115 37.0881 23.0334 37.1268C23.0554 37.1655 23.0869 37.1978 23.1251 37.2206L23.9822 37.7349C24.0212 37.7582 24.0657 37.7708 24.1112 37.7713C24.1567 37.7719 24.2015 37.7604 24.241 37.7379ZM23.8573 37.0599L23.7572 37L23.8573 36.9401V37.0599ZM24.1144 36.4857L23.2573 37L24.1144 37.5143V36.4857ZM24.5341 39.2375C24.5685 39.2078 24.5945 39.1695 24.6093 39.1264C24.6242 39.0834 24.6273 39.0372 24.6185 38.9926L24.4178 37.9838C24.409 37.9392 24.3884 37.8977 24.3583 37.8636C24.3281 37.8295 24.2895 37.804 24.2463 37.7897C24.2031 37.7755 24.1569 37.7729 24.1123 37.7823C24.0678 37.7918 24.0266 37.8128 23.9929 37.8434L23.2526 38.515C23.2196 38.5448 23.1949 38.5827 23.181 38.6249C23.167 38.6671 23.1643 38.7122 23.1729 38.7558C23.1816 38.7994 23.2014 38.84 23.2305 38.8737C23.2595 38.9073 23.2968 38.9329 23.3386 38.9478L24.2796 39.285C24.3225 39.3003 24.3686 39.3039 24.4133 39.2956C24.458 39.2872 24.4996 39.2672 24.5341 39.2375ZM24.0255 38.6473L23.9156 38.6081L24.0021 38.5298L24.0255 38.6473ZM24.1656 38.034L23.4253 38.7056L24.3663 39.0428L24.1656 38.034ZM25.114 40.651C25.142 40.6151 25.16 40.5725 25.1662 40.5274C25.1724 40.4823 25.1664 40.4364 25.1491 40.3944L24.7554 39.4441C24.738 39.4021 24.7098 39.3654 24.6736 39.3378C24.6374 39.3103 24.5945 39.2928 24.5493 39.2873C24.5042 39.2817 24.4583 39.2882 24.4165 39.3061C24.3747 39.324 24.3384 39.3527 24.3113 39.3893L23.7162 40.1924C23.6897 40.2281 23.6729 40.2701 23.6674 40.3142C23.662 40.3583 23.6681 40.4031 23.6851 40.4441C23.7021 40.4852 23.7294 40.5212 23.7645 40.5485C23.7995 40.5758 23.8411 40.5936 23.8851 40.6001L24.8737 40.7473C24.9187 40.7539 24.9647 40.7485 25.0069 40.7316C25.0491 40.7146 25.0861 40.6868 25.114 40.651ZM24.5001 40.1714L24.3846 40.1544L24.4542 40.0607L24.5001 40.1714ZM24.5179 39.5425L23.9228 40.3457L24.9115 40.4928L24.5179 39.5425ZM25.9586 41.9242C25.9791 41.8836 25.9884 41.8383 25.9857 41.7929C25.9829 41.7474 25.9682 41.7036 25.9429 41.6657L25.3715 40.8105C25.3462 40.7727 25.3114 40.7422 25.2705 40.7222C25.2296 40.7023 25.1841 40.6935 25.1387 40.6969C25.0934 40.7002 25.0497 40.7155 25.0121 40.7413C24.9746 40.767 24.9446 40.8023 24.9251 40.8434L24.4982 41.7472C24.4792 41.7874 24.4709 41.8318 24.4741 41.8761C24.4774 41.9204 24.4921 41.9632 24.5168 42.0001C24.5415 42.0371 24.5753 42.067 24.615 42.087C24.6547 42.107 24.699 42.1163 24.7434 42.1141L25.7417 42.0655C25.7871 42.0632 25.8311 42.049 25.8692 42.0241C25.9073 41.9993 25.9382 41.9648 25.9586 41.9242ZM25.2629 41.5737L25.1464 41.5795L25.1963 41.474L25.2629 41.5737ZM25.1577 40.9534L24.7307 41.8572L25.7291 41.8086L25.1577 40.9534ZM27.0354 43.0082C27.0475 42.9644 27.0479 42.9181 27.0363 42.8741C27.0247 42.8301 27.0017 42.7899 26.9696 42.7577L26.2423 42.0305C26.2101 41.9983 26.17 41.9752 26.126 41.9636C26.082 41.952 26.0357 41.9523 25.9918 41.9644C25.9479 41.9765 25.9081 42.0001 25.8763 42.0326C25.8445 42.0652 25.822 42.1056 25.8109 42.1498L25.5685 43.1195C25.5576 43.1626 25.5582 43.2078 25.57 43.2506C25.5819 43.2935 25.6046 43.3325 25.6361 43.364C25.6675 43.3954 25.7065 43.4181 25.7494 43.43C25.7922 43.4418 25.8374 43.4424 25.8805 43.4315L26.8502 43.1891C26.8943 43.178 26.9347 43.1554 26.9672 43.1237C26.9997 43.0919 27.0233 43.0521 27.0354 43.0082ZM26.2846 42.8001L26.1715 42.8285L26.1999 42.7154L26.2846 42.8001ZM26.0604 42.2123L25.818 43.182L26.7877 42.9396L26.0604 42.2123ZM28.3029 43.8613C28.3063 43.816 28.2976 43.7705 28.2777 43.7296C28.2577 43.6887 28.2273 43.6538 28.1895 43.6285L27.3343 43.0571C27.2965 43.0318 27.2526 43.017 27.2072 43.0142C27.1617 43.0114 27.1164 43.0207 27.0757 43.0411C27.0351 43.0616 27.0006 43.0925 26.9758 43.1306C26.951 43.1688 26.9367 43.2128 26.9345 43.2583L26.8859 44.2566C26.8837 44.301 26.893 44.3453 26.913 44.385C26.933 44.4247 26.9629 44.4585 26.9999 44.4832C27.0368 44.5079 27.0796 44.5226 27.1239 44.5259C27.1682 44.5291 27.2126 44.5208 27.2528 44.5018L28.1566 44.0749C28.1977 44.0554 28.2329 44.0254 28.2586 43.9878C28.2843 43.9503 28.2996 43.9067 28.3029 43.8613ZM27.526 43.8037L27.4206 43.8536L27.4264 43.7371L27.526 43.8037ZM27.1914 43.2709L27.1428 44.2693L28.0466 43.8423L27.1914 43.2709ZM29.7125 44.4508C29.707 44.4056 29.6896 44.3627 29.662 44.3265C29.6345 44.2903 29.5979 44.262 29.5558 44.2445L28.6056 43.8509C28.5636 43.8335 28.5176 43.8275 28.4726 43.8337C28.4275 43.8398 28.3848 43.8577 28.3489 43.8857C28.313 43.9137 28.2852 43.9507 28.2683 43.993C28.2514 44.0353 28.2461 44.0812 28.2527 44.1262L28.3999 45.1149C28.4064 45.1589 28.4241 45.2004 28.4515 45.2355C28.4788 45.2705 28.5148 45.2979 28.5558 45.3149C28.5969 45.3319 28.6417 45.338 28.6858 45.3325C28.7299 45.3271 28.7719 45.3103 28.8075 45.2838L29.6107 44.6887C29.6472 44.6616 29.6758 44.6253 29.6937 44.5835C29.7116 44.5417 29.7181 44.4959 29.7125 44.4508ZM28.9393 44.5458L28.8456 44.6154L28.8286 44.4999L28.9393 44.5458ZM28.5072 44.0885L28.6543 45.0772L29.4575 44.4821L28.5072 44.0885ZM31.2101 44.7539C31.1958 44.7107 31.1704 44.672 31.1363 44.6418C31.1023 44.6117 31.0608 44.5911 31.0162 44.5822L30.0074 44.3815C29.9628 44.3726 29.9166 44.3757 29.8735 44.3905C29.8305 44.4053 29.7922 44.4313 29.7624 44.4657C29.7327 44.5002 29.7127 44.5419 29.7043 44.5866C29.696 44.6314 29.6997 44.6775 29.715 44.7204L30.0522 45.6614C30.0672 45.7032 30.0927 45.7405 30.1264 45.7695C30.16 45.7986 30.2006 45.8184 30.2442 45.8271C30.2878 45.8357 30.3329 45.833 30.3751 45.819C30.4173 45.8051 30.4552 45.7804 30.485 45.7474L31.1566 45.0071C31.1871 44.9734 31.2081 44.9322 31.2175 44.8877C31.2269 44.8432 31.2243 44.797 31.2101 44.7539ZM30.4702 44.9979L30.3919 45.0844L30.3527 44.9745L30.4702 44.9979ZM29.9572 44.6337L30.2944 45.5747L30.966 44.8344L29.9572 44.6337ZM32.738 44.759C32.7156 44.7194 32.6831 44.6864 32.6438 44.6635C32.6045 44.6406 32.5598 44.6285 32.5143 44.6284H31.4857C31.4402 44.6284 31.3955 44.6405 31.3562 44.6634C31.3169 44.6863 31.2844 44.7192 31.2619 44.7588C31.2395 44.7984 31.228 44.8432 31.2285 44.8887C31.2291 44.9342 31.2417 44.9788 31.2651 45.0178L31.7794 45.8749C31.8022 45.9131 31.8345 45.9446 31.8732 45.9666C31.9119 45.9885 31.9556 46 32 46C32.0445 46 32.0882 45.9885 32.1268 45.9666C32.1655 45.9446 32.1978 45.9131 32.2207 45.8749L32.7349 45.0178C32.7582 44.9788 32.7708 44.9342 32.7713 44.8888C32.7718 44.8433 32.7604 44.7985 32.738 44.759ZM32.0599 45.1427L32 45.2428L31.9401 45.1427H32.0599ZM31.4857 44.8856L32 45.7427L32.5143 44.8856H31.4857ZM34.2375 44.4659C34.2078 44.4315 34.1695 44.4055 34.1265 44.3907C34.0834 44.3758 34.0373 44.3727 33.9926 44.3815L32.9838 44.5822C32.9392 44.591 32.8977 44.6116 32.8636 44.6417C32.8295 44.6719 32.8041 44.7105 32.7898 44.7537C32.7755 44.7969 32.7729 44.8431 32.7824 44.8877C32.7918 44.9322 32.8128 44.9734 32.8434 45.0071L33.515 45.7474C33.5449 45.7804 33.5827 45.8051 33.6249 45.819C33.6671 45.833 33.7122 45.8357 33.7558 45.8271C33.7994 45.8184 33.84 45.7986 33.8737 45.7695C33.9073 45.7405 33.9329 45.7032 33.9478 45.6614L34.285 44.7204C34.3003 44.6775 34.3039 44.6314 34.2956 44.5867C34.2872 44.5421 34.2672 44.5004 34.2375 44.4659ZM33.6474 44.9745L33.6081 45.0844L33.5298 44.9979L33.6474 44.9745ZM33.034 44.8344L33.7056 45.5747L34.0428 44.6337L33.034 44.8344ZM35.651 43.886C35.6152 43.858 35.5725 43.84 35.5275 43.8338C35.4824 43.8276 35.4365 43.8336 35.3944 43.8509L34.4442 44.2445C34.4021 44.2619 34.3654 44.2902 34.3379 44.3264C34.3103 44.3626 34.2928 44.4055 34.2873 44.4506C34.2817 44.4958 34.2882 44.5416 34.3061 44.5835C34.3241 44.6253 34.3528 44.6616 34.3893 44.6887L35.1925 45.2838C35.2281 45.3103 35.2701 45.3271 35.3142 45.3325C35.3583 45.338 35.4031 45.3319 35.4442 45.3149C35.4852 45.2979 35.5212 45.2705 35.5485 45.2355C35.5759 45.2004 35.5936 45.1589 35.6001 45.1149L35.7473 44.1262C35.7539 44.0813 35.7485 44.0353 35.7316 43.9931C35.7147 43.9509 35.6869 43.9139 35.651 43.886ZM35.1715 44.4999L35.1544 44.6154L35.0607 44.5458L35.1715 44.4999ZM34.5426 44.4821L35.3457 45.0772L35.4928 44.0885L34.5426 44.4821ZM36.9242 43.0414C36.8836 43.0209 36.8383 43.0116 36.7929 43.0143C36.7475 43.0171 36.7036 43.0318 36.6657 43.0571L35.8105 43.6285C35.7727 43.6538 35.7422 43.6887 35.7223 43.7295C35.7023 43.7704 35.6935 43.8159 35.6969 43.8613C35.7002 43.9067 35.7156 43.9504 35.7413 43.9879C35.7671 44.0254 35.8023 44.0554 35.8434 44.0749L36.7472 44.5018C36.7874 44.5209 36.8318 44.5291 36.8762 44.5259C36.9205 44.5226 36.9632 44.5079 37.0002 44.4832C37.0371 44.4585 37.0671 44.4247 37.087 44.385C37.107 44.3453 37.1164 44.3011 37.1142 44.2567L37.0655 43.2583C37.0633 43.2129 37.049 43.1689 37.0242 43.1308C36.9994 43.0927 36.9649 43.0618 36.9242 43.0414ZM36.5737 43.7371L36.5795 43.8536L36.474 43.8037L36.5737 43.7371ZM35.9534 43.8423L36.8572 44.2693L36.8086 43.2709L35.9534 43.8423ZM38.0083 41.9646C37.9644 41.9525 37.9181 41.9522 37.8741 41.9637C37.8301 41.9753 37.79 41.9983 37.7578 42.0305L37.0305 42.7578C36.9983 42.7899 36.9752 42.8301 36.9636 42.8741C36.952 42.9181 36.9523 42.9644 36.9644 43.0082C36.9765 43.0521 37.0001 43.0919 37.0327 43.1237C37.0652 43.1555 37.1057 43.1781 37.1498 43.1891L38.1195 43.4315C38.1626 43.4424 38.2078 43.4418 38.2507 43.43C38.2935 43.4181 38.3326 43.3954 38.364 43.364C38.3954 43.3325 38.4182 43.2935 38.43 43.2506C38.4419 43.2078 38.4424 43.1626 38.4316 43.1195L38.1891 42.1498C38.178 42.1057 38.1555 42.0653 38.1237 42.0328C38.0919 42.0003 38.0521 41.9768 38.0083 41.9646ZM37.8002 42.7154L37.8286 42.8285L37.7154 42.8001L37.8002 42.7154ZM37.2123 42.9396L38.182 43.182L37.9396 42.2123L37.2123 42.9396ZM38.8614 40.6971C38.816 40.6937 38.7705 40.7024 38.7296 40.7224C38.6887 40.7423 38.6538 40.7727 38.6285 40.8105L38.0571 41.6657C38.0318 41.7036 38.017 41.7474 38.0142 41.7928C38.0114 41.8383 38.0207 41.8836 38.0412 41.9243C38.0616 41.9649 38.0925 41.9994 38.1306 42.0242C38.1688 42.049 38.2128 42.0633 38.2583 42.0655L39.2567 42.1141C39.3011 42.1163 39.3453 42.107 39.385 42.087C39.4247 42.067 39.4585 42.0371 39.4832 42.0001C39.5079 41.9632 39.5226 41.9204 39.5259 41.8761C39.5292 41.8318 39.5209 41.7874 39.5018 41.7472L39.0749 40.8434C39.0554 40.8023 39.0254 40.7671 38.9879 40.7414C38.9504 40.7157 38.9067 40.7004 38.8614 40.6971ZM38.8037 41.474L38.8537 41.5795L38.7371 41.5737L38.8037 41.474ZM38.2709 41.8086L39.2693 41.8572L38.8423 40.9534L38.2709 41.8086ZM39.4508 39.2875C39.4056 39.293 39.3627 39.3104 39.3265 39.338C39.2903 39.3655 39.262 39.4021 39.2446 39.4441L38.851 40.3944C38.8335 40.4364 38.8276 40.4823 38.8337 40.5274C38.8398 40.5725 38.8578 40.6152 38.8858 40.6511C38.9138 40.6869 38.9508 40.7148 38.993 40.7317C39.0353 40.7486 39.0812 40.7539 39.1263 40.7473L40.115 40.6001C40.1589 40.5936 40.2005 40.5758 40.2355 40.5485C40.2706 40.5212 40.2979 40.4852 40.3149 40.4441C40.3319 40.4031 40.338 40.3583 40.3326 40.3142C40.3271 40.2701 40.3103 40.2281 40.2838 40.1924L39.6887 39.3893C39.6616 39.3528 39.6253 39.3242 39.5835 39.3063C39.5417 39.2884 39.4959 39.2819 39.4508 39.2875ZM39.5458 40.0607L39.6154 40.1544L39.4999 40.1714L39.5458 40.0607ZM39.0885 40.4928L40.0772 40.3457L39.4821 39.5425L39.0885 40.4928ZM39.7539 37.79C39.7107 37.8042 39.672 37.8296 39.6419 37.8637C39.6117 37.8978 39.5911 37.9392 39.5822 37.9838L39.3815 38.9926C39.3726 39.0373 39.3757 39.0834 39.3905 39.1265C39.4053 39.1695 39.4313 39.2078 39.4657 39.2376C39.5002 39.2673 39.5419 39.2874 39.5867 39.2957C39.6314 39.304 39.6775 39.3003 39.7204 39.285L40.6614 38.9478C40.7032 38.9329 40.7405 38.9073 40.7696 38.8737C40.7986 38.84 40.8184 38.7994 40.8271 38.7558C40.8358 38.7122 40.833 38.6671 40.819 38.6249C40.8051 38.5827 40.7804 38.5448 40.7475 38.515L40.0071 37.8434C39.9734 37.8129 39.9322 37.7919 39.8877 37.7825C39.8432 37.7731 39.7971 37.7757 39.7539 37.79ZM39.9979 38.5298L40.0844 38.6081L39.9746 38.6473L39.9979 38.5298ZM39.6337 39.0428L40.5747 38.7056L39.8344 38.034L39.6337 39.0428ZM39.759 36.2621C39.7194 36.2845 39.6865 36.317 39.6635 36.3563C39.6406 36.3955 39.6285 36.4402 39.6284 36.4857V37.5143C39.6284 37.5598 39.6405 37.6045 39.6634 37.6438C39.6863 37.6831 39.7192 37.7157 39.7588 37.7381C39.7984 37.7605 39.8432 37.772 39.8888 37.7715C39.9343 37.7709 39.9788 37.7583 40.0178 37.7349L40.875 37.2206C40.9131 37.1978 40.9447 37.1655 40.9666 37.1268C40.9885 37.0881 41 37.0444 41 37C41 36.9555 40.9885 36.9119 40.9666 36.8732C40.9447 36.8345 40.9131 36.8022 40.875 36.7794L40.0178 36.2651C39.9788 36.2417 39.9343 36.2292 39.8888 36.2287C39.8434 36.2281 39.7986 36.2396 39.759 36.2621ZM40.1427 36.9401L40.2428 37L40.1427 37.0599V36.9401ZM40.7427 37L39.8856 36.4857V37.5143L40.7427 37ZM26.0001 32.5429C25.9774 32.5429 25.9556 32.552 25.9395 32.5681C25.9234 32.5841 25.9144 32.6059 25.9144 32.6287V34.5143C25.9144 34.5371 25.9234 34.5589 25.9395 34.5749C25.9556 34.591 25.9774 34.6 26.0001 34.6H27.6286V38.8857H25.143C25.1203 38.8857 25.0985 38.8947 25.0824 38.9108C25.0663 38.9269 25.0573 38.9487 25.0573 38.9714V40.8571C25.0573 40.8798 25.0663 40.9016 25.0824 40.9177C25.0985 40.9337 25.1203 40.9428 25.143 40.9428H32C32.0227 40.9428 32.0445 40.9337 32.0606 40.9177C32.0767 40.9016 32.0857 40.8798 32.0857 40.8571V38.9714C32.0857 38.9487 32.0767 38.9269 32.0606 38.9108C32.0445 38.8947 32.0227 38.8857 32 38.8857H30.5429V37.6857H32.1714C32.6182 37.6857 32.8713 37.8676 33.0526 38.1548C33.234 38.442 33.3308 38.8405 33.4163 39.2463C33.5017 39.652 33.5757 40.0637 33.734 40.386C33.8923 40.7083 34.1555 40.9428 34.5714 40.9428H38.857C38.8797 40.9428 38.9015 40.9337 38.9176 40.9177C38.9337 40.9016 38.9427 40.8798 38.9427 40.8571V37.6C38.9427 37.5773 38.9337 37.5555 38.9176 37.5394C38.9015 37.5233 38.8797 37.5143 38.857 37.5143H37.8284C37.8057 37.5143 37.7839 37.5233 37.7678 37.5394C37.7518 37.5555 37.7427 37.5773 37.7427 37.6V37.9428C37.7427 38.2696 37.6522 38.4929 37.5211 38.6383C37.39 38.7836 37.2153 38.8546 37.0313 38.8643C36.6632 38.8836 36.2745 38.6501 36.1982 38.2689C36.1091 37.8231 35.8886 37.4276 35.6679 37.1406C35.5575 36.9971 35.4474 36.8808 35.3505 36.7981C35.3152 36.768 35.2835 36.7475 35.2517 36.7265C35.8202 36.3907 36.2001 35.988 36.3784 35.5539C36.5718 35.0829 36.5547 34.5875 36.3874 34.1414C36.0528 33.249 35.1237 32.5429 34.0571 32.5429H26.0001ZM30.5429 34.6H32.6857C33.0143 34.6 33.2527 34.6824 33.4059 34.7973C33.559 34.9121 33.6285 35.0572 33.6285 35.2C33.6285 35.3429 33.559 35.488 33.4059 35.6028C33.2527 35.7177 33.0143 35.8 32.6857 35.8H30.5429V34.6Z" fill="#438DE6"/>
<defs>
<linearGradient id="paint0_linear_8_202" x1="31.604" y1="14.3386" x2="31.604" y2="26.3028" gradientUnits="userSpaceOnUse">
<stop stop-color="#428CE6"/>
<stop offset="0.831768" stop-color="#225590"/>
<stop offset="1" stop-color="#428CE6"/>
</linearGradient>
<linearGradient id="paint1_linear_8_202" x1="3.998" y1="56.7263" x2="60.002" y2="56.7263" gradientUnits="userSpaceOnUse">
<stop stop-color="#62A0EA"/>
<stop offset="0.0715849" stop-color="#AFD4FF" stop-opacity="0.4"/>
<stop offset="0.15" stop-color="#4B92E7"/>
<stop offset="0.85" stop-color="#4B92E7"/>
<stop offset="0.930477" stop-color="#C0D5EA" stop-opacity="0.4"/>
<stop offset="1" stop-color="#62A0EA"/>
</linearGradient>
<linearGradient id="paint2_linear_8_202" x1="33.0644" y1="15.4859" x2="33.0644" y2="59.6623" gradientUnits="userSpaceOnUse">
<stop stop-color="#A4CAEE"/>
<stop offset="1" stop-color="#73ABEA"/>
</linearGradient>
</defs>
</svg>
