<svg width="64" height="64" viewBox="0 0 64 64" fill="none" xmlns="http://www.w3.org/2000/svg">
<mask id="mask0_8_38" style="mask-type:luminance" maskUnits="userSpaceOnUse" x="4" y="3" width="57" height="57">
<path d="M47 3.9686H17.002C9.82119 3.9686 4 9.78979 4 16.9706V46.9686C4 54.1494 9.82119 59.9706 17.002 59.9706H47C54.1808 59.9706 60.002 54.1494 60.002 46.9686V16.9706C60.002 9.78979 54.1808 3.9686 47 3.9686Z" fill="white"/>
</mask>
<g mask="url(#mask0_8_38)">
<mask id="mask1_8_38" style="mask-type:alpha" maskUnits="userSpaceOnUse" x="4" y="3" width="56" height="58">
<path d="M4.09375 17.1263C4.09375 9.85958 9.90006 3.96875 17.0625 3.96875H46.9375C54.0999 3.96875 59.9062 9.85958 59.9062 17.1263V47.4362C59.9062 54.7029 54.0999 60.5938 46.9375 60.5938H17.0625C9.90006 60.5938 4.09375 54.7029 4.09375 47.4362V17.1263Z" fill="black"/>
</mask>
<g mask="url(#mask1_8_38)">
<path d="M9.44776 3.96875C6.48146 3.96875 4.09375 6.35107 4.09375 9.30916V55.2533C4.09375 58.2135 6.48146 60.5938 9.44776 60.5938H54.5501C57.5185 60.5938 59.9062 58.2135 59.9062 55.2533V16.7565C59.9062 13.2164 57.0301 10.348 53.481 10.348H28.78C27.4636 10.348 26.2603 9.60747 25.6691 8.43508L24.862 6.83713C23.9732 5.07855 22.1682 3.96875 20.1935 3.96875H9.44776Z" fill="url(#paint0_linear_8_38)"/>
</g>
<path d="M33.0644 15.4859C31.5856 15.4859 30.2499 16.0678 29.2802 17.0128C28.0559 18.2034 26.3815 19.7118 24.6314 19.7118H9.37038C6.39391 19.7118 3.998 22.0682 3.998 24.9942V47C4 55 10.5 60 17 60H46.8047C54 60 60 54.5 60 47L60.002 20.7683C60.002 17.8423 57.6061 15.4859 54.6275 15.4859H33.0644Z" fill="url(#paint1_linear_8_38)"/>
<path d="M33.0644 15.4859C31.5856 15.4859 30.2499 16.0678 29.2802 17.0128C28.0559 18.2034 26.3815 19.7118 24.6314 19.7118H9.37038C6.39391 19.7118 3.998 22.0682 3.998 24.9942V45C4 53 10.5 58 17 58C17 58 39.6094 58 46.8047 58C54 58 60 52.5 60 45C60 37.5 60.002 20.7683 60.002 20.7683C60.002 17.8423 57.6061 15.4859 54.6275 15.4859H33.0644Z" fill="url(#paint2_linear_8_38)"/>
</g>
<path d="M38.1977 38.0639C37.9278 38.0509 37.6372 38.092 37.3377 38.1973C37.1273 38.272 37.0171 38.4438 37.0171 38.4438C37.0171 38.4438 37.1484 38.3907 37.4452 38.3289C38.6562 38.0765 40.3913 39.9506 36.639 41.9004C36.6217 41.9468 36.563 41.9987 36.563 41.9986C40.9479 40.8459 40.0867 38.1543 38.1977 38.0639Z" fill="#438DE6"/>
<path d="M29.8704 37.8662C29.392 37.8788 28.2737 37.9818 26.9716 38.6113C24.9188 39.6043 32.0489 40.0565 35.7401 39.0857C36.1239 38.8237 36.6538 38.5964 36.6538 38.5964C36.6538 38.5964 35.1445 38.8662 33.6402 38.9931C31.7995 39.1473 29.8219 39.1777 28.8306 39.045C26.4829 38.7314 30.1187 37.868 30.1187 37.868C30.1187 37.868 30.0298 37.862 29.8704 37.8662Z" fill="#438DE6"/>
<path d="M29.2717 40.4631C25.8841 41.5875 31.1565 42.863 35.8902 41.4788C35.3871 41.3014 35.0673 40.9765 35.0673 40.9765C32.7538 41.422 31.4169 41.4088 29.724 41.2341C28.4148 41.0987 29.2717 40.4631 29.2717 40.4631Z" fill="#438DE6"/>
<path d="M29.7518 42.8894C26.6766 43.7486 31.621 45.5237 35.5362 43.8457C34.895 43.5963 34.4372 43.3082 34.4372 43.3082C32.6907 43.6388 31.8796 43.6632 30.2948 43.4824C28.9866 43.332 29.7518 42.8894 29.7518 42.8894Z" fill="#438DE6"/>
<path d="M27.7631 44.2599C26.4415 44.209 23.4411 45.5295 26.0023 45.9447C33.9849 47.2392 40.5537 45.3607 38.4831 44.4267C38.4831 44.4267 39.0489 44.8928 37.8604 45.2533C35.6005 45.9379 28.4545 46.1452 26.4694 45.2811C25.7558 44.9707 27.0937 44.5394 27.5147 44.449C27.9537 44.3538 28.206 44.373 28.206 44.373C28.1068 44.3031 27.9518 44.2672 27.7631 44.2599Z" fill="#438DE6"/>
<path d="M39.7509 45.1059C39.7509 45.1059 39.4991 45.7512 36.7743 46.2643C33.7001 46.8428 29.9081 46.7759 27.6593 46.4051C27.6593 46.4051 28.1204 46.7852 30.4876 46.937C34.0893 47.1676 39.6199 46.8101 39.7509 45.1059Z" fill="#438DE6"/>
<path d="M34.5407 27C35.3792 30.302 31.5845 31.3006 30.2149 33.3572C29.2818 34.7582 30.6716 36.2621 32.5668 37.9721C31.8278 36.3017 29.3218 34.8408 32.5687 32.2766C36.6177 29.0801 34.5407 27 34.5407 27Z" fill="#438DE6"/>
<path d="M36.8356 31.0849C36.8356 31.0849 29.9902 32.7955 33.2604 36.5636C34.2251 37.6742 33.0065 38.6746 33.0065 38.6746C33.0065 38.6746 35.4566 37.4094 34.3317 35.8259C33.281 34.3492 32.4737 33.6146 36.8356 31.0849Z" fill="#438DE6"/>
<defs>
<linearGradient id="paint0_linear_8_38" x1="31.604" y1="14.3386" x2="31.604" y2="26.3028" gradientUnits="userSpaceOnUse">
<stop stop-color="#428CE6"/>
<stop offset="0.831768" stop-color="#225590"/>
<stop offset="1" stop-color="#428CE6"/>
</linearGradient>
<linearGradient id="paint1_linear_8_38" x1="3.998" y1="56.7263" x2="60.002" y2="56.7263" gradientUnits="userSpaceOnUse">
<stop stop-color="#62A0EA"/>
<stop offset="0.0715849" stop-color="#AFD4FF" stop-opacity="0.4"/>
<stop offset="0.15" stop-color="#4B92E7"/>
<stop offset="0.85" stop-color="#4B92E7"/>
<stop offset="0.930477" stop-color="#C0D5EA" stop-opacity="0.4"/>
<stop offset="1" stop-color="#62A0EA"/>
</linearGradient>
<linearGradient id="paint2_linear_8_38" x1="33.0644" y1="15.4859" x2="33.0644" y2="59.6623" gradientUnits="userSpaceOnUse">
<stop stop-color="#A4CAEE"/>
<stop offset="1" stop-color="#73ABEA"/>
</linearGradient>
</defs>
</svg>
