<svg width="64" height="64" viewBox="0 0 64 64" fill="none" xmlns="http://www.w3.org/2000/svg">
<mask id="mask0_9_479" style="mask-type:luminance" maskUnits="userSpaceOnUse" x="4" y="3" width="57" height="57">
<path d="M47 3.9686H17.002C9.82119 3.9686 4 9.78979 4 16.9706V46.9686C4 54.1494 9.82119 59.9706 17.002 59.9706H47C54.1808 59.9706 60.002 54.1494 60.002 46.9686V16.9706C60.002 9.78979 54.1808 3.9686 47 3.9686Z" fill="white"/>
</mask>
<g mask="url(#mask0_9_479)">
<mask id="mask1_9_479" style="mask-type:alpha" maskUnits="userSpaceOnUse" x="4" y="3" width="56" height="58">
<path d="M4.09375 17.1263C4.09375 9.85958 9.90006 3.96875 17.0625 3.96875H46.9375C54.0999 3.96875 59.9062 9.85958 59.9062 17.1263V47.4362C59.9062 54.7029 54.0999 60.5938 46.9375 60.5938H17.0625C9.90006 60.5938 4.09375 54.7029 4.09375 47.4362V17.1263Z" fill="black"/>
</mask>
<g mask="url(#mask1_9_479)">
<path d="M9.44776 3.96875C6.48146 3.96875 4.09375 6.35107 4.09375 9.30916V55.2533C4.09375 58.2135 6.48146 60.5938 9.44776 60.5938H54.5501C57.5185 60.5938 59.9062 58.2135 59.9062 55.2533V16.7565C59.9062 13.2164 57.0301 10.348 53.481 10.348H28.78C27.4636 10.348 26.2603 9.60747 25.6691 8.43508L24.862 6.83713C23.9732 5.07855 22.1682 3.96875 20.1935 3.96875H9.44776Z" fill="url(#paint0_linear_9_479)"/>
</g>
<path d="M33.0644 15.4859C31.5856 15.4859 30.2499 16.0678 29.2802 17.0128C28.0559 18.2034 26.3815 19.7118 24.6314 19.7118H9.37038C6.39391 19.7118 3.998 22.0683 3.998 24.9942V47C4 55 10.5 60 17 60H46.8047C54 60 60 54.5 60 47L60.002 20.7683C60.002 17.8423 57.6061 15.4859 54.6275 15.4859H33.0644Z" fill="url(#paint1_linear_9_479)"/>
<path d="M33.0644 15.4859C31.5856 15.4859 30.2499 16.0678 29.2802 17.0128C28.0559 18.2034 26.3815 19.7118 24.6314 19.7118H9.37038C6.39391 19.7118 3.998 22.0682 3.998 24.9942V45C4 53 10.5 58 17 58C17 58 39.6094 58 46.8047 58C54 58 60 52.5 60 45C60 37.5 60.002 20.7683 60.002 20.7683C60.002 17.8423 57.6061 15.4859 54.6275 15.4859H33.0644Z" fill="url(#paint2_linear_9_479)"/>
</g>
<path d="M31.9971 28C31.9404 28.0023 31.8837 28.0051 31.827 28.0085C31.8129 28.0094 31.7987 28.0104 31.7845 28.0114C31.7741 28.0113 31.7637 28.0113 31.7533 28.0114C31.7165 28.014 31.6796 28.0168 31.6428 28.0199C31.3898 28.0281 31.1373 28.047 30.886 28.0766C30.8481 28.0829 30.8103 28.0895 30.7726 28.0964C30.5214 28.1302 30.2717 28.1747 30.0242 28.2296C29.9646 28.2432 29.905 28.2574 29.8456 28.2721C29.6048 28.3312 29.3665 28.4003 29.1313 28.4791C29.1029 28.4893 29.0746 28.4997 29.0463 28.5103C28.7847 28.6004 28.5274 28.7026 28.2752 28.8164C28.2696 28.8192 28.2639 28.8221 28.2582 28.8249C27.993 28.9455 27.7338 29.0789 27.4815 29.2246C27.4692 29.2331 27.457 29.2416 27.4447 29.2501C27.1964 29.3953 26.9551 29.5523 26.7219 29.7206C26.7162 29.7244 26.7105 29.7282 26.7049 29.732C26.4744 29.9008 26.2521 30.0806 26.0387 30.2706C26.0121 30.295 25.9857 30.3195 25.9593 30.3443C25.7633 30.5202 25.5751 30.7046 25.3952 30.897C25.3715 30.9233 25.3478 30.9498 25.3244 30.9764C25.1431 31.1764 24.971 31.3845 24.8085 31.6C24.799 31.6142 24.7895 31.6283 24.7801 31.6425C24.6157 31.864 24.4615 32.0929 24.3181 32.3285C24.2951 32.3661 24.2725 32.4039 24.2501 32.4419C24.1228 32.657 24.0046 32.8774 23.8957 33.1024C23.8716 33.1541 23.848 33.2061 23.8249 33.2583C23.7197 33.4875 23.6241 33.7211 23.5386 33.9584C23.529 33.9848 23.5195 34.0113 23.5102 34.0378C23.4237 34.2848 23.3481 34.5354 23.2834 34.789C23.2571 34.8896 23.2325 34.9908 23.2097 35.0923H23.2157C23.2089 35.1244 23.2023 35.1565 23.1959 35.1887C23.1527 35.3952 23.1168 35.6032 23.0882 35.8123C23.0742 35.9132 23.0619 36.0143 23.0514 36.1156C23.0273 36.3464 23.0122 36.5781 23.006 36.8101C23.0033 36.8734 23.0013 36.9367 23 37C23.0023 38.7041 23.4884 40.3725 24.4017 41.8111C25.315 43.2498 26.6179 44.3997 28.159 45.1269C28.1628 45.1297 28.1666 45.1326 28.1704 45.1354C28.3151 45.2045 28.4616 45.2697 28.6098 45.331C28.6126 45.3329 28.6154 45.3348 28.6183 45.3367C28.8463 45.4274 29.078 45.5087 29.3127 45.5805C29.3711 45.6 29.4297 45.6189 29.4885 45.6372C29.6889 45.6933 29.8913 45.7425 30.0951 45.7846C30.1911 45.8079 30.2875 45.8296 30.3842 45.8498C30.5761 45.8825 30.7689 45.9089 30.9625 45.9291C31.0662 45.9442 31.1702 45.9574 31.2743 45.9688C31.5157 45.989 31.7578 45.9994 32 46C32.2479 45.9989 32.4957 45.9875 32.7427 45.966V45.9631C32.7483 45.9631 32.754 45.9631 32.7597 45.9631C33.0372 45.9382 33.3134 45.9003 33.5874 45.8497C33.6082 45.847 33.629 45.8442 33.6497 45.8412C33.6545 45.8412 33.6592 45.8412 33.6639 45.8412C33.9544 45.7855 34.242 45.7155 34.5256 45.6315C36.1048 45.1674 37.5264 44.2791 38.6359 43.0633C38.6434 43.0548 38.651 43.0463 38.6585 43.0378C38.7346 42.9598 38.8093 42.8804 38.8825 42.7997C38.8825 42.7978 38.8825 42.7959 38.8825 42.794L38.8683 42.8025C40.2417 41.1806 40.9968 39.1252 41 37C40.9961 36.2441 40.8971 35.4917 40.7052 34.7606H40.708C40.7005 34.737 40.693 34.7133 40.6853 34.6897C40.6834 34.6841 40.6815 34.6784 40.6796 34.6727C40.6163 34.4374 40.5435 34.2048 40.4614 33.9754C40.4456 33.9309 40.4296 33.8865 40.4132 33.8422C40.1105 33.0346 39.6933 32.2747 39.1744 31.5858C39.1641 31.5716 39.1537 31.5574 39.1433 31.5433C39.1338 31.5319 39.1244 31.5206 39.1149 31.5093C38.7678 31.0577 38.3787 30.6401 37.9527 30.262C37.9339 30.2478 37.915 30.2336 37.896 30.2195C37.8932 30.2157 37.8903 30.212 37.8875 30.2082C37.6835 30.0315 37.4716 29.8641 37.2525 29.7064C37.2262 29.6874 37.1997 29.6685 37.1732 29.6498C36.9628 29.5026 36.7462 29.3646 36.524 29.2359C36.4911 29.2159 36.458 29.196 36.4248 29.1764C35.076 28.4094 33.5517 28.0041 32 28L31.9971 28ZM31.9971 29.1254C32.0066 29.1253 32.016 29.1253 32.0255 29.1254C32.0198 29.2671 31.9971 29.4003 31.9971 29.5392C31.9971 30.6447 32.1389 31.7219 32.3798 32.7565C31.1326 33.811 29.5735 34.5112 27.8614 34.6983C28.3433 32.6488 29.3127 30.795 30.6308 29.2472C30.8161 29.217 31.0023 29.1933 31.1893 29.1764C31.2685 29.1657 31.3479 29.1563 31.4274 29.148C31.6179 29.1335 31.8089 29.126 32 29.1253L31.9971 29.1254ZM33.1423 29.2189C33.1489 29.2198 33.1556 29.2208 33.1622 29.2217C33.4148 29.2596 33.6655 29.3097 33.9133 29.372C33.9143 29.372 33.9152 29.372 33.9162 29.372C34.1703 29.436 34.421 29.5126 34.6674 29.6016C34.6768 29.6044 34.6863 29.6072 34.6957 29.6101C34.3527 30.4151 33.8964 31.1578 33.3351 31.8098C33.1986 31.0605 33.1274 30.3008 33.1225 29.5392C33.1225 29.4315 33.1395 29.3266 33.1423 29.2189ZM28.7997 29.8142C27.7873 31.3046 27.0721 32.9764 26.6935 34.7379C25.9761 34.7155 25.2644 34.6012 24.576 34.3978C24.6608 34.1561 24.7573 33.9186 24.8652 33.6863C24.8727 33.6702 24.8802 33.6541 24.8878 33.6381C24.9936 33.4135 25.11 33.1941 25.2365 32.9805C25.2403 32.9748 25.244 32.9691 25.2478 32.9635C25.3807 32.7411 25.5245 32.5254 25.6787 32.3172C25.8339 32.1078 25.9995 31.9063 26.1747 31.7134C26.1785 31.7096 26.1823 31.7058 26.1861 31.702C26.3577 31.5139 26.5384 31.3341 26.7275 31.1635C26.7369 31.1559 26.7464 31.1483 26.7558 31.1408C26.941 30.9739 27.134 30.8159 27.3341 30.6674C27.3454 30.6598 27.3568 30.6522 27.3681 30.6447C27.5711 30.4958 27.7811 30.3568 27.9974 30.228C28.0031 30.2252 28.0088 30.2223 28.0144 30.2195C28.238 30.0883 28.4679 29.9681 28.7032 29.8595C28.7353 29.8451 28.7674 29.831 28.7996 29.817L28.7997 29.8142ZM35.7162 30.0608C35.7181 30.0627 35.72 30.0646 35.7219 30.0665C35.9514 30.1895 36.1746 30.3239 36.3908 30.469C36.5841 30.6004 36.7713 30.7404 36.9521 30.8885C36.9749 30.9054 36.9976 30.9224 37.0201 30.9395C37.023 30.9414 37.0258 30.9433 37.0286 30.9452C37.2045 31.0927 37.3738 31.2478 37.536 31.4101C37.5579 31.4298 37.5796 31.4497 37.6012 31.4697C37.6031 31.4725 37.605 31.4753 37.6069 31.4782C37.7376 31.6135 37.8633 31.7534 37.9839 31.8977C38.0368 31.9564 38.0888 32.016 38.1399 32.0763C38.2413 32.2055 38.3387 32.3378 38.4318 32.4731C38.49 32.5524 38.5467 32.6327 38.6019 32.7141C38.7193 32.8984 38.829 33.0875 38.9307 33.281C38.9498 33.312 38.9687 33.3432 38.9874 33.3745C38.9874 33.3764 38.9874 33.3783 38.9874 33.3802C39.085 33.5702 39.1748 33.7641 39.2567 33.9613C39.276 34.0037 39.2949 34.0462 39.3134 34.0889C39.3153 34.0936 39.3172 34.0983 39.3191 34.1031C39.3835 34.272 39.4422 34.4431 39.4948 34.6161C39.5246 34.7007 39.553 34.7857 39.5799 34.8713C38.0082 35.1052 36.5202 35.7289 35.2514 36.6854C34.5367 35.5878 33.9919 34.3884 33.6356 33.128C34.5144 32.2577 35.2229 31.2173 35.7162 30.0608ZM32.7001 33.9272C33.1055 35.1745 33.6752 36.348 34.3896 37.4167C32.978 38.7645 32.0134 40.5126 31.6258 42.4255C30.3635 42.2108 29.1398 41.8106 27.9946 41.2378C27.6694 40.0904 27.5025 38.904 27.4986 37.7115C27.4986 37.0737 27.5609 36.4529 27.6488 35.8406C29.4823 35.7051 31.237 35.0404 32.7001 33.9272ZM24.2756 35.4636C24.9899 35.6762 25.7354 35.8179 26.5093 35.8548C26.4235 36.47 26.378 37.0903 26.3732 37.7115C26.3732 38.6554 26.4724 39.5795 26.6482 40.4724C25.7701 39.8872 24.9667 39.1971 24.2557 38.4173C24.2234 38.2293 24.1978 38.0402 24.1792 37.8504C24.1684 37.7674 24.159 37.6842 24.1508 37.6009C24.1337 37.401 24.1243 37.2006 24.1225 37C24.1236 36.7377 24.1378 36.4756 24.165 36.2148C24.1907 35.9627 24.2285 35.712 24.2784 35.4636H24.2756ZM39.7981 35.9738C39.8316 36.2212 39.8533 36.47 39.8632 36.7193C39.8687 36.8138 39.8725 36.9083 39.8746 37.0028C39.871 38.1885 39.5997 39.358 39.0809 40.4242C39.0715 40.4432 39.0621 40.4621 39.0525 40.4809C37.8539 39.6964 36.7912 38.7217 35.9061 37.5952C37.0441 36.7315 38.3837 36.1725 39.798 35.971L39.7981 35.9738ZM35.0585 38.3238C36.0223 39.5455 37.1902 40.5915 38.4998 41.4419C38.4998 41.4438 38.4998 41.4457 38.4998 41.4476C38.3977 41.59 38.2909 41.729 38.1795 41.8642C36.7858 42.3636 35.3172 42.6215 33.8368 42.6268C33.4683 42.6268 33.1055 42.5984 32.7426 42.5701C33.0885 40.926 33.9105 39.4604 35.0585 38.3238ZM25.0466 40.6878C25.6702 41.1867 26.3392 41.6374 27.0479 42.023C27.2151 42.5502 27.4164 43.0604 27.6431 43.5565C27.6412 43.5555 27.6393 43.5546 27.6374 43.5536C27.4322 43.4157 27.2335 43.2681 27.0422 43.1114C27.0308 43.102 27.0194 43.0926 27.0081 43.0831C26.8068 42.918 26.6138 42.7429 26.4299 42.5587C26.2445 42.3729 26.0685 42.1781 25.9026 41.9747C25.7373 41.7719 25.5821 41.5609 25.4377 41.3426C25.2968 41.1308 25.1663 40.9123 25.0466 40.6878ZM28.485 42.7004C29.4346 43.0859 30.4381 43.3637 31.4756 43.5367C31.4557 43.7918 31.4359 44.0497 31.4359 44.3133C31.4359 44.4948 31.45 44.6705 31.4614 44.8491C31.4576 44.8491 31.4538 44.8491 31.45 44.8491C30.739 44.7985 30.0381 44.6517 29.3666 44.4126C29.3638 44.4116 29.3609 44.4107 29.3581 44.4097C29.0226 43.8628 28.7307 43.2903 28.485 42.6976L28.485 42.7004ZM36.4277 43.5026C36.4267 43.5036 36.4258 43.5045 36.4248 43.5055C36.2131 43.6483 35.9946 43.7807 35.77 43.9023C35.7653 43.9061 35.7606 43.9099 35.7558 43.9137C35.7539 43.9137 35.752 43.9137 35.7501 43.9137C35.5541 44.0204 35.3536 44.1188 35.1492 44.2085C35.1003 44.2298 35.0511 44.2506 35.0018 44.2708C34.8119 44.3492 34.619 44.4201 34.4235 44.4834C34.3699 44.501 34.316 44.518 34.262 44.5345C34.0832 44.5881 33.9026 44.6354 33.7205 44.6762C33.6396 44.6964 33.5583 44.7153 33.4768 44.7329C33.3084 44.762 33.1392 44.7856 32.9694 44.8037C32.845 44.8228 32.7203 44.8389 32.5952 44.8519C32.581 44.6734 32.5612 44.4948 32.5612 44.3134C32.5612 44.1008 32.5782 43.8967 32.5924 43.6897C33.8732 43.8078 35.1644 43.7449 36.4277 43.5026Z" fill="#438DE6"/>
<defs>
<linearGradient id="paint0_linear_9_479" x1="31.604" y1="14.3386" x2="31.604" y2="26.3028" gradientUnits="userSpaceOnUse">
<stop stop-color="#428CE6"/>
<stop offset="0.831768" stop-color="#225590"/>
<stop offset="1" stop-color="#428CE6"/>
</linearGradient>
<linearGradient id="paint1_linear_9_479" x1="3.998" y1="56.7263" x2="60.002" y2="56.7263" gradientUnits="userSpaceOnUse">
<stop stop-color="#62A0EA"/>
<stop offset="0.0715849" stop-color="#AFD4FF" stop-opacity="0.4"/>
<stop offset="0.15" stop-color="#4B92E7"/>
<stop offset="0.85" stop-color="#4B92E7"/>
<stop offset="0.930477" stop-color="#C0D5EA" stop-opacity="0.4"/>
<stop offset="1" stop-color="#62A0EA"/>
</linearGradient>
<linearGradient id="paint2_linear_9_479" x1="33.0644" y1="15.4859" x2="33.0644" y2="59.6623" gradientUnits="userSpaceOnUse">
<stop stop-color="#A4CAEE"/>
<stop offset="1" stop-color="#73ABEA"/>
</linearGradient>
</defs>
</svg>
