<svg width="64" height="64" viewBox="0 0 64 64" fill="none" xmlns="http://www.w3.org/2000/svg">
<mask id="mask0_9_319" style="mask-type:luminance" maskUnits="userSpaceOnUse" x="4" y="3" width="57" height="57">
<path d="M47 3.9686H17.002C9.82119 3.9686 4 9.78979 4 16.9706V46.9686C4 54.1494 9.82119 59.9706 17.002 59.9706H47C54.1808 59.9706 60.002 54.1494 60.002 46.9686V16.9706C60.002 9.78979 54.1808 3.9686 47 3.9686Z" fill="white"/>
</mask>
<g mask="url(#mask0_9_319)">
<mask id="mask1_9_319" style="mask-type:alpha" maskUnits="userSpaceOnUse" x="4" y="3" width="56" height="58">
<path d="M4.09375 17.1263C4.09375 9.85958 9.90006 3.96875 17.0625 3.96875H46.9375C54.0999 3.96875 59.9062 9.85958 59.9062 17.1263V47.4362C59.9062 54.7029 54.0999 60.5938 46.9375 60.5938H17.0625C9.90006 60.5938 4.09375 54.7029 4.09375 47.4362V17.1263Z" fill="black"/>
</mask>
<g mask="url(#mask1_9_319)">
<path d="M9.44776 3.96875C6.48146 3.96875 4.09375 6.35107 4.09375 9.30916V55.2533C4.09375 58.2135 6.48146 60.5938 9.44776 60.5938H54.5501C57.5185 60.5938 59.9062 58.2135 59.9062 55.2533V16.7565C59.9062 13.2164 57.0301 10.348 53.481 10.348H28.78C27.4636 10.348 26.2603 9.60747 25.6691 8.43508L24.862 6.83713C23.9732 5.07855 22.1682 3.96875 20.1935 3.96875H9.44776Z" fill="url(#paint0_linear_9_319)"/>
</g>
<path d="M33.0644 15.4859C31.5856 15.4859 30.2499 16.0678 29.2802 17.0128C28.0559 18.2034 26.3815 19.7118 24.6314 19.7118H9.37038C6.39391 19.7118 3.998 22.0682 3.998 24.9942V47C4 55 10.5 60 17 60H46.8047C54 60 60 54.5 60 47L60.002 20.7683C60.002 17.8423 57.6061 15.4859 54.6275 15.4859H33.0644Z" fill="url(#paint1_linear_9_319)"/>
<path d="M33.0644 15.4859C31.5856 15.4859 30.2499 16.0678 29.2802 17.0128C28.0559 18.2034 26.3815 19.7118 24.6314 19.7118H9.37038C6.39391 19.7118 3.998 22.0682 3.998 24.9942V45C4 53 10.5 58 17 58C17 58 39.6094 58 46.8047 58C54 58 60 52.5 60 45C60 37.5 60.002 20.7683 60.002 20.7683C60.002 17.8423 57.6061 15.4859 54.6275 15.4859H33.0644Z" fill="url(#paint2_linear_9_319)"/>
</g>
<path d="M27.8081 28C27.2294 28 26.7616 28.4678 26.7616 29.0464V29.5225C26.2651 29.6579 25.7849 29.859 25.3376 30.1175L24.997 29.7769C24.5866 29.3665 23.9259 29.3665 23.5156 29.7769L22.7769 30.5197C22.3665 30.9301 22.3665 31.5907 22.7769 32.0011L23.1134 32.3376C22.8549 32.7849 22.6579 33.2651 22.5225 33.7616H22.0464C21.4678 33.7616 21 34.2294 21 34.8081V35.8586C21 36.4372 21.4678 36.9051 22.0464 36.9051H22.5184C22.6579 37.4016 22.8549 37.8817 23.1134 38.329L22.7769 38.6655C22.3665 39.0759 22.3665 39.7366 22.7769 40.147L23.5156 40.8898C23.9259 41.3001 24.5866 41.3001 24.997 40.8898L25.3335 40.5533C25.7849 40.8077 26.261 41.0088 26.7616 41.1401V41.6202C26.7616 42.1988 27.2294 42.6667 27.8081 42.6667H28.8545C29.4372 42.6667 29.9051 42.1988 29.9051 41.6202V41.1442C30.4016 41.0088 30.8817 40.8077 31.329 40.5492L31.6655 40.8898C32.0759 41.3001 32.7366 41.3001 33.147 40.8898L33.8898 40.147C34.3001 39.7366 34.3001 39.0759 33.8898 38.6655L33.5533 38.329C33.8077 37.8817 34.0088 37.4016 34.1401 36.9051H34.6161C35.1988 36.9051 35.6667 36.4372 35.6667 35.8586V34.8081C35.6667 34.2294 35.1988 33.7616 34.6161 33.7616H34.1442C34.0088 33.2651 33.8077 32.7849 33.5492 32.3376L33.8898 32.0011C34.3001 31.5907 34.3001 30.9301 33.8898 30.5197L33.147 29.7769C32.7366 29.3665 32.0759 29.3665 31.6655 29.7769L31.329 30.1134C30.8817 29.859 30.4016 29.662 29.9051 29.5266V29.0464C29.9051 28.4678 29.4372 28 28.8545 28H27.8081ZM28.3497 32.1776C30.0938 32.1776 31.5014 33.5893 31.5014 35.3292C31.5014 37.0692 30.0938 38.4809 28.3497 38.4809C26.6098 38.4809 25.1981 37.0692 25.1981 35.3292C25.1981 33.5893 26.6098 32.1776 28.3497 32.1776Z" fill="#438DE6"/>
<path d="M37.9991 36.6667C37.6309 36.6667 37.3332 36.9644 37.3332 37.3326V37.6355C37.0172 37.7217 36.7116 37.8497 36.427 38.0142L36.2102 37.7974C35.9491 37.5363 35.5286 37.5363 35.2675 37.7974L34.7974 38.2701C34.5363 38.5312 34.5363 38.9517 34.7974 39.2128L35.0116 39.427C34.847 39.7116 34.7217 40.0172 34.6355 40.3332H34.3326C33.9644 40.3332 33.6667 40.6309 33.6667 40.9991V41.6676C33.6667 42.0358 33.9644 42.3335 34.3326 42.3335H34.6329C34.7217 42.6495 34.847 42.9551 35.0116 43.2397L34.7974 43.4538C34.5363 43.715 34.5363 44.1354 34.7974 44.3966L35.2675 44.8692C35.5286 45.1304 35.9491 45.1304 36.2102 44.8692L36.4244 44.6551C36.7116 44.817 37.0146 44.945 37.3332 45.0285V45.3341C37.3332 45.7023 37.6309 46 37.9991 46H38.665C39.0358 46 39.3335 45.7023 39.3335 45.3341V45.0312C39.6495 44.945 39.955 44.817 40.2397 44.6525L40.4538 44.8692C40.715 45.1304 41.1354 45.1304 41.3966 44.8692L41.8692 44.3966C42.1304 44.1354 42.1304 43.715 41.8692 43.4538L41.6551 43.2397C41.817 42.9551 41.945 42.6495 42.0285 42.3335H42.3315C42.7023 42.3335 43 42.0358 43 41.6676V40.9991C43 40.6309 42.7023 40.3332 42.3315 40.3332H42.0312C41.945 40.0172 41.817 39.7116 41.6525 39.427L41.8692 39.2128C42.1304 38.9517 42.1304 38.5312 41.8692 38.2701L41.3966 37.7974C41.1354 37.5363 40.715 37.5363 40.4538 37.7974L40.2397 38.0116C39.955 37.8497 39.6495 37.7243 39.3335 37.6381V37.3326C39.3335 36.9644 39.0358 36.6667 38.665 36.6667H37.9991ZM38.3438 39.3251C39.4537 39.3251 40.3494 40.2235 40.3494 41.3307C40.3494 42.438 39.4537 43.3363 38.3438 43.3363C37.2365 43.3363 36.3382 42.438 36.3382 41.3307C36.3382 40.2235 37.2365 39.3251 38.3438 39.3251Z" fill="#438DE6"/>
<defs>
<linearGradient id="paint0_linear_9_319" x1="31.604" y1="14.3386" x2="31.604" y2="26.3028" gradientUnits="userSpaceOnUse">
<stop stop-color="#428CE6"/>
<stop offset="0.831768" stop-color="#225590"/>
<stop offset="1" stop-color="#428CE6"/>
</linearGradient>
<linearGradient id="paint1_linear_9_319" x1="3.998" y1="56.7263" x2="60.002" y2="56.7263" gradientUnits="userSpaceOnUse">
<stop stop-color="#62A0EA"/>
<stop offset="0.0715849" stop-color="#AFD4FF" stop-opacity="0.4"/>
<stop offset="0.15" stop-color="#4B92E7"/>
<stop offset="0.85" stop-color="#4B92E7"/>
<stop offset="0.930477" stop-color="#C0D5EA" stop-opacity="0.4"/>
<stop offset="1" stop-color="#62A0EA"/>
</linearGradient>
<linearGradient id="paint2_linear_9_319" x1="33.0644" y1="15.4859" x2="33.0644" y2="59.6623" gradientUnits="userSpaceOnUse">
<stop stop-color="#A4CAEE"/>
<stop offset="1" stop-color="#73ABEA"/>
</linearGradient>
</defs>
</svg>
