<svg width="64" height="64" viewBox="0 0 64 64" fill="none" xmlns="http://www.w3.org/2000/svg">
<mask id="mask0_22_2590" style="mask-type:luminance" maskUnits="userSpaceOnUse" x="4" y="3" width="57" height="57">
<path d="M47 3.9686H17.002C9.82119 3.9686 4 9.78979 4 16.9706V46.9686C4 54.1494 9.82119 59.9706 17.002 59.9706H47C54.1808 59.9706 60.002 54.1494 60.002 46.9686V16.9706C60.002 9.78979 54.1808 3.9686 47 3.9686Z" fill="white"/>
</mask>
<g mask="url(#mask0_22_2590)">
<mask id="mask1_22_2590" style="mask-type:alpha" maskUnits="userSpaceOnUse" x="4" y="3" width="56" height="58">
<path d="M4.09375 17.1263C4.09375 9.85958 9.90006 3.96875 17.0625 3.96875H46.9375C54.0999 3.96875 59.9062 9.85958 59.9062 17.1263V47.4362C59.9062 54.7029 54.0999 60.5938 46.9375 60.5938H17.0625C9.90006 60.5938 4.09375 54.7029 4.09375 47.4362V17.1263Z" fill="black"/>
</mask>
<g mask="url(#mask1_22_2590)">
<path d="M9.44776 3.96875C6.48146 3.96875 4.09375 6.35107 4.09375 9.30916V55.2533C4.09375 58.2135 6.48146 60.5938 9.44776 60.5938H54.5501C57.5185 60.5938 59.9062 58.2135 59.9062 55.2533V16.7565C59.9062 13.2164 57.0301 10.348 53.481 10.348H28.78C27.4636 10.348 26.2603 9.60747 25.6691 8.43508L24.862 6.83713C23.9732 5.07855 22.1682 3.96875 20.1935 3.96875H9.44776Z" fill="url(#paint0_linear_22_2590)"/>
</g>
<path d="M33.0644 15.4859C31.5856 15.4859 30.2499 16.0678 29.2802 17.0128C28.0559 18.2034 26.3815 19.7118 24.6314 19.7118H9.37039C6.39392 19.7118 3.99802 22.0683 3.99802 24.9942V47C4.00002 55 10.5 60 17 60H46.8047C54 60 60 54.5 60 47L60.002 20.7683C60.002 17.8423 57.6061 15.4859 54.6275 15.4859H33.0644Z" fill="url(#paint1_linear_22_2590)"/>
<path d="M33.0644 15.4859C31.5856 15.4859 30.2499 16.0678 29.2802 17.0128C28.0559 18.2034 26.3815 19.7118 24.6314 19.7118H9.37039C6.39392 19.7118 3.99802 22.0682 3.99802 24.9942V45C4.00002 53 10.5 58 17 58C17 58 39.6094 58 46.8047 58C54 58 60 52.5 60 45C60 37.5 60.002 20.7683 60.002 20.7683C60.002 17.8423 57.6061 15.4859 54.6275 15.4859H33.0644Z" fill="url(#paint2_linear_22_2590)"/>
</g>
<path d="M33.3493 28.0097C33.1008 27.9788 32.8487 28.022 32.6246 28.1337C32.4005 28.2455 32.2144 28.4209 32.0896 28.638L23.1711 44.0876C23.0873 44.2325 23.0329 44.3924 23.011 44.5584C22.9891 44.7243 23 44.8929 23.0433 45.0546C23.0865 45.2163 23.1612 45.3679 23.263 45.5007C23.3648 45.6335 23.4918 45.745 23.6368 45.8287C23.7817 45.9124 23.9417 45.9668 24.1076 45.9887C24.2735 46.0106 24.4422 45.9996 24.6038 45.9563C24.7655 45.913 24.9171 45.8383 25.0499 45.7364C25.1827 45.6345 25.2941 45.5075 25.3778 45.3625L34.2963 29.913C34.4017 29.7305 34.4602 29.5247 34.4666 29.314C34.473 29.1034 34.4271 28.8945 34.3329 28.7059C34.2388 28.5173 34.0994 28.3551 33.9272 28.2336C33.755 28.1121 33.5554 28.0352 33.3462 28.0097H33.3493ZM32.5524 44.725C32.3833 44.725 32.2212 44.7922 32.1017 44.9118C31.9821 45.0313 31.9149 45.1935 31.9149 45.3625C31.9149 45.5316 31.9821 45.6937 32.1017 45.8133C32.2212 45.9328 32.3833 46 32.5524 46H40.1991C40.3681 46 40.5303 45.9328 40.6498 45.8133C40.7694 45.6937 40.8365 45.5316 40.8365 45.3625C40.8365 45.1935 40.7694 45.0313 40.6498 44.9118C40.5303 44.7922 40.3681 44.725 40.1991 44.725H32.5524Z" fill="#438DE6"/>
<defs>
<linearGradient id="paint0_linear_22_2590" x1="31.604" y1="14.3386" x2="31.604" y2="26.3028" gradientUnits="userSpaceOnUse">
<stop stop-color="#428CE6"/>
<stop offset="0.831768" stop-color="#225590"/>
<stop offset="1" stop-color="#428CE6"/>
</linearGradient>
<linearGradient id="paint1_linear_22_2590" x1="3.99802" y1="56.7263" x2="60.002" y2="56.7263" gradientUnits="userSpaceOnUse">
<stop stop-color="#62A0EA"/>
<stop offset="0.0715849" stop-color="#AFD4FF" stop-opacity="0.4"/>
<stop offset="0.15" stop-color="#4B92E7"/>
<stop offset="0.85" stop-color="#4B92E7"/>
<stop offset="0.930477" stop-color="#C0D5EA" stop-opacity="0.4"/>
<stop offset="1" stop-color="#62A0EA"/>
</linearGradient>
<linearGradient id="paint2_linear_22_2590" x1="33.0644" y1="15.4859" x2="33.0644" y2="59.6623" gradientUnits="userSpaceOnUse">
<stop stop-color="#A4CAEE"/>
<stop offset="1" stop-color="#73ABEA"/>
</linearGradient>
</defs>
</svg>
