<svg width="64" height="64" viewBox="0 0 64 64" fill="none" xmlns="http://www.w3.org/2000/svg">
<mask id="mask0_22_2620" style="mask-type:luminance" maskUnits="userSpaceOnUse" x="4" y="3" width="57" height="57">
<path d="M47 3.9686H17.002C9.82119 3.9686 4 9.78979 4 16.9706V46.9686C4 54.1494 9.82119 59.9706 17.002 59.9706H47C54.1808 59.9706 60.002 54.1494 60.002 46.9686V16.9706C60.002 9.78979 54.1808 3.9686 47 3.9686Z" fill="white"/>
</mask>
<g mask="url(#mask0_22_2620)">
<mask id="mask1_22_2620" style="mask-type:alpha" maskUnits="userSpaceOnUse" x="4" y="3" width="56" height="58">
<path d="M4.09375 17.1263C4.09375 9.85958 9.90006 3.96875 17.0625 3.96875H46.9375C54.0999 3.96875 59.9062 9.85958 59.9062 17.1263V47.4362C59.9062 54.7029 54.0999 60.5938 46.9375 60.5938H17.0625C9.90006 60.5938 4.09375 54.7029 4.09375 47.4362V17.1263Z" fill="black"/>
</mask>
<g mask="url(#mask1_22_2620)">
<path d="M9.44776 3.96875C6.48146 3.96875 4.09375 6.35107 4.09375 9.30916V55.2533C4.09375 58.2135 6.48146 60.5938 9.44776 60.5938H54.5501C57.5185 60.5938 59.9062 58.2135 59.9062 55.2533V16.7565C59.9062 13.2164 57.0301 10.348 53.481 10.348H28.78C27.4636 10.348 26.2603 9.60747 25.6691 8.43508L24.862 6.83713C23.9732 5.07855 22.1682 3.96875 20.1935 3.96875H9.44776Z" fill="url(#paint0_linear_22_2620)"/>
</g>
<path d="M33.0644 15.4859C31.5856 15.4859 30.2499 16.0678 29.2802 17.0128C28.0559 18.2034 26.3815 19.7118 24.6314 19.7118H9.37038C6.39391 19.7118 3.998 22.0682 3.998 24.9942V47C4 55 10.5 60 17 60H46.8047C54 60 60 54.5 60 47L60.002 20.7683C60.002 17.8423 57.6061 15.4859 54.6275 15.4859H33.0644Z" fill="url(#paint1_linear_22_2620)"/>
<path d="M33.0644 15.4859C31.5856 15.4859 30.2499 16.0678 29.2802 17.0128C28.0559 18.2034 26.3815 19.7118 24.6314 19.7118H9.37038C6.39391 19.7118 3.998 22.0682 3.998 24.9942V45C4 53 10.5 58 17 58C17 58 39.6094 58 46.8047 58C54 58 60 52.5 60 45C60 37.5 60.002 20.7683 60.002 20.7683C60.002 17.8423 57.6061 15.4859 54.6275 15.4859H33.0644Z" fill="url(#paint2_linear_22_2620)"/>
</g>
<path d="M25.5168 28C24.1305 28 23 29.1354 23 30.523V43.477C23 44.8646 24.1305 46 25.5168 46H38.4812C39.8675 46 41 44.8646 41 43.477V30.523C41 29.1354 39.8675 28 38.4812 28H25.5168ZM26.3585 30.0556H31.208C31.1298 30.0918 31.0617 30.1464 31.0094 30.2148L30.4821 32.2456L29.2185 37.091L28.4575 34.5556C28.4568 34.553 28.456 34.5504 28.4552 34.5477L28.3146 34.1052C28.2808 33.9979 28.2136 33.9041 28.1229 33.8376C28.0321 33.771 27.9226 33.7351 27.81 33.735H27.3509H25.0513V31.2844C25.0513 30.6067 25.6139 30.0556 26.3585 30.0556ZM31.8449 30.0556H35.0214C34.9532 30.0707 34.8887 30.0991 34.8316 30.1392C34.7744 30.1793 34.7258 30.2303 34.6884 30.2893L34.0825 32.0264L33.3442 34.1441L32.6845 32.1733L32.0248 30.1818C31.9743 30.1276 31.913 30.0846 31.8449 30.0556ZM35.3585 30.0556H37.6415C38.3861 30.0556 38.9465 30.6063 38.9465 31.284V37.7197H38.1275L36.2663 32.043L35.6914 30.2976C35.6549 30.2371 35.6066 30.1845 35.5494 30.1429C35.4922 30.1014 35.4273 30.0717 35.3585 30.0556ZM35.1413 35.9949L36.2001 39.2314L36.3387 39.6595C36.3733 39.766 36.4407 39.8589 36.5314 39.9246C36.6221 39.9904 36.7313 40.0257 36.8433 40.0255H37.2941H38.9465V42.716C38.9465 43.3937 38.3861 43.9444 37.6415 43.9444H29.6528C29.7315 43.9091 29.8003 43.8552 29.8534 43.7872L30.4118 41.6448L31.7312 36.5926L32.2233 38.0816L32.7982 39.8104C32.8329 39.9156 32.8997 40.0072 32.9891 40.0724C33.0786 40.1376 33.1862 40.1732 33.2969 40.1741C33.4076 40.1749 33.5158 40.1411 33.6063 40.0773C33.6967 40.0135 33.7649 39.9229 33.8012 39.8183L34.4072 38.0977L35.1413 35.9949ZM25.0515 36.0384H26.4929L28.1969 41.6882L28.8339 43.8058C28.8861 43.8657 28.9511 43.9131 29.0241 43.9444H26.3585C25.6139 43.9444 25.0515 43.3937 25.0515 42.716V36.0384Z" fill="#438DE6"/>
<defs>
<linearGradient id="paint0_linear_22_2620" x1="31.604" y1="14.3386" x2="31.604" y2="26.3028" gradientUnits="userSpaceOnUse">
<stop stop-color="#428CE6"/>
<stop offset="0.831768" stop-color="#225590"/>
<stop offset="1" stop-color="#428CE6"/>
</linearGradient>
<linearGradient id="paint1_linear_22_2620" x1="3.998" y1="56.7263" x2="60.002" y2="56.7263" gradientUnits="userSpaceOnUse">
<stop stop-color="#62A0EA"/>
<stop offset="0.0715849" stop-color="#AFD4FF" stop-opacity="0.4"/>
<stop offset="0.15" stop-color="#4B92E7"/>
<stop offset="0.85" stop-color="#4B92E7"/>
<stop offset="0.930477" stop-color="#C0D5EA" stop-opacity="0.4"/>
<stop offset="1" stop-color="#62A0EA"/>
</linearGradient>
<linearGradient id="paint2_linear_22_2620" x1="33.0644" y1="15.4859" x2="33.0644" y2="59.6623" gradientUnits="userSpaceOnUse">
<stop stop-color="#A4CAEE"/>
<stop offset="1" stop-color="#73ABEA"/>
</linearGradient>
</defs>
</svg>
