<svg width="64" height="64" viewBox="0 0 64 64" fill="none" xmlns="http://www.w3.org/2000/svg">
<mask id="mask0_9_469" style="mask-type:luminance" maskUnits="userSpaceOnUse" x="4" y="3" width="57" height="57">
<path d="M47 3.9686H17.002C9.82119 3.9686 4 9.78979 4 16.9706V46.9686C4 54.1494 9.82119 59.9706 17.002 59.9706H47C54.1808 59.9706 60.002 54.1494 60.002 46.9686V16.9706C60.002 9.78979 54.1808 3.9686 47 3.9686Z" fill="white"/>
</mask>
<g mask="url(#mask0_9_469)">
<mask id="mask1_9_469" style="mask-type:alpha" maskUnits="userSpaceOnUse" x="4" y="3" width="56" height="58">
<path d="M4.09375 17.1263C4.09375 9.85958 9.90006 3.96875 17.0625 3.96875H46.9375C54.0999 3.96875 59.9062 9.85958 59.9062 17.1263V47.4362C59.9062 54.7029 54.0999 60.5938 46.9375 60.5938H17.0625C9.90006 60.5938 4.09375 54.7029 4.09375 47.4362V17.1263Z" fill="black"/>
</mask>
<g mask="url(#mask1_9_469)">
<path d="M9.44776 3.96875C6.48146 3.96875 4.09375 6.35107 4.09375 9.30916V55.2533C4.09375 58.2135 6.48146 60.5938 9.44776 60.5938H54.5501C57.5185 60.5938 59.9062 58.2135 59.9062 55.2533V16.7565C59.9062 13.2164 57.0301 10.348 53.481 10.348H28.78C27.4636 10.348 26.2603 9.60747 25.6691 8.43508L24.862 6.83713C23.9732 5.07855 22.1682 3.96875 20.1935 3.96875H9.44776Z" fill="url(#paint0_linear_9_469)"/>
</g>
<path d="M33.0644 15.4859C31.5856 15.4859 30.2499 16.0678 29.2802 17.0128C28.0559 18.2034 26.3815 19.7118 24.6314 19.7118H9.37038C6.39391 19.7118 3.998 22.0683 3.998 24.9942V47C4 55 10.5 60 17 60H46.8047C54 60 60 54.5 60 47L60.002 20.7683C60.002 17.8423 57.6061 15.4859 54.6275 15.4859H33.0644Z" fill="url(#paint1_linear_9_469)"/>
<path d="M33.0644 15.4859C31.5856 15.4859 30.2499 16.0678 29.2802 17.0128C28.0559 18.2034 26.3815 19.7118 24.6314 19.7118H9.37038C6.39391 19.7118 3.998 22.0682 3.998 24.9942V45C4 53 10.5 58 17 58C17 58 39.6094 58 46.8047 58C54 58 60 52.5 60 45C60 37.5 60.002 20.7683 60.002 20.7683C60.002 17.8423 57.6061 15.4859 54.6275 15.4859H33.0644Z" fill="url(#paint2_linear_9_469)"/>
</g>
<path fill-rule="evenodd" clip-rule="evenodd" d="M32.261 28.0001C30.0645 27.9911 27.9368 28.7663 26.261 30.1863C24.5851 31.6062 23.471 33.5776 23.1191 35.7458C22.7673 37.914 23.2007 40.1366 24.3416 42.0136C25.4824 43.8906 27.2557 45.2989 29.3423 45.9851C29.8039 46.0639 29.9756 45.788 29.9756 45.5432C29.9756 45.3264 29.9643 44.5975 29.9643 43.8263C27.6479 44.2513 27.0456 43.2606 26.8627 42.7427C26.7585 42.4753 26.3082 41.6563 25.917 41.4396C25.5933 41.265 25.1317 40.8372 25.9057 40.826C26.6319 40.8147 27.1497 41.4958 27.3242 41.7717C28.1545 43.1677 29.4802 42.7765 30.0121 42.5316C30.091 41.9349 30.333 41.5296 30.6004 41.2988C28.5458 41.068 26.4011 40.2743 26.4011 36.7449C26.4011 35.7401 26.7585 34.9098 27.3468 34.2653C27.2539 34.0345 26.933 33.0888 27.4396 31.8194C27.4396 31.8194 28.2108 31.5774 29.9756 32.7651C30.7158 32.5568 31.4982 32.4555 32.2835 32.4555C33.0687 32.4555 33.8512 32.5568 34.5914 32.7651C36.3533 31.5661 37.1273 31.8194 37.1273 31.8194C37.6339 33.086 37.3131 34.0345 37.2202 34.2653C37.8085 34.9126 38.1659 35.7288 38.1659 36.7421C38.1659 40.2856 36.0071 41.068 33.9553 41.3016C34.2903 41.5887 34.5773 42.1432 34.5773 43.0073C34.5773 44.24 34.5661 45.2308 34.5661 45.5432C34.5661 45.7852 34.7406 46.0751 35.2022 45.9822C37.0337 45.364 38.6253 44.1869 39.7527 42.6166C40.8802 41.0464 41.4867 39.1621 41.4871 37.229C41.4878 36.0171 41.2497 34.8169 40.7863 33.697C40.323 32.5772 39.6435 31.5596 38.7866 30.7025C37.9298 29.8454 36.9124 29.1656 35.7927 28.7019C34.673 28.2382 33.4729 27.9997 32.261 28.0001Z" fill="#438DE6"/>
<defs>
<linearGradient id="paint0_linear_9_469" x1="31.604" y1="14.3386" x2="31.604" y2="26.3028" gradientUnits="userSpaceOnUse">
<stop stop-color="#428CE6"/>
<stop offset="0.831768" stop-color="#225590"/>
<stop offset="1" stop-color="#428CE6"/>
</linearGradient>
<linearGradient id="paint1_linear_9_469" x1="3.998" y1="56.7263" x2="60.002" y2="56.7263" gradientUnits="userSpaceOnUse">
<stop stop-color="#62A0EA"/>
<stop offset="0.0715849" stop-color="#AFD4FF" stop-opacity="0.4"/>
<stop offset="0.15" stop-color="#4B92E7"/>
<stop offset="0.85" stop-color="#4B92E7"/>
<stop offset="0.930477" stop-color="#C0D5EA" stop-opacity="0.4"/>
<stop offset="1" stop-color="#62A0EA"/>
</linearGradient>
<linearGradient id="paint2_linear_9_469" x1="33.0644" y1="15.4859" x2="33.0644" y2="59.6623" gradientUnits="userSpaceOnUse">
<stop stop-color="#A4CAEE"/>
<stop offset="1" stop-color="#73ABEA"/>
</linearGradient>
</defs>
</svg>
