<svg width="64" height="64" viewBox="0 0 64 64" fill="none" xmlns="http://www.w3.org/2000/svg">
<mask id="mask0_7_12" style="mask-type:luminance" maskUnits="userSpaceOnUse" x="4" y="3" width="57" height="57">
<path d="M47 3.9686H17.002C9.82119 3.9686 4 9.78979 4 16.9706V46.9686C4 54.1494 9.82119 59.9706 17.002 59.9706H47C54.1808 59.9706 60.002 54.1494 60.002 46.9686V16.9706C60.002 9.78979 54.1808 3.9686 47 3.9686Z" fill="white"/>
</mask>
<g mask="url(#mask0_7_12)">
<mask id="mask1_7_12" style="mask-type:alpha" maskUnits="userSpaceOnUse" x="4" y="3" width="56" height="58">
<path d="M4.09375 17.1263C4.09375 9.85958 9.90006 3.96875 17.0625 3.96875H46.9375C54.0999 3.96875 59.9062 9.85958 59.9062 17.1263V47.4362C59.9062 54.7029 54.0999 60.5938 46.9375 60.5938H17.0625C9.90006 60.5938 4.09375 54.7029 4.09375 47.4362V17.1263Z" fill="black"/>
</mask>
<g mask="url(#mask1_7_12)">
<path d="M9.44776 3.96875C6.48146 3.96875 4.09375 6.35107 4.09375 9.30916V55.2533C4.09375 58.2135 6.48146 60.5938 9.44776 60.5938H54.5501C57.5185 60.5938 59.9062 58.2135 59.9062 55.2533V16.7565C59.9062 13.2164 57.0301 10.348 53.481 10.348H28.78C27.4636 10.348 26.2603 9.60747 25.6691 8.43508L24.862 6.83713C23.9732 5.07855 22.1682 3.96875 20.1935 3.96875H9.44776Z" fill="url(#paint0_linear_7_12)"/>
</g>
<path d="M33.0644 15.4859C31.5856 15.4859 30.2499 16.0678 29.2802 17.0128C28.0559 18.2034 26.3815 19.7118 24.6314 19.7118H9.37038C6.39391 19.7118 3.998 22.0682 3.998 24.9942V47C4 55 10.5 60 17 60H46.8047C54 60 60 54.5 60 47L60.002 20.7683C60.002 17.8423 57.6061 15.4859 54.6275 15.4859H33.0644Z" fill="url(#paint1_linear_7_12)"/>
<path d="M33.0644 15.4859C31.5856 15.4859 30.2499 16.0678 29.2802 17.0128C28.0559 18.2034 26.3815 19.7118 24.6314 19.7118H9.37038C6.39391 19.7118 3.998 22.0682 3.998 24.9942V45C4 53 10.5 58 17 58C17 58 39.6094 58 46.8047 58C54 58 60 52.5 60 45C60 37.5 60.002 20.7683 60.002 20.7683C60.002 17.8423 57.6061 15.4859 54.6275 15.4859H33.0644Z" fill="url(#paint2_linear_7_12)"/>
</g>
<path d="M29.6024 28C28.7305 28.1938 27.8679 28.4637 27.0593 28.8707C27.0778 29.5848 27.1239 30.269 27.2175 30.964C26.9034 31.1652 26.5734 31.3378 26.2801 31.5734C25.982 31.8027 25.6777 32.022 25.4078 32.2902C24.8686 31.9336 24.298 31.5985 23.7101 31.3026C23.0765 31.9846 22.484 32.7207 22 33.5443C22.3641 34.1334 22.7443 34.6855 23.1547 35.2095H23.1662V39.2776V39.7943V40.2645C23.1755 40.2646 23.1847 40.265 23.1939 40.2658L26.2929 40.5646C26.4552 40.5803 26.5825 40.7109 26.5938 40.8736L26.6893 42.2416L29.3926 42.4345L29.5789 41.1719C29.603 41.0082 29.7434 40.8869 29.909 40.8869H33.1786C33.3441 40.8869 33.4845 41.0082 33.5087 41.1719L33.6949 42.4345L36.3983 42.2416L36.4938 40.8736C36.5052 40.7109 36.6323 40.5804 36.7946 40.5646L39.8925 40.2658C39.9017 40.265 39.9108 40.2646 39.9201 40.2645V39.8612L39.9213 39.8607V35.2095H39.9328C40.3433 34.6855 40.7232 34.1334 41.0875 33.5443C40.6037 32.7207 40.0109 31.9846 39.3772 31.3026C38.7895 31.5985 38.2187 31.9336 37.6796 32.2902C37.4098 32.022 37.1059 31.8027 36.8075 31.5734C36.5142 31.3378 36.1837 31.1652 35.8703 30.964C35.9636 30.269 36.0098 29.5848 36.0283 28.8707C35.2196 28.4637 34.3571 28.1938 33.4848 28C33.1365 28.5854 32.818 29.2193 32.5406 29.839C32.2116 29.784 31.8811 29.7637 31.5502 29.7597V29.7592C31.5479 29.7592 31.5458 29.7597 31.5438 29.7597C31.5418 29.7597 31.5396 29.7592 31.5375 29.7592V29.7597C31.206 29.7637 30.8758 29.784 30.5468 29.839C30.2695 29.2193 29.9512 28.5854 29.6024 28ZM27.1507 35.3949C28.1822 35.3949 29.0183 36.2303 29.0183 37.2615C29.0183 38.2934 28.1822 39.1293 27.1507 39.1293C26.1197 39.1293 25.2833 38.2934 25.2833 37.2615C25.2833 36.2303 26.1197 35.3949 27.1507 35.3949ZM35.9371 35.3949C36.968 35.3949 37.8043 36.2303 37.8043 37.2615C37.8043 38.2934 36.968 39.1293 35.9371 39.1293C34.9054 39.1293 34.0693 38.2934 34.0693 37.2615C34.0693 36.2303 34.9054 35.3949 35.9371 35.3949ZM31.5437 36.4872C31.8757 36.4872 32.1454 36.7322 32.1454 37.0335V38.7529C32.1454 39.0545 31.8757 39.2992 31.5437 39.2992C31.2116 39.2992 30.9425 39.0545 30.9425 38.7529V37.0335C30.9425 36.7322 31.2116 36.4872 31.5437 36.4872Z" fill="#438DE6"/>
<path d="M37.1399 41.2018L37.0439 42.5771C37.0323 42.7429 36.9005 42.8748 36.7347 42.8867L33.4337 43.1223C33.4257 43.1229 33.4176 43.1231 33.4097 43.1231C33.2456 43.1231 33.1041 43.0028 33.0798 42.838L32.8905 41.5543H30.1971L30.0078 42.838C29.9823 43.0108 29.8279 43.135 29.6539 43.1223L26.3529 42.8867C26.1871 42.8748 26.0553 42.7429 26.0437 42.5771L25.9477 41.2018L23.1611 40.9332C23.1624 41.2327 23.1662 41.5608 23.1662 41.6261C23.1662 44.5691 26.8996 45.9837 31.5381 46H31.5438H31.5495C36.188 45.9837 39.9201 44.5691 39.9201 41.6261C39.9201 41.5596 39.9241 41.2328 39.9255 40.9332L37.1399 41.2018Z" fill="#438DE6"/>
<path d="M28.5689 37.3723C28.5689 38.0567 28.0142 38.6114 27.3292 38.6114C26.6446 38.6114 26.0896 38.0567 26.0896 37.3723C26.0896 36.6878 26.6446 36.1326 27.3292 36.1326C28.0142 36.1326 28.5689 36.6878 28.5689 37.3723Z" fill="#438DE6" fill-opacity="0.5"/>
<path d="M34.5188 37.3723C34.5188 38.0567 35.0734 38.6114 35.7578 38.6114C36.4429 38.6114 36.9975 38.0567 36.9975 37.3723C36.9975 36.6878 36.4429 36.1326 35.7578 36.1326C35.0734 36.1326 34.5188 36.6878 34.5188 37.3723Z" fill="#438DE6" fill-opacity="0.5"/>
<defs>
<linearGradient id="paint0_linear_7_12" x1="31.604" y1="14.3386" x2="31.604" y2="26.3028" gradientUnits="userSpaceOnUse">
<stop stop-color="#428CE6"/>
<stop offset="0.831768" stop-color="#225590"/>
<stop offset="1" stop-color="#428CE6"/>
</linearGradient>
<linearGradient id="paint1_linear_7_12" x1="3.998" y1="56.7263" x2="60.002" y2="56.7263" gradientUnits="userSpaceOnUse">
<stop stop-color="#62A0EA"/>
<stop offset="0.0715849" stop-color="#AFD4FF" stop-opacity="0.4"/>
<stop offset="0.15" stop-color="#4B92E7"/>
<stop offset="0.85" stop-color="#4B92E7"/>
<stop offset="0.930477" stop-color="#C0D5EA" stop-opacity="0.4"/>
<stop offset="1" stop-color="#62A0EA"/>
</linearGradient>
<linearGradient id="paint2_linear_7_12" x1="33.0644" y1="15.4859" x2="33.0644" y2="59.6623" gradientUnits="userSpaceOnUse">
<stop stop-color="#A4CAEE"/>
<stop offset="1" stop-color="#73ABEA"/>
</linearGradient>
</defs>
</svg>
