<svg width="64" height="64" viewBox="0 0 64 64" fill="none" xmlns="http://www.w3.org/2000/svg">
<mask id="mask0_5_200" style="mask-type:luminance" maskUnits="userSpaceOnUse" x="4" y="3" width="57" height="57">
<path d="M47 3.9686H17.002C9.82119 3.9686 4 9.78979 4 16.9706V46.9686C4 54.1494 9.82119 59.9706 17.002 59.9706H47C54.1808 59.9706 60.002 54.1494 60.002 46.9686V16.9706C60.002 9.78979 54.1808 3.9686 47 3.9686Z" fill="white"/>
</mask>
<g mask="url(#mask0_5_200)">
<mask id="mask1_5_200" style="mask-type:alpha" maskUnits="userSpaceOnUse" x="4" y="3" width="56" height="58">
<path d="M4.09375 17.1263C4.09375 9.85958 9.90006 3.96875 17.0625 3.96875H46.9375C54.0999 3.96875 59.9062 9.85958 59.9062 17.1263V47.4362C59.9062 54.7029 54.0999 60.5938 46.9375 60.5938H17.0625C9.90006 60.5938 4.09375 54.7029 4.09375 47.4362V17.1263Z" fill="black"/>
</mask>
<g mask="url(#mask1_5_200)">
<path d="M9.44776 3.96875C6.48146 3.96875 4.09375 6.35107 4.09375 9.30916V55.2533C4.09375 58.2135 6.48146 60.5938 9.44776 60.5938H54.5501C57.5185 60.5938 59.9062 58.2135 59.9062 55.2533V16.7565C59.9062 13.2164 57.0301 10.348 53.481 10.348H28.78C27.4636 10.348 26.2603 9.60747 25.6691 8.43508L24.862 6.83713C23.9732 5.07855 22.1682 3.96875 20.1935 3.96875H9.44776Z" fill="url(#paint0_linear_5_200)"/>
</g>
<path d="M33.0644 15.4859C31.5856 15.4859 30.2499 16.0678 29.2802 17.0128C28.0559 18.2034 26.3815 19.7118 24.6314 19.7118H9.37039C6.39392 19.7118 3.99802 22.0682 3.99802 24.9942V47C4.00002 55 10.5 60 17 60H46.8047C54 60 60 54.5 60 47L60.002 20.7683C60.002 17.8423 57.6061 15.4859 54.6275 15.4859H33.0644Z" fill="url(#paint1_linear_5_200)"/>
<path d="M33.0644 15.4859C31.5856 15.4859 30.2499 16.0678 29.2802 17.0128C28.0559 18.2034 26.3815 19.7118 24.6314 19.7118H9.37039C6.39392 19.7118 3.99802 22.0682 3.99802 24.9942V45C4.00002 53 10.5 58 17 58C17 58 39.6094 58 46.8047 58C54 58 60 52.5 60 45C60 37.5 60.002 20.7683 60.002 20.7683C60.002 17.8423 57.6061 15.4859 54.6275 15.4859H33.0644Z" fill="url(#paint2_linear_5_200)"/>
</g>
<path d="M28.3766 28C26.5256 28 25 29.5256 25 31.3766V40.3766H26.1255V39.2555H27.2511V31.3766C27.2511 30.7347 27.7347 30.2511 28.3766 30.2511H32.8788V31.9394C32.8788 33.065 33.4416 33.6277 34.5672 33.6277H36.2555V42.6321H37.381V43.7577H38.5066V33.065C38.5066 32.766 38.3879 32.4802 38.1768 32.2692L34.2374 28.3298C34.0264 28.1187 33.7406 28 33.4416 28H28.3766ZM37.381 43.7577H36.2555V44.8744H35.1299V46H36.2555V44.8832H37.381V43.7577ZM35.1299 44.8744V43.7489H34.0044V44.8744H35.1299ZM34.0044 44.8744H32.8788V46H34.0044V44.8744ZM32.8788 44.8744V43.7489H31.7533V44.8744H32.8788ZM31.7533 44.8744H30.6277V46H31.7533V44.8744ZM30.6277 44.8744V43.7489H29.5022V44.8744H30.6277ZM29.5022 44.8744H28.3766V46H29.5022V44.8744ZM28.3766 44.8744V43.7489H27.2511V44.8744H28.3766ZM27.2511 44.8744H26.1255V46H27.2511V44.8744ZM26.1255 44.8744V43.7489H25V44.8744H26.1255ZM26.1255 43.7489H27.2511V42.6234H26.1255V43.7489ZM26.1255 42.6234V41.4978H25V42.6234H26.1255ZM26.1255 41.4978H27.2511V40.3723H26.1255V41.4978Z" fill="#3F8AE5"/>
<defs>
<linearGradient id="paint0_linear_5_200" x1="31.604" y1="14.3386" x2="31.604" y2="26.3028" gradientUnits="userSpaceOnUse">
<stop stop-color="#428CE6"/>
<stop offset="0.831768" stop-color="#225590"/>
<stop offset="1" stop-color="#428CE6"/>
</linearGradient>
<linearGradient id="paint1_linear_5_200" x1="3.99802" y1="56.7263" x2="60.002" y2="56.7263" gradientUnits="userSpaceOnUse">
<stop stop-color="#62A0EA"/>
<stop offset="0.0715849" stop-color="#AFD4FF" stop-opacity="0.4"/>
<stop offset="0.15" stop-color="#4B92E7"/>
<stop offset="0.85" stop-color="#4B92E7"/>
<stop offset="0.930477" stop-color="#C0D5EA" stop-opacity="0.4"/>
<stop offset="1" stop-color="#62A0EA"/>
</linearGradient>
<linearGradient id="paint2_linear_5_200" x1="33.0644" y1="15.4859" x2="33.0644" y2="59.6623" gradientUnits="userSpaceOnUse">
<stop stop-color="#A4CAEE"/>
<stop offset="1" stop-color="#73ABEA"/>
</linearGradient>
</defs>
</svg>
