<svg width="64" height="64" viewBox="0 0 64 64" fill="none" xmlns="http://www.w3.org/2000/svg">
<mask id="mask0_22_2634" style="mask-type:luminance" maskUnits="userSpaceOnUse" x="4" y="3" width="57" height="57">
<path d="M47 3.9686H17.002C9.82119 3.9686 4 9.78979 4 16.9706V46.9686C4 54.1494 9.82119 59.9706 17.002 59.9706H47C54.1808 59.9706 60.002 54.1494 60.002 46.9686V16.9706C60.002 9.78979 54.1808 3.9686 47 3.9686Z" fill="white"/>
</mask>
<g mask="url(#mask0_22_2634)">
<mask id="mask1_22_2634" style="mask-type:alpha" maskUnits="userSpaceOnUse" x="4" y="3" width="56" height="58">
<path d="M4.09375 17.1263C4.09375 9.85958 9.90006 3.96875 17.0625 3.96875H46.9375C54.0999 3.96875 59.9062 9.85958 59.9062 17.1263V47.4362C59.9062 54.7029 54.0999 60.5938 46.9375 60.5938H17.0625C9.90006 60.5938 4.09375 54.7029 4.09375 47.4362V17.1263Z" fill="black"/>
</mask>
<g mask="url(#mask1_22_2634)">
<path d="M9.44776 3.96875C6.48146 3.96875 4.09375 6.35107 4.09375 9.30916V55.2533C4.09375 58.2135 6.48146 60.5938 9.44776 60.5938H54.5501C57.5185 60.5938 59.9062 58.2135 59.9062 55.2533V16.7565C59.9062 13.2164 57.0301 10.348 53.481 10.348H28.78C27.4636 10.348 26.2603 9.60747 25.6691 8.43508L24.862 6.83713C23.9732 5.07855 22.1682 3.96875 20.1935 3.96875H9.44776Z" fill="url(#paint0_linear_22_2634)"/>
</g>
<path d="M33.0644 15.4859C31.5856 15.4859 30.2499 16.0678 29.2802 17.0128C28.0559 18.2034 26.3815 19.7118 24.6314 19.7118H9.37038C6.39391 19.7118 3.998 22.0682 3.998 24.9942V47C4 55 10.5 60 17 60H46.8047C54 60 60 54.5 60 47L60.002 20.7683C60.002 17.8423 57.6061 15.4859 54.6275 15.4859H33.0644Z" fill="url(#paint1_linear_22_2634)"/>
<path d="M33.0644 15.4859C31.5856 15.4859 30.2499 16.0678 29.2802 17.0128C28.0559 18.2034 26.3815 19.7118 24.6314 19.7118H9.37038C6.39391 19.7118 3.998 22.0682 3.998 24.9942V45C4 53 10.5 58 17 58C17 58 39.6094 58 46.8047 58C54 58 60 52.5 60 45C60 37.5 60.002 20.7683 60.002 20.7683C60.002 17.8423 57.6061 15.4859 54.6275 15.4859H33.0644Z" fill="url(#paint2_linear_22_2634)"/>
<path d="M27.0798 30.4749C27.6138 29.9664 28.2168 29.5172 28.8822 29.1446C32.4309 27.1576 36.8863 27.8048 39.7236 30.7193C42.5608 33.6339 43.089 38.1063 41.009 41.602C38.9289 45.0977 34.7457 46.767 30.8317 45.662C30.1945 45.4812 29.8243 44.8182 30.0046 44.1807C30.1846 43.5435 30.8466 43.1725 31.4838 43.3517C34.3637 44.1648 37.4167 42.9466 38.9473 40.3745C40.4778 37.8023 40.0921 34.5384 38.0044 32.3939C35.9168 30.2493 32.6652 29.7768 30.0541 31.2388C27.4429 32.7009 26.1443 35.7213 26.8803 38.6227C26.905 38.7427 26.9111 38.8657 26.8986 38.9876L26.9253 38.9846L26.9405 38.9831L28.1759 37.7797C28.6506 37.3173 29.4102 37.3274 29.8725 37.8023C29.8725 37.8023 30.7095 38.6621 29.8499 39.4994L25.5521 43.6857L21.367 39.3865C21.367 39.3865 20.5266 38.5301 21.3896 37.6895C21.8643 37.2271 22.6239 37.2372 23.0861 37.712L24.4986 39.163L24.5202 39.1615L24.5418 39.16C23.8148 36.2191 24.6306 33.1754 26.5692 31.0017C26.7317 30.8195 26.9018 30.6444 27.0798 30.4749ZM36.4585 33.2104C36.417 33.2085 36.3753 33.2109 36.3343 33.2176C36.2178 33.2486 36.1132 33.3139 36.0344 33.4051L32.8475 36.593L30.8604 34.6053C30.4832 33.9885 29.4189 35.0531 30.0355 35.4304L32.4351 37.8306C32.6664 38.0496 33.0285 38.0496 33.2599 37.8306L36.8592 34.2302C37.2222 33.8599 36.9764 33.2343 36.4585 33.2104Z" fill="#3F8AE5"/>
</g>
<defs>
<linearGradient id="paint0_linear_22_2634" x1="31.604" y1="14.3386" x2="31.604" y2="26.3028" gradientUnits="userSpaceOnUse">
<stop stop-color="#428CE6"/>
<stop offset="0.831768" stop-color="#225590"/>
<stop offset="1" stop-color="#428CE6"/>
</linearGradient>
<linearGradient id="paint1_linear_22_2634" x1="3.998" y1="56.7263" x2="60.002" y2="56.7263" gradientUnits="userSpaceOnUse">
<stop stop-color="#62A0EA"/>
<stop offset="0.0715849" stop-color="#AFD4FF" stop-opacity="0.4"/>
<stop offset="0.15" stop-color="#4B92E7"/>
<stop offset="0.85" stop-color="#4B92E7"/>
<stop offset="0.930477" stop-color="#C0D5EA" stop-opacity="0.4"/>
<stop offset="1" stop-color="#62A0EA"/>
</linearGradient>
<linearGradient id="paint2_linear_22_2634" x1="33.0644" y1="15.4859" x2="33.0644" y2="59.6623" gradientUnits="userSpaceOnUse">
<stop stop-color="#A4CAEE"/>
<stop offset="1" stop-color="#73ABEA"/>
</linearGradient>
</defs>
</svg>
