<svg width="64" height="64" viewBox="0 0 64 64" fill="none" xmlns="http://www.w3.org/2000/svg">
<mask id="mask0_6_350" style="mask-type:luminance" maskUnits="userSpaceOnUse" x="4" y="3" width="57" height="57">
<path d="M47 3.9686H17.002C9.82119 3.9686 4 9.78979 4 16.9706V46.9686C4 54.1494 9.82119 59.9706 17.002 59.9706H47C54.1808 59.9706 60.002 54.1494 60.002 46.9686V16.9706C60.002 9.78979 54.1808 3.9686 47 3.9686Z" fill="white"/>
</mask>
<g mask="url(#mask0_6_350)">
<mask id="mask1_6_350" style="mask-type:alpha" maskUnits="userSpaceOnUse" x="4" y="3" width="56" height="58">
<path d="M4.09375 17.1263C4.09375 9.85958 9.90006 3.96875 17.0625 3.96875H46.9375C54.0999 3.96875 59.9062 9.85958 59.9062 17.1263V47.4362C59.9062 54.7029 54.0999 60.5938 46.9375 60.5938H17.0625C9.90006 60.5938 4.09375 54.7029 4.09375 47.4362V17.1263Z" fill="black"/>
</mask>
<g mask="url(#mask1_6_350)">
<path d="M9.44776 3.96875C6.48146 3.96875 4.09375 6.35107 4.09375 9.30916V55.2533C4.09375 58.2135 6.48146 60.5938 9.44776 60.5938H54.5501C57.5185 60.5938 59.9062 58.2135 59.9062 55.2533V16.7565C59.9062 13.2164 57.0301 10.348 53.481 10.348H28.78C27.4636 10.348 26.2603 9.60747 25.6691 8.43508L24.862 6.83713C23.9732 5.07855 22.1682 3.96875 20.1935 3.96875H9.44776Z" fill="url(#paint0_linear_6_350)"/>
</g>
<path d="M33.0644 15.4859C31.5856 15.4859 30.2499 16.0678 29.2802 17.0128C28.0559 18.2034 26.3815 19.7118 24.6314 19.7118H9.37038C6.39391 19.7118 3.998 22.0683 3.998 24.9942V47C4 55 10.5 60 17 60H46.8047C54 60 60 54.5 60 47L60.002 20.7683C60.002 17.8423 57.6061 15.4859 54.6275 15.4859H33.0644Z" fill="url(#paint1_linear_6_350)"/>
<path d="M33.0644 15.4859C31.5856 15.4859 30.2499 16.0678 29.2802 17.0128C28.0559 18.2034 26.3815 19.7118 24.6314 19.7118H9.37038C6.39391 19.7118 3.998 22.0682 3.998 24.9942V45C4 53 10.5 58 17 58C17 58 39.6094 58 46.8047 58C54 58 60 52.5 60 45C60 37.5 60.002 20.7683 60.002 20.7683C60.002 17.8423 57.6061 15.4859 54.6275 15.4859H33.0644Z" fill="url(#paint2_linear_6_350)"/>
</g>
<path d="M37.0984 29.8747C36.8079 29.8747 36.5293 29.9901 36.3238 30.1954C36.222 30.2972 36.1412 30.418 36.0861 30.551C36.031 30.684 36.0026 30.8265 36.0026 30.9705C36.0026 31.1144 36.031 31.257 36.0861 31.3899C36.1412 31.5229 36.222 31.6437 36.3238 31.7455L41.5783 37L36.3238 42.2554C36.1185 42.4609 36.0031 42.7395 36.0031 43.03C36.0031 43.3205 36.1185 43.5991 36.3238 43.8045C36.5293 44.0099 36.8079 44.1252 37.0984 44.1252C37.3888 44.1252 37.6674 44.0099 37.8729 43.8045L44.6775 37L37.8729 30.1954C37.6675 29.9901 37.3889 29.8747 37.0984 29.8747ZM26.5791 29.8747C26.2886 29.8747 26.01 29.9901 25.8046 30.1954L19 37L25.8046 43.8045C26.01 44.0099 26.2886 44.1252 26.5791 44.1252C26.8696 44.1252 27.1482 44.0099 27.3537 43.8045C27.559 43.5991 27.6743 43.3205 27.6743 43.03C27.6743 42.7395 27.559 42.4609 27.3537 42.2554L22.0991 37L27.3537 31.7455C27.4555 31.6437 27.5362 31.5229 27.5914 31.3899C27.6465 31.257 27.6748 31.1144 27.6748 30.9705C27.6748 30.8265 27.6465 30.684 27.5914 30.551C27.5362 30.418 27.4555 30.2972 27.3537 30.1954C27.1482 29.9901 26.8696 29.8747 26.5791 29.8747ZM34.24 28.0373C33.9594 27.9621 33.6604 28.0015 33.4088 28.1468C33.1572 28.292 32.9736 28.5312 32.8983 28.8118L28.6629 44.621C28.5877 44.9016 28.6271 45.2006 28.7723 45.4522C28.9176 45.7038 29.1568 45.8874 29.4374 45.9627C29.7181 46.0379 30.0171 45.9985 30.2687 45.8532C30.5203 45.708 30.7039 45.4688 30.7792 45.1881L35.0155 29.3791C35.0527 29.24 35.0622 29.095 35.0433 28.9524C35.0245 28.8097 34.9777 28.6721 34.9057 28.5475C34.8337 28.4229 34.7378 28.3138 34.6236 28.2262C34.5094 28.1387 34.3791 28.0745 34.24 28.0373Z" fill="#3F8AE5"/>
<defs>
<linearGradient id="paint0_linear_6_350" x1="31.604" y1="14.3386" x2="31.604" y2="26.3028" gradientUnits="userSpaceOnUse">
<stop stop-color="#428CE6"/>
<stop offset="0.831768" stop-color="#225590"/>
<stop offset="1" stop-color="#428CE6"/>
</linearGradient>
<linearGradient id="paint1_linear_6_350" x1="3.998" y1="56.7263" x2="60.002" y2="56.7263" gradientUnits="userSpaceOnUse">
<stop stop-color="#62A0EA"/>
<stop offset="0.0715849" stop-color="#AFD4FF" stop-opacity="0.4"/>
<stop offset="0.15" stop-color="#4B92E7"/>
<stop offset="0.85" stop-color="#4B92E7"/>
<stop offset="0.930477" stop-color="#C0D5EA" stop-opacity="0.4"/>
<stop offset="1" stop-color="#62A0EA"/>
</linearGradient>
<linearGradient id="paint2_linear_6_350" x1="33.0644" y1="15.4859" x2="33.0644" y2="59.6623" gradientUnits="userSpaceOnUse">
<stop stop-color="#A4CAEE"/>
<stop offset="1" stop-color="#73ABEA"/>
</linearGradient>
</defs>
</svg>
