<svg width="64" height="64" viewBox="0 0 64 64" fill="none" xmlns="http://www.w3.org/2000/svg">
<mask id="mask0_8_82" style="mask-type:luminance" maskUnits="userSpaceOnUse" x="4" y="3" width="57" height="57">
<path d="M47 3.9686H17.002C9.82119 3.9686 4 9.78979 4 16.9706V46.9686C4 54.1494 9.82119 59.9706 17.002 59.9706H47C54.1808 59.9706 60.002 54.1494 60.002 46.9686V16.9706C60.002 9.78979 54.1808 3.9686 47 3.9686Z" fill="white"/>
</mask>
<g mask="url(#mask0_8_82)">
<mask id="mask1_8_82" style="mask-type:alpha" maskUnits="userSpaceOnUse" x="4" y="3" width="56" height="58">
<path d="M4.09375 17.1263C4.09375 9.85958 9.90006 3.96875 17.0625 3.96875H46.9375C54.0999 3.96875 59.9062 9.85958 59.9062 17.1263V47.4362C59.9062 54.7029 54.0999 60.5938 46.9375 60.5938H17.0625C9.90006 60.5938 4.09375 54.7029 4.09375 47.4362V17.1263Z" fill="black"/>
</mask>
<g mask="url(#mask1_8_82)">
<path d="M9.44776 3.96875C6.48146 3.96875 4.09375 6.35107 4.09375 9.30916V55.2533C4.09375 58.2135 6.48146 60.5938 9.44776 60.5938H54.5501C57.5185 60.5938 59.9062 58.2135 59.9062 55.2533V16.7565C59.9062 13.2164 57.0301 10.348 53.481 10.348H28.78C27.4636 10.348 26.2603 9.60747 25.6691 8.43508L24.862 6.83713C23.9732 5.07855 22.1682 3.96875 20.1935 3.96875H9.44776Z" fill="url(#paint0_linear_8_82)"/>
</g>
<path d="M33.0644 15.4859C31.5856 15.4859 30.2499 16.0678 29.2802 17.0128C28.0559 18.2034 26.3815 19.7118 24.6314 19.7118H9.37038C6.39391 19.7118 3.998 22.0682 3.998 24.9942V47C4 55 10.5 60 17 60H46.8047C54 60 60 54.5 60 47L60.002 20.7683C60.002 17.8423 57.6061 15.4859 54.6275 15.4859H33.0644Z" fill="url(#paint1_linear_8_82)"/>
<path d="M33.0644 15.4859C31.5856 15.4859 30.2499 16.0678 29.2802 17.0128C28.0559 18.2034 26.3815 19.7118 24.6314 19.7118H9.37038C6.39391 19.7118 3.998 22.0682 3.998 24.9942V45C4 53 10.5 58 17 58C17 58 39.6094 58 46.8047 58C54 58 60 52.5 60 45C60 37.5 60.002 20.7683 60.002 20.7683C60.002 17.8423 57.6061 15.4859 54.6275 15.4859H33.0644Z" fill="url(#paint2_linear_8_82)"/>
</g>
<path d="M32.0003 30.0415C28.1588 30.0415 25.0399 33.1604 25.0399 37.0019C25.0399 40.8434 28.1588 43.9623 32.0003 43.9623C35.8419 43.9623 38.9601 40.8434 38.9601 37.0019C38.9601 33.1604 35.8419 30.0415 32.0003 30.0415ZM34.8845 32.08C36.0093 32.08 36.9223 32.993 36.9223 34.1178C36.9223 35.2426 36.0093 36.1563 34.8845 36.1563C33.7597 36.1563 32.846 35.2426 32.846 34.1178C32.846 32.993 33.7597 32.08 34.8845 32.08Z" fill="#438DE6"/>
<path d="M40.9984 30.0399C40.9984 28.9152 40.0851 28.0019 38.9603 28.0019C37.8355 28.0019 36.9222 28.9152 36.9222 30.0399C36.9222 31.1647 37.8355 32.078 38.9603 32.078C40.0851 32.078 40.9984 31.1666 40.9984 30.0399Z" fill="#438DE6"/>
<path d="M40.0197 32.9143C40.6638 34.1795 41.0003 35.5791 41.0003 37C41.0003 41.9682 36.9684 46 32.0001 46C27.0319 46 23 41.9682 23 37C23 32.0318 27.0319 28 32.0001 28C33.5979 28 35.1649 28.4249 36.5416 29.2286" stroke="#438DE6" stroke-width="0.367325" stroke-miterlimit="10" stroke-dasharray="1.38 1.38"/>
<defs>
<linearGradient id="paint0_linear_8_82" x1="31.604" y1="14.3386" x2="31.604" y2="26.3028" gradientUnits="userSpaceOnUse">
<stop stop-color="#428CE6"/>
<stop offset="0.831768" stop-color="#225590"/>
<stop offset="1" stop-color="#428CE6"/>
</linearGradient>
<linearGradient id="paint1_linear_8_82" x1="3.998" y1="56.7263" x2="60.002" y2="56.7263" gradientUnits="userSpaceOnUse">
<stop stop-color="#62A0EA"/>
<stop offset="0.0715849" stop-color="#AFD4FF" stop-opacity="0.4"/>
<stop offset="0.15" stop-color="#4B92E7"/>
<stop offset="0.85" stop-color="#4B92E7"/>
<stop offset="0.930477" stop-color="#C0D5EA" stop-opacity="0.4"/>
<stop offset="1" stop-color="#62A0EA"/>
</linearGradient>
<linearGradient id="paint2_linear_8_82" x1="33.0644" y1="15.4859" x2="33.0644" y2="59.6623" gradientUnits="userSpaceOnUse">
<stop stop-color="#A4CAEE"/>
<stop offset="1" stop-color="#73ABEA"/>
</linearGradient>
</defs>
</svg>
