<svg width="64" height="64" viewBox="0 0 64 64" fill="none" xmlns="http://www.w3.org/2000/svg">
<mask id="mask0_7_2" style="mask-type:luminance" maskUnits="userSpaceOnUse" x="4" y="3" width="57" height="57">
<path d="M47 3.9686H17.002C9.82119 3.9686 4 9.78979 4 16.9706V46.9686C4 54.1494 9.82119 59.9706 17.002 59.9706H47C54.1808 59.9706 60.002 54.1494 60.002 46.9686V16.9706C60.002 9.78979 54.1808 3.9686 47 3.9686Z" fill="white"/>
</mask>
<g mask="url(#mask0_7_2)">
<mask id="mask1_7_2" style="mask-type:alpha" maskUnits="userSpaceOnUse" x="4" y="3" width="56" height="58">
<path d="M4.09375 17.1263C4.09375 9.85958 9.90006 3.96875 17.0625 3.96875H46.9375C54.0999 3.96875 59.9062 9.85958 59.9062 17.1263V47.4362C59.9062 54.7029 54.0999 60.5938 46.9375 60.5938H17.0625C9.90006 60.5938 4.09375 54.7029 4.09375 47.4362V17.1263Z" fill="black"/>
</mask>
<g mask="url(#mask1_7_2)">
<path d="M9.44776 3.96875C6.48146 3.96875 4.09375 6.35107 4.09375 9.30916V55.2533C4.09375 58.2135 6.48146 60.5938 9.44776 60.5938H54.5501C57.5185 60.5938 59.9062 58.2135 59.9062 55.2533V16.7565C59.9062 13.2164 57.0301 10.348 53.481 10.348H28.78C27.4636 10.348 26.2603 9.60747 25.6691 8.43508L24.862 6.83713C23.9732 5.07855 22.1682 3.96875 20.1935 3.96875H9.44776Z" fill="url(#paint0_linear_7_2)"/>
</g>
<path d="M33.0644 15.4859C31.5856 15.4859 30.2499 16.0678 29.2802 17.0128C28.0559 18.2034 26.3815 19.7118 24.6314 19.7118H9.37038C6.39391 19.7118 3.998 22.0683 3.998 24.9942V47C4 55 10.5 60 17 60H46.8047C54 60 60 54.5 60 47L60.002 20.7683C60.002 17.8423 57.6061 15.4859 54.6275 15.4859H33.0644Z" fill="url(#paint1_linear_7_2)"/>
<path d="M33.0644 15.4859C31.5856 15.4859 30.2499 16.0678 29.2802 17.0128C28.0559 18.2034 26.3815 19.7118 24.6314 19.7118H9.37038C6.39391 19.7118 3.998 22.0682 3.998 24.9942V45C4 53 10.5 58 17 58C17 58 39.6094 58 46.8047 58C54 58 60 52.5 60 45C60 37.5 60.002 20.7683 60.002 20.7683C60.002 17.8423 57.6061 15.4859 54.6275 15.4859H33.0644Z" fill="url(#paint2_linear_7_2)"/>
<path d="M19 35.9878V40.9801C19 43.7337 21.2388 45.9724 23.9923 45.9724H24.9908C27.1984 45.9724 28.9847 44.1861 28.9847 41.9786C28.9847 39.771 29.871 37.9847 32.0786 37.9847C34.2861 37.9847 35.1724 39.771 35.1724 41.9786C35.4455 44.4591 37.6842 46.2455 40.1648 45.9724C42.9184 45.9724 45.1571 43.7415 45.1571 40.9801V35.9878C45.1571 31.5726 41.5845 28 37.1694 28H26.0877C21.6726 28 19 31.5726 19 35.9878ZM24.59 31.9939H25.5885C25.8615 31.9939 26.0877 32.2201 26.0877 32.4931V33.9908H27.5855C27.8585 33.9908 28.0847 34.217 28.0847 34.49V35.4885C28.0847 35.7693 27.8585 35.9878 27.5855 35.9878H26.0877V37.4855C26.0877 37.7663 25.8615 37.9847 25.5885 37.9847H24.59C24.3092 37.9847 24.0908 37.7663 24.0908 37.4855V35.9878H22.5931C22.3123 35.9878 22.0939 35.7693 22.0939 35.4885V34.49C22.0939 34.217 22.3123 33.9908 22.5931 33.9908H24.0908V32.4931C24.0908 32.2201 24.3092 31.9939 24.59 31.9939ZM37.0709 33.4916C37.8978 33.4916 38.5686 34.1624 38.5686 34.9893C38.5686 35.8161 37.8978 36.487 37.0709 36.487C36.2441 36.487 35.5732 35.8161 35.5732 34.9893C35.5732 34.1624 36.2441 33.4916 37.0709 33.4916ZM41.0648 35.4885C41.8916 35.4885 42.5625 36.1594 42.5625 36.9862C42.5625 37.8131 41.8916 38.4839 41.0648 38.4839C40.2379 38.4839 39.5671 37.8131 39.5671 36.9862C39.5671 36.1594 40.2379 35.4885 41.0648 35.4885Z" fill="#438DE6"/>
</g>
<defs>
<linearGradient id="paint0_linear_7_2" x1="31.604" y1="14.3386" x2="31.604" y2="26.3028" gradientUnits="userSpaceOnUse">
<stop stop-color="#428CE6"/>
<stop offset="0.831768" stop-color="#225590"/>
<stop offset="1" stop-color="#428CE6"/>
</linearGradient>
<linearGradient id="paint1_linear_7_2" x1="3.998" y1="56.7263" x2="60.002" y2="56.7263" gradientUnits="userSpaceOnUse">
<stop stop-color="#62A0EA"/>
<stop offset="0.0715849" stop-color="#AFD4FF" stop-opacity="0.4"/>
<stop offset="0.15" stop-color="#4B92E7"/>
<stop offset="0.85" stop-color="#4B92E7"/>
<stop offset="0.930477" stop-color="#C0D5EA" stop-opacity="0.4"/>
<stop offset="1" stop-color="#62A0EA"/>
</linearGradient>
<linearGradient id="paint2_linear_7_2" x1="33.0644" y1="15.4859" x2="33.0644" y2="59.6623" gradientUnits="userSpaceOnUse">
<stop stop-color="#A4CAEE"/>
<stop offset="1" stop-color="#73ABEA"/>
</linearGradient>
</defs>
</svg>
