<svg width="64" height="64" viewBox="0 0 64 64" fill="none" xmlns="http://www.w3.org/2000/svg">
<path d="M34 58.6055V43.6797H30V58.6055H34Z" fill="url(#paint0_linear_4_66)"/>
<path d="M34 58.6055V43.6797H30V58.6055H34Z" fill="url(#paint1_linear_4_66)"/>
<path d="M4.08984 58.916H60.0625V61H4.08984V58.916Z" fill="url(#paint2_linear_4_66)"/>
<path d="M25.8652 58H38.1348C39.166 58 40 58.834 40 59.8652V60.1348C40 61.166 39.166 62 38.1348 62H25.8652C24.834 62 24 61.166 24 60.1348V59.8652C24 58.834 24.834 58 25.8652 58Z" fill="url(#paint3_linear_4_66)"/>
<mask id="mask0_4_66" style="mask-type:luminance" maskUnits="userSpaceOnUse" x="4" y="3" width="57" height="51">
<path d="M47 3.9686H17.002C9.82119 3.9686 4 9.78979 4 16.9706V40.9686C4 48.1494 9.82119 53.9706 17.002 53.9706H47C54.1808 53.9706 60.002 48.1494 60.002 40.9686V16.9706C60.002 9.78979 54.1808 3.9686 47 3.9686Z" fill="white"/>
</mask>
<g mask="url(#mask0_4_66)">
<mask id="mask1_4_66" style="mask-type:alpha" maskUnits="userSpaceOnUse" x="4" y="3" width="56" height="52">
<path d="M4.09375 17.1263C4.09375 9.85958 9.90006 3.96875 17.0625 3.96875H46.9375C54.0999 3.96875 59.9062 9.85958 59.9062 17.1263V40.9362C59.9062 48.2029 54.0999 54.0938 46.9375 54.0938H17.0625C9.90006 54.0938 4.09375 48.2029 4.09375 40.9362V17.1263Z" fill="black"/>
</mask>
<g mask="url(#mask1_4_66)">
<path d="M9.44776 3.96875C6.48146 3.96875 4.09375 6.35107 4.09375 9.30916V55.2533C4.09375 58.2135 6.48146 60.5938 9.44776 60.5938H54.5501C57.5185 60.5938 59.9062 58.2135 59.9062 55.2533V16.7565C59.9062 13.2164 57.0301 10.348 53.481 10.348H28.78C27.4636 10.348 26.2603 9.60747 25.6691 8.43508L24.862 6.83713C23.9732 5.07855 22.1682 3.96875 20.1935 3.96875H9.44776Z" fill="url(#paint4_linear_4_66)"/>
</g>
<path d="M33.0644 15.4859C31.5856 15.4859 30.2499 16.0678 29.2802 17.0128C28.0559 18.2034 26.3815 19.7118 24.6314 19.7118H9.37039C6.39392 19.7118 3.99802 22.0682 3.99802 24.9942V41C4.00002 49 10.5 54 17 54H46.8047C54 54 60 48.5 60 41L60.002 20.7683C60.002 17.8423 57.6061 15.4859 54.6275 15.4859H33.0644Z" fill="url(#paint5_linear_4_66)"/>
<path d="M33.0644 15.4859C31.5856 15.4859 30.2499 16.0678 29.2802 17.0128C28.0559 18.2034 26.3815 19.7118 24.6314 19.7118H9.37039C6.39392 19.7118 3.99802 22.0682 3.99802 24.9942V39C4.00002 47 10.5 52 17 52C17 52 39.6094 52 46.8047 52C54 52 60 46.5 60 39C60 31.5 60.002 20.7683 60.002 20.7683C60.002 17.8423 57.6061 15.4859 54.6275 15.4859H33.0644Z" fill="url(#paint6_linear_4_66)"/>
</g>
<defs>
<linearGradient id="paint0_linear_4_66" x1="33.0587" y1="51.4329" x2="33.0587" y2="54.7641" gradientUnits="userSpaceOnUse">
<stop stop-color="#313133"/>
<stop offset="1" stop-color="#9A9996"/>
</linearGradient>
<linearGradient id="paint1_linear_4_66" x1="30" y1="51.1426" x2="34" y2="51.1426" gradientUnits="userSpaceOnUse">
<stop stop-color="#AEADAB" stop-opacity="0"/>
<stop offset="0.3" stop-color="#AEADAB"/>
<stop offset="1" stop-color="#AEADAB" stop-opacity="0"/>
</linearGradient>
<linearGradient id="paint2_linear_4_66" x1="5.8768" y1="58.3955" x2="58.2761" y2="58.3955" gradientUnits="userSpaceOnUse">
<stop stop-color="#9A9996" stop-opacity="0"/>
<stop offset="0.0909091" stop-color="#9A9996"/>
<stop offset="0.909091" stop-color="#9A9996"/>
<stop offset="1" stop-color="#9A9996" stop-opacity="0"/>
</linearGradient>
<linearGradient id="paint3_linear_4_66" x1="31" y1="61.9999" x2="31" y2="58.1709" gradientUnits="userSpaceOnUse">
<stop stop-color="#77767B"/>
<stop offset="0.603496" stop-color="#C0BFBC"/>
<stop offset="1" stop-color="#AEADAB"/>
</linearGradient>
<linearGradient id="paint4_linear_4_66" x1="31.604" y1="14.3386" x2="31.604" y2="26.3028" gradientUnits="userSpaceOnUse">
<stop stop-color="#428CE6"/>
<stop offset="0.831768" stop-color="#225590"/>
<stop offset="1" stop-color="#428CE6"/>
</linearGradient>
<linearGradient id="paint5_linear_4_66" x1="3.99802" y1="56.7263" x2="60.002" y2="56.7263" gradientUnits="userSpaceOnUse">
<stop stop-color="#62A0EA"/>
<stop offset="0.0715849" stop-color="#AFD4FF" stop-opacity="0.4"/>
<stop offset="0.15" stop-color="#4B92E7"/>
<stop offset="0.85" stop-color="#4B92E7"/>
<stop offset="0.930477" stop-color="#C0D5EA" stop-opacity="0.4"/>
<stop offset="1" stop-color="#62A0EA"/>
</linearGradient>
<linearGradient id="paint6_linear_4_66" x1="33.0644" y1="15.4859" x2="33.0644" y2="59.6623" gradientUnits="userSpaceOnUse">
<stop stop-color="#A4CAEE"/>
<stop offset="1" stop-color="#73ABEA"/>
</linearGradient>
</defs>
</svg>
