<svg width="64" height="64" viewBox="0 0 64 64" fill="none" xmlns="http://www.w3.org/2000/svg">
<mask id="mask0_6_301" style="mask-type:luminance" maskUnits="userSpaceOnUse" x="4" y="3" width="57" height="57">
<path d="M47 3.9686H17.002C9.82119 3.9686 4 9.78979 4 16.9706V46.9686C4 54.1494 9.82119 59.9706 17.002 59.9706H47C54.1808 59.9706 60.002 54.1494 60.002 46.9686V16.9706C60.002 9.78979 54.1808 3.9686 47 3.9686Z" fill="white"/>
</mask>
<g mask="url(#mask0_6_301)">
<mask id="mask1_6_301" style="mask-type:alpha" maskUnits="userSpaceOnUse" x="4" y="3" width="56" height="58">
<path d="M4.09375 17.1263C4.09375 9.85958 9.90006 3.96875 17.0625 3.96875H46.9375C54.0999 3.96875 59.9062 9.85958 59.9062 17.1263V47.4362C59.9062 54.7029 54.0999 60.5938 46.9375 60.5938H17.0625C9.90006 60.5938 4.09375 54.7029 4.09375 47.4362V17.1263Z" fill="black"/>
</mask>
<g mask="url(#mask1_6_301)">
<path d="M9.44776 3.96875C6.48146 3.96875 4.09375 6.35107 4.09375 9.30916V55.2533C4.09375 58.2135 6.48146 60.5938 9.44776 60.5938H54.5501C57.5185 60.5938 59.9062 58.2135 59.9062 55.2533V16.7565C59.9062 13.2164 57.0301 10.348 53.481 10.348H28.78C27.4636 10.348 26.2603 9.60747 25.6691 8.43508L24.862 6.83713C23.9732 5.07855 22.1682 3.96875 20.1935 3.96875H9.44776Z" fill="url(#paint0_linear_6_301)"/>
</g>
</g>
<path d="M33.0664 25C31.5876 25 30.2519 25.5578 29.2822 26.4636C28.0579 27.6049 26.3835 29.0507 24.6334 29.0507H9.37238C6.3959 29.0507 4 31.3094 4 34.114V47.5391C4.002 55.2073 10.502 60 17.002 60C17.002 60 39.6114 60 46.8067 60C54.002 60 60.002 54.7281 60.002 47.5391C60.002 40.3501 60.004 30.0634 60.004 30.0634C60.004 27.2587 57.6081 25 54.6295 25H33.0664Z" fill="url(#paint1_linear_6_301)"/>
<defs>
<linearGradient id="paint0_linear_6_301" x1="31.8592" y1="14.336" x2="32" y2="38.5" gradientUnits="userSpaceOnUse">
<stop stop-color="#428CE6"/>
<stop offset="0.831768" stop-color="#225590"/>
<stop offset="1" stop-color="#428CE6"/>
</linearGradient>
<linearGradient id="paint1_linear_6_301" x1="33.0664" y1="20.2073" x2="33.0664" y2="62.5519" gradientUnits="userSpaceOnUse">
<stop stop-color="#A4CAEE"/>
<stop offset="1" stop-color="#73ABEA"/>
</linearGradient>
</defs>
</svg>
