<svg width="64" height="64" viewBox="0 0 64 64" fill="none" xmlns="http://www.w3.org/2000/svg">
<mask id="mask0_15_69" style="mask-type:luminance" maskUnits="userSpaceOnUse" x="4" y="3" width="57" height="57">
<path d="M47 3.9686H17.002C9.82119 3.9686 4 9.78979 4 16.9706V46.9686C4 54.1494 9.82119 59.9706 17.002 59.9706H47C54.1808 59.9706 60.002 54.1494 60.002 46.9686V16.9706C60.002 9.78979 54.1808 3.9686 47 3.9686Z" fill="white"/>
</mask>
<g mask="url(#mask0_15_69)">
<mask id="mask1_15_69" style="mask-type:alpha" maskUnits="userSpaceOnUse" x="4" y="3" width="56" height="58">
<path d="M4.09375 17.1263C4.09375 9.85958 9.90006 3.96875 17.0625 3.96875H46.9375C54.0999 3.96875 59.9062 9.85958 59.9062 17.1263V47.4362C59.9062 54.7029 54.0999 60.5938 46.9375 60.5938H17.0625C9.90006 60.5938 4.09375 54.7029 4.09375 47.4362V17.1263Z" fill="black"/>
</mask>
<g mask="url(#mask1_15_69)">
<path d="M9.44776 3.96875C6.48146 3.96875 4.09375 6.35107 4.09375 9.30916V55.2533C4.09375 58.2135 6.48146 60.5938 9.44776 60.5938H54.5501C57.5185 60.5938 59.9062 58.2135 59.9062 55.2533V16.7565C59.9062 13.2164 57.0301 10.348 53.481 10.348H28.78C27.4636 10.348 26.2603 9.60747 25.6691 8.43508L24.862 6.83713C23.9732 5.07855 22.1682 3.96875 20.1935 3.96875H9.44776Z" fill="url(#paint0_linear_15_69)"/>
</g>
<path d="M33.0644 15.4859C31.5856 15.4859 30.2499 16.0678 29.2802 17.0128C28.0559 18.2034 26.3815 19.7118 24.6314 19.7118H9.37038C6.39391 19.7118 3.998 22.0683 3.998 24.9942V47C4 55 10.5 60 17 60H46.8047C54 60 60 54.5 60 47L60.002 20.7683C60.002 17.8423 57.6061 15.4859 54.6275 15.4859H33.0644Z" fill="url(#paint1_linear_15_69)"/>
<path d="M33.0644 15.4859C31.5856 15.4859 30.2499 16.0678 29.2802 17.0128C28.0559 18.2034 26.3815 19.7118 24.6314 19.7118H9.37038C6.39391 19.7118 3.998 22.0682 3.998 24.9942V45C4 53 10.5 58 17 58C17 58 39.6094 58 46.8047 58C54 58 60 52.5 60 45C60 37.5 60.002 20.7683 60.002 20.7683C60.002 17.8423 57.6061 15.4859 54.6275 15.4859H33.0644Z" fill="url(#paint2_linear_15_69)"/>
</g>
<g clip-path="url(#clip0_15_69)">
<path d="M28.7143 32.9987L28.7146 32.9977L34.613 36.5308L38.1278 35.0517C38.842 34.7429 39.6121 34.5846 40.3902 34.5854C40.5199 34.5854 40.648 34.5912 40.7755 34.5998C40.3529 32.952 39.4609 31.4625 38.2077 30.3122C36.9546 29.1619 35.3943 28.4003 33.7165 28.12C32.0387 27.8397 30.3156 28.0528 28.7566 28.7333C27.1976 29.4139 25.8698 30.5326 24.9346 31.9535C24.9647 31.9531 24.9943 31.9512 25.0244 31.9512C26.328 31.9495 27.6061 32.3123 28.7143 32.9987Z" fill="#438DE6"/>
<path d="M28.7146 32.9977L28.7143 32.9987C27.6061 32.3123 26.328 31.9495 25.0244 31.9512C24.9943 31.9512 24.9646 31.9531 24.9346 31.9535C23.6587 31.9693 22.4113 32.3325 21.3263 33.004C20.2413 33.6755 19.3598 34.63 18.7765 35.7649C18.1933 36.8997 17.9303 38.1721 18.0158 39.4452C18.1013 40.7183 18.5322 41.9441 19.262 42.9907L24.4636 40.8018L26.7759 39.8288L31.9243 37.6622L34.613 36.5308L28.7146 32.9977Z" fill="#438DE6" fill-opacity="0.8"/>
<path d="M40.7755 34.5998C40.648 34.5912 40.5199 34.5854 40.3902 34.5854C39.6121 34.5846 38.8422 34.7435 38.128 35.0523L34.613 36.5308L35.6323 37.1413L38.9732 39.1424L40.4308 40.0155L45.4149 43.001C45.8678 42.1603 46.1025 41.2193 46.0975 40.2644C46.0925 39.3095 45.848 38.3711 45.3864 37.5351C44.9247 36.6992 44.2607 35.9924 43.4552 35.4796C42.6496 34.9668 41.7283 34.6642 40.7755 34.5998Z" fill="#438DE6" fill-opacity="0.65"/>
<path d="M40.4308 40.0155L38.9732 39.1424L35.6322 37.1413L34.613 36.5308L31.9243 37.6622L26.7759 39.8288L24.4636 40.8018L19.262 42.9907C19.9084 43.9201 20.7701 44.6792 21.7736 45.2032C22.777 45.7272 23.8924 46.0006 25.0244 46H40.3902C41.4205 46.0003 42.4316 45.7217 43.3163 45.1936C44.2009 44.6656 44.9261 43.9079 45.4149 43.001L40.4308 40.0155Z" fill="#438DE6" fill-opacity="0.4"/>
</g>
<defs>
<linearGradient id="paint0_linear_15_69" x1="31.604" y1="14.3386" x2="31.604" y2="26.3028" gradientUnits="userSpaceOnUse">
<stop stop-color="#428CE6"/>
<stop offset="0.831768" stop-color="#225590"/>
<stop offset="1" stop-color="#428CE6"/>
</linearGradient>
<linearGradient id="paint1_linear_15_69" x1="3.998" y1="56.7263" x2="60.002" y2="56.7263" gradientUnits="userSpaceOnUse">
<stop stop-color="#62A0EA"/>
<stop offset="0.0715849" stop-color="#AFD4FF" stop-opacity="0.4"/>
<stop offset="0.15" stop-color="#4B92E7"/>
<stop offset="0.85" stop-color="#4B92E7"/>
<stop offset="0.930477" stop-color="#C0D5EA" stop-opacity="0.4"/>
<stop offset="1" stop-color="#62A0EA"/>
</linearGradient>
<linearGradient id="paint2_linear_15_69" x1="33.0644" y1="15.4859" x2="33.0644" y2="59.6623" gradientUnits="userSpaceOnUse">
<stop stop-color="#A4CAEE"/>
<stop offset="1" stop-color="#73ABEA"/>
</linearGradient>
<clipPath id="clip0_15_69">
<rect width="28.0976" height="18" fill="white" transform="translate(18 28)"/>
</clipPath>
</defs>
</svg>
