<svg width="64" height="64" viewBox="0 0 64 64" fill="none" xmlns="http://www.w3.org/2000/svg">
<mask id="mask0_8_106" style="mask-type:luminance" maskUnits="userSpaceOnUse" x="4" y="3" width="57" height="57">
<path d="M47 3.9686H17.002C9.82119 3.9686 4 9.78979 4 16.9706V46.9686C4 54.1494 9.82119 59.9706 17.002 59.9706H47C54.1808 59.9706 60.002 54.1494 60.002 46.9686V16.9706C60.002 9.78979 54.1808 3.9686 47 3.9686Z" fill="white"/>
</mask>
<g mask="url(#mask0_8_106)">
<mask id="mask1_8_106" style="mask-type:alpha" maskUnits="userSpaceOnUse" x="4" y="3" width="56" height="58">
<path d="M4.09375 17.1263C4.09375 9.85958 9.90006 3.96875 17.0625 3.96875H46.9375C54.0999 3.96875 59.9062 9.85958 59.9062 17.1263V47.4362C59.9062 54.7029 54.0999 60.5938 46.9375 60.5938H17.0625C9.90006 60.5938 4.09375 54.7029 4.09375 47.4362V17.1263Z" fill="black"/>
</mask>
<g mask="url(#mask1_8_106)">
<path d="M9.44776 3.96875C6.48146 3.96875 4.09375 6.35107 4.09375 9.30916V55.2533C4.09375 58.2135 6.48146 60.5938 9.44776 60.5938H54.5501C57.5185 60.5938 59.9062 58.2135 59.9062 55.2533V16.7565C59.9062 13.2164 57.0301 10.348 53.481 10.348H28.78C27.4636 10.348 26.2603 9.60747 25.6691 8.43508L24.862 6.83713C23.9732 5.07855 22.1682 3.96875 20.1935 3.96875H9.44776Z" fill="url(#paint0_linear_8_106)"/>
</g>
<path d="M33.0644 15.4859C31.5856 15.4859 30.2499 16.0678 29.2802 17.0128C28.0559 18.2034 26.3815 19.7118 24.6314 19.7118H9.37038C6.39391 19.7118 3.998 22.0682 3.998 24.9942V47C4 55 10.5 60 17 60H46.8047C54 60 60 54.5 60 47L60.002 20.7683C60.002 17.8423 57.6061 15.4859 54.6275 15.4859H33.0644Z" fill="url(#paint1_linear_8_106)"/>
<path d="M33.0644 15.4859C31.5856 15.4859 30.2499 16.0678 29.2802 17.0128C28.0559 18.2034 26.3815 19.7118 24.6314 19.7118H9.37038C6.39391 19.7118 3.998 22.0682 3.998 24.9942V45C4 53 10.5 58 17 58C17 58 39.6094 58 46.8047 58C54 58 60 52.5 60 45C60 37.5 60.002 20.7683 60.002 20.7683C60.002 17.8423 57.6061 15.4859 54.6275 15.4859H33.0644Z" fill="url(#paint2_linear_8_106)"/>
</g>
<path d="M31.5985 29C27.9376 29 24.8625 31.507 23.9233 34.8802C23.1032 33.0761 21.2986 31.7978 19.2016 31.7978C16.3476 31.7982 14 34.1454 14 37C13.9996 39.8555 16.3468 42.2025 19.2013 42.2031C21.2989 42.2027 23.1024 40.9233 23.9224 39.1192C24.8613 42.4925 27.937 45 31.5991 45C35.2406 45.0004 38.2999 42.5203 39.2585 39.176C40.0917 40.9467 41.8688 42.2025 43.9414 42.2028C46.7969 42.2028 49.1448 39.8552 49.1446 36.9994C49.1446 34.1439 46.7972 31.7969 43.942 31.7975C41.8691 31.7979 40.0908 33.0539 39.2579 34.8246C38.299 31.48 35.2406 28.9994 31.5994 29H31.5985ZM31.5985 32.0537C32.2489 32.0506 32.8935 32.1764 33.495 32.4239C34.0965 32.6713 34.643 33.0355 35.1029 33.4954C35.5629 33.9553 35.9271 34.5018 36.1747 35.1033C36.4222 35.7047 36.5481 36.3493 36.545 36.9997C36.545 39.7497 34.3485 41.9468 31.5985 41.9463C30.9481 41.9492 30.3036 41.8233 29.7022 41.5757C29.1008 41.3281 28.5544 40.9639 28.0946 40.5039C27.6348 40.044 27.2706 39.4975 27.0232 38.8961C26.7758 38.2946 26.65 37.6501 26.6531 36.9997C26.6531 34.2497 28.8493 32.054 31.5985 32.0537ZM19.2013 34.8512C20.4062 34.8512 21.3496 35.7948 21.3498 36.9994C21.3498 38.2043 20.4068 39.1491 19.2016 39.1491C17.9971 39.1491 17.0534 38.2043 17.0538 36.9994C17.0538 35.7948 17.9974 34.8512 19.2019 34.8512H19.2013ZM43.9414 34.8512C45.1463 34.8512 46.0905 35.7943 46.0905 36.9994C46.0905 38.2046 45.1466 39.1491 43.9414 39.1491C42.7366 39.1491 41.793 38.2043 41.7932 36.9994C41.7932 35.7948 42.7369 34.8512 43.9414 34.8512Z" fill="#3F8AE5"/>
<defs>
<linearGradient id="paint0_linear_8_106" x1="31.604" y1="14.3386" x2="31.604" y2="26.3028" gradientUnits="userSpaceOnUse">
<stop stop-color="#428CE6"/>
<stop offset="0.831768" stop-color="#225590"/>
<stop offset="1" stop-color="#428CE6"/>
</linearGradient>
<linearGradient id="paint1_linear_8_106" x1="3.998" y1="56.7263" x2="60.002" y2="56.7263" gradientUnits="userSpaceOnUse">
<stop stop-color="#62A0EA"/>
<stop offset="0.0715849" stop-color="#AFD4FF" stop-opacity="0.4"/>
<stop offset="0.15" stop-color="#4B92E7"/>
<stop offset="0.85" stop-color="#4B92E7"/>
<stop offset="0.930477" stop-color="#C0D5EA" stop-opacity="0.4"/>
<stop offset="1" stop-color="#62A0EA"/>
</linearGradient>
<linearGradient id="paint2_linear_8_106" x1="33.0644" y1="15.4859" x2="33.0644" y2="59.6623" gradientUnits="userSpaceOnUse">
<stop stop-color="#A4CAEE"/>
<stop offset="1" stop-color="#73ABEA"/>
</linearGradient>
</defs>
</svg>
