<svg width="64" height="64" viewBox="0 0 64 64" fill="none" xmlns="http://www.w3.org/2000/svg">
<mask id="mask0_2_25" style="mask-type:luminance" maskUnits="userSpaceOnUse" x="4" y="4" width="57" height="57">
<path d="M47 4H17.002C9.82119 4 4 9.82119 4 17.002V47C4 54.1808 9.82119 60.002 17.002 60.002H47C54.1808 60.002 60.002 54.1808 60.002 47V17.002C60.002 9.82119 54.1808 4 47 4Z" fill="white"/>
</mask>
<g mask="url(#mask0_2_25)">
<path d="M20 41H44C46.209 41 48 42.791 48 45V56C48 58.209 46.209 60 44 60H20C17.791 60 16 58.209 16 56V45C16 42.791 17.791 41 20 41Z" fill="#464153"/>
<path d="M10.2222 20H53.7778C57.214 20 60 21.791 60 24V47.5C60 53.5 54.75 60 47 60H17C9.25 60 4 53.5 4 47.5V24C4 21.791 6.78602 20 10.2222 20Z" fill="url(#paint0_linear_2_25)"/>
<path d="M10.2222 20H53.7778C57.214 20 60 21.791 60 24V47.5C60 53.5 54.75 60 47 60H17C9.25 60 4 53.5 4 47.5V24C4 21.791 6.78602 20 10.2222 20Z" fill="url(#paint1_linear_2_25)"/>
<path d="M4 17C4 9.8203 9.8203 4 17 4H47C54.1797 4 60 9.8203 60 17V41C60 48.1797 54.1797 54 47 54H17C9.8203 54 4 48.1797 4 41V17Z" fill="#F6F5F4"/>
<path d="M6 17C6 10.9249 10.9249 6 17 6H47C53.0751 6 58 10.9249 58 17V41C58 47.0751 53.0751 52 47 52H17C10.9249 52 6 47.0751 6 41V17Z" fill="#3D3846"/>
<path d="M28.4 8H35.6C36.0957 8 36.5 8.56152 36.5 9.25C36.5 9.93848 36.0957 10.5 35.6 10.5H28.4C27.9043 10.5 27.5 9.93848 27.5 9.25C27.5 8.56152 27.9043 8 28.4 8Z" fill="#9A9996"/>
<path d="M29 55.5H35C36.241 55.5 36.5 56.0605 36.5 56.75C36.5 57.4395 36.241 58 35 58H29C27.759 58 27.5 57.4395 27.5 56.75C27.5 56.0605 27.759 55.5 29 55.5Z" fill="#13101A"/>
<path d="M27.5457 56.5C27.5176 56.5801 27.5 56.6641 27.5 56.75C27.5 57.4434 27.752 58 29 58H35C36.248 58 36.5 57.4434 36.5 56.75C36.5 56.6641 36.4824 56.5801 36.4543 56.5C36.2469 57.0723 36.0934 57.5 35 57.5H29C27.9066 57.5 27.7531 57.0723 27.5457 56.5Z" fill="#333332"/>
<mask id="mask1_2_25" style="mask-type:alpha" maskUnits="userSpaceOnUse" x="27" y="55" width="10" height="3">
<path d="M29 55.5H35C36.241 55.5 36.5 56.0605 36.5 56.75C36.5 57.4395 36.241 58 35 58H29C27.759 58 27.5 57.4395 27.5 56.75C27.5 56.0605 27.759 55.5 29 55.5Z" fill="#13101A"/>
</mask>
<g mask="url(#mask1_2_25)">
<rect x="29" y="55" width="6" height="1.4" rx="0.5" fill="#333332"/>
</g>
<path d="M19.25 56C18.8359 56 18.5 56.3359 18.5 56.75C18.5 57.1641 18.8359 57.5 19.25 57.5C19.6641 57.5 20 57.1641 20 56.75C20 56.3359 19.6641 56 19.25 56ZM21.25 56C20.8359 56 20.5 56.3359 20.5 56.75C20.5 57.1641 20.8359 57.5 21.25 57.5C21.6641 57.5 22 57.1641 22 56.75C22 56.3359 21.6641 56 21.25 56ZM23.25 56C22.8359 56 22.5 56.3359 22.5 56.75C22.5 57.1641 22.8359 57.5 23.25 57.5C23.6641 57.5 24 57.1641 24 56.75C24 56.3359 23.6641 56 23.25 56Z" fill="#241F31"/>
<path d="M41.5 56.75C41.5 57.1641 41.1641 57.5 40.75 57.5C40.3359 57.5 40 57.1641 40 56.75C40 56.3359 40.3359 56 40.75 56C41.1641 56 41.5 56.3359 41.5 56.75Z" fill="#241F31"/>
<path d="M43.5 56.75C43.5 57.1641 43.1641 57.5 42.75 57.5C42.3359 57.5 42 57.1641 42 56.75C42 56.3359 42.3359 56 42.75 56C43.1641 56 43.5 56.3359 43.5 56.75Z" fill="#241F31"/>
<path d="M45.5 56.75C45.5 57.1641 45.1641 57.5 44.75 57.5C44.3359 57.5 44 57.1641 44 56.75C44 56.3359 44.3359 56 44.75 56C45.1641 56 45.5 56.3359 45.5 56.75Z" fill="#241F31"/>
<path d="M19.957 56.5C19.8516 56.7988 19.5684 57 19.25 57C18.9316 57 18.6484 56.8008 18.543 56.5C18.5156 56.5801 18.5 56.666 18.5 56.75C18.5 57.1641 18.8359 57.5 19.25 57.5C19.6641 57.5 20 57.1641 20 56.75C20 56.6641 19.9863 56.5801 19.957 56.5ZM21.957 56.5C21.8516 56.7988 21.5684 57 21.25 57C20.9316 57 20.6484 56.8008 20.543 56.5C20.5156 56.5801 20.5 56.666 20.5 56.75C20.5 57.1641 20.8359 57.5 21.25 57.5C21.6641 57.5 22 57.1641 22 56.75C22 56.6641 21.9863 56.5801 21.957 56.5ZM23.957 56.5C23.8516 56.7988 23.5684 57 23.25 57C22.9316 57 22.6484 56.8008 22.543 56.5C22.5156 56.5801 22.5 56.666 22.5 56.75C22.5 57.1641 22.8359 57.5 23.25 57.5C23.6641 57.5 24 57.1641 24 56.75C24 56.6641 23.9863 56.5801 23.957 56.5Z" fill="#333332"/>
<path d="M41.457 56.5C41.3516 56.7988 41.0684 57 40.75 57C40.4316 57 40.1484 56.8008 40.043 56.5C40.0156 56.5801 40 56.666 40 56.75C40 57.1641 40.3359 57.5 40.75 57.5C41.1641 57.5 41.5 57.1641 41.5 56.75C41.5 56.6641 41.4863 56.5801 41.457 56.5ZM43.457 56.5C43.3516 56.7988 43.0684 57 42.75 57C42.4316 57 42.1484 56.8008 42.043 56.5C42.0156 56.5801 42 56.666 42 56.75C42 57.1641 42.3359 57.5 42.75 57.5C43.1641 57.5 43.5 57.1641 43.5 56.75C43.5 56.6641 43.4863 56.5801 43.457 56.5ZM45.457 56.5C45.3516 56.7988 45.0684 57 44.75 57C44.4316 57 44.1484 56.8008 44.043 56.5C44.0156 56.5801 44 56.666 44 56.75C44 57.1641 44.3359 57.5 44.75 57.5C45.1641 57.5 45.5 57.1641 45.5 56.75C45.5 56.6641 45.4863 56.5801 45.457 56.5Z" fill="#333332"/>
<path d="M33.5 15C33.5 13.8954 34.3954 13 35.5 13H37.5C38.6046 13 39.5 13.8954 39.5 15V17C39.5 18.1046 38.6046 19 37.5 19H35.5C34.3954 19 33.5 18.1046 33.5 17V15Z" fill="#DEDDDA"/>
<path d="M42.5 15C42.5 13.8954 43.3954 13 44.5 13H46.5C47.6046 13 48.5 13.8954 48.5 15V17C48.5 18.1046 47.6046 19 46.5 19H44.5C43.3954 19 42.5 18.1046 42.5 17V15Z" fill="#33D17A"/>
<path d="M15.5 15C15.5 13.8954 16.3954 13 17.5 13H19.5C20.6046 13 21.5 13.8954 21.5 15V17C21.5 18.1046 20.6046 19 19.5 19H17.5C16.3954 19 15.5 18.1046 15.5 17V15Z" fill="#62A0EA"/>
<path d="M24.5 15C24.5 13.8954 25.3954 13 26.5 13H28.5C29.6046 13 30.5 13.8954 30.5 15V17C30.5 18.1046 29.6046 19 28.5 19H26.5C25.3954 19 24.5 18.1046 24.5 17V15Z" fill="#ED333B"/>
<path d="M33.5 24.5C33.5 23.3954 34.3954 22.5 35.5 22.5H37.5C38.6046 22.5 39.5 23.3954 39.5 24.5V26.5C39.5 27.6046 38.6046 28.5 37.5 28.5H35.5C34.3954 28.5 33.5 27.6046 33.5 26.5V24.5Z" fill="#F8E45C"/>
<path d="M42.5 24.5C42.5 23.3954 43.3954 22.5 44.5 22.5H46.5C47.6046 22.5 48.5 23.3954 48.5 24.5V26.5C48.5 27.6046 47.6046 28.5 46.5 28.5H44.5C43.3954 28.5 42.5 27.6046 42.5 26.5V24.5Z" fill="#DEDDDA"/>
<path d="M15.5 24.5C15.5 23.3954 16.3954 22.5 17.5 22.5H19.5C20.6046 22.5 21.5 23.3954 21.5 24.5V26.5C21.5 27.6046 20.6046 28.5 19.5 28.5H17.5C16.3954 28.5 15.5 27.6046 15.5 26.5V24.5Z" fill="#33D17A"/>
<path d="M24.5 24.5C24.5 23.3954 25.3954 22.5 26.5 22.5H28.5C29.6046 22.5 30.5 23.3954 30.5 24.5V26.5C30.5 27.6046 29.6046 28.5 28.5 28.5H26.5C25.3954 28.5 24.5 27.6046 24.5 26.5V24.5Z" fill="#DEDDDA"/>
<path d="M33.5 34C33.5 32.8954 34.3954 32 35.5 32H37.5C38.6046 32 39.5 32.8954 39.5 34V36C39.5 37.1046 38.6046 38 37.5 38H35.5C34.3954 38 33.5 37.1046 33.5 36V34Z" fill="#ED333B"/>
<path d="M33.5 43.5C33.5 42.3954 34.3954 41.5 35.5 41.5H37.5C38.6046 41.5 39.5 42.3954 39.5 43.5V45.5C39.5 46.6046 38.6046 47.5 37.5 47.5H35.5C34.3954 47.5 33.5 46.6046 33.5 45.5V43.5Z" fill="#DEDDDA"/>
<path d="M42.5 34C42.5 32.8954 43.3954 32 44.5 32H46.5C47.6046 32 48.5 32.8954 48.5 34V36C48.5 37.1046 47.6046 38 46.5 38H44.5C43.3954 38 42.5 37.1046 42.5 36V34Z" fill="#62A0EA"/>
<path d="M42.5 43.5C42.5 42.3954 43.3954 41.5 44.5 41.5H46.5C47.6046 41.5 48.5 42.3954 48.5 43.5V45.5C48.5 46.6046 47.6046 47.5 46.5 47.5H44.5C43.3954 47.5 42.5 46.6046 42.5 45.5V43.5Z" fill="#33D17A"/>
<path d="M15.5 34C15.5 32.8954 16.3954 32 17.5 32H19.5C20.6046 32 21.5 32.8954 21.5 34V36C21.5 37.1046 20.6046 38 19.5 38H17.5C16.3954 38 15.5 37.1046 15.5 36V34Z" fill="#F8E45C"/>
<path d="M15.5 43.5C15.5 42.3954 16.3954 41.5 17.5 41.5H19.5C20.6046 41.5 21.5 42.3954 21.5 43.5V45.5C21.5 46.6046 20.6046 47.5 19.5 47.5H17.5C16.3954 47.5 15.5 46.6046 15.5 45.5V43.5Z" fill="#ED333B"/>
<path d="M24.5 34C24.5 32.8954 25.3954 32 26.5 32H28.5C29.6046 32 30.5 32.8954 30.5 34V36C30.5 37.1046 29.6046 38 28.5 38H26.5C25.3954 38 24.5 37.1046 24.5 36V34Z" fill="#DEDDDA"/>
<path d="M24.5 43.5C24.5 42.3954 25.3954 41.5 26.5 41.5H28.5C29.6046 41.5 30.5 42.3954 30.5 43.5V45.5C30.5 46.6046 29.6046 47.5 28.5 47.5H26.5C25.3954 47.5 24.5 46.6046 24.5 45.5V43.5Z" fill="#62A0EA"/>
</g>
<defs>
<linearGradient id="paint0_linear_2_25" x1="2.88267" y1="56.7501" x2="59.8917" y2="56.7501" gradientUnits="userSpaceOnUse">
<stop stop-color="#272725"/>
<stop offset="0.0557713" stop-color="#332E2A"/>
<stop offset="0.115081" stop-color="#262522"/>
<stop offset="0.844546" stop-color="#272725"/>
<stop offset="0.932276" stop-color="#332E2A"/>
<stop offset="1" stop-color="#272725"/>
</linearGradient>
<linearGradient id="paint1_linear_2_25" x1="2.88267" y1="56.7501" x2="59.8917" y2="56.7501" gradientUnits="userSpaceOnUse">
<stop stop-color="#C0BFBC"/>
<stop offset="0.0557713" stop-color="#F6F5F4"/>
<stop offset="0.115081" stop-color="#DEDDDA"/>
<stop offset="0.844546" stop-color="#C0BFBC"/>
<stop offset="0.932276" stop-color="#F6F5F4"/>
<stop offset="1" stop-color="#C0BFBC"/>
</linearGradient>
</defs>
</svg>
