<svg width="64" height="64" viewBox="0 0 64 64" fill="none" xmlns="http://www.w3.org/2000/svg">
<path d="M17 59.8538H46.998C54.1788 59.8538 60 54.0326 60 46.8518V16.8538C60 9.67299 54.1788 3.8518 46.998 3.8518H17C9.81921 3.8518 3.99801 9.67299 3.99801 16.8538V46.8518C3.99801 54.0326 9.81921 59.8538 17 59.8538Z" fill="url(#paint0_linear_2_270)"/>
<path d="M17.0243 26.8524H46.9757C52.5416 26.8524 57.0537 22.3289 57.0537 16.7488V16.7263C57.0537 11.1463 52.5416 6.62275 46.9757 6.62275H17.0243C11.4584 6.62275 6.94629 11.1463 6.94629 16.7263V16.7488C6.94629 22.3289 11.4584 26.8524 17.0243 26.8524Z" fill="#1A1A1A"/>
<path fill-rule="evenodd" clip-rule="evenodd" d="M44.6018 18.1379L45.3661 15.782L48.174 17.7265L48.9106 21.282L47.5935 22.1097L43.3451 26.95L40.8255 26.908L43.466 21.8219L44.6018 18.1379Z" fill="#96999F"/>
<path fill-rule="evenodd" clip-rule="evenodd" d="M41.5345 23.1672C42.0205 21.7897 41.8883 21.5859 42.1867 21.4204C42.4864 21.256 42.6715 20.6445 43.0177 20.5086C43.364 20.3715 43.0555 19.3918 43.2507 19.277C43.4446 19.1633 44.1623 19.0991 44.3122 18.7013C44.462 18.3022 44.2014 17.9983 44.2014 17.9983L41.1252 18.1873L39.0967 22.573C39.0967 22.573 40.7676 25.402 41.5345 23.1672Z" fill="#5975B5"/>
<path fill-rule="evenodd" clip-rule="evenodd" d="M44.5036 18.1071C45.8634 17.0854 46.0737 16.9371 46.4842 17.7797C46.8934 18.6234 45.871 20.5988 45.871 20.5988L43.4484 20.5309C43.4484 20.5309 42.9145 18.7013 43.3388 18.4913C43.7619 18.28 44.5036 18.1071 44.5036 18.1071Z" fill="#39497E"/>
<path fill-rule="evenodd" clip-rule="evenodd" d="M42.6501 18.3924C43.7909 18.6358 44.4595 18.3183 44.7818 18.0465C45.1054 17.776 45.2729 16.2885 45.5084 16.2354C45.7451 16.1811 44.3852 15.8932 44.3852 15.8932L42.6501 18.3924Z" fill="#252921"/>
<path fill-rule="evenodd" clip-rule="evenodd" d="M36.4449 15.9043L38.9368 15.698C38.9368 15.698 42.7647 16.1675 43.6486 16.3219C44.53 16.4763 45.3384 16.0464 45.3384 16.0464L38.9645 12.4749L36.4449 15.9043Z" fill="#EAE9E8"/>
<path fill-rule="evenodd" clip-rule="evenodd" d="M30.5558 26.8524C31.2421 28.6573 33.9896 28.6499 33.9908 28.047C33.9921 27.4454 33.9996 26.315 33.9996 26.315C33.9996 26.315 34.3837 23.1647 33.7151 23.287C33.0452 23.4081 30.5558 26.8524 30.5558 26.8524Z" fill="#759D70"/>
<path fill-rule="evenodd" clip-rule="evenodd" d="M29.0951 28.9929C30.4987 29.1383 33.9185 23.9942 34.1697 22.8382C34.4209 21.6818 34.1153 21.3947 32.8915 21.482C31.6677 21.5693 25.2479 26.8831 29.0951 28.9929Z" fill="url(#paint1_linear_2_270)"/>
<path fill-rule="evenodd" clip-rule="evenodd" d="M12.4856 25.1327C10.2821 23.9789 7.44015 21.7897 7.27016 18.2837C7.16943 16.1798 8.50792 15.1384 8.50792 15.1384C8.45251 16.2478 7.3646 18.4282 8.96121 19.5895C9.35659 20.1244 9.79226 20.1479 11.025 20.0466C12.2564 19.9478 12.0147 20.3209 12.0147 20.3209C12.0147 20.3209 12.2539 18.9681 12.5398 18.6136C12.8268 18.259 13.9727 15.4806 13.9727 15.4806C13.9727 15.4806 19.9121 12.1574 20.3365 11.9474C20.7596 11.7349 22.5022 11.3989 22.5022 11.3989C22.5022 11.3989 28.822 13.2557 29.1393 13.5386C29.4566 13.8227 29.9426 15.7796 29.9426 15.7796L29.3055 18.7692L23.7526 21.1165L26.9282 27.0587L20.7961 27.7493C20.7961 27.7493 14.0558 27.5306 12.4856 25.1327Z" fill="#B0AFAD"/>
<mask id="mask0_2_270" style="mask-type:luminance" maskUnits="userSpaceOnUse" x="7" y="12" width="22" height="15">
<path d="M13.6359 25.0685C11.4626 24.3185 8.57884 22.7485 7.99587 19.7508C7.6459 17.9512 8.75306 16.9079 8.75306 16.9079C8.83763 17.8686 8.10101 19.8637 9.71317 20.6866C10.1428 21.105 10.546 21.0754 11.6694 20.8548C12.794 20.6324 12.6157 20.9806 12.6157 20.9806C12.6157 20.9806 12.6702 19.7909 12.8908 19.4548C13.1127 19.1168 13.8313 16.6009 13.8313 16.6009C13.8313 16.6009 18.9011 13.0877 19.2641 12.86C19.6304 12.6317 21.1933 12.1502 21.1933 12.1502C21.1933 12.1502 27.2431 13.052 27.5715 13.2616C27.898 13.47 28.5841 15.1002 28.5841 15.1002L28.3598 17.743L23.5305 20.3725L27.1775 25.136L21.6123 26.4053C21.6123 26.4053 15.3741 26.9579 13.6359 25.0685Z" fill="white"/>
</mask>
<g mask="url(#mask0_2_270)">
<path fill-rule="evenodd" clip-rule="evenodd" d="M12.7682 24.9663C14.8268 24.1614 14.5549 24.3132 14.6829 23.5863C15.5136 20.583 15.9867 19.6981 16.5446 19.5647C17.1042 19.4311 22.1288 20.46 23.7709 21.6056C25.4095 22.7532 27.4292 27.1429 27.4292 27.1429L17.6793 28.7795C17.6793 28.7795 12.4723 27.1086 12.7682 24.9663Z" fill="#626262"/>
</g>
<path fill-rule="evenodd" clip-rule="evenodd" d="M16.865 22.4222C17.6469 23.0486 18.7839 24.0196 19.0635 23.7812C19.3443 23.5427 21.2103 22.4618 21.2103 22.4618C21.2103 22.4618 24.2714 25.7677 24.7889 25.9999C25.3076 26.231 25.8491 26.0246 25.8491 26.0246L22.9379 21.0559L20.1879 20.6717C20.1879 20.6717 18.1606 20.6458 17.317 21.618C16.4734 22.5915 16.8637 22.4222 16.8637 22.4222H16.865Z" fill="#441111"/>
<mask id="mask1_2_270" style="mask-type:luminance" maskUnits="userSpaceOnUse" x="7" y="12" width="22" height="15">
<path d="M13.6359 25.0685C11.4626 24.3185 8.57884 22.7485 7.99587 19.7508C7.6459 17.9512 8.75306 16.9079 8.75306 16.9079C8.83763 17.8686 8.10101 19.8637 9.71317 20.6866C10.1428 21.105 10.546 21.0754 11.6694 20.8548C12.794 20.6324 12.6157 20.9806 12.6157 20.9806C12.6157 20.9806 12.6702 19.7909 12.8908 19.4548C13.1127 19.1168 13.8313 16.6009 13.8313 16.6009C13.8313 16.6009 18.9011 13.0877 19.2641 12.86C19.6304 12.6317 21.1933 12.1502 21.1933 12.1502C21.1933 12.1502 27.2431 13.052 27.5715 13.2616C27.898 13.47 28.5841 15.1002 28.5841 15.1002L28.3598 17.743L23.5305 20.3725L27.1775 25.136L21.6123 26.4053C21.6123 26.4053 15.3741 26.9579 13.6359 25.0685Z" fill="white"/>
</mask>
<g mask="url(#mask1_2_270)">
<path fill-rule="evenodd" clip-rule="evenodd" d="M6.88789 20.0831C9.27582 20.5498 10.5957 21.1095 11.4098 21.6924C12.2239 22.2753 14.774 23.565 14.774 23.565L13.4155 25.5613L7.78047 24.2529L6.88789 20.0831Z" fill="#9F9F9F"/>
</g>
<mask id="mask2_2_270" style="mask-type:luminance" maskUnits="userSpaceOnUse" x="7" y="12" width="22" height="15">
<path d="M13.6359 25.0685C11.4626 24.3185 8.57884 22.7485 7.99587 19.7508C7.6459 17.9512 8.75306 16.9079 8.75306 16.9079C8.83763 17.8686 8.10101 19.8637 9.71317 20.6866C10.1428 21.105 10.546 21.0754 11.6694 20.8548C12.794 20.6324 12.6157 20.9806 12.6157 20.9806C12.6157 20.9806 12.6702 19.7909 12.8908 19.4548C13.1127 19.1168 13.8313 16.6009 13.8313 16.6009C13.8313 16.6009 18.9011 13.0877 19.2641 12.86C19.6304 12.6317 21.1933 12.1502 21.1933 12.1502C21.1933 12.1502 27.2431 13.052 27.5715 13.2616C27.898 13.47 28.5841 15.1002 28.5841 15.1002L28.3598 17.743L23.5305 20.3725L27.1775 25.136L21.6123 26.4053C21.6123 26.4053 15.3741 26.9579 13.6359 25.0685Z" fill="white"/>
</mask>
<g mask="url(#mask2_2_270)">
<path fill-rule="evenodd" clip-rule="evenodd" d="M7.34089 20.6451C10.3351 23.335 13.9717 25.2544 13.9717 25.2544L13.5254 26.0494C13.5254 26.0494 7.81891 25.2141 7.66399 24.1655C7.50907 23.1169 7.34089 20.6451 7.34089 20.6451Z" fill="#606060"/>
</g>
<path fill-rule="evenodd" clip-rule="evenodd" d="M23.0487 12.3983C24.0233 12.7788 25.6048 18.9879 25.6048 18.9879L27.1876 18.5308C27.1876 18.5308 25.8277 12.8455 24.571 12.4551C23.3157 12.066 23.0487 12.3983 23.0487 12.3983Z" fill="#444342"/>
<path fill-rule="evenodd" clip-rule="evenodd" d="M23.9487 18.1796C25.4026 17.4941 27.713 16.7903 28.7074 17.1592C28.7074 17.1592 29.5648 16.5044 30.3258 16.3634C31.0864 16.2223 31.8424 17.2564 31.782 17.274C31.721 17.2915 30.2195 20.1933 29.603 20.1467C28.9869 20.1001 23.9487 18.1796 23.9487 18.1796Z" fill="url(#paint2_linear_2_270)"/>
<path fill-rule="evenodd" clip-rule="evenodd" d="M22.4459 20.7736C21.2017 19.5111 22.7783 18.2237 24.3717 17.9577C25.9651 17.6921 29.4819 19.9346 29.4819 19.9346C29.4819 19.9346 24.7182 22.2017 22.4459 20.7736Z" fill="url(#paint3_linear_2_270)"/>
<path fill-rule="evenodd" clip-rule="evenodd" d="M29.6581 25.0896C31.0618 25.2351 33.9721 21.9369 34.2233 20.781C34.4745 19.6246 34.0026 19.0742 32.7788 19.1615C31.5549 19.2488 29.4938 23.5911 29.6581 25.0896Z" fill="url(#paint4_linear_2_270)"/>
<path fill-rule="evenodd" clip-rule="evenodd" d="M39.6445 22.7694C40.7387 21.2573 41.9248 21.3524 42.0029 21.0621C42.0809 20.773 42.0003 20.3851 41.7221 20.0219C41.4438 19.6574 42.0092 18.6531 42.5468 18.658C43.0845 18.6629 43.4748 17.5301 43.4748 17.5301L41.333 16.7271L37.9446 18.0737L37.5291 20.2615L37.6877 22.6187L39.6445 22.7694Z" fill="#AA531F"/>
<path fill-rule="evenodd" clip-rule="evenodd" d="M40.7764 23.6354C42.1603 22.4124 43.5176 22.5594 43.5176 22.5594L41.265 24.5311L40.7764 23.6354Z" fill="#C1C2C9"/>
<path fill-rule="evenodd" clip-rule="evenodd" d="M35.2287 21.4043C36.8333 21.372 37.514 21.0848 38.6177 21.4594C39.7213 21.8341 39.6726 22.1766 40.036 22.5008C40.3985 22.8247 40.9205 22.396 41.3267 24.5067C41.7324 26.6175 35.437 25.7179 35.437 25.7179L35.2287 21.4043Z" fill="url(#paint5_linear_2_270)"/>
<path fill-rule="evenodd" clip-rule="evenodd" d="M35.4527 21.4846C35.5232 23.8454 35.4527 23.7429 36.1503 23.7948C36.8479 23.8479 36.0898 24.7781 36.2825 25.1945C36.4764 25.612 36.8655 25.5725 36.8655 25.5725L37.1412 26.3261L35.0762 26.252C35.0762 26.252 34.8244 26.0086 34.7287 25.8208C34.633 25.6343 34.56 21.4414 34.5499 21.2289C34.5398 21.0164 35.4527 21.4846 35.4527 21.4846Z" fill="#242F65"/>
<path fill-rule="evenodd" clip-rule="evenodd" d="M39.0917 15.4373C39.0942 14.8505 40.3672 14.1896 41.0106 14.4898C41.6541 14.7912 41.3594 15.362 42.125 15.6424C42.8906 15.9228 45.1067 16.3466 44.8788 16.7048C44.6496 17.0619 44.2026 17.9711 43.5189 17.8068C42.8364 17.6425 42.8226 17.0557 41.9349 17.0977C41.0472 17.1385 40.3609 17.2459 40.3609 17.2459L39.0917 15.4373Z" fill="#5975B5"/>
<path fill-rule="evenodd" clip-rule="evenodd" d="M39.0237 18.128C39.4619 18.6197 39.8296 18.6321 40.5725 18.1008C41.3141 17.5696 41.6188 16.8926 40.5171 16.9742C39.4165 17.0557 37.0632 16.3219 37.0632 16.3219C37.0632 16.3219 36.2938 16.5986 36.3303 17.0335C36.3669 17.4683 36.9876 17.9217 36.9876 17.9217L39.0237 18.128Z" fill="#252921"/>
<path fill-rule="evenodd" clip-rule="evenodd" d="M37.247 21.7267C39.2705 21.03 38.1838 19.8452 37.9395 19.5401C37.694 19.2349 38.1246 18.2973 39.1345 18.2195C40.1431 18.1429 38.5641 17.855 37.6436 17.8674C36.7232 17.8797 36.3089 17.267 36.6955 16.9927C37.0808 16.7184 37.6159 16.6641 38.0856 17.1694C38.5553 17.6746 40.3937 17.6042 40.716 17.288C41.0383 16.9717 41.6075 16.6888 41.6075 16.6888C41.6075 16.6888 40.0474 16.1588 39.7187 15.6931C39.3876 15.2261 38.8109 14.7109 38.1549 15.1174C37.5001 15.5251 36.1755 15.7524 36.1755 15.7524L34.6645 18.5036L35.7373 21.9466L37.247 21.7267Z" fill="#3D4B6F"/>
<path fill-rule="evenodd" clip-rule="evenodd" d="M35.0687 21.6835C34.8622 23.2277 35.3369 25.8665 35.4867 25.8381C35.6378 25.8097 36.149 26.0629 36.8428 25.5836C39.3095 25.4267 38.8184 28.2817 38.8184 28.2817L33.744 27.9642C33.744 27.9642 33.7516 21.8292 34.1961 21.5748C34.6393 21.3203 35.0687 21.6835 35.0687 21.6835Z" fill="#652424"/>
<path fill-rule="evenodd" clip-rule="evenodd" d="M16.525 19.2708C24.5484 21.7947 24.9135 26.6547 26.6235 26.5744C28.3359 26.4954 28.205 27.396 29.036 26.1643C29.8671 24.9326 31.8225 22.7336 31.9459 20.8113C32.0706 18.8878 33.7805 19.6822 33.7969 20.4691C33.8133 21.2561 33.5249 26.53 33.7402 26.9253C33.9556 27.3206 34.2464 27.5183 34.3509 26.1087C34.4567 24.6979 34.395 22.5285 34.7501 22.2357C35.1052 21.9417 37.2936 20.4988 37.6525 18.9484C37.6525 18.9484 37.6802 18.1799 36.3366 17.7957C34.9944 17.4103 39.278 13.5262 39.278 13.5262C39.278 13.5262 45.808 16.1193 47.513 17.7018C47.513 17.7018 47.0005 19.9354 47.766 19.9008C48.5316 19.8638 48.9635 21.8021 47.2599 21.4896C45.5562 21.177 44.2354 20.5161 43.2482 21.707C42.261 22.8979 41.8555 23.9999 41.3141 24.2358C40.7727 24.473 40.0549 24.8671 40.0121 23.334C39.9681 21.7996 39.8585 24.6065 39.3951 24.5669C38.9343 24.5274 39.1559 25.3007 36.3417 25.5219C36.3417 25.5219 38.0264 26.0766 38.1952 27.0315C38.3639 27.9877 38.4583 28.0137 38.4583 28.0137C38.4583 28.0137 41.9953 28.1496 42.0998 27.1514C42.2056 26.1532 42.9976 24.7609 43.3426 24.2927C43.6889 23.8244 45.2528 21.8836 46.8255 22.022C46.8255 22.022 44.0629 23.9282 43.048 26.4447C42.0343 28.9624 51.191 27.8728 51.191 27.8728C51.191 27.8728 56.0312 26.3829 56.4996 24.6435C56.968 22.9041 56.7703 16.2886 55.6459 15.2558C53.9309 13.9734 51.7034 12.7986 49.141 14.58C46.5787 16.359 48.7834 17.0669 45.0387 14.1316C41.2927 11.1963 37.9333 9.9473 37.9333 9.9473C37.9333 9.9473 34.0009 15.7104 33.885 15.1186C33.7692 14.5269 32.6662 11.4693 32.301 13.7857C32.301 13.7857 30.8908 13.3409 31.0771 14.5244C31.266 15.7092 29.1531 13.336 29.1531 13.336C29.1531 13.336 29.4906 16.7284 28.6457 17.1941C28.6457 17.1941 32.2393 16.0897 30.9877 18.0638C29.7374 20.0392 28.2276 20.2381 25.8957 20.4728C23.5624 20.71 21.9822 19.4635 20.7961 19.1781C19.6099 18.8928 18.6076 17.9168 16.5237 19.2696L16.525 19.2708ZM12.5826 27.0995C12.5826 27.0995 11.9769 24.4446 12.6077 23.5848C12.6077 23.5848 13.2021 24.6435 15.524 25.0895C17.8471 25.5342 13.9626 27.8024 13.9626 27.8024C18.5371 26.3545 20.0267 30.204 16.1624 29.3195C12.2993 28.4337 12.5826 27.0995 12.5826 27.0995ZM14.5657 24.032C13.707 22.1443 13.7196 20.4877 16.1901 19.529C16.1901 19.529 16.253 20.2196 16.7819 20.3444C17.3107 20.4716 17.7426 21.8071 18.5094 21.7712C18.5094 21.7712 17.0803 22.0788 17.0148 23.8887C17.0148 23.8887 15.7708 24.1877 14.5657 24.0332V24.032ZM12.3924 19.1028C17.0765 16.9569 16.4784 16.6234 16.4784 16.6234C16.4784 16.6234 12.8545 17.2448 14.7244 15.9229C16.5942 14.601 19.9701 13.9314 20.5745 11.8251C20.5745 11.8251 18.2022 11.0011 10.4168 15.7017C10.4168 15.7017 11.1282 18.3492 12.3924 19.1028Z" fill="#DEDEDE"/>
<path fill-rule="evenodd" clip-rule="evenodd" d="M22.0112 12.9567C21.6397 13.5163 21.3199 13.8931 21.3312 11.6039C21.3438 9.31353 22.5576 9.64832 23.8382 10.7342C25.1188 11.8189 25.8491 11.0616 26.7015 11.5348C27.5527 12.0067 29.2249 12.2908 29.2664 13.7943C29.2664 13.7943 27.7995 14.5553 25.8491 12.9592C25.0583 12.4848 22.4405 12.3044 22.0112 12.9579V12.9567Z" fill="#DEDEDE"/>
<mask id="mask3_2_270" style="mask-type:luminance" maskUnits="userSpaceOnUse" x="17" y="11" width="40" height="16">
<path d="M17.4902 21.2637C25.425 22.5156 26.3488 26.4205 27.9671 26.1868C29.5871 25.9529 29.5712 26.6957 30.2129 25.6162C30.8578 24.5348 32.4574 22.5602 32.3465 20.9878C32.2358 19.4168 33.9561 19.891 34.0666 20.5274C34.1754 21.1641 34.5293 25.4692 34.7799 25.7689C35.0305 26.0686 35.3323 26.1997 35.264 25.0452C35.1974 23.8903 34.8802 22.1387 35.1849 21.8648C35.4864 21.5928 37.3957 20.2065 37.5543 18.9131C37.5543 18.9131 37.4889 18.288 36.1665 18.1088C34.8441 17.9295 38.4561 14.3565 38.4561 14.3565C38.4561 14.3565 44.9776 15.8139 46.7858 16.9278C46.7858 16.9278 46.5667 18.7897 47.29 18.6853C48.0133 18.5808 48.6563 20.1093 46.9979 20.0248C45.3396 19.9403 44.0047 19.5343 43.2079 20.5974C42.411 21.6604 42.1539 22.5948 41.6665 22.8398C41.1792 23.0848 40.5447 23.475 40.3197 22.2356C40.0947 20.9961 40.3267 23.2826 39.8813 23.2961C39.4379 23.3109 39.7401 23.9152 37.089 24.3726C37.089 24.3726 38.7576 24.6557 39.0325 25.4147C39.3071 26.1722 39.3986 26.1829 39.3986 26.1829C39.3986 26.1829 42.7787 25.9457 42.7609 25.1256C42.7429 24.3042 43.3302 23.0982 43.6043 22.6839C43.8771 22.2713 45.1343 20.5431 46.6465 20.498C46.6465 20.498 44.2453 22.3167 43.5798 24.458C42.9142 26.5994 51.497 24.8122 51.497 24.8122C51.497 24.8122 55.9251 23.1249 56.1631 21.6693C56.401 20.2137 55.4289 14.8677 54.2356 14.1412C52.4503 13.2704 50.1935 12.5393 47.9656 14.2359C45.7411 15.9321 47.921 16.2876 44.01 14.2786C40.0969 12.2684 36.7506 11.5886 36.7506 11.5886C36.7506 11.5886 33.6946 16.6488 33.5152 16.1821C33.3355 15.7139 31.9219 13.3428 31.8494 15.2582C31.8494 15.2582 30.4542 15.0371 30.7734 15.9778C31.0909 16.9188 28.8008 15.2042 28.8008 15.2042C28.8008 15.2042 29.5262 17.921 28.7758 18.3817C28.7758 18.3817 32.0646 17.1305 31.1088 18.857C30.1544 20.5817 28.7393 20.892 26.5489 21.3143C24.3581 21.7351 22.7066 20.8808 21.5442 20.768C20.3818 20.6551 19.3111 19.9603 17.4902 21.2637Z" fill="white"/>
</mask>
<g mask="url(#mask3_2_270)">
<g opacity="0.424" filter="url(#filter0_f_2_270)">
<path fill-rule="evenodd" clip-rule="evenodd" d="M23.5763 25.0021C25.9954 20.3652 26.2714 20.5185 27.2925 20.8094C28.3136 21.1003 27.4629 25.6545 26.2851 26.8785C25.1091 28.104 23.5763 25.0021 23.5763 25.0021Z" fill="#A3A3A3"/>
</g>
</g>
<mask id="mask4_2_270" style="mask-type:luminance" maskUnits="userSpaceOnUse" x="17" y="11" width="40" height="16">
<path d="M17.4902 21.2637C25.425 22.5156 26.3488 26.4205 27.9671 26.1868C29.5871 25.9529 29.5712 26.6957 30.2129 25.6162C30.8578 24.5348 32.4574 22.5602 32.3465 20.9878C32.2358 19.4168 33.9561 19.891 34.0666 20.5274C34.1754 21.1641 34.5293 25.4692 34.7799 25.7689C35.0305 26.0686 35.3323 26.1997 35.264 25.0452C35.1974 23.8903 34.8802 22.1387 35.1849 21.8648C35.4864 21.5928 37.3957 20.2065 37.5543 18.9131C37.5543 18.9131 37.4889 18.288 36.1665 18.1088C34.8441 17.9295 38.4561 14.3565 38.4561 14.3565C38.4561 14.3565 44.9776 15.8139 46.7858 16.9278C46.7858 16.9278 46.5667 18.7897 47.29 18.6853C48.0133 18.5808 48.6563 20.1093 46.9979 20.0248C45.3396 19.9403 44.0047 19.5343 43.2079 20.5974C42.411 21.6604 42.1539 22.5948 41.6665 22.8398C41.1792 23.0848 40.5447 23.475 40.3197 22.2356C40.0947 20.9961 40.3267 23.2826 39.8813 23.2961C39.4379 23.3109 39.7401 23.9152 37.089 24.3726C37.089 24.3726 38.7576 24.6557 39.0325 25.4147C39.3071 26.1722 39.3986 26.1829 39.3986 26.1829C39.3986 26.1829 42.7787 25.9457 42.7609 25.1256C42.7429 24.3042 43.3302 23.0982 43.6043 22.6839C43.8771 22.2713 45.1343 20.5431 46.6465 20.498C46.6465 20.498 44.2453 22.3167 43.5798 24.458C42.9142 26.5994 51.497 24.8122 51.497 24.8122C51.497 24.8122 55.9251 23.1249 56.1631 21.6693C56.401 20.2137 55.4289 14.8677 54.2356 14.1412C52.4503 13.2704 50.1935 12.5393 47.9656 14.2359C45.7411 15.9321 47.921 16.2876 44.01 14.2786C40.0969 12.2684 36.7506 11.5886 36.7506 11.5886C36.7506 11.5886 33.6946 16.6488 33.5152 16.1821C33.3355 15.7139 31.9219 13.3428 31.8494 15.2582C31.8494 15.2582 30.4542 15.0371 30.7734 15.9778C31.0909 16.9188 28.8008 15.2042 28.8008 15.2042C28.8008 15.2042 29.5262 17.921 28.7758 18.3817C28.7758 18.3817 32.0646 17.1305 31.1088 18.857C30.1544 20.5817 28.7393 20.892 26.5489 21.3143C24.3581 21.7351 22.7066 20.8808 21.5442 20.768C20.3818 20.6551 19.3111 19.9603 17.4902 21.2637Z" fill="white"/>
</mask>
<g mask="url(#mask4_2_270)">
<g opacity="0.479" filter="url(#filter1_f_2_270)">
<path fill-rule="evenodd" clip-rule="evenodd" d="M27.0733 27.3752C30.6005 19.3685 31.3266 16.1095 31.7528 16.3365C32.1791 16.5634 34.3151 19.0908 33.871 19.9594C33.4252 20.8282 32.6289 21.9941 32.5162 22.0344C32.405 22.0728 30.7548 29.0229 30.7548 29.0229L27.0733 27.3752Z" fill="#838383"/>
</g>
</g>
<mask id="mask5_2_270" style="mask-type:luminance" maskUnits="userSpaceOnUse" x="17" y="11" width="40" height="16">
<path d="M17.4902 21.2637C25.425 22.5156 26.3488 26.4205 27.9671 26.1868C29.5871 25.9529 29.5712 26.6957 30.2129 25.6162C30.8578 24.5348 32.4574 22.5602 32.3465 20.9878C32.2358 19.4168 33.9561 19.891 34.0666 20.5274C34.1754 21.1641 34.5293 25.4692 34.7799 25.7689C35.0305 26.0686 35.3323 26.1997 35.264 25.0452C35.1974 23.8903 34.8802 22.1387 35.1849 21.8648C35.4864 21.5928 37.3957 20.2065 37.5543 18.9131C37.5543 18.9131 37.4889 18.288 36.1665 18.1088C34.8441 17.9295 38.4561 14.3565 38.4561 14.3565C38.4561 14.3565 44.9776 15.8139 46.7858 16.9278C46.7858 16.9278 46.5667 18.7897 47.29 18.6853C48.0133 18.5808 48.6563 20.1093 46.9979 20.0248C45.3396 19.9403 44.0047 19.5343 43.2079 20.5974C42.411 21.6604 42.1539 22.5948 41.6665 22.8398C41.1792 23.0848 40.5447 23.475 40.3197 22.2356C40.0947 20.9961 40.3267 23.2826 39.8813 23.2961C39.4379 23.3109 39.7401 23.9152 37.089 24.3726C37.089 24.3726 38.7576 24.6557 39.0325 25.4147C39.3071 26.1722 39.3986 26.1829 39.3986 26.1829C39.3986 26.1829 42.7787 25.9457 42.7609 25.1256C42.7429 24.3042 43.3302 23.0982 43.6043 22.6839C43.8771 22.2713 45.1343 20.5431 46.6465 20.498C46.6465 20.498 44.2453 22.3167 43.5798 24.458C42.9142 26.5994 51.497 24.8122 51.497 24.8122C51.497 24.8122 55.9251 23.1249 56.1631 21.6693C56.401 20.2137 55.4289 14.8677 54.2356 14.1412C52.4503 13.2704 50.1935 12.5393 47.9656 14.2359C45.7411 15.9321 47.921 16.2876 44.01 14.2786C40.0969 12.2684 36.7506 11.5886 36.7506 11.5886C36.7506 11.5886 33.6946 16.6488 33.5152 16.1821C33.3355 15.7139 31.9219 13.3428 31.8494 15.2582C31.8494 15.2582 30.4542 15.0371 30.7734 15.9778C31.0909 16.9188 28.8008 15.2042 28.8008 15.2042C28.8008 15.2042 29.5262 17.921 28.7758 18.3817C28.7758 18.3817 32.0646 17.1305 31.1088 18.857C30.1544 20.5817 28.7393 20.892 26.5489 21.3143C24.3581 21.7351 22.7066 20.8808 21.5442 20.768C20.3818 20.6551 19.3111 19.9603 17.4902 21.2637Z" fill="white"/>
</mask>
<g mask="url(#mask5_2_270)">
<g opacity="0.708" filter="url(#filter2_f_2_270)">
<path fill-rule="evenodd" clip-rule="evenodd" d="M31.4343 17.4886C32.6386 19.0824 33.3274 20.1938 33.9887 19.6959C34.6481 19.1964 34.078 17.4284 33.123 16.957C32.168 16.4856 31.5764 16.4489 31.4343 17.4886Z" fill="#838383"/>
</g>
</g>
<mask id="mask6_2_270" style="mask-type:luminance" maskUnits="userSpaceOnUse" x="17" y="11" width="40" height="16">
<path d="M17.4902 21.2637C25.425 22.5156 26.3488 26.4205 27.9671 26.1868C29.5871 25.9529 29.5712 26.6957 30.2129 25.6162C30.8578 24.5348 32.4574 22.5602 32.3465 20.9878C32.2358 19.4168 33.9561 19.891 34.0666 20.5274C34.1754 21.1641 34.5293 25.4692 34.7799 25.7689C35.0305 26.0686 35.3323 26.1997 35.264 25.0452C35.1974 23.8903 34.8802 22.1387 35.1849 21.8648C35.4864 21.5928 37.3957 20.2065 37.5543 18.9131C37.5543 18.9131 37.4889 18.288 36.1665 18.1088C34.8441 17.9295 38.4561 14.3565 38.4561 14.3565C38.4561 14.3565 44.9776 15.8139 46.7858 16.9278C46.7858 16.9278 46.5667 18.7897 47.29 18.6853C48.0133 18.5808 48.6563 20.1093 46.9979 20.0248C45.3396 19.9403 44.0047 19.5343 43.2079 20.5974C42.411 21.6604 42.1539 22.5948 41.6665 22.8398C41.1792 23.0848 40.5447 23.475 40.3197 22.2356C40.0947 20.9961 40.3267 23.2826 39.8813 23.2961C39.4379 23.3109 39.7401 23.9152 37.089 24.3726C37.089 24.3726 38.7576 24.6557 39.0325 25.4147C39.3071 26.1722 39.3986 26.1829 39.3986 26.1829C39.3986 26.1829 42.7787 25.9457 42.7609 25.1256C42.7429 24.3042 43.3302 23.0982 43.6043 22.6839C43.8771 22.2713 45.1343 20.5431 46.6465 20.498C46.6465 20.498 44.2453 22.3167 43.5798 24.458C42.9142 26.5994 51.497 24.8122 51.497 24.8122C51.497 24.8122 55.9251 23.1249 56.1631 21.6693C56.401 20.2137 55.4289 14.8677 54.2356 14.1412C52.4503 13.2704 50.1935 12.5393 47.9656 14.2359C45.7411 15.9321 47.921 16.2876 44.01 14.2786C40.0969 12.2684 36.7506 11.5886 36.7506 11.5886C36.7506 11.5886 33.6946 16.6488 33.5152 16.1821C33.3355 15.7139 31.9219 13.3428 31.8494 15.2582C31.8494 15.2582 30.4542 15.0371 30.7734 15.9778C31.0909 16.9188 28.8008 15.2042 28.8008 15.2042C28.8008 15.2042 29.5262 17.921 28.7758 18.3817C28.7758 18.3817 32.0646 17.1305 31.1088 18.857C30.1544 20.5817 28.7393 20.892 26.5489 21.3143C24.3581 21.7351 22.7066 20.8808 21.5442 20.768C20.3818 20.6551 19.3111 19.9603 17.4902 21.2637Z" fill="white"/>
</mask>
<g mask="url(#mask6_2_270)">
<g opacity="0.648" filter="url(#filter3_f_2_270)">
<path fill-rule="evenodd" clip-rule="evenodd" d="M36.503 28.7441C36.0691 24.8529 36.5972 23.4331 39.9707 20.8774C43.3425 18.3234 42.3895 21.8126 42.9494 22.0847C43.5093 22.3569 44.9673 23.9683 45.5452 23.3022C46.1248 22.6359 47.4519 21.5274 48.0006 21.6621C48.5473 21.7952 53.4473 25.8917 53.4473 25.8917L41.4164 28.014L36.6107 28.7537L36.503 28.7441Z" fill="#838383"/>
</g>
</g>
<mask id="mask7_2_270" style="mask-type:luminance" maskUnits="userSpaceOnUse" x="17" y="11" width="40" height="16">
<path d="M17.4902 21.2637C25.425 22.5156 26.3488 26.4205 27.9671 26.1868C29.5871 25.9529 29.5712 26.6957 30.2129 25.6162C30.8578 24.5348 32.4574 22.5602 32.3465 20.9878C32.2358 19.4168 33.9561 19.891 34.0666 20.5274C34.1754 21.1641 34.5293 25.4692 34.7799 25.7689C35.0305 26.0686 35.3323 26.1997 35.264 25.0452C35.1974 23.8903 34.8802 22.1387 35.1849 21.8648C35.4864 21.5928 37.3957 20.2065 37.5543 18.9131C37.5543 18.9131 37.4889 18.288 36.1665 18.1088C34.8441 17.9295 38.4561 14.3565 38.4561 14.3565C38.4561 14.3565 44.9776 15.8139 46.7858 16.9278C46.7858 16.9278 46.5667 18.7897 47.29 18.6853C48.0133 18.5808 48.6563 20.1093 46.9979 20.0248C45.3396 19.9403 44.0047 19.5343 43.2079 20.5974C42.411 21.6604 42.1539 22.5948 41.6665 22.8398C41.1792 23.0848 40.5447 23.475 40.3197 22.2356C40.0947 20.9961 40.3267 23.2826 39.8813 23.2961C39.4379 23.3109 39.7401 23.9152 37.089 24.3726C37.089 24.3726 38.7576 24.6557 39.0325 25.4147C39.3071 26.1722 39.3986 26.1829 39.3986 26.1829C39.3986 26.1829 42.7787 25.9457 42.7609 25.1256C42.7429 24.3042 43.3302 23.0982 43.6043 22.6839C43.8771 22.2713 45.1343 20.5431 46.6465 20.498C46.6465 20.498 44.2453 22.3167 43.5798 24.458C42.9142 26.5994 51.497 24.8122 51.497 24.8122C51.497 24.8122 55.9251 23.1249 56.1631 21.6693C56.401 20.2137 55.4289 14.8677 54.2356 14.1412C52.4503 13.2704 50.1935 12.5393 47.9656 14.2359C45.7411 15.9321 47.921 16.2876 44.01 14.2786C40.0969 12.2684 36.7506 11.5886 36.7506 11.5886C36.7506 11.5886 33.6946 16.6488 33.5152 16.1821C33.3355 15.7139 31.9219 13.3428 31.8494 15.2582C31.8494 15.2582 30.4542 15.0371 30.7734 15.9778C31.0909 16.9188 28.8008 15.2042 28.8008 15.2042C28.8008 15.2042 29.5262 17.921 28.7758 18.3817C28.7758 18.3817 32.0646 17.1305 31.1088 18.857C30.1544 20.5817 28.7393 20.892 26.5489 21.3143C24.3581 21.7351 22.7066 20.8808 21.5442 20.768C20.3818 20.6551 19.3111 19.9603 17.4902 21.2637Z" fill="white"/>
</mask>
<g mask="url(#mask7_2_270)">
<g opacity="0.758" filter="url(#filter4_f_2_270)">
<path fill-rule="evenodd" clip-rule="evenodd" d="M48.1115 22.3761C48.9012 21.3791 48.5957 21.2631 49.68 21.64C50.7643 22.0168 51.495 23.8072 52.2301 23.8244C52.9673 23.8431 55.2791 22.9804 55.6027 22.1499C55.9242 21.3162 54.8201 18.2025 54.9631 17.9214C55.1045 17.6422 57.4047 15.257 58.7154 16.747C60.0278 18.2369 62.9653 27.6355 59.4908 28.6426C56.0161 29.6479 50.01 22.024 48.1115 22.3761Z" fill="#373737"/>
</g>
</g>
<mask id="mask8_2_270" style="mask-type:luminance" maskUnits="userSpaceOnUse" x="17" y="11" width="40" height="16">
<path d="M17.4908 21.2488C25.4245 22.5013 26.3498 26.4061 27.9684 26.1724C29.587 25.9387 29.5703 26.6817 30.2139 25.6013C30.8575 24.5209 32.4569 22.5442 32.3468 20.973C32.2361 19.402 33.9575 19.8767 34.0669 20.513C34.1759 21.1498 34.5292 25.4546 34.7797 25.753C35.0301 26.0514 35.3319 26.1848 35.265 25.0308C35.1976 23.8765 34.8812 22.1239 35.184 21.8511C35.4867 21.5779 37.3967 20.191 37.5543 18.8988C37.5543 18.8988 37.4892 18.2735 36.166 18.094C34.8428 17.9149 38.4569 14.3427 38.4569 14.3427C38.4569 14.3427 44.9772 15.7993 46.7869 16.9133C46.7869 16.9133 46.5659 18.776 47.2905 18.6714C48.0152 18.5667 48.6556 20.0949 46.9975 20.0104C45.3397 19.9254 44.0038 19.5199 43.2072 20.5825C42.4107 21.6451 42.154 22.5799 41.6674 22.8248C41.1807 23.0696 40.5445 23.4609 40.3207 22.2213C40.0969 20.9818 40.3259 23.2677 39.8814 23.2821C39.437 23.2965 39.7397 23.9009 37.0891 24.3583C37.0891 24.3583 38.7576 24.6411 39.0319 25.3998C39.3065 26.158 39.3982 26.1697 39.3982 26.1697C39.3982 26.1697 42.7794 25.9307 42.7609 25.1106C42.7425 24.2906 43.3308 23.0831 43.6044 22.6695C43.8774 22.256 45.1347 20.5286 46.6471 20.4848C46.6471 20.4848 44.2451 22.3029 43.5794 24.4438C42.9136 26.5848 51.4964 24.797 51.4964 24.797C51.4964 24.797 55.9243 23.1106 56.1632 21.6546C56.4021 20.1985 55.4283 14.8532 54.2357 14.1276C52.4512 13.2568 50.1919 12.5248 47.966 14.2219C45.74 15.9186 47.9217 16.2735 44.0092 14.2639C40.0972 12.2542 36.7519 11.5736 36.7519 11.5736C36.7519 11.5736 33.6955 16.6346 33.5148 16.1669C33.335 15.6991 31.9223 13.3286 31.85 15.2437C31.85 15.2437 30.4548 15.0217 30.7735 15.9631C31.0927 16.9045 28.8016 15.1901 28.8016 15.1901C28.8016 15.1901 29.5259 17.9064 28.7768 18.3673C28.7768 18.3673 32.0645 17.1169 31.1095 18.8418C30.1546 20.5667 28.7415 20.8766 26.5501 21.2985C24.3582 21.7208 22.7069 20.8659 21.5449 20.7516C20.3829 20.6374 19.3125 19.9455 17.4908 21.2488Z" fill="white"/>
</mask>
<g mask="url(#mask8_2_270)">
<g opacity="0.585" filter="url(#filter5_f_2_270)">
<path fill-rule="evenodd" clip-rule="evenodd" d="M52.6261 13.1157C52.6261 13.1157 49.7251 13.9834 49.5933 16.44C49.461 18.8962 49.9569 19.3948 49.9569 19.3948C50.4601 20.2057 51.7108 21.5762 52.4181 21.4496C53.126 21.3229 54.3891 20.979 54.5823 20.1468C54.7755 19.3151 54.6724 17.2133 53.6787 16.8852C52.684 16.5572 52.2358 16.3679 53.2599 16.338C54.2841 16.3082 54.851 16.4456 54.435 15.9193C54.0186 15.393 52.6261 13.1157 52.6261 13.1157ZM52.341 18.9711C53.1964 18.8639 53.3996 19.8563 52.3957 20.2606C51.6271 20.1625 51.1594 19.2861 52.1616 19.0074C52.2204 18.991 52.2804 18.9788 52.341 18.9711Z" fill="#A8A8A8"/>
</g>
</g>
<mask id="mask9_2_270" style="mask-type:luminance" maskUnits="userSpaceOnUse" x="17" y="11" width="40" height="16">
<path d="M17.4902 21.2637C25.425 22.5156 26.3488 26.4205 27.9671 26.1868C29.5871 25.9529 29.5712 26.6957 30.2129 25.6162C30.8578 24.5348 32.4574 22.5602 32.3465 20.9878C32.2358 19.4168 33.9561 19.891 34.0666 20.5274C34.1754 21.1641 34.5293 25.4692 34.7799 25.7689C35.0305 26.0686 35.3323 26.1997 35.264 25.0452C35.1974 23.8903 34.8802 22.1387 35.1849 21.8648C35.4864 21.5928 37.3957 20.2065 37.5543 18.9131C37.5543 18.9131 37.4889 18.288 36.1665 18.1088C34.8441 17.9295 38.4561 14.3565 38.4561 14.3565C38.4561 14.3565 44.9776 15.8139 46.7858 16.9278C46.7858 16.9278 46.5667 18.7897 47.29 18.6853C48.0133 18.5808 48.6563 20.1093 46.9979 20.0248C45.3396 19.9403 44.0047 19.5343 43.2079 20.5974C42.411 21.6604 42.1539 22.5948 41.6665 22.8398C41.1792 23.0848 40.5447 23.475 40.3197 22.2356C40.0947 20.9961 40.3267 23.2826 39.8813 23.2961C39.4379 23.3109 39.7401 23.9152 37.089 24.3726C37.089 24.3726 38.7576 24.6557 39.0325 25.4147C39.3071 26.1722 39.3986 26.1829 39.3986 26.1829C39.3986 26.1829 42.7787 25.9457 42.7609 25.1256C42.7429 24.3042 43.3302 23.0982 43.6043 22.6839C43.8771 22.2713 45.1343 20.5431 46.6465 20.498C46.6465 20.498 44.2453 22.3167 43.5798 24.458C42.9142 26.5994 51.497 24.8122 51.497 24.8122C51.497 24.8122 55.9251 23.1249 56.1631 21.6693C56.401 20.2137 55.4289 14.8677 54.2356 14.1412C52.4503 13.2704 50.1935 12.5393 47.9656 14.2359C45.7411 15.9321 47.921 16.2876 44.01 14.2786C40.0969 12.2684 36.7506 11.5886 36.7506 11.5886C36.7506 11.5886 33.6946 16.6488 33.5152 16.1821C33.3355 15.7139 31.9219 13.3428 31.8494 15.2582C31.8494 15.2582 30.4542 15.0371 30.7734 15.9778C31.0909 16.9188 28.8008 15.2042 28.8008 15.2042C28.8008 15.2042 29.5262 17.921 28.7758 18.3817C28.7758 18.3817 32.0646 17.1305 31.1088 18.857C30.1544 20.5817 28.7393 20.892 26.5489 21.3143C24.3581 21.7351 22.7066 20.8808 21.5442 20.768C20.3818 20.6551 19.3111 19.9603 17.4902 21.2637Z" fill="white"/>
</mask>
<g mask="url(#mask9_2_270)">
<g opacity="0.47" filter="url(#filter6_f_2_270)">
<path fill-rule="evenodd" clip-rule="evenodd" d="M53.1064 18.1609C49.9505 18.0895 49.7993 16.6717 50.8329 15.9701C51.8665 15.2685 52.9457 14.8274 53.8567 15.5242C54.766 16.2211 55.2424 16.3422 54.3037 16.4842C53.3668 16.6278 53.1748 16.6031 53.153 16.1556C53.133 15.708 52.3951 15.5077 51.6895 16.0996C50.9839 16.6915 51.0617 17.2982 52.2405 17.2563C53.4212 17.2142 54.1467 17.7439 54.1042 18.4423C54.0616 19.1408 53.1064 18.1609 53.1064 18.1609Z" fill="#676767"/>
</g>
</g>
<mask id="mask10_2_270" style="mask-type:luminance" maskUnits="userSpaceOnUse" x="7" y="12" width="22" height="15">
<path d="M13.6359 25.0685C11.4626 24.3185 8.57884 22.7485 7.99587 19.7508C7.6459 17.9512 8.75306 16.9079 8.75306 16.9079C8.83763 17.8686 8.10101 19.8637 9.71317 20.6866C10.1428 21.105 10.546 21.0754 11.6694 20.8548C12.794 20.6324 12.6157 20.9806 12.6157 20.9806C12.6157 20.9806 12.6702 19.7909 12.8908 19.4548C13.1127 19.1168 13.8313 16.6009 13.8313 16.6009C13.8313 16.6009 18.9011 13.0877 19.2641 12.86C19.6304 12.6317 21.1933 12.1502 21.1933 12.1502C21.1933 12.1502 27.2431 13.052 27.5715 13.2616C27.898 13.47 28.5841 15.1002 28.5841 15.1002L28.3598 17.743L23.5305 20.3725L27.1775 25.136L21.6123 26.4053C21.6123 26.4053 15.3741 26.9579 13.6359 25.0685Z" fill="white"/>
</mask>
<g mask="url(#mask10_2_270)">
<path fill-rule="evenodd" clip-rule="evenodd" d="M8.21124 21.8256C7.38743 16.3243 8.88613 15.0058 8.88613 15.0058L8.11973 14.7499C8.11973 14.7499 3.82841 20.8177 8.21124 21.8256Z" fill="#DEDEDE"/>
</g>
<path fill-rule="evenodd" clip-rule="evenodd" d="M41.2121 23.4167L42.5229 23.2351C42.5229 23.2351 45.6884 21.4006 46.2916 21.177C46.8947 20.9546 47.484 20.1269 47.4852 19.5092C47.4852 18.8927 46.3797 17.619 46.3797 17.619C46.3797 17.619 46.5535 19.2979 46.1128 19.6945C45.6721 20.0923 45.2691 20.6828 43.6096 19.0435C41.9487 17.4041 41.2121 23.4167 41.2121 23.4167Z" fill="#773520"/>
<path opacity="0.5" d="M17.0243 26.8524H46.9757C52.5416 26.8524 57.0537 22.3289 57.0537 16.7488V16.7263C57.0537 11.1463 52.5416 6.62275 46.9757 6.62275H17.0243C11.4584 6.62275 6.94629 11.1463 6.94629 16.7263V16.7488C6.94629 22.3289 11.4584 26.8524 17.0243 26.8524Z" fill="url(#paint6_linear_2_270)"/>
<path d="M17.001 3.85083C9.79788 3.85083 3.99902 9.59698 3.99902 16.7336V16.7629C3.99902 23.8996 9.79788 29.6438 17.001 29.6438H46.999C54.2021 29.6438 60.001 23.8996 60.001 16.7629V16.7336C60.001 9.59698 54.2021 3.85083 46.999 3.85083H17.001ZM17.0244 6.802H46.9756C52.5586 6.802 57.0518 11.2338 57.0518 16.7375V16.759C57.0518 22.2628 52.5586 26.6946 46.9756 26.6946H17.0244C11.4415 26.6946 6.94629 22.2628 6.94629 16.759V16.7375C6.94629 11.2338 11.4415 6.802 17.0244 6.802Z" fill="url(#paint7_linear_2_270)"/>
<path fill-rule="evenodd" clip-rule="evenodd" d="M36.9014 45.2051L42.0967 42.2051L43.5967 44.8047C44.1318 45.7324 44.1318 46.875 43.5967 47.8047L42.0967 50.4023L40.999 52.3027L37.5342 46.3047L36.9014 45.2051Z" fill="url(#paint8_linear_2_270)"/>
<path fill-rule="evenodd" clip-rule="evenodd" d="M28.999 48.5V54.5H25.999C24.9268 54.5 23.9365 53.9277 23.4014 53L21.9014 50.4023L20.8037 48.5H28.999Z" fill="url(#paint9_linear_2_270)"/>
<path fill-rule="evenodd" clip-rule="evenodd" d="M30.0967 40.5977L24.9014 37.5977L26.4014 35C26.9365 34.0723 27.9268 33.5 28.999 33.5H34.1943L30.7314 39.5L30.0967 40.5977Z" fill="url(#paint10_linear_2_270)"/>
<path fill-rule="evenodd" clip-rule="evenodd" d="M31.999 33.5L29.8037 33.502L33.2666 39.5L33.9014 40.5977L32.1689 41.5977L38.499 42.5625L40.8291 36.5977L39.0967 37.5977L37.5967 35C37.0615 34.0723 36.0713 33.5 34.999 33.5H31.999Z" fill="white"/>
<path fill-rule="evenodd" clip-rule="evenodd" d="M34.999 46.5L30.999 51.5L34.999 56.5V54.5H37.999C39.0713 54.5 40.0615 53.9277 40.5967 53L42.0967 50.4023L43.1943 48.5H34.999V46.5Z" fill="white"/>
<path fill-rule="evenodd" clip-rule="evenodd" d="M26.499 40.2422L20.1689 41.2051L21.9014 42.2051L20.4014 44.8027C19.8662 45.7324 19.8662 46.875 20.4014 47.8027L21.8994 50.4023L22.999 52.3027L26.4619 46.3027L27.0967 45.2051L28.8291 46.2051L26.499 40.2422Z" fill="white"/>
<defs>
<filter id="filter0_f_2_270" x="22.9072" y="20.0178" width="5.51048" height="7.8164" filterUnits="userSpaceOnUse" color-interpolation-filters="sRGB">
<feFlood flood-opacity="0" result="BackgroundImageFix"/>
<feBlend mode="normal" in="SourceGraphic" in2="BackgroundImageFix" result="shape"/>
<feGaussianBlur stdDeviation="0.334571" result="effect1_foregroundBlur_2_270"/>
</filter>
<filter id="filter1_f_2_270" x="26.7205" y="15.9727" width="7.56366" height="13.403" filterUnits="userSpaceOnUse" color-interpolation-filters="sRGB">
<feFlood flood-opacity="0" result="BackgroundImageFix"/>
<feBlend mode="normal" in="SourceGraphic" in2="BackgroundImageFix" result="shape"/>
<feGaussianBlur stdDeviation="0.176377" result="effect1_foregroundBlur_2_270"/>
</filter>
<filter id="filter2_f_2_270" x="30.9324" y="16.1387" width="3.84244" height="4.17913" filterUnits="userSpaceOnUse" color-interpolation-filters="sRGB">
<feFlood flood-opacity="0" result="BackgroundImageFix"/>
<feBlend mode="normal" in="SourceGraphic" in2="BackgroundImageFix" result="shape"/>
<feGaussianBlur stdDeviation="0.250928" result="effect1_foregroundBlur_2_270"/>
</filter>
<filter id="filter3_f_2_270" x="35.7545" y="19.3296" width="18.311" height="10.0423" filterUnits="userSpaceOnUse" color-interpolation-filters="sRGB">
<feFlood flood-opacity="0" result="BackgroundImageFix"/>
<feBlend mode="normal" in="SourceGraphic" in2="BackgroundImageFix" result="shape"/>
<feGaussianBlur stdDeviation="0.309115" result="effect1_foregroundBlur_2_270"/>
</filter>
<filter id="filter4_f_2_270" x="47.2787" y="15.4282" width="14.6815" height="14.1386" filterUnits="userSpaceOnUse" color-interpolation-filters="sRGB">
<feFlood flood-opacity="0" result="BackgroundImageFix"/>
<feBlend mode="normal" in="SourceGraphic" in2="BackgroundImageFix" result="shape"/>
<feGaussianBlur stdDeviation="0.416396" result="effect1_foregroundBlur_2_270"/>
</filter>
<filter id="filter5_f_2_270" x="49.337" y="12.8819" width="5.55925" height="8.80965" filterUnits="userSpaceOnUse" color-interpolation-filters="sRGB">
<feFlood flood-opacity="0" result="BackgroundImageFix"/>
<feBlend mode="normal" in="SourceGraphic" in2="BackgroundImageFix" result="shape"/>
<feGaussianBlur stdDeviation="0.116903" result="effect1_foregroundBlur_2_270"/>
</filter>
<filter id="filter6_f_2_270" x="49.7954" y="14.7075" width="5.48479" height="4.45146" filterUnits="userSpaceOnUse" color-interpolation-filters="sRGB">
<feFlood flood-opacity="0" result="BackgroundImageFix"/>
<feBlend mode="normal" in="SourceGraphic" in2="BackgroundImageFix" result="shape"/>
<feGaussianBlur stdDeviation="0.232745" result="effect1_foregroundBlur_2_270"/>
</filter>
<linearGradient id="paint0_linear_2_270" x1="60" y1="31.8528" x2="3.99801" y2="31.8528" gradientUnits="userSpaceOnUse">
<stop stop-color="#26A269"/>
<stop offset="0.09" stop-color="#42D390" stop-opacity="0.98"/>
<stop offset="0.232814" stop-color="#2EC27F"/>
<stop offset="0.767529" stop-color="#2EC27F"/>
<stop offset="0.91" stop-color="#42D390" stop-opacity="0.98"/>
<stop offset="1" stop-color="#26A269"/>
</linearGradient>
<linearGradient id="paint1_linear_2_270" x1="27.7951" y1="25.3991" x2="34.3921" y2="25.0798" gradientUnits="userSpaceOnUse">
<stop stop-color="#99662E"/>
<stop offset="1" stop-color="#B67937"/>
</linearGradient>
<linearGradient id="paint2_linear_2_270" x1="29.1764" y1="17.6354" x2="35.7915" y2="21.6726" gradientUnits="userSpaceOnUse">
<stop stop-color="#77D743"/>
<stop offset="1" stop-color="#254A12"/>
</linearGradient>
<linearGradient id="paint3_linear_2_270" x1="25.2512" y1="19.3149" x2="25.2525" y2="21.3162" gradientUnits="userSpaceOnUse">
<stop stop-color="#3CD0F2"/>
<stop offset="1" stop-color="#0EACD0"/>
</linearGradient>
<linearGradient id="paint4_linear_2_270" x1="29.5176" y1="22.2175" x2="34.2425" y2="21.9889" gradientUnits="userSpaceOnUse">
<stop stop-color="#872C1F"/>
<stop offset="1" stop-color="#BF3F2D"/>
</linearGradient>
<linearGradient id="paint5_linear_2_270" x1="37.0492" y1="24.4271" x2="39.3416" y2="21.8403" gradientUnits="userSpaceOnUse">
<stop stop-color="#3C4533"/>
<stop offset="0.324" stop-color="#3C4533"/>
<stop offset="0.576" stop-color="#414A37"/>
<stop offset="0.805" stop-color="#3C4533"/>
<stop offset="1" stop-color="#3C4533"/>
</linearGradient>
<linearGradient id="paint6_linear_2_270" x1="29.6954" y1="26.8524" x2="29.6954" y2="15.757" gradientUnits="userSpaceOnUse">
<stop/>
<stop offset="1" stop-opacity="0"/>
</linearGradient>
<linearGradient id="paint7_linear_2_270" x1="17.001" y1="3.85083" x2="17.001" y2="29.6438" gradientUnits="userSpaceOnUse">
<stop stop-color="#D4D1C5"/>
<stop offset="1" stop-color="#E8E7E3"/>
</linearGradient>
<linearGradient id="paint8_linear_2_270" x1="40.2134" y1="49.8797" x2="40.2488" y2="46.1922" gradientUnits="userSpaceOnUse">
<stop stop-color="#DEDDDA"/>
<stop offset="1" stop-color="white"/>
</linearGradient>
<linearGradient id="paint9_linear_2_270" x1="22.8035" y1="49.2499" x2="26.5613" y2="51.4999" gradientUnits="userSpaceOnUse">
<stop stop-color="#DEDDDA"/>
<stop offset="1" stop-color="white"/>
</linearGradient>
<linearGradient id="paint10_linear_2_270" x1="32.1862" y1="34.5" x2="28.9652" y2="35.8889" gradientUnits="userSpaceOnUse">
<stop stop-color="#DEDDDA"/>
<stop offset="1" stop-color="white"/>
</linearGradient>
</defs>
</svg>
